<?xml version="1.0" encoding="utf-8"?>
<!-- Generator: Adobe Illustrator 28.1.0, SVG Export Plug-In . SVG Version: 6.00 Build 0)  -->
<svg version="1.1" id="Capa_1" xmlns="http://www.w3.org/2000/svg" xmlns:xlink="http://www.w3.org/1999/xlink" x="0px" y="0px"
	 viewBox="0 0 2560 1440" style="enable-background:new 0 0 2560 1440;" xml:space="preserve">
<style type="text/css">
	.st0{display:none;}
	.st1{display:inline;fill:#6A6E6F;}
	.st2{display:inline;fill:#585B5C;}
	.st3{display:inline;fill:#8EB9D4;}
	.st4{display:inline;fill:#B8BAB6;}
	.st5{display:inline;fill:#679ACB;}
	.st6{display:inline;fill:#7796B3;}
	.st7{display:inline;fill:#828685;}
	.st8{display:inline;fill:#A0A3A0;}
	.st9{display:inline;fill:#90B0C1;}
	.st10{display:inline;fill:#C0C3C0;}
	.st11{display:inline;fill:#BADDE4;}
	.st12{display:inline;fill:#CED2CF;}
	.st13{display:inline;fill:#ACAEAB;}
	.st14{display:inline;fill:#EFF3F0;}
	.st15{display:inline;fill:#DADCD9;}
	.st16{display:inline;fill:#DAE777;}
	.st17{display:inline;fill:#607080;}
	.st18{display:inline;fill:#25425E;}
	.st19{display:inline;fill:#8D908F;}
	.st20{display:inline;fill:#3C4855;}
	.st21{display:inline;fill:#36393B;}
	.st22{display:inline;fill:#737777;}
	.st23{display:inline;fill:#4D5252;}
	.st24{display:inline;fill:#606364;}
	.st25{display:inline;fill:#434545;}
	.st26{display:inline;fill:#8D999A;}
	.st27{display:inline;fill:#FFFFFF;}
	.st28{fill:#46B4F2;}
	.st29{display:none;fill:#46B4F2;}
</style>
<g id="Capa_1_00000150810040095975626800000005062067131460871067_" class="st0">
	<path class="st1" d="M2561,364l-5-364L2561,364"/>
	<path class="st2" d="M0,1435l310,4L0,1435z M2243,1439h309H2243 M1925,1439h284H1925 M544,1439h226H544z M824,1439h218H824z"/>
	<path class="st1" d="M2561,1431v-205V1431"/>
	<path class="st2" d="M351,1439h151H351z"/>
	<path class="st3" d="M0,481l11,12L0,481z"/>
	<path class="st4" d="M531,0l-5,8l-7-8H531"/>
	<path class="st5" d="M0,485l11,8l-11,5V485z"/>
	<path class="st6" d="M782,1439l8-7l1,7H782"/>
	<path class="st7" d="M1556,0h-8H1556z"/>
	<path class="st5" d="M1901,143l9,15l-10,9l-10-9L1901,143"/>
	<path class="st2" d="M655,653l-15,9l-7-10l11-9L655,653"/>
	<path class="st8" d="M1381,1219l-19,5l-2-4l13-10L1381,1219"/>
	<path class="st6" d="M85,913l-8-9l6-9l9,8L85,913 M692,540l-9-8l5-8L692,540"/>
	<path class="st9" d="M1068,292l-11,12l5-18L1068,292 M828,1404l-9,6l-6-6l6-6L828,1404 M264,172l10-16l4,4l-11,18L264,172"/>
	<path class="st5" d="M1897,455l-8-15l7-5L1897,455"/>
	<path class="st9" d="M777,771l-6-9l6-6l6,6L777,771"/>
	<path class="st6" d="M506,481l10-13l6,9l-12,8L506,481"/>
	<path class="st10" d="M907,962l1-15L907,962z"/>
	<path class="st3" d="M1602,1291l-7,3l-5-7L1602,1291"/>
	<path class="st10" d="M466,1407l-7-8l5-7l7,6L466,1407"/>
	<path class="st11" d="M892,709l3-19l7,7L892,709"/>
	<path class="st12" d="M828,925l1,21L828,925z"/>
	<path class="st13" d="M2044,220l-6,6l-7-4l6-10L2044,220"/>
	<path class="st10" d="M922,764l-9,5l-5-6l6-6L922,764 M877,921l5,8l-7,5l-4-4L877,921"/>
	<path class="st6" d="M1701,1050l3,8l-5,4l-4-5L1701,1050"/>
	<path class="st14" d="M1990,298l-9,7l4-15L1990,298"/>
	<path class="st4" d="M2433,990l-7,4l-4-6l6-4L2433,990"/>
	<path class="st15" d="M456,336l2,11l-9-11H456"/>
	<path class="st10" d="M2431,918l8-6l4,4l-4,8L2431,918"/>
	<path class="st16" d="M1610,1422l-5-7l5-4V1422"/>
	<path class="st12" d="M564,614h-15l7-6L564,614"/>
	<path class="st16" d="M668,461l-4-4l4-5l4,5L668,461"/>
	<path class="st3" d="M59,320l-1-15L59,320z"/>
	<path class="st5" d="M717,77l-14-1l5-5L717,77"/>
	<path class="st14" d="M815,131l-11-2l4-4L815,131"/>
	<path class="st17" d="M661,782l8,11l-15-7L661,782"/>
	<path class="st18" d="M193,112l-6,3l-4-3l5-5L193,112"/>
	<path class="st9" d="M550,32l-8,6l-5-6H550"/>
	<path class="st10" d="M259,964l1,13l-6-5L259,964"/>
	<path class="st4" d="M793,1375l-4,4l-6-3L793,1375"/>
	<path class="st14" d="M513,399l2,15L513,399z"/>
	<path class="st12" d="M681,1351l5,9l-6,4L681,1351"/>
	<path class="st4" d="M1820,1054l-8,2l-2-6l5-3L1820,1054"/>
	<path class="st13" d="M1331,1210l3,5l-6,7L1331,1210"/>
	<path class="st9" d="M1053,399l5,11l-4,4L1053,399 M1395,1210l-5,3l-4-5L1395,1210"/>
	<path class="st10" d="M1395,1152l-4,3l-4-5l4-2L1395,1152"/>
	<path class="st6" d="M2269,466h-11l4-4L2269,466"/>
	<path class="st12" d="M806,889l14,4L806,889z"/>
	<path class="st15" d="M1451,225l-8,5l-3-4l4-6L1451,225"/>
	<path class="st6" d="M1905,959l-4,4l-5-4H1905"/>
	<path class="st19" d="M2017,511h-19H2017z"/>
	<path class="st9" d="M540,892l-2-13l6,4L540,892"/>
	<path class="st6" d="M666,744l4,4l-3,5L666,744"/>
	<path class="st3" d="M2353,1380l-7,5l-3-4l5-5L2353,1380"/>
	<path class="st10" d="M2224,155l4-4l4,4l-3,4L2224,155"/>
	<path class="st5" d="M492,770l10,7l-8,5L492,770"/>
	<path class="st12" d="M1277,498l-7,1l-2-6L1277,498"/>
	<path class="st20" d="M598,1195l-4,4l-5-4H598"/>
	<path class="st9" d="M698,827l-15,3L698,827z"/>
	<path class="st20" d="M896,486l-11-4l3-4L896,486"/>
	<path class="st17" d="M1436,1053l-5,3l-4-4l5-3L1436,1053"/>
	<path class="st8" d="M556,667l4,5l-6,4L556,667"/>
	<path class="st3" d="M1629,27l-4,5l-5-5H1629"/>
	<path class="st13" d="M896,486l8,6l-2,3L896,486"/>
	<path class="st17" d="M1970,1097l-3-5l4-3l3,4L1970,1097"/>
	<path class="st12" d="M1512,314l-5,2l2-9L1512,314"/>
	<path class="st1" d="M697,1362l-5-7l4-3l5,5L697,1362"/>
	<path class="st15" d="M794,322l-5,4l-3-6L794,322"/>
	<path class="st10" d="M372,1216l4,4l-3,4l-4-3L372,1216"/>
	<path class="st20" d="M1783,1025l-5,2l-2-3l4-4L1783,1025"/>
	<path class="st10" d="M1543,851l-3-6l4-4l3,3L1543,851"/>
	<path class="st12" d="M322,1337l-5,5l-4-5H322"/>
	<path class="st21" d="M672,324l-9-3L672,324z"/>
	<path class="st20" d="M2030,711l3,6l-4,3L2030,711"/>
	<path class="st4" d="M1904,1427l-4-4l4-6l4,3L1904,1427"/>
	<path class="st20" d="M353,432l3-7L353,432z"/>
	<path class="st8" d="M1799,886l-8,4l-4-5L1799,886"/>
	<path class="st4" d="M1060,1264l-8,3l2-5L1060,1264"/>
	<path class="st10" d="M2436,1263l3,4l-4,4l-3-4L2436,1263"/>
	<path class="st22" d="M436,18l-1,11l-3-2L436,18"/>
	<path class="st21" d="M350,1296l-2,3l-3-1l1-3L350,1296"/>
	<path class="st7" d="M550,1330l4,4l-1,3l-4-1L550,1330"/>
	<path class="st23" d="M1727,42l-3,2l-3-4l4-1L1727,42"/>
	<path class="st1" d="M976,47l-5,2l-2-2l3-4L976,47"/>
	<path class="st22" d="M2433,1348l2-4l3,7L2433,1348"/>
	<path class="st15" d="M579,63l-5-3l4-6L579,63"/>
	<path class="st12" d="M938,62l4,3l-2,5L938,62"/>
	<path class="st16" d="M1290,67l4,3l-2,4L1290,67"/>
	<path class="st14" d="M1941,1358l-3-4h7L1941,1358"/>
	<path class="st21" d="M253,1380l-1,3l-3-2l1-3L253,1380"/>
	<path class="st1" d="M2133,1380l-2,4l-4-3l1-3L2133,1380"/>
	<path class="st7" d="M2067,105l-2-6l6,5L2067,105"/>
	<path class="st23" d="M794,109l-3,2l-3-4l4-1L794,109"/>
	<path class="st16" d="M2067,105l4-1l1,9L2067,105"/>
	<path class="st8" d="M2092,114l-2,2l-2-4l2-2L2092,114"/>
	<path class="st15" d="M678,1384l-3,5l-5-2l3-6L678,1384"/>
	<path class="st22" d="M1984,1393l-5,3l-3-4L1984,1393"/>
	<path class="st1" d="M2512,136l-1-4l3-1l1,3L2512,136"/>
	<path class="st4" d="M386,138l-6,3l-3-4L386,138"/>
	<path class="st9" d="M1646,1399l-12-2l5-3L1646,1399"/>
	<path class="st15" d="M2414,1396l3,6l-4,3L2414,1396"/>
	<path class="st24" d="M2335,1420l-5,2l-2-3l4-3L2335,1420"/>
	<path class="st17" d="M2227,1419l-1,11l-4-1L2227,1419"/>
	<path class="st12" d="M264,172l3,6l-5,1L264,172"/>
	<path class="st14" d="M379,174l-5,5l-5-3L379,174"/>
	<path class="st13" d="M1652,698l-3-5h7L1652,698"/>
	<path class="st20" d="M778,216l-2-3l4-2l1,3L778,216"/>
	<path class="st11" d="M805,222l-4,3l1-6L805,222"/>
	<path class="st23" d="M1209,222h-7l4-4L1209,222"/>
	<path class="st7" d="M895,241l-5,1l-1-3l4-3L895,241"/>
	<path class="st13" d="M2431,253l-3-5h7L2431,253"/>
	<path class="st10" d="M2138,252l-8,6l-4-5L2138,252"/>
	<path class="st2" d="M2196,302l-5,1l-2-3l5-2L2196,302"/>
	<path class="st25" d="M1752,307l4,1l-2,3l-3-1L1752,307"/>
	<path class="st13" d="M542,321l-1,9L542,321z"/>
	<path class="st25" d="M367,353l3,2l-1,3l-4-2L367,353"/>
	<path class="st17" d="M1708,372l2-3l5,3l-2,3L1708,372"/>
	<path class="st15" d="M1616,375l-2,5l-4-4l1-3L1616,375"/>
	<path class="st24" d="M777,388l-7,6l1-8L777,388"/>
	<path class="st7" d="M2306,389v8l-3-3L2306,389"/>
	<path class="st10" d="M836,410v-8l4,4L836,410"/>
	<path class="st15" d="M709,410l-4,3l1-6L709,410"/>
	<path class="st21" d="M1257,415l1-3l4,1l-2,4L1257,415"/>
	<path class="st15" d="M2419,419l-4,3l-4-5l5-2L2419,419"/>
	<path class="st23" d="M563,426l2-2l3,4l-4,1L563,426"/>
	<path class="st2" d="M540,434l-3-1l1-3l4,1L540,434"/>
	<path class="st9" d="M828,443l-5,4l-1-7L828,443"/>
	<path class="st8" d="M597,459l5,3h-14L597,459"/>
	<path class="st15" d="M2290,469l-5,3l-4-6L2290,469"/>
	<path class="st13" d="M506,481l3,13L506,481z"/>
	<path class="st8" d="M945,504l-4-5l4-5l4,3L945,504"/>
	<path class="st24" d="M1689,513l-2,4l-4-2l1-4L1689,513"/>
	<path class="st2" d="M1838,536l-2,3l-1-5L1838,536"/>
	<path class="st21" d="M838,551l-3-2l1-3l3,1L838,551"/>
	<path class="st25" d="M2409,554l3,1l-1,4l-3-2L2409,554"/>
	<path class="st10" d="M327,565l-3,3l-3-5l4-5L327,565"/>
	<path class="st22" d="M1837,560l-2,4l-4-2l1-3L1837,560"/>
	<path class="st21" d="M1371,591l-4,1l-1-3l3-1L1371,591"/>
	<path class="st10" d="M1540,601l5-3l3,4l-4,3L1540,601"/>
	<path class="st13" d="M1250,619l-2-3l4-1l2,3L1250,619"/>
	<path class="st26" d="M227,625l-6,2l-2-4L227,625 M1901,633l-1-8l4,2L1901,633"/>
	<path class="st4" d="M549,635l-4,5l-4-3l3-4L549,635"/>
	<path class="st21" d="M77,672l-1,3l-3-1l1-3L77,672"/>
	<path class="st4" d="M2440,679h-8l5-5L2440,679"/>
	<path class="st11" d="M246,689l-4-8l6-4L246,689"/>
	<path class="st25" d="M516,681l3-2l2,4l-3,1L516,681"/>
	<path class="st23" d="M1576,687l-2,2l-2-4l3-1L1576,687"/>
	<path class="st13" d="M295,725v7V725z"/>
	<path class="st21" d="M919,734l3,2l-1,3l-3-2L919,734"/>
	<path class="st25" d="M1179,751l3,1l-1,4l-4-2L1179,751"/>
	<path class="st13" d="M1712,759l-6,2l-3-3l5-3L1712,759"/>
	<path class="st10" d="M2008,545l-3-5l5-4l2,5L2008,545"/>
	<path class="st20" d="M1858,776l-3-1l1-4l4,2L1858,776"/>
	<path class="st24" d="M234,783l-3,3l-3-4l3-1L234,783"/>
	<path class="st22" d="M1271,787l-11-1l2-3L1271,787"/>
	<path class="st1" d="M1753,784l3,4l-2,2l-4-3L1753,784"/>
	<path class="st25" d="M615,793l-2-3l2-2l2,1L615,793"/>
	<path class="st10" d="M1239,823l4,5l-5,4l-2-4L1239,823"/>
	<path class="st8" d="M2361,831l-3,5l-2-7L2361,831"/>
	<path class="st16" d="M1679,842l-5-4l4-5L1679,842"/>
	<path class="st2" d="M1492,854l-3,2l-2-5h4L1492,854"/>
	<path class="st15" d="M2340,867l-5-4l4-5l4,3L2340,867"/>
	<path class="st14" d="M606,730l-3-5l5-2l2,2L606,730"/>
	<path class="st25" d="M909,888l2,3l-4,2l-1-3L909,888"/>
	<path class="st27" d="M1821,890l-4,5l-5-4l3-4L1821,890"/>
	<path class="st15" d="M1838,904l-10,1l5-5L1838,904"/>
	<path class="st10" d="M616,915l-4,5l-1-7L616,915"/>
	<path class="st19" d="M705,917l2,3l-4,3L705,917"/>
	<path class="st7" d="M1806,933l4,2l-3,4l-3-2L1806,933"/>
	<path class="st21" d="M2117,935l2,3l-1,1l-3-1L2117,935"/>
	<path class="st6" d="M1707,943l-8,1l2-5L1707,943"/>
	<path class="st19" d="M104,947l-2-3l4-2l1,3L104,947"/>
	<path class="st21" d="M1554,951l-3,1v-4h2L1554,951"/>
	<path class="st22" d="M1714,961l-3,1l-3-4L1714,961"/>
	<path class="st23" d="M2498,976l2,2l-3,4l-2-4L2498,976"/>
	<path class="st9" d="M639,989l-3-5l4-3L639,989 M1686,983l-6,5l-4-3l4-4L1686,983"/>
	<path class="st17" d="M895,1002l-3,1l-3-3l4-1L895,1002"/>
	<path class="st23" d="M1150,1012l-2-3l4-2l2,3L1150,1012"/>
	<path class="st10" d="M955,1010l-1,11l-4-3L955,1010"/>
	<path class="st23" d="M1740,720l-3,3l-2-4l3-2L1740,720"/>
	<path class="st11" d="M1937,1029l4,5l-6,4L1937,1029"/>
	<path class="st3" d="M267,1050l-5,3l-3-4l4-3L267,1050"/>
	<path class="st4" d="M983,1052h-8l3-4L983,1052"/>
	<path class="st19" d="M1515,1049l3-3l4,3l-1,3L1515,1049"/>
	<path class="st10" d="M1444,1056l-2,11L1444,1056z"/>
	<path class="st11" d="M602,1082l4,6l-3,4l-5-5L602,1082"/>
	<path class="st9" d="M788,1092l-5,2l-2-3l3-3L788,1092"/>
	<path class="st8" d="M1123,1112l-5,2l1-7L1123,1112"/>
	<path class="st3" d="M2331,1108l-3,5l-6-4l4-3L2331,1108"/>
	<path class="st16" d="M2514,1143l-8,4l-4-6L2514,1143"/>
	<path class="st24" d="M2404,1171l-2-3l4-2l1,3L2404,1171"/>
	<path class="st20" d="M1283,1212l-2,3l-3-1l1-3L1283,1212"/>
	<path class="st24" d="M1061,1214l4,3l-3,4l-3-2L1061,1214"/>
	<path class="st14" d="M1750,1213l-1,9l-4-5L1750,1213"/>
	<path class="st15" d="M2256,1212l3,5l-6,4l-2-5L2256,1212"/>
	<path class="st4" d="M1384,1028h-11l1-3L1384,1028"/>
	<path class="st1" d="M666,1258l-4,4l-3-1l1-5L666,1258"/>
	<path class="st7" d="M223,510l-3,1l-2-3l3-1L223,510 M1885,1192l-8-2L1885,1192z"/>
	<path class="st20" d="M673,495l2,2h-4L673,495"/>
	<path class="st13" d="M1760,1044l2-2l3,4L1760,1044"/>
	<path class="st25" d="M692,443l-3-2l4-1L692,443"/>
	<path class="st6" d="M477,83l-2,3l-2-3l3-3L477,83"/>
	<path class="st10" d="M1324,80l2,3l-3,3L1324,80"/>
	<path class="st25" d="M313,93l-1,3l-1-4L313,93"/>
	<path class="st9" d="M2386,120l-3,3l-4-4L2386,120"/>
	<path class="st13" d="M623,1195l-2,3l-3-5h4L623,1195"/>
	<path class="st7" d="M1020,862l2,2l-2,4l-3-4L1020,862"/>
	<path class="st4" d="M796,153l-3,4l-3-4l2-2L796,153"/>
	<path class="st26" d="M1228,1130l2,3l-4,2l-1-3L1228,1130"/>
	<path class="st11" d="M964,481l-2-6l4-2L964,481"/>
	<path class="st9" d="M448,173l-3,2l-2-3l3-2L448,173"/>
	<path class="st4" d="M2023,1237l-5,3l-3-2l3-4L2023,1237"/>
	<path class="st15" d="M2147,523l-4-2l4-3l3,2L2147,523"/>
	<path class="st17" d="M841,901l-3,2l-1-4l3-1L841,901"/>
	<path class="st12" d="M217,690l-2,7L217,690z"/>
	<path class="st14" d="M522,477l-6-9L522,477z"/>
	<path class="st10" d="M1606,459l-5,3l-2-2l2-4L1606,459"/>
	<path class="st9" d="M473,786l-2,2l-3-4l4-1L473,786"/>
	<path class="st17" d="M764,988l-2-2l4-2l1,3L764,988"/>
	<path class="st4" d="M1491,616l-2,3l-4-3l2-3L1491,616"/>
	<path class="st10" d="M360,1170l-5,1l-1-2l4-3L360,1170"/>
	<path class="st11" d="M128,1005l-5,3l1-7L128,1005"/>
	<path class="st26" d="M1512,451l-3,1l-2-4L1512,451"/>
	<path class="st17" d="M322,1010l-1,4l-3-2l1-3L322,1010 M622,1092l-3-2h6L622,1092"/>
	<path class="st10" d="M1577,795l-2,2l-2-3l3-3L1577,795"/>
	<path class="st7" d="M64,798l-4,4l2-7L64,798"/>
	<path class="st8" d="M161,1030l-2-3l4-1l1,2L161,1030"/>
	<path class="st26" d="M1193,1031l-4,2l-2-2l4-3L1193,1031"/>
	<path class="st15" d="M1094,858l2,3l-3,4l-4-2L1094,858"/>
	<path class="st12" d="M1920,406l-2,2l-2-3l3-3L1920,406"/>
	<path class="st6" d="M2277,1211l-1-3l4-2L2277,1211"/>
	<path class="st9" d="M702,910l-2,2l-4-3L702,910"/>
	<path class="st20" d="M94,404l3,2l-1,3l-3-1L94,404"/>
	<path class="st4" d="M969,400l2,3l-4,2L969,400"/>
	<path class="st12" d="M528,1235l-1,3l-3-6L528,1235"/>
	<path class="st4" d="M987,923l-2,2l-3-4l3-1L987,923"/>
	<path class="st6" d="M1017,553l-2,3l-2-4l2-1L1017,553"/>
	<path class="st4" d="M1829,924l-3,3l-3-3l4-3L1829,924"/>
	<path class="st7" d="M1443,934l-2,2l-2-4l3-1L1443,934"/>
	<path class="st10" d="M354,815l-5,1l-1-3l4-1L354,815"/>
	<path class="st12" d="M76,1341l-2,4l-4-2l1-3L76,1341"/>
	<path class="st14" d="M1751,356l3,3l-2,4L1751,356"/>
	<path class="st10" d="M1273,659l4,2l-2,4l-3-1L1273,659"/>
	<path class="st4" d="M557,310l-4,1l-1-3l4-2L557,310"/>
	<path class="st15" d="M1430,301l4,2l-7,2L1430,301"/>
	<path class="st10" d="M2265,832l-2-3l4-2l1,4L2265,832"/>
	<path class="st13" d="M776,954l-6,2l-2-3l3-3L776,954"/>
	<path class="st8" d="M2207,1396l-5,4l-1-4l4-3L2207,1396"/>
	<path class="st14" d="M935,1402l-4,3l-2-3l3-4L935,1402"/>
	<path class="st12" d="M578,958l-3,2l-2-3l4-2L578,958"/>
	<path class="st6" d="M756,262l-3,2l-3-4L756,262"/>
	<path class="st20" d="M2415,716l-1,3l-3-2l1-3L2415,716"/>
	<path class="st10" d="M1347,217l3-2l2,2l-4,4L1347,217"/>
	<path class="st14" d="M2468,708l-3-4l7,2L2468,708"/>
	<path class="st17" d="M268,208l-2,3l-1-6L268,208"/>
	<path class="st20" d="M486,1202h1v2l-3-1L486,1202"/>
	<path class="st13" d="M2551,1203l1,4l-2,2L2551,1203"/>
	<path class="st1" d="M489,8l-3,1l2-4L489,8"/>
	<path class="st19" d="M1171,23l-1,4l-1-5L1171,23"/>
	<path class="st20" d="M225,1212l1-2l1,1v1H225"/>
	<path class="st22" d="M2057,28l3-2l2,2l-1,1L2057,28"/>
	<path class="st8" d="M1065,49l-1-6l2,1L1065,49"/>
	<path class="st26" d="M505,135l-2,3l-3-2L505,135"/>
	<path class="st25" d="M471,402l2-9l4,6L471,402"/>
	<path class="st2" d="M2405,801l-3,1l-1-1l3-1L2405,801"/>
	<path class="st26" d="M2215,550l-3,2l-2-2H2215"/>
	<path class="st13" d="M1344,807l-3-1l3-3l3,2L1344,807"/>
	<path class="st19" d="M88,1226l-2,3v-6L88,1226"/>
	<path class="st24" d="M1664,392l1,3l-2,2l-1-3L1664,392"/>
	<path class="st17" d="M61,165l-2-3l2-2V165"/>
	<path class="st25" d="M811,164l-1,1h-1l1-3L811,164"/>
	<path class="st10" d="M1940,966l3,2l-3,3l-3-2L1940,966"/>
	<path class="st22" d="M474,980l2,2h-5L474,980"/>
	<path class="st4" d="M962,837l-1,4l-3-2l1-4L962,837 M1665,1277l-1,3l-3-3l2-3L1665,1277"/>
	<path class="st17" d="M2333,1284l-2-2l1-3L2333,1284"/>
	<path class="st26" d="M1318,547l-3,3v-6L1318,547"/>
	<path class="st2" d="M1476,372l-2-2l1-2l2,2L1476,372"/>
	<path class="st22" d="M1164,662l2,2h-4L1164,662"/>
	<path class="st24" d="M2376,510l-2,3l-1-1l1-3L2376,510"/>
	<path class="st7" d="M874,662l-2,2l1-5L874,662"/>
	<path class="st13" d="M26,740l-3-1l3-3l3,2L26,740"/>
	<path class="st21" d="M1269,1361v-2h1L1269,1361"/>
	<path class="st24" d="M1652,1011l-2,3l1-5L1652,1011"/>
	<path class="st1" d="M1806,851l-3,1v-2L1806,851"/>
	<path class="st4" d="M661,782l-7,4L661,782z"/>
	<path class="st19" d="M2397,540l-2,3v-6L2397,540"/>
	<path class="st25" d="M684,198l-1-1l2-2L684,198"/>
	<path class="st22" d="M341,302l2,2v2l-3-1L341,302"/>
	<path class="st23" d="M2085,719l-2-1l2-2l1,2L2085,719"/>
	<path class="st1" d="M1018,272l2,3h-5L1018,272"/>
	<path class="st7" d="M1834,418l2,3h-3L1834,418"/>
	<path class="st21" d="M2495,863v-2h1L2495,863"/>
	<path class="st24" d="M1082,1048l3-2l2,3l-3,1L1082,1048"/>
	<path class="st4" d="M1649,631l-2,3l-3-3l3-3L1649,631"/>
	<path class="st24" d="M871,1084l1,2h-5L871,1084"/>
	<path class="st8" d="M2178,831l-4,2l-1-4L2178,831"/>
	<path class="st7" d="M1597,531l-3-2h7L1597,531"/>
	<path class="st25" d="M547,961v1h-2L547,961"/>
	<path class="st8" d="M322,1127l2-4l1,7L322,1127"/>
	<path class="st4" d="M1739,259l-3-1l1-4l3,2L1739,259"/>
	<path class="st22" d="M746,1144l-2,2l-2-2H746"/>
	<path class="st12" d="M1228,804l-4-2l3-3l3,2L1228,804"/>
	<path class="st23" d="M827,960l1-1l1,2L827,960"/>
	<path class="st2" d="M1868,1177l1,1h-4L1868,1177"/>
	<path class="st1" d="M2248,952l-2,2l-2-2H2248"/>
	<path class="st24" d="M764,816l1,2l-2,1l-1-1L764,816"/>
	<path class="st23" d="M526,128l-1,1l-1-1l1-1L526,128 M1873,1245l-1,1v-2L1873,1245"/>
	<path class="st5" d="M502,343l-8,6l-10-8L502,343"/>
	<path class="st3" d="M2332,543l-8-7l-5,5l5,6L2332,543z M2325,565l-18-22l15-16l18,14L2325,565"/>
	<path class="st9" d="M499,210l12,14l-10,14l-11-10L499,210 M210,280l-2-15l7,6L210,280"/>
	<path class="st3" d="M834,780l7,11l-6,8l-7-7L834,780"/>
	<path class="st5" d="M426,371l-3,8l5,4L426,371z M420,358l21,19l-17,16l-17-23L420,358"/>
	<path class="st14" d="M2332,543l-8,4l-5-6l5-5L2332,543"/>
	<path class="st11" d="M426,371l2,12l-5-4L426,371"/>
	<path class="st1" d="M0,1075l4,364L0,1075z"/>
	<path class="st2" d="M2561,4l-310-4L2561,4 M318,0H8H318z M636,0H351H636z M2017,0h-226H2017z M1736,0h-217H1736z"/>
	<path class="st1" d="M0,8v205V8"/>
	<path class="st2" d="M2209,0h-150H2209"/>
	<path class="st3" d="M2561,958l-12-11L2561,958"/>
	<path class="st4" d="M2029,1439l6-8l7,8H2029"/>
	<path class="st5" d="M2561,954l-12-7l12-6V954"/>
	<path class="st6" d="M1778,0l-7,7l-1-7H1778"/>
	<path class="st7" d="M1004,1439h9H1004z"/>
	<path class="st5" d="M660,1296l-9-15l10-9l10,10L660,1296"/>
	<path class="st2" d="M1905,786l15-8l8,9l-11,10L1905,786"/>
	<path class="st8" d="M1180,221l19-6l2,4l-14,11L1180,221"/>
	<path class="st6" d="M2476,526l8,9l-6,9l-9-8L2476,526 M1869,900l8,7l-4,8L1869,900"/>
	<path class="st9" d="M575,410l-7-9l5-6l7,5L575,410 M1493,1148l11-13l-6,19L1493,1148 M1733,35l9-6l5,6l-6,6L1733,35 M2297,1268
		l-10,15l-5-4l11-18L2297,1268"/>
	<path class="st5" d="M664,985l8,14l-7,5L664,985"/>
	<path class="st9" d="M1783,668l7,9l-6,6l-6-6L1783,668"/>
	<path class="st6" d="M2054,958l-9,13l-7-9l12-7L2054,958"/>
	<path class="st10" d="M1654,477l-2,15L1654,477z"/>
	<path class="st3" d="M958,149l8-4l4,7L958,149"/>
	<path class="st10" d="M2095,32l6,8l-5,7l-7-5L2095,32"/>
	<path class="st11" d="M1669,730l-4,19l-6-7L1669,730"/>
	<path class="st12" d="M1733,515l-1-21L1733,515z"/>
	<path class="st13" d="M517,1220l6-7l7,5l-6,9L517,1220"/>
	<path class="st10" d="M1639,675l9-5l5,7l-6,5L1639,675 M1684,519l-5-9l6-5l5,5L1684,519"/>
	<path class="st6" d="M860,389l-4-8l6-4l4,6L860,389"/>
	<path class="st14" d="M571,1142l9-8l-5,16L571,1142"/>
	<path class="st4" d="M127,449l8-4l3,6l-5,5L127,449"/>
	<path class="st15" d="M2105,1103l-2-11l9,11H2105"/>
	<path class="st10" d="M129,521l-7,6l-5-4l5-8L129,521"/>
	<path class="st16" d="M950,17l6,7l-5,5L950,17"/>
	<path class="st12" d="M1997,825h15l-7,7L1997,825"/>
	<path class="st16" d="M1893,978l4,4l-4,5l-4-5L1893,978"/>
	<path class="st3" d="M2502,1119l1,15L2502,1119"/>
	<path class="st5" d="M1844,1363h13l-5,5L1844,1363"/>
	<path class="st14" d="M1745,1309l12,1l-5,5L1745,1309"/>
	<path class="st17" d="M1900,657l-8-10l14,7L1900,657"/>
	<path class="st18" d="M2367,1328l7-4l3,4l-4,4L2367,1328"/>
	<path class="st9" d="M2010,1408l8-6l6,5L2010,1408"/>
	<path class="st10" d="M2302,476l-2-14l6,6L2302,476"/>
	<path class="st4" d="M1767,64l4-4l6,4H1767"/>
	<path class="st14" d="M2047,1041l-1-15L2047,1041z"/>
	<path class="st12" d="M1880,88l-5-9l5-3V88"/>
	<path class="st4" d="M740,385l8-1l3,5l-6,3L740,385"/>
	<path class="st13" d="M1230,229l-4-5l7-7L1230,229"/>
	<path class="st9" d="M1508,1040l-5-11l4-3L1508,1040 M1165,230l5-4l5,6L1165,230"/>
	<path class="st10" d="M1165,287l5-3l4,5l-5,3L1165,287"/>
	<path class="st6" d="M292,974h11l-4,3L292,974"/>
	<path class="st12" d="M1754,550l-14-3L1754,550z"/>
	<path class="st15" d="M1110,1214l8-4l3,3l-4,6L1110,1214"/>
	<path class="st6" d="M656,480l4-4l5,4H656"/>
	<path class="st19" d="M544,928h19H544z"/>
	<path class="st9" d="M2020,547l2,13l-5-4L2020,547"/>
	<path class="st6" d="M1895,695l-4-4l2-5L1895,695"/>
	<path class="st3" d="M207,59l7-4l4,3l-5,6L207,59"/>
	<path class="st10" d="M337,1284l-4,5l-5-5l4-4L337,1284"/>
	<path class="st5" d="M2069,669l-10-7l7-5L2069,669"/>
	<path class="st12" d="M1284,942l6-2l2,7L1284,942"/>
	<path class="st20" d="M1962,244l5-4l5,5L1962,244"/>
	<path class="st9" d="M1863,612l15-2L1863,612z"/>
	<path class="st20" d="M1664,954l11,3l-2,4l-8-8L1664,954"/>
	<path class="st17" d="M1124,386l6-3l3,4l-4,3L1124,386"/>
	<path class="st8" d="M2005,772l-4-5l6-3L2005,772"/>
	<path class="st3" d="M932,1412l3-5l6,5H932"/>
	<path class="st13" d="M1665,953l-8-5l2-3l5,9L1665,953"/>
	<path class="st17" d="M591,342l3,5l-4,4l-3-5L591,342"/>
	<path class="st12" d="M1048,1125l6-2l-2,9L1048,1125"/>
	<path class="st1" d="M1863,78l5,7l-3,3l-5-5L1863,78"/>
	<path class="st15" d="M1766,1117l5-4l4,6L1766,1117"/>
	<path class="st10" d="M2189,223l-5-4l3-3l5,3L2189,223"/>
	<path class="st20" d="M778,415l5-2l2,3l-5,3L778,415"/>
	<path class="st10" d="M1018,588l3,6l-4,5l-4-4L1018,588"/>
	<path class="st12" d="M2239,102l4-4l5,4H2239"/>
	<path class="st21" d="M1888,1115l9,4L1888,1115z"/>
	<path class="st20" d="M531,728l-3-6l4-2L531,728"/>
	<path class="st4" d="M656,12l5,4l-4,7l-4-3L656,12"/>
	<path class="st20" d="M2208,1007l-3,8L2208,1007"/>
	<path class="st8" d="M762,554l8-5l4,5H762"/>
	<path class="st4" d="M1500,175l9-3l-2,5L1500,175"/>
	<path class="st10" d="M125,177l-4-5l4-4l3,4L125,177"/>
	<path class="st22" d="M2125,1422l1-11l3,1L2125,1422"/>
	<path class="st21" d="M2211,143l2-3l2,2l-1,3L2211,143"/>
	<path class="st7" d="M2010,110l-4-5l2-3l4,2L2010,110"/>
	<path class="st23" d="M834,1398l3-3l2,4l-3,1L834,1398"/>
	<path class="st1" d="M1585,1392l5-2l2,3l-3,3L1585,1392"/>
	<path class="st22" d="M128,91l-2,4l-3-6L128,91"/>
	<path class="st15" d="M1982,1376l5,4l-4,5L1982,1376"/>
	<path class="st12" d="M1622,1377l-3-2l1-5L1622,1377"/>
	<path class="st16" d="M1270,1372l-3-2l2-5L1270,1372"/>
	<path class="st14" d="M620,82l3,3h-7L620,82"/>
	<path class="st21" d="M2307,60l2-3l3,1l-2,3L2307,60"/>
	<path class="st1" d="M427,60l3-4l4,3l-2,3L427,60"/>
	<path class="st7" d="M494,1335l1,5l-5-4L494,1335"/>
	<path class="st23" d="M1767,1331l3-2l2,4l-3,1L1767,1331"/>
	<path class="st16" d="M494,1335l-4,1l-2-9L494,1335"/>
	<path class="st8" d="M469,1326l2-3l2,4l-3,2L469,1326"/>
	<path class="st15" d="M1882,55l4-5l5,2l-3,6L1882,55"/>
	<path class="st22" d="M577,46l5-3l3,4L577,46"/>
	<path class="st1" d="M49,1304l1,3l-4,2l-1-4L49,1304"/>
	<path class="st4" d="M2175,1302l6-3l3,4L2175,1302"/>
	<path class="st9" d="M915,40l12,2l-5,4L915,40"/>
	<path class="st15" d="M147,43l-3-5l4-4L147,43"/>
	<path class="st24" d="M226,20l5-2l1,3l-4,3L226,20"/>
	<path class="st17" d="M334,21l1-12l3,1L334,21"/>
	<path class="st12" d="M2297,1268l-4-7h6L2297,1268"/>
	<path class="st14" d="M2181,1265l5-5l6,4L2181,1265"/>
	<path class="st13" d="M909,741l3,5l-7,1L909,741"/>
	<path class="st20" d="M1783,1224l2,2l-4,2l-1-3L1783,1224"/>
	<path class="st11" d="M1756,1217l4-3l-2,7L1756,1217"/>
	<path class="st23" d="M1352,1218l6-1l-3,4L1352,1218"/>
	<path class="st7" d="M1665,1199l5-2l2,3l-5,3L1665,1199"/>
	<path class="st13" d="M129,1187l4,4l-7,1L129,1187"/>
	<path class="st10" d="M423,1187l7-6l5,5L423,1187"/>
	<path class="st2" d="M365,1138l5-1l1,3l-5,1L365,1138"/>
	<path class="st25" d="M808,1132l-3-1l1-3l3,1L808,1132"/>
	<path class="st13" d="M2018,1119l1-10L2018,1119z"/>
	<path class="st25" d="M2194,1086l-4-1l2-3l3,1L2194,1086"/>
	<path class="st17" d="M853,1067l-3,3l-4-2l2-4L853,1067"/>
	<path class="st15" d="M945,1064l2-4l4,3l-2,3L945,1064"/>
	<path class="st24" d="M1784,1051l7-6l-1,9L1784,1051"/>
	<path class="st7" d="M255,1050l-1-8l4,3L255,1050"/>
	<path class="st10" d="M1725,1029l-1,9l-4-5L1725,1029"/>
	<path class="st15" d="M1852,1029l4-3l-2,7L1852,1029"/>
	<path class="st21" d="M1304,1024l-2,3l-3-1l1-3L1304,1024"/>
	<path class="st15" d="M141,1020l5-3l4,5l-5,3L141,1020"/>
	<path class="st23" d="M1998,1013l-3,2l-2-4l3-1L1998,1013"/>
	<path class="st2" d="M2021,1005l3,1l-2,3l-3-1L2021,1005"/>
	<path class="st9" d="M1733,997l5-5v7L1733,997"/>
	<path class="st8" d="M1964,980l-5-3l13,1L1964,980"/>
	<path class="st15" d="M271,970l5-3l4,6L271,970"/>
	<path class="st13" d="M2054,958l-2-12L2054,958z"/>
	<path class="st8" d="M1616,935l4,5l-5,5l-3-3L1616,935"/>
	<path class="st24" d="M871,927l2-4l5,2l-1,3L871,927"/>
	<path class="st2" d="M723,904l2-3l1,4L723,904"/>
	<path class="st21" d="M1723,889l3,1l-1,3l-3-1L1723,889"/>
	<path class="st25" d="M152,886l-4-2l2-3l3,1L152,886"/>
	<path class="st10" d="M2233,874l4-3l3,5l-5,5L2233,874"/>
	<path class="st22" d="M724,879l1-4l5,2l-2,3L724,879"/>
	<path class="st21" d="M1190,849l3-2l1,3l-3,2L1190,849"/>
	<path class="st10" d="M1021,839l-5,2l-3-4l3-2L1021,839"/>
	<path class="st13" d="M1311,820l2,3l-5,2l-1-4L1311,820"/>
	<path class="st26" d="M2334,814l6-2l2,4L2334,814 M660,806l1,9l-4-3L660,806"/>
	<path class="st4" d="M2011,804l5-4l4,3l-4,4L2011,804"/>
	<path class="st21" d="M2483,767l2-3l3,1l-2,3L2483,767"/>
	<path class="st4" d="M120,760h9l-5,5L120,760"/>
	<path class="st11" d="M2315,750l4,8l-6,4L2315,750"/>
	<path class="st25" d="M2045,758l-3,2l-3-4l4-1L2045,758"/>
	<path class="st23" d="M984,753l3-2l2,4l-3,1L984,753"/>
	<path class="st13" d="M2266,714v-7V714"/>
	<path class="st21" d="M1641,705l-3-1l1-3l3,1L1641,705"/>
	<path class="st25" d="M1382,689l-3-2l1-3l3,1L1382,689"/>
	<path class="st13" d="M849,680l5-2l3,4l-4,3L849,680"/>
	<path class="st10" d="M553,894l3,5l-5,4l-2-5L553,894"/>
	<path class="st20" d="M702,663l3,2l-1,3l-3-2L702,663"/>
	<path class="st24" d="M2327,656l3-3l3,4l-4,2L2327,656"/>
	<path class="st22" d="M1289,653h11l-1,3L1289,653"/>
	<path class="st1" d="M808,655l-3-4l2-2l4,3L808,655"/>
	<path class="st25" d="M1945,647l3,2l-3,2l-1-1L1945,647"/>
	<path class="st10" d="M1321,616l-3-4l4-5l3,4L1321,616"/>
	<path class="st8" d="M200,608l3-4l2,7L200,608"/>
	<path class="st16" d="M881,598l6,3l-5,6L881,598"/>
	<path class="st2" d="M1068,585l3-2l2,5l-3,1L1068,585"/>
	<path class="st15" d="M221,573l5,3l-4,5l-4-3L221,573"/>
	<path class="st14" d="M1954,710l3,4l-4,3l-2-3L1954,710"/>
	<path class="st25" d="M1652,551l-2-2l4-3l1,3L1652,551"/>
	<path class="st27" d="M739,550l4-6l6,4l-3,5L739,550"/>
	<path class="st15" d="M723,535l9-1l-4,5L723,535"/>
	<path class="st10" d="M1944,524l4-4l2,7L1944,524"/>
	<path class="st19" d="M1856,522l-2-2l3-4L1856,522"/>
	<path class="st7" d="M755,507l-5-2l4-5l3,2L755,507"/>
	<path class="st21" d="M444,504l-2-2l1-2l3,1L444,504"/>
	<path class="st6" d="M853,496h9l-3,4L853,496"/>
	<path class="st19" d="M2457,492l2,3l-4,2l-2-3L2457,492"/>
	<path class="st21" d="M1006,488h4l-1,3h-1L1006,488"/>
	<path class="st22" d="M847,479l3-2l2,4L847,479"/>
	<path class="st23" d="M62,464l-2-3l4-3l1,3L62,464"/>
	<path class="st9" d="M1922,450l2,6l-3,2L1922,450 M874,456l7-5l3,4l-3,4L874,456"/>
	<path class="st17" d="M1666,438l3-2l3,4l-4,1L1666,438"/>
	<path class="st23" d="M1410,428l3,2l-5,2l-1-3L1410,428"/>
	<path class="st10" d="M1606,430v-12l4,3L1606,430"/>
	<path class="st23" d="M821,719l2-2l3,4l-3,1L821,719"/>
	<path class="st11" d="M623,411l-3-5l6-4L623,411"/>
	<path class="st3" d="M2293,390l6-4l3,4l-4,3L2293,390"/>
	<path class="st4" d="M1578,387h8l-3,5L1578,387"/>
	<path class="st19" d="M1045,390l-2,3l-5-2l2-4L1045,390"/>
	<path class="st10" d="M1117,383l2-10L1117,383z"/>
	<path class="st11" d="M1958,357l-4-6l3-3l5,4L1958,357"/>
	<path class="st9" d="M1772,348l6-3l2,3l-3,3L1772,348"/>
	<path class="st8" d="M1438,328l5-2l-2,6L1438,328"/>
	<path class="st3" d="M229,331l4-4l5,3l-3,4L229,331"/>
	<path class="st16" d="M47,296l8-3l3,5L47,296"/>
	<path class="st24" d="M157,268l2,3l-4,2l-1-3L157,268"/>
	<path class="st20" d="M1278,227l1-3l4,1l-2,4L1278,227"/>
	<path class="st24" d="M1500,225l-4-2l3-4l2,1L1500,225"/>
	<path class="st14" d="M811,227v-9l5,5L811,227"/>
	<path class="st15" d="M305,227l-3-5l5-4l2,5L305,227"/>
	<path class="st4" d="M1177,411h11l-2,3L1177,411"/>
	<path class="st1" d="M1895,181l4-4l3,2l-1,4L1895,181"/>
	<path class="st7" d="M2337,930l4-1l2,3l-4,1L2337,930 M676,248l7,1L676,248z"/>
	<path class="st20" d="M1888,945l-2-3h4L1888,945"/>
	<path class="st13" d="M801,396l-3,1l-3-3L801,396"/>
	<path class="st25" d="M1869,997l3,2l-5,1L1869,997"/>
	<path class="st6" d="M2083,1356l3-3l2,3l-3,3L2083,1356"/>
	<path class="st10" d="M1236,1359l-1-3l3-3L1236,1359"/>
	<path class="st25" d="M2247,1346l2-3l1,4L2247,1346"/>
	<path class="st9" d="M175,1319l3-3l4,4L175,1319"/>
	<path class="st13" d="M1937,244l3-2l3,4l-4,1L1937,244"/>
	<path class="st7" d="M1541,577l-3-2l3-3l3,3L1541,577"/>
	<path class="st4" d="M1765,1286l2-3l4,3l-2,3L1765,1286"/>
	<path class="st26" d="M1333,309l-2-2l3-3l2,4L1333,309"/>
	<path class="st11" d="M1597,958l2,6l-4,2L1597,958"/>
	<path class="st9" d="M2113,1266l2-2l3,4l-3,1L2113,1266"/>
	<path class="st4" d="M538,202l5-3l2,2l-2,4L538,202"/>
	<path class="st15" d="M414,916l3,2l-4,3l-2-2L414,916"/>
	<path class="st17" d="M1719,538l4-1v3l-2,1L1719,538"/>
	<path class="st12" d="M2344,749l2-7L2344,749"/>
	<path class="st14" d="M2038,962l7,9L2038,962z"/>
	<path class="st10" d="M954,980l6-3l2,2l-3,4L954,980"/>
	<path class="st9" d="M2087,654l3-3l2,4l-3,1L2087,654"/>
	<path class="st17" d="M1797,451l2,3l-4,2l-1-3L1797,451"/>
	<path class="st4" d="M1070,824l2-4l3,3l-1,3L1070,824"/>
	<path class="st10" d="M2200,269l5-1l2,3l-5,3L2200,269"/>
	<path class="st11" d="M2432,434l6-2l-1,6L2432,434"/>
	<path class="st26" d="M1049,989l3-2l2,4L1049,989"/>
	<path class="st17" d="M2238,429l2-4l3,2l-1,3L2238,429 M1939,347l3,2h-7L1939,347"/>
	<path class="st10" d="M983,645l3-3l2,3l-3,3L983,645"/>
	<path class="st7" d="M2496,641l5-3l-3,6L2496,641"/>
	<path class="st8" d="M2400,409l1,3l-4,2l-1-3L2400,409"/>
	<path class="st26" d="M1367,408l5-2l2,2l-4,4L1367,408"/>
	<path class="st15" d="M1467,582l-2-4l3-4l4,2L1467,582"/>
	<path class="st12" d="M640,1033l3-2l2,3l-4,3L640,1033"/>
	<path class="st6" d="M283,228l1,3l-3,2L283,228"/>
	<path class="st9" d="M1858,529l3-2l3,4L1858,529"/>
	<path class="st20" d="M2467,1035l-3-2l1-3l3,2L2467,1035"/>
	<path class="st4" d="M1592,1039l-2-3l4-2L1592,1039"/>
	<path class="st12" d="M2032,205l2-4l2,7L2032,205"/>
	<path class="st4" d="M1573,517l3-2l3,3l-4,2L1573,517"/>
	<path class="st6" d="M1543,886l2-3l3,4l-3,2L1543,886"/>
	<path class="st4" d="M732,515l2-2l3,2l-3,4L732,515"/>
	<path class="st7" d="M1117,505l3-2l2,4l-3,2L1117,505"/>
	<path class="st10" d="M2207,624l5-1l1,3l-4,1L2207,624"/>
	<path class="st12" d="M2485,98l2-4l3,3l-1,3L2485,98"/>
	<path class="st14" d="M810,1083l-3-3l2-4L810,1083"/>
	<path class="st10" d="M1287,781l-3-3l2-4l3,1L1287,781"/>
	<path class="st4" d="M2004,1130l3-2l1,4l-3,1L2004,1130"/>
	<path class="st15" d="M1131,1138l-4-1l6-2L1131,1138"/>
	<path class="st10" d="M296,607l1,3l-4,2l-1-4L296,607"/>
	<path class="st13" d="M1785,485l5-2l2,3l-3,3L1785,485"/>
	<path class="st8" d="M354,43l4-3l2,3l-4,3L354,43"/>
	<path class="st14" d="M1626,37l4-3l2,3l-3,4L1626,37"/>
	<path class="st12" d="M1983,481l3-2l2,3l-4,3L1983,481"/>
	<path class="st6" d="M1805,1177l3-2l3,4L1805,1177"/>
	<path class="st20" d="M145,724l2-3l3,1l-1,3L145,724"/>
	<path class="st10" d="M1213,1222l-2,3l-2-3l3-3L1213,1222"/>
	<path class="st14" d="M92,731l3,4l-6-2L92,731"/>
	<path class="st17" d="M2293,1232l2-4v6L2293,1232"/>
	<path class="st20" d="M2075,238l-2-1l1-1l2,1L2075,238"/>
	<path class="st13" d="M10,237l-2-4l3-2L10,237"/>
	<path class="st1" d="M2072,1431l2-1l-1,4L2072,1431"/>
	<path class="st19" d="M1389,1416l2-3l1,5L1389,1416"/>
	<path class="st20" d="M2335,228v1h-2l1-2L2335,228"/>
	<path class="st22" d="M504,1412l-3,1l-2-1l1-2L504,1412"/>
	<path class="st8" d="M1496,1390l1,7l-3-2L1496,1390"/>
	<path class="st26" d="M2055,1304l2-2l4,1L2055,1304"/>
	<path class="st25" d="M2089,1037l-1,9l-5-6L2089,1037"/>
	<path class="st2" d="M156,638l3-1l1,1l-3,2L156,638"/>
	<path class="st26" d="M346,889l3-2l2,3L346,889"/>
	<path class="st13" d="M1217,632l3,2l-3,2l-3-2L1217,632"/>
	<path class="st19" d="M2473,214l2-3l-1,6L2473,214"/>
	<path class="st24" d="M897,1047l-2-3l3-1l1,3L897,1047"/>
	<path class="st17" d="M2500,1275l2,2l-2,2V1275"/>
	<path class="st25" d="M1750,1276l1-2l1,1l-1,2L1750,1276"/>
	<path class="st10" d="M621,473l-4-2l4-3l3,3L621,473"/>
	<path class="st22" d="M2087,460l-2-3l5,1L2087,460"/>
	<path class="st4" d="M1598,602l2-3l3,1l-2,4L1598,602 M895,162l2-2l2,3l-2,3L895,162"/>
	<path class="st17" d="M227,156l3,2l-2,3L227,156"/>
	<path class="st26" d="M1243,892l2-3v6L1243,892"/>
	<path class="st2" d="M1084,1068l3,2l-1,1l-3-2L1084,1068"/>
	<path class="st22" d="M1396,778l-2-2h5L1396,778"/>
	<path class="st24" d="M185,929l1-3l2,1l-2,3L185,929"/>
	<path class="st7" d="M1686,777l3-1l-1,5L1686,777"/>
	<path class="st13" d="M2535,699l3,2l-3,2l-3-2L2535,699"/>
	<path class="st21" d="M1291,78l1,2h-2L1291,78"/>
	<path class="st24" d="M909,429l1-3v4L909,429"/>
	<path class="st1" d="M754,588l4-1l-1,2L754,588"/>
	<path class="st4" d="M1900,657l6-3L1900,657z"/>
	<path class="st19" d="M164,899l2-3l-1,6L164,899"/>
	<path class="st25" d="M1877,1241l1,2l-2,1L1877,1241"/>
	<path class="st22" d="M2220,1137l-3-2l1-1h3L2220,1137"/>
	<path class="st23" d="M476,721h2l-2,2l-2-1L476,721"/>
	<path class="st1" d="M1543,1167l-2-2h4L1543,1167"/>
	<path class="st7" d="M727,1022l-3-4h3V1022"/>
	<path class="st21" d="M65,577l1,1l-2,1L65,577"/>
	<path class="st24" d="M1478,391l-3,2l-1-3l2-1L1478,391"/>
	<path class="st4" d="M912,808l2-3l2,3l-3,3L912,808"/>
	<path class="st24" d="M1690,355l-1-1h4L1690,355"/>
	<path class="st8" d="M383,608l3-2l2,4L383,608"/>
	<path class="st7" d="M963,908l3,2h-6L963,908"/>
	<path class="st25" d="M2014,479l-1-2h3L2014,479"/>
	<path class="st8" d="M2238,313l-2,3v-6L2238,313"/>
	<path class="st4" d="M822,1180l3,2l-1,3l-3-1L822,1180"/>
	<path class="st22" d="M1814,295l3-1l2,2L1814,295"/>
	<path class="st12" d="M1333,636l4,2l-4,2l-2-2L1333,636"/>
	<path class="st23" d="M1734,480h-2v-2L1734,480"/>
	<path class="st2" d="M693,263l-1-2h4L693,263"/>
	<path class="st1" d="M312,488l3-2l2,2H312"/>
	<path class="st24" d="M1797,623l-1-1l1-2l1,2L1797,623"/>
	<path class="st23" d="M2034,1311l2-1l1,2l-2,1L2034,1311 M687,194h2v1L687,194"/>
	<path class="st3" d="M229,896l8,7l5-4l-6-7L229,896"/>
	<path class="st9" d="M2062,1230l-12-15l10-14l10,10L2062,1230 M2351,1160l2,14l-8-5L2351,1160"/>
	<path class="st3" d="M1727,659l-8-11l7-8l7,8L1727,659"/>
	<path class="st5" d="M2135,1068l3-8l-5-4L2135,1068"/>
	<path class="st14" d="M229,896l7-4l6,7l-5,4L229,896"/>
	<path class="st11" d="M2135,1068l-2-12l5,4L2135,1068"/>
</g>
<g id="Capa_2_00000177443272597994964020000006207001467525408665_">
	<rect x="0" y="0" class="st28" width="2560" height="1440"/>
	<rect x="2560" y="0" class="st29" width="2560" height="1440"/>
</g>
</svg>
