<?xml version="1.0" encoding="utf-8"?>
<!-- Generator: Adobe Illustrator 28.1.0, SVG Export Plug-In . SVG Version: 6.00 Build 0)  -->
<svg version="1.1" xmlns="http://www.w3.org/2000/svg" xmlns:xlink="http://www.w3.org/1999/xlink" x="0px" y="0px"
	 viewBox="0 0 595.3 841.9" style="enable-background:new 0 0 595.3 841.9;" xml:space="preserve">
<style type="text/css">
	.st0{display:none;}
	
		.st1{display:inline;fill:#508EAD;stroke:#000000;stroke-width:5;stroke-linecap:round;stroke-linejoin:round;stroke-miterlimit:10;}
	.st2{fill:#FFFFFF;}
	.st3{fill:none;stroke:#000000;stroke-width:5;stroke-linecap:round;stroke-linejoin:round;stroke-miterlimit:10;}
	.st4{fill:#FFFFFF;stroke:#000000;stroke-width:8;stroke-miterlimit:10;}
	.st5{display:none;fill:#FFFFFF;stroke:#000000;stroke-width:8;stroke-miterlimit:10;}
</style>
<g id="Capa_2" class="st0">
	<polygon class="st1" points="-927.3,-226 1677.2,-226 1677.2,931.1 -927.3,954.6 	"/>
</g>
<g id="Capa_3">
	<g id="Capa_4">
		<path class="st2" d="M-400.7,20.1l44.6-1l69.7-16.6l11.2,20.1l38.2-7.9l2.8,5.9l41-7l12.5,22l17-0.2v-5.5l30.6-9.8l9.3,9.7l4.3-9
			l53.8-11.4l-6.5-13.6l-5.6-17.7L24.7-48.8l2,14.5l4.1,14.6l10.9,8.8l8.5-2.9l8,9.6l6.7-5.7l-9.3-11.7l41.1-12.8l6,3.1l10.5-6.2
			L171.6-53l39.6-9.5l6.4,5.6l1-6.5l111.6-26.1l2.8,10.1l5.2,8.1l1.9,13.2l2.7,9.2v44l3.7,24L364.9-36l6.6,7.5l19.8,1.2l1.1-23.5
			l62.6-2.2l2,5.2l14.7,0.9l-1.7,18l6.5,5l3.7-3.5h30.1l4.4,11l12.5-19.9l8.2-4.3l22.2,2.2l5,6.2l6.6-4.4l13.3,8.6l14.9,1.2l1-4.8
			l16.5,1.7l9.9,0.2l15.5,2.4L653-15.7l3.3-6.8l35.7,8l-0.7,7.6l11.5,2l7.4-7l8.4-23.5l48.3,9.6l-5.2,11.5l-8,15l25.5,7.1l24.2,2.7
			v5.4l7.7,4.2l3,3.6l4.2-4.9l35.3,7.3l4,4.1l9-0.5l13,3.1l20.1,2.2l3.4,4.5l10.3-1.3c0,0,2.2-7.8,9.4-8.2l1.8-8.9l6.2-9.4l38.9,5
			l1.5-8.5l10.1-7.3l59.7,12.2l2.4,3.6l10.4,1.1l7.2-1.7c0,0,12.5,6,22.2-2v10.9l-8.2,7.7l4.4,26.5l-22.2,31.8l-11.7,16.7l-5,1.5
			l1,32l6.5,9l-1.8,52.6l-5.7,4.8l6.5,1.5v14.7l-18,14.7l-60.5,11.1c0,0-17.8-25-47,4.4l-116.9-6.1l-8.8-11.4l-7.8,2l-11,11.4
			l-105,3.8l-106.4,0.7l-73-2l-78.5-3.5l-3.5,58.9l-196.8,4c0,0,8.4-14.4,9.1-21.5c0.8-7.1-52.8-41.4-54.6-39S23.2,271.9,23.2,271.9
			l-36-3l-90.4-6.2l-63.5,0.2c0,0-60.2-24.6-115.2-8.2s-5.6-5.9-5.6-5.9l-45.9,4.1l-18.7-22l-2.5-19.7l7.5-1.7v-20.1l-10-5.4V166
			l5-6.7l-4.8-8.6l4.8-5.7l-1.5-23l-35.5-49l-5-19c0,0-14.5,4.7-21.4-0.9l2.4-5.1h8.3l-0.3-7.5l3-4.5L-400.7,20.1z"/>
		<path class="st2" d="M-349.7,689.8l-5.9,9.7l-1.5,9.5l-46.6-0.5l-2.8,27l-28.5-2l-4,29.4l-23.5,0.5l-1,32l1620.7-9.5V752
			l-22.7-4.3V716h-21v-20.2L1064,693l-4.2-18.1l-3.8-9.4l-8-165.4l-3-51.5l-12-158.9l-71-36l1.1,64.9l-0.5,125.9l2.6,57.4l-2.1,92.9
			c0,0,3.6,80.7-8,80.7c0,0-53.9-8.8-71-2.2c0,0-11.7-39.7-4-85.8l2-140l-7.2-185.3l-92.7-36l-9.6,17.5l22.6,8.5l-7,22.5l15.4,25.5
			l-4.2,99.4l-4.2,82.9l2,74.2l-1,57.7l1,42.5l4.4,12.5c0,0-106.9,10-109.4,8.5l-4-171.3l-4.5-74.9l-4-12l-3-117.9l-5-64.7
			l-104.6,7.6l-84.3-0.9c0,0,69,21.3,70,25c0,0,1,15,12,17.3l13,6.7l2.5,102.9l-3.5,137.9l-3,22.2l1,43.2l-2,80.7l-43.9,0.7l-10,3.9
			l-7.4-9.4l-20.6-4l-4-6.5l7-69l-3.3-7.2l2.3-49.3l-8.6-13.7l8.6-17.7l-10.5-183.8l-62.2-89.9l-9.3,73.9l-2.5,115.9
			c0,0-5.9,24.5-6,68.7v98.2l0.9,39.5h-26.9c0,0-42,6.6-49,0.5l-25-0.5l-11.5-8l3.5-54.5c0,0-8.9-49.1,2-59.9l-20.2-83.9l3.7-17
			l1-70.9l-60-119.3c0,0-42.2-6-37.5,38.2c0,0-2.5,11.9,22.5,24c0,0,29.1-1.9,14,25.3c0,0,2.6,9.5,2.4,21v26l-9,33.7l3.6,74.3l1,26
			l-4.6,122.9l-1.1,53l-21.3-1l-15,8.5l-60-7l-7-20v-10.5l1-55l3-101.7l5.5-211.6l-90.2-16.5l-5.2,26l-1.5,85.4l-1.5,56.4l1.5,47.5
			l-2.2,67.1l-1.7,31.8l4,27.6l-1.5,28.6l-2.5,31.2V679v5.4l-80.4,1.1l-8-2l-1-11c0,0-13.8-2.6-11.5-27l-7.3-22.2l0.2-63.2
			l-1.4-17.5l-6.6-54l-1.4-64.9l1-21l-1-81.9l1-23l3-13.5c0,0-14.6,11.2-2.6-24l-66.3,18.2l-10,239.1l-3.3,13l-4.2,152.7l-9.5,2.2
			c0,0-28,15.2-35-2.2l-19,1.2l-14.5-1.9l-3.5-42l-1-33l3-149.4l-7.1-127.4l3.2-30.5c0,0-17.4-3.2-2-22.8l5.7-44.6l-71.5,20
			l-8.7,252.8l-2.5,26l-4.5,123.4l-0.2,23L-349.7,689.8z"/>
	</g>
	<g>
		<path class="st3" d="M-463.5,795.4c1.3,0,2.7,0,4,0c28.6-0.2,57.3-0.3,85.9-0.5c24.3-0.2,48.6-0.3,73-0.5
			c21.2-0.2,42.3-0.3,63.5-0.5c24.8-0.2,49.6-0.4,74.5-0.5c35.5-0.2,71-0.3,106.4-0.5c25.2-0.1,50.3-0.3,75.5-0.5
			c19.3-0.1,38.6-0.3,58-0.5c25-0.2,50-0.4,75-0.5c33-0.2,66-0.3,98.9-0.5c25.7-0.1,51.3-0.3,77-0.5c28-0.2,56-0.3,83.9-0.5
			c30.6-0.2,61.3-0.3,91.9-0.5c22.7-0.1,45.3-0.3,68-0.5c25-0.2,50-0.3,75-0.5c17.3-0.1,34.6-0.4,52-0.5c31.1-0.2,62.3-0.3,93.4-0.5
			c25.2-0.1,50.3-0.4,75.5-0.5c33.8-0.2,67.6-0.3,101.4-0.5c38.8-0.2,77.6-0.4,116.4-0.5c16.3-0.1,32.6,0,49,0l22.7,0V752l-22.7-3.6
			"/>
		<path class="st3" d="M1108.5,716c-3.3,0.7-6.7,1.9-10,1.9c-19.7,0.2-39.3,0-59,0.1c-51.1,0.3-102.3,0.6-153.4,1
			c-14.2,0.1-28.3,0.3-42.5,0.5c-35.5,0.3-71,0.7-106.4,1c-36.1,0.3-72.3,0.7-108.4,1c-45.6,0.4-91.3,0.6-136.9,1
			c-10.7,0.1-21.3,0.9-32,0.9c-31.3,0.1-62.6-0.1-93.9,0.1c-41,0.2-81.9,0.6-122.9,1c-36.5,0.3-73,0.7-109.4,1
			c-45,0.4-89.9,0.5-134.9,1.1c-27.2,0.3-54.3,1.3-81.4,1.9c-12.3,0.3-24.7,0.6-37,1c-22.5,0.7-45,1.3-67.5,2
			c-13.2,0.4-26.3,1.1-39.5,1.5c-10,0.3-20,0.3-30,0.5c-24,0.6-48,1.3-72,2c-22,0.6-44,1.3-66,2c-3.5,0.1-7,0.8-9.3,1.1
			c-2.7-1.8-4.4-3.9-6.2-4c-8.3-0.7-16.6-0.9-25-1.1c-1.2,0-2.3,0.5-3.5,0.8c0.2,10.1-2.7,20.1,0,30.1c0.2,0.9-0.6,2-0.9,3"/>
		<path class="st3" d="M968.1,244.9c-0.4-2.3,0.8-3.2,3-3.5c8.7-1.4,17.3-3.7,26-4.3c9.6-0.6,19.3,0.5,29,0.8c2.7,0.1,3.9,1.3,4,4
			c0.9,16,1.9,32,3,48c1.7,24.5,3.7,49,5.5,73.4c1.2,16.3,2.3,32.6,3.5,49c1.2,16.2,2.7,32.3,3.9,48.5c0.6,7.8,0.6,15.7,1.1,23.5
			c1.1,21.1,2.5,42.3,3.4,63.4c0.6,14,0.4,28,1.1,42c1.3,25.3,2.9,50.6,4.4,75.9c0.2,2.8,0.3,5.7,0.5,8.5"/>
		<path class="st3" d="M803.7,382.3c-0.7-0.7-1.9-1.3-1.9-2c-0.2-3.3-0.2-6.7-0.1-10c0.3-9.7,0.7-19.3,1-29c0.4-14.5,0.8-29,1-43.5
			c0.2-11.2-0.1-22.3,0.1-33.5c0.1-5.3,0.6-10.7,1-16.6c16.6-5.3,33.1-5.8,50.4-2.8c0,5.2-0.1,10.6,0,15.9
			c0.5,28.3,0.6,56.6,1.6,84.9c0.5,14,2.6,28,3.8,42c0.5,6.1,0.8,12.3,1,18.5c0.6,16.3,1.1,32.6,1.5,49c0.3,12.5,0.5,25,0.5,37.5
			c0,19.6-0.6,39.3-0.4,58.9c0.2,22.6,0.8,45.3,1.5,67.9c0.2,8.2,1,16.3,1.5,24.5"/>
		<path class="st3" d="M847.7,244.9c0.7,17,1.7,34,1.9,51c0.2,19.3-0.4,38.6-0.4,57.9c0,19.6,0,39.3,0.6,58.9c0.3,9.3,2,18.6,2.8,28
			c0.8,8.8,1.8,17.6,2,26.5c0.5,27.5,1,54.9,1,82.4c0,27.6-0.6,55.3-0.9,82.9c0,1-0.3,2-0.5,3"/>
		<path class="st3" d="M836.7,243.9c0.2,7.5,0.3,15,0.5,22.5c0.2,6.3,0.8,12.7,1,19c0.6,19.1,1,38.3,1.5,57.4
			c0.4,12.3,1.1,24.6,1.4,37c0.3,13.8,0.4,27.6,0.5,41.5c0.4,49.8,0.7,99.6,1,149.4c0,9.2-0.9,18.3-0.9,27.5
			c0.1,22.6,0.6,45.3,1,67.9c0,1.3,0.6,2.7,1,4"/>
		<path class="st3" d="M822.2,244.9c0.2,12.8,0.3,25.6,0.5,38.5c0.1,6.7,0.7,13.3,1,20c0.7,20.6,1,41.3,2.1,61.9
			c0.9,17,3.3,34,3.8,51c1.1,37.5,1.8,74.9,2,112.4c0.2,28-0.6,55.9-0.8,83.9c0,5.7,0.7,11.3,0.9,17c0.2,5.3-0.1,10.7,0.1,16
			c0.2,8,0.6,16,1,24"/>
		<path class="st3" d="M414.4,248.9c-0.5,3.8-1.2,7.6-1.5,11.5c-0.5,7.2-0.7,14.3-1.1,21.5c-0.3,5.2-0.9,10.3-0.9,15.5
			c-0.2,37.8-0.3,75.6-0.6,113.4c-0.1,14.2,0.4,28.4-0.6,42.5c-2.1,27.5-1.5,55-2,82.4c-0.2,10.4,0.2,20.7,1.1,31
			c0.3,3.1,0.4,6.9-1.1,9.4c-3.2,5-3,10-0.6,14.5c2.1,4.1,1.6,8,1.8,12.1c0.2,5.3,0.4,10.7,0.5,16c0.2,7.3,1.4,14.6-0.3,22
			c-1.2,5.2-0.3,10.9-0.2,16.4c0.1,5.5,0.3,11,0.5,16.5"/>
		<path class="st3" d="M-45.8,267.9c2.8,0.4,5.6,0.8,8.3,1.2c0.7-4.7,1.2-8.7,1.9-13.2c19.4,0,39.1,0,59.7,0c0,4.3,0,9.1,0,14
			c0,10.8,0.3,21.7-0.1,32.5c-0.4,14.5-1.3,29-1.9,43.5c-0.1,3,0.5,6,0.4,9c-0.4,15.3-1.3,30.6-1.4,46c-0.1,14,0.8,28,0.8,42
			c0,15.5-0.6,31-0.9,46.5c-0.3,13.8-0.6,27.6-1,41.5c-0.2,7.3-1,14.7-0.9,22c0.1,15.2,0.8,30.3,0.9,45.5c0,11.3-0.6,22.6-0.9,34
			c-0.5,14.7-1,29.3-1.5,44c-0.1,2,0.3,4,0.5,6"/>
		<path class="st3" d="M1113.5,715c0-6.5,0-13,0-19.2c-6.8-0.5-13.2-1.2-19.5-1.2c-23.3-0.3-46.6-0.5-70-0.5
			c-25.2,0-50.3,0.1-75.5,0.5c-36.8,0.5-73.6,1.4-110.4,1.9c-18.7,0.3-37.3-0.1-56,0.1c-28.7,0.3-57.3,1.1-85.9,1.4
			c-30.1,0.3-60.3,0.2-90.4,0.6c-23.2,0.3-46.3,1-69.5,1.4c-14,0.3-28,0.3-42,0.5c-8.3,0.2-16.7,0.7-25,1c-13.7,0.5-27.3,1.5-41,1.4
			c-14.5-0.1-29-1.3-43.5-1.8c-3.2-0.1-6.3,0.4-9.5,0.4c-22,0.4-44,0.9-66,0.9c-20.7,0-41.3-0.5-62-1c-3.3-0.1-6.7-1.4-10-1.4
			c-16,0.2-32,0.7-48,0.9c-6.5,0.1-13-0.5-19.5-0.4c-20.7,0.1-41.3,0.2-62,0.5c-21.2,0.3-42.3,0.6-63.5,1c-16.8,0.3-33.6,0.7-50.5,1
			c-17.8,0.3-35.6,0.6-53.5,1c-17.8,0.4-35.6,1-53.5,1.5c-9.7,0.3-19.3,0.7-29,1c-13.5,0.4-27,0.7-40.5,1c-18.5,0.4-37,0.6-55.5,1
			c-18.3,0.4-36.6,1-55,1.5c-14.8,0.4-29.6,0.6-44.5,1.1c-1.3,0-2.7,0.8-4,1.2"/>
		<path class="st3" d="M-336.6,250.9c-0.2,12.8-0.4,25.6-0.5,38.5c-0.2,20.6-0.3,41.3-0.5,61.9c-0.2,14.2-0.5,28.3-1,42.5
			c-0.9,26.1-2,52.3-3,78.4c-0.4,10-0.5,20-1.1,30c-0.8,13.5-2,27-2.9,40.5c-0.5,7.6-0.8,15.3-1,23c-0.7,23-1.4,46-2,68.9
			c-0.4,13-0.7,26-1,39c0,2,0.1,4,0.5,6c1.9,9.1-2,15.4-10.1,19.7c0.1,0.4,0.2,0.8,0.2,1.3c1.8,0.7,3.5,1.7,5.4,1.9
			c4,0.4,8,0.4,12,0.6"/>
		<path class="st3" d="M101.4,482.2c-0.7-2.5-2-5-2.2-7.5c-0.6-9.5-0.2-19-1.2-28.5c-2.2-20.8-1.3-41.6-2-62.5
			c-0.6-17.2-2.9-34.2-3-51.5c-0.1-12.7-1.8-25.3-2.8-38c-0.7-8.8-1.2-17.7-2.1-26.5c-0.5-5-2.1-9.7-1.2-15c0.7-3.8,2.2-6.5,4.8-8.9
			c1.4-1.3,2.7-2.6,4-4c5.5-5.9,8-11.2,2.5-21.5c-4.2-0.4-9.1-0.8-13.9-1.6c-1.5-0.2-2.7-1.8-4-2.9c-1.4-1.1-2.7-2.3-4-3.5"/>
		<path class="st3" d="M629.3,308.8c0.3,5.7,0.8,11.3,1,17c0.6,22.3,1.2,44.6,1.5,66.9c0.1,9.3-0.9,18.7-0.9,28
			c0.2,34.8,0.6,69.6,0.9,104.4c0.1,11.5,0.1,23,0,34.5c0,5.3-0.3,10.7-0.5,16"/>
		<path class="st3" d="M640.3,314.8c0,3.3-0.1,6.7,0,10c0.1,6.2,0.4,12.3,0.5,18.5c0.1,17.3-0.4,34.6,0.1,52
			c0.6,21.5,1.9,43,2.9,64.4c0.2,3.7,0.1,7.3,0,11c-0.3,26.8-0.6,53.6-1,80.4c0,2.8-0.9,5.7-0.9,8.5c0,1.8,0.9,3.7,1.4,5.5"/>
		<path class="st3" d="M873.7,342.8c0.8,0.8,2.3,1.6,2.4,2.5c0.7,7.5,1.1,15,1.6,22.5c1.2,16.8,2.4,33.6,3.4,50.5
			c0.6,9.8,1,19.6,1,29.5c0.1,36.3,0,72.6,0.1,108.9c0,4.7,0.9,9.3,0.9,14c0,7.3-0.3,14.7-0.4,22"/>
		<path class="st3" d="M576.8,294.9c0.2,0.7,0.5,1.3,0.5,2c0.5,15.2,1.1,30.3,1.5,45.5c0.5,20.5,0.9,41,1,61.4
			c0,18.8-0.6,37.6-0.9,56.4c-0.2,14.7-0.3,29.3-0.5,44c-0.2,10.2-0.6,20.3-1,30.5"/>
		<path class="st3" d="M434.9,250.9c0,18.8,0,37.6,0,56.4c0,3.3,1,6.7,0.9,10c-0.5,14-1.3,28-1.9,42c-0.3,6-0.9,12-1,18
			c-0.4,27.1-0.7,54.3-1,81.4c-0.1,9,0,18,0,27"/>
		<path class="st3" d="M612.8,241.9c-2,12.2-4.3,24.3-5.9,36.5c-1.4,10.8-2.4,21.6-3,32.5c-0.8,13.3-1.5,26.6-1.5,40
			c0.2,25.6,1.1,51.3,1.3,76.9c0.1,13.7-0.6,27.3-0.9,41c0,1.7,0.3,3.3,0.5,5"/>
		<path class="st3" d="M821.2,426.7c0.2,5.5,0.3,11,0.5,16.5c1,30.6,2,61.3,3,91.9c0.2,5.3,0,10.7,0,16c0,18-0.2,36,0.1,54
			c0.2,11.7,1.3,23.3,1.8,35c0.1,2.5-0.9,5-0.9,7.5c0,2.6-1.2,5.7,1.9,7.5"/>
		<path class="st3" d="M429.4,252.9c0.2,1.7,0.5,3.3,0.5,5c0,23.3,0.1,46.6,0,69.9c-0.1,18.7-0.6,37.3-1,56c-0.3,14-0.5,28-1,42
			c-0.5,14.3-1.3,28.6-1.9,43c-0.1,1.7,0.3,3.3,0.5,5"/>
		<path class="st3" d="M37.2,251.4c0,3.7,0,7.3,0,11.8c5.1,1,10.3,2.1,16.1,3.3c-1,2.8,1.7,6.4-3.1,8.1c-0.7,0.3-1,2.5-1,3.8
			c-0.1,5.7,0,11.3-0.1,17c-0.3,14.5-0.6,29-1,43.5c-0.2,7.7-0.7,15.3-1,23c-0.4,9.5-0.6,19-1,28.5c-0.6,14.5-1.5,29-1.9,43.5
			c-0.5,17.8-0.7,35.6-1,53.5c0,1.3,0.9,2.7,1.4,4"/>
		<path class="st3" d="M870.2,453.7c0.2,0.8,0.4,1.7,0.5,2.5c0.7,16.8,1.1,33.7,2.1,50.4c0.9,15.5,2.6,31,3.9,46.5
			c0.5,6.1,0.9,12.3,1,18.5c0.3,15.8,0.6,31.6,0.5,47.5c-0.1,13.8-0.7,27.6-0.9,41.5c0,2.5,0.9,5,1.4,7.5"/>
		<path class="st3" d="M-122.2,253.9c0.3,7.3,0.8,14.7,1,22c0.3,10.8,0.4,21.6,0.5,32.5c0,3.8-0.5,7.7-0.4,11.5c0.1,9,0.2,18,0.5,27
			c0.4,14.7,1.1,29.3,1.4,44c0.3,14.6,0.2,29.3,0.6,44c0.4,13.7,1.3,27.3,2,41c0,0.5,0.6,1,1,1.5"/>
		<path class="st3" d="M242.1,262.9c0,6.3,0.1,12.7,0,19c-0.3,19.5-0.5,39-1,58.4c-0.3,12.2-1.5,24.3-1.9,36.5
			c-0.3,9.6,0.4,19.3,0.4,29c0,18-0.3,36-0.4,54c0,1.3,0.3,2.7,0.5,4"/>
		<path class="st3" d="M480.9,297.9c0.2,7.2,0.3,14.3,0.5,21.5c0.1,1.5,0.8,3,0.9,4.5c1,13.3,2.1,26.6,3,40c0.8,12,1.3,24,2,36
			c1.2,18.8,2.6,37.6,4,56.5c0.1,1,0,2,0,3c0.5,16.2,1,32.3,1.5,48.5"/>
		<path class="st3" d="M-269.6,301.8c1.2,19.3,2.4,38.6,3.5,57.9c1,18.1,2.1,36.3,3,54.5c0.7,14.6,1.1,29.3,1.5,44
			c0.1,3.7-0.5,7.3-0.4,11c0.1,9.2,0.3,18.3,0.5,27.5"/>
		<path class="st3" d="M248.5,265.9c-0.5,5.2-1.4,10.3-1.4,15.5c-0.1,35.3,0.1,70.6-0.2,105.9c-0.1,14-1.4,28-1.9,42
			c-0.3,8.8-0.1,17.6-0.1,26.5"/>
		<path class="st3" d="M1022.1,287.4c0.3,7.7,0.6,15.3,1,23c0.1,1.7,0.4,3.3,0.5,5c1,15.3,2,30.6,3,46s2.1,30.6,3,46
			c0.5,9.3,0.7,18.6,1,28c0.7,21.3,1.4,42.6,2,63.9c0.5,19,0.7,38,1,56.9c0.3,12.7,0.7,25.3,1,38c0.4,19.1,0.7,38.3,1,57.4
			c0,3-0.3,6-0.5,9"/>
		<path class="st3" d="M1010.1,244.9c1.4,22.3,1.3,44.7,4.4,67c1.4,10.4,1.7,21,2.1,31.5c0.8,21.3,1.4,42.6,2.1,63.9
			c0.3,8.3,0.7,16.6,1,25c0.4,15.2,0.6,30.3,1,45.5c0.6,18.3,1.4,36.6,1.9,55c0.5,16.3,0.9,32.6,1,49c0,9.7-0.6,19.3-1,29
			c0,0.8-0.6,1.7-1,2.5"/>
		<path class="st3" d="M997.1,241.4c0.5,1.2,1.4,2.3,1.4,3.5c0.4,11,0.5,22,1.1,33c0.6,10.5,1.6,21,2.4,31.5
			c0.5,6.3,1.2,12.6,1.5,19c0.5,10.8,0.6,21.7,1.1,32.5c0.9,18,2.3,36,2.9,54c0.7,20,0.6,40,1.1,59.9c0.5,19.2,1.4,38.3,1.9,57.5
			c0.7,25.3,1.7,50.6,1.9,75.9c0.1,11.8-1.2,23.6-1.9,35.5c-0.2,2.8-0.2,5.7-0.6,8.5c-0.1,0.7-0.9,1.3-1.4,2"/>
		<path class="st3" d="M39.2,269.9c-0.7,15.2-1.5,30.3-1.9,45.5c-0.1,4.6,1.4,9.3,1.8,14c0.3,3.8,0.2,7.7,0,11.5
			c-0.3,7.2-0.7,14.3-1,21.5c-0.4,9-1,18-0.9,27c0.2,19.2,0.9,38.3,1.4,57.4c0.2,6.3,0.5,12.7,0.5,19c-0.2,10.8-0.8,21.6-0.9,32.5
			c-0.1,24.5,0.2,49-0.1,73.4c-0.1,11.7-1.4,23.3-1.8,35c-0.3,8.1-0.1,16.3-0.1,24.5c0,10-0.1,20,0,30c0,5.8,0.3,11.7,0.5,17.5"/>
		<path class="st3" d="M217.1,480.7c-0.3,1.5-0.9,3-1,4.5c-0.2,22.8-0.3,45.6-0.6,68.4c-0.2,19.7-0.4,39.3-1,58.9
			c-0.5,14.8-1.6,29.6-2.4,44.5c-0.1,1.8,0.3,3.7,0.5,5.5"/>
		<path class="st3" d="M-137.7,356.3c0.5,0.8,1.4,1.6,1.4,2.5c0.6,14.8,1.2,29.6,1.5,44.5c0.5,21.6,0.7,43.3,1,64.9
			c0.3,16.7,0.7,33.3,1,50c0.1,4.2-0.3,8.3-0.5,12.5"/>
		<path class="st3" d="M-177.2,357.8c0,3.8,0.1,7.7,0,11.5c-0.2,3.7-0.8,7.3-0.9,11c-0.3,13-0.4,26-0.5,39c0,2.5-0.4,5.4,0.6,7.4
			c3.5,6.9,0.8,13.7,0.3,20.5c-0.5,8.3-1.7,16.6-1.9,25c-0.3,13.1-0.1,26.3-0.1,40.8c1.1,0.6,2.9,1.8,4.8,2.9
			c-0.5,0.2-0.9,0.5-1.4,0.7c-0.8,6-2.1,12-2.3,18.1c-0.6,15.8-0.8,31.6-1.1,47.5c-0.4,18.6-0.8,37.3-1,56
			c-0.1,10.8,0.4,21.6,0.4,32.5c0,4.7-0.6,9.3-0.9,14"/>
		<path class="st3" d="M-149.7,278.9c0.3,0.8,0.9,1.7,1,2.5c0.1,8.3,0.1,16.7,0,25c-0.3,18.7-0.8,37.3-0.9,56c-0.1,8,0.6,16,0.9,24
			c0,0.3-0.1,0.8,0,1c6.2,6.8,1.5,14.7,1.8,22c0.5,11.8-0.5,23.6-0.8,35.5c-0.4,15.7-0.4,31.3-1.1,47c-0.7,18.8-1.9,37.6-2.9,56.5
			c-0.2,4.3-0.5,8.6,6,7.6c0.7-0.1,1.6,0.7,2.4,1.2c0.4-0.9,0.7-1.6,1.1-2.3"/>
		<path class="st3" d="M994.1,471.2c0.2,2.2,0.4,4.3,0.5,6.5c0.4,13.5,0.8,27,0.9,40.5c0.1,7.2-0.9,14.3-0.9,21.5
			c0.1,11,0.7,22,0.9,33c0.4,20.3,0.7,40.6,1,60.9c0.1,4.7-0.3,9.3-0.5,14"/>
		<path class="st3" d="M963.6,422.7c-0.2,22.1-0.7,44.3-0.4,66.4c0.2,20.7,1.5,41.3,1.8,61.9c0.1,11.1-0.9,22.3-1.4,33.5"/>
		<path class="st3" d="M-157.7,521.2c-0.3,3.7-0.9,7.3-1,11c-0.4,19-0.3,38-1.1,56.9c-0.8,18.7-2.6,37.3-3.9,56c0,0.3,0,0.7,0,1
			c-0.3,11.8-0.7,23.6-1,35.5"/>
		<path class="st3" d="M280,278.9c0,2.7,0,5.3,0,8c0,22.8,0.1,45.6,0,68.4c-0.2,20.5-0.6,41-1,61.4c-0.1,5.7-0.6,11.3-1,17"/>
		<path class="st3" d="M235.6,262.9c0.2,2.2,0.5,4.3,0.5,6.5c-0.1,16-0.3,32-0.5,48c-0.2,14.2-0.4,28.3-0.5,42.5
			c-0.1,19.3,0.1,38.6-0.1,57.9c-0.1,15.3-0.6,30.6-1,46c0,1.2-0.6,2.3-1,3.5"/>
		<path class="st3" d="M442.4,238.9c-0.2,3.7-0.5,7.3-0.5,11c0,19.6-0.3,39.3,0,58.9c0.4,23,1.2,46,2,68.9c0.1,4.2,0.4,8.4,1.1,12.5
			c0.3,1.6,1.9,3,2.9,4.5"/>
		<path class="st3" d="M-320.6,250.9c-1,9.5-2,19-3,28.5c-0.1,1,0,2,0,3c-0.3,17.2-0.7,34.3-1,51.5c-0.1,4.8,0.2,9.7,0,14.5
			c-0.6,12.8-1.2,25.7-2,38.5c-0.5,8-1.4,16-1.9,24c-0.3,5-0.4,10-0.5,15"/>
		<path class="st3" d="M814.7,426.7c0,8.7,0.1,17.3,0,26c-0.2,12.7-0.8,25.3-0.9,38c-0.2,24.1-0.2,48.3,0,72.4
			c0.1,18.8,0.6,37.6,1,56.4c0.2,7.3,0.7,14.7,0.9,22c0.1,1.7-0.3,3.3-0.5,5"/>
		<path class="st3" d="M-156.2,355.8c-0.5,5.3-0.9,10.7-1.5,16c-2.8,22.9-1.7,45.9-2,68.9c-0.2,15.2-1.1,30.3-1.4,45.5
			c-0.1,4.8,0.6,9.7,0.9,14.5"/>
		<path class="st3" d="M813.7,247.9c-1.2,11.4,0.1,22.7,1.4,34c0.6,5.1-0.3,10.3-0.4,15.5c-0.1,21.3,0,42.6,0,63.9
			c0,7.7-0.4,15.3-0.4,23c0,3.5,0.3,7,0.5,10.5"/>
		<path class="st3" d="M422.9,255.9c-1,9.8-2,19.6-3,29.5c0,0.2,0,0.3,0,0.5c-0.7,12.5-1.9,25-1.9,37.5c0,13.3,1.6,26.6,1.8,40
			c0.3,28.1,0.1,56.3,0,84.4c0,5.5-0.6,11-0.9,16.5c0,0.8,0.3,1.7,0.5,2.5"/>
		<path class="st3" d="M107.1,343.8c-0.2,21.5,0.1,43-0.7,64.4c-0.5,14.7-2.5,29.3-3.8,44c-0.2,1.8,0,3.7,0,5.5
			c-0.5,11.7-1,23.3-1.5,35"/>
		<path class="st3" d="M207.6,222.9c-0.8-4.3-1.7-8.6-2.5-13c-0.2-1.4,0-2.8,0-4c-21,0-41.5,0-62,0c-4.8,0-9.7-0.1-14.5,0
			c-16.8,0.3-33.6,0.7-50.5,0.9c-1,0-2-0.6-3-1"/>
		<path class="st3" d="M-314.6,307.8c-1,9-2,18-3,27c-0.1,0.7,0,1.3,0,2c-0.3,15.3-0.5,30.6-1,46c-0.5,13.3-1.2,26.6-2,40
			c-0.4,7-1,14-1.5,21"/>
		<path class="st3" d="M406.9,425.7c-2.4,6.1-3.2,12.3-2.2,19c0.7,4.8-0.6,10-0.8,15c-0.9,23.3-1.7,46.6-2.5,69.9
			c-0.1,2.3,0.8,4.7,0.9,7c0.1,2.7-0.5,5.3-0.4,8c0.2,6.8,0.8,13.7,0.9,20.5c0.1,4.3-0.3,8.7-0.5,13c-0.2,4.2-0.3,8.3-0.5,12.5"/>
		<path class="st3" d="M-286.6,430.7c0.7,3.7,1.9,7.3,1.9,11c0.5,37.5,0.8,74.9,1,112.4c0,9.5-0.6,19-0.9,28.5"/>
		<path class="st3" d="M-321.1,451.7c-0.2,3.7-0.4,7.3-0.5,11c-0.4,16.7-0.9,33.3-1,50c-0.1,15.5,0.4,31,0.4,46.5
			c-0.1,34.6-0.2,69.3-0.5,103.9c-0.1,8-0.9,16-1.4,24"/>
		<path class="st3" d="M-323.1,533.6c-5.4,0.4-10.7,0.8-15.9,1.2c0.2,2.9,0.4,4.6,0.4,6.2c0,18,0.1,36,0,54
			c-0.1,14.2-0.5,28.3-1,42.5c-0.5,13.8-1.3,27.6-2,41.5c-0.2,3.8-0.3,7.7-0.5,11.5"/>
		<path class="st3" d="M680.3,394.8c0.3,6.8,0.6,13.7,1,20.5c0.3,3.7,0.2,7.6,1.6,10.9c2.8,6.7,2.6,13.7,3.2,20.6
			c1.5,17.4,2.3,34.9,3.1,52.4c0.3,6-0.7,12.1,0.3,17.9c0.6,3.9,0.9,7.2-1.2,10.5"/>
		<path class="st3" d="M434.4,514.7c0.2,4.2,0.3,8.3,0.5,12.5c0.3,8.3,1,16.7,0.9,25c-0.3,20-1,40-1.4,59.9
			c-0.1,8.5,0.3,17,0.4,25.5"/>
		<path class="st3" d="M611.8,341.8c0.3,1.3,0.9,2.7,1,4c0.7,31.1,1.4,62.3,2,93.4c0.2,8.2,0,16.3,0,24.5"/>
		<path class="st3" d="M-307.6,308.8c0.2,9.8,0.4,19.6,0.5,29.5c0.1,7.7-0.2,15.3,0.1,23c0.3,10.3,1.2,20.6,1.4,31
			c0.3,11.2,0,22.3,0.1,33.5c0,1.7,0.3,3.3,0.5,5"/>
		<path class="st3" d="M-164.7,155.5c-6-0.5-12-1.1-18-1.5c-10.7-0.7-21.3-1.4-32-1.9c-2-0.1-4.9,0.3-5.8,1.5
			c-3.4,4.8-8.1,3.8-12.7,3.9c-6.8,0.1-13.7,0.4-20.5,0.5c-1.5,0-3.7,0.3-4.4-0.6c-5-6.6-12-4.8-18.6-4.9c-11.5-0.2-23-0.3-34.5-0.5
			c-0.8,0-1.7,0-2.9,0c-1.1,2.3-2.3,4.7-2.9,6c-12.7,0-24.7,0-36.7,0"/>
		<path class="st3" d="M-334.1,564.1c0.2,3.3,0.5,6.7,0.5,10c-0.2,9.8-0.7,19.6-1,29.5c-0.7,25.3-1.4,50.6-2,75.9
			c0,1.7,0.3,3.3,0.5,5"/>
		<path class="st3" d="M681.8,236.4c-5.7-5.3-11.2-10.8-17.1-15.9c-1.2-1-3.3-1.5-4.9-1.5c-16.7,0.1-33.3,0.2-50,0.5
			c-3.7,0-7.3,0.4-11.6,0.6c0.3-5.5,0.5-10.3,0.7-15.1c-34.4,0-68.2,0-102,0c-0.9,5.7-1.7,10.8-2.5,16"/>
		<path class="st3" d="M-309.1,558.6c0.2,1.7,0.5,3.3,0.5,5c0,10.5,0.1,21,0,31.5c-0.2,14.8-0.6,29.6-1,44.5c-0.3,14-0.7,28-1,42
			c0,2.2,0.3,4.3,0.5,6.5"/>
		<path class="st3" d="M407.9,307.8c-10.7,0-21.3-0.1-32,0c-9,0.1-18,0.8-27,0.9c-15,0.2-30,0-45,0c-4,0-8,0-12,0"/>
		<path class="st3" d="M596.8,149c-10.7,0-21.3,0-32.5,0c-0.4,0.8-1.1,2.2-2,3.9c-1-0.2-2-0.5-3-0.4c-8.5,0.3-17,0.7-25.5,1
			c-1.9,0.1-3.7,0.3-5.1-1.9c-1.6-2.4-4.5-2.6-7.4-2.6c-13.2,0-26.3-0.3-39.5-0.4"/>
		<path class="st3" d="M58.2,270.9c-1,18.3-2.3,36.6-2.9,55c-0.4,10.6,0.4,21.3,0.4,32c0,11.2-0.4,22.3-0.4,33.5c0,3,0.9,6,0.9,9
			c-0.2,24.8-0.5,49.6-1,74.4c-0.2,7-1.3,14-1.9,21c-0.1,1,0.3,2,0.5,3"/>
		<path class="st3" d="M218.1,52.1c0.2-1.7,0.5-3.3,0.5-5c0-32.5,0-64.9,0-97.4c0-4,0-8,0-13c37.3-8.7,74.3-17.3,111.6-26.1
			c1,3.7,1.8,6.9,2.8,10.1c1,3.3,1.1,7.3,5.2,8.1c1,6.1,1.2,12,3,17.3c1.8,5.2,1.7,10.3,1.8,15.6c0.3,15.2,0.5,30.3,1.1,45.5
			c0.3,6.4,1.6,12.7,2.4,19"/>
		<path class="st3" d="M-91.7,542.6c0.5,5.8,1.3,11.6,1.4,17.5c0.2,8.7,0.1,17.3,0.1,26c-0.1,15.8,0,31.7-0.6,47.5
			c-0.5,12.3-2,24.6-2.8,37c-0.3,4,0.3,8,0.4,12"/>
		<path class="st3" d="M-281.1,247.4c3.2,2.7,6.4,5.2,9.5,8c0.9,0.9,2,2.3,1.9,3.4c-0.3,9.4,1.2,18.9-2.3,28
			c-0.7,1.9-0.1,4.3-0.1,6.5c-0.5,18.2-1,36.3-1.5,54.5c-0.1,4-0.1,8,0,12c0.1,1.7,0.6,3.3,1,5"/>
		<path class="st3" d="M-261.1,508.7c-0.7,14.7-1.5,29.3-1.9,44c-0.3,12.1,0,24.3-0.1,36.5c-0.1,7.8-0.3,15.7-0.5,23.5"/>
		<path class="st3" d="M-129.7,258.9c0,7.2,0,14.3,0,21.5c0,19.6-0.1,39.3,0.1,58.9c0.1,7.7,0.8,15.3,1.5,23c0.1,1.4,1.6,2.7,2.4,4"
			/>
		<path class="st3" d="M394,296.9c-8.2,0.2-16.3,0.3-24.5,0.5c-1.7,0-3.3,0.5-5,0.5c-24.2,0-48.3,0-72.5,0"/>
		<path class="st3" d="M23.7-46.8c-6.3,1.3-12.7,2.5-19,4c-18.3,4.6-36.6,9.3-55,13.9c-9.2,2.3-18.4,4.5-27.5,6.7
			c1,5.6,2,10.9,3.2,17c3.8-0.9,7.7-1.6,11.4-2.8c13.7-4.2,27.3-8.9,41-12.9C-9.7-24.5,3-27.5,15.7-30.9c3.7-1,7.3-2.3,11-3.5"/>
		<path class="st3" d="M795.7,196.9c-7.3,1.7-15,2.4-21.9,5.3c-5.4,2.2-10.5,1.4-15.6,1.5c-15.5,0.5-31,0.2-46.5,0.2
			c-5.8,0-11.7,0-17.5,0"/>
		<path class="st3" d="M690.3,526.6c0,5.3,0,10.7,0,16c0,8.5,0.1,17,0,25.5c-0.2,15.7-0.7,31.3-0.9,47c-0.1,3.8,0.3,7.7,0.5,11.5"/>
		<path class="st3" d="M-351.6,19.6c-3.3,4.3-8.7,3.6-13.1,5.3c-7.6,2.9-15.6,4.9-23.4,7.1c-4.4,1.3-8.9,2.3-13.9,3.5
			c0.5-5.8,0.9-11.1,1.3-15.5c10.5,0,20.8,0.1,31.1,0c4.5-0.1,9-0.6,13.5-1c22.2-1.6,42.7-10.7,64.5-14.5c1.7-0.3,3.2-1.2,5.3-2.1
			c2.4,7.8,10.8,11.9,10.8,20.9c-3,0.6-6.1,1.2-9.1,1.9c0-0.2-0.1-0.4-0.1-0.7c-4.8,0.8-9.7,1.2-14.3,2.5
			c-22.9,6.3-45.7,12.9-68.5,19.4c-5.1,1.5-10,3.3-15,5"/>
		<path class="st3" d="M-297.1,455.7c0.5,11.5,1.3,23,1.4,34.5c0.4,21.6,0.4,43.3,0.6,64.9c0.1,12.5,0.3,25,0.5,37.5
			c0,1.7,0.6,3.3,1,5"/>
		<path class="st3" d="M-279.1,266.9c0.5,30.6,1,61.3,1.5,91.9c0,2.3,0.3,4.7,0.5,7"/>
		<path class="st3" d="M459.9,574.6c-0.3,32.6-0.7,65.3-1,97.9"/>
		<path class="st3" d="M855.7,244.9c4.3,1,8.7,2,13.6,3.1c0.8,7.8,1.8,15.8,2.3,23.9c1,16.3,1.8,32.6,2.5,49
			c0.3,7.2,0.5,14.3,0.8,21.5"/>
		<path class="st3" d="M392,191.9c-0.5-1-1.1-1.9-1.5-2.6c-1.4,0.8-1.9,0.9-2,1.1c-2.5,8.3-10.6,7.6-16.5,10.5
			c-0.7,0.4-1.8,0.1-2.5,0.6c-9.2,6.2-19.4,4.4-29.5,4c-7.5-0.3-15,0-22.5-0.1c-7,0-14-0.2-21-0.2"/>
		<path class="st3" d="M-329.6,435.7c0,3,0,6,0,9c-0.3,24.8-0.6,49.6-1,74.4c-0.1,4.8-0.6,9.7-1,14.5"/>
		<path class="st3" d="M159.1-47.8c0,33.1,0,66.3,0,100c0.6,0.1,2.3,0.6,4.7,1.2c0.1-1.6,0.2-3,0.3-4.3"/>
		<path class="st3" d="M753.7,0.6c3.5,1.2,6.9,2.7,10.5,3.4c10.6,2,21.3,3.8,32,5.6c2.3,0.4,4.7,0.5,7.2,0.8c0,1.9,0,3.5,0,5.4
			c4,1.7,10.3,0.2,9.7,8c0.4-0.1,0.7-0.2,1.1-0.2c1.4-1.6,2.7-3.2,4.2-4.9c11.6,2.5,23.4,5.1,35.3,7.3c3.1,0.6,3,2,3,4.1
			c0.3,0,0.7,0.1,1,0c10.2-2,19.5,3.4,29.5,3.6c4.3,0.1,8.7,0.9,12.6,1.3c1.3,1.7,2.3,3.1,3.4,4.5c0.2-0.3,0.3-0.6,0.5-1
			c3,0.2,6,0.4,9,0.6"/>
		<path class="st3" d="M272.5,278.9c-0.2,0.8-0.5,1.7-0.5,2.5c-0.4,20-0.7,40-1,59.9c-0.3,21.3-0.5,42.6-1.1,63.9
			c-0.3,10.5-1.3,21-1.9,31.5c-0.1,1.6-1.1,4.1,1.9,4.5"/>
		<path class="st3" d="M287,485.2c-0.3,0.8-0.9,1.6-1,2.5c-0.4,4.7-1,9.3-1,14c-0.1,26.1-0.1,52.3,0,78.4c0,1.8,0.3,3.7,0.5,5.5"/>
		<path class="st3" d="M392.5,260.4c-6.8-1.8-14-2.9-20.4-5.7c-7.5-3.2-14.8-3.5-22-0.7c-10.5,4.1-21.3,3.2-32,3.3
			c-7.3,0-14.7-0.9-22-1.4"/>
		<path class="st3" d="M381,227.9c-0.1-1.2-0.1-2.3-0.2-3.9c-2.4-0.2-4.6-0.5-6.8-0.6c-21.3-0.5-42.6-1.2-64-1.5
			c-22-0.3-44-0.4-66-0.5c-9.5,0-19,0.3-28.5,0.5c-6.1,0.1-7.4,1.1-8.4,5.9c3.9,5,7.6,9.8,11.4,14.5c0.4,0.5,1.3,0.7,2,1"/>
		<path class="st3" d="M49.7,560.6c0,6.3,0,12.7,0,19c0,12.7,0,25.3,0,38.4c3.7,1.5,8,3.2,12.5,5.1c0,6.5-0.1,12.5,0,18.5
			c0,1.7,0.6,3.3,1,5"/>
		<path class="st3" d="M397.5-12.9c0.2,3.5,0.4,7,0.5,10.4c27.8-0.3,55.1-0.6,82.4-0.9c6.8-0.1,13.7-0.2,20.5-0.5
			c4-0.2,8-0.9,12-1.4"/>
		<path class="st3" d="M-335.1,444.7c-0.3,6.2-0.4,12.4-1.1,18.5c-2.6,23.3-2.6,46.6-2.4,69.9c0,0.7,0.3,1.3,0.5,2"/>
		<path class="st3" d="M-99.7,423.7c0.5,19.1,0.8,38.3,1.6,57.4c0.5,10.8,1.9,21.7,2.9,32.5"/>
		<path class="st3" d="M494.9,222.4c3.7,0.7,7.3,1.8,11,1.9c13.8,0.4,27.6,0.5,41.5,0.6c14,0.1,28,0,42.4,0c-0.4,3.4-0.7,6.2-1.1,10
			c1.8,0,3.4,0,5.1,0"/>
		<path class="st3" d="M781.7,672.5c-11.3,0.3-22.7,0.6-34,1c-6.8,0.2-13.7,0.8-20.5,0.9c-9.9,0.1-19.8,0.7-29.5,2.9
			c-2.5,0.6-5.3-0.5-8-0.9"/>
		<path class="st3" d="M34.2,154c-0.4-0.8-0.8-1.6-1.3-2.5c-7.5,0-15.4-0.1-23.2,0c-10.2,0.1-20.3,0.4-30.5,0.4
			c-2.7,0-5.2,0.2-7,2.5c-2.4,3-5.7,3.7-9.5,3.6c-8.7-0.2-17.3-0.1-26.3-0.1c-2.6-6.6-7.8-6.9-14.2-6.2c-6.9,0.7-14-0.1-21-0.3"/>
		<path class="st3" d="M103.6,487.2c1.7,2,3.2,4.1,5,6c3.8,4.1,1.6,9.1,1.7,13.5c0.5,20.3,0.3,40.6,0.2,60.9c0,2.7-0.3,5.3-0.5,8"/>
		<path class="st3" d="M293,488.7c0,12.5,0.1,25-0.1,37.5c-0.1,5-1.5,10-1.3,15c0.3,10.3,1.7,20.6,1.8,31c0.1,9.8-0.9,19.6-1.4,29.5
			c-0.3,6.8-0.7,13.7-1,20.5c-0.1,2.8,0.7,5.9-0.1,8.5c-2.2,7-0.6,11.7,7.5,13.8c-0.6,8.3-1.3,16.3-1.8,24.3
			c-0.1,1.8,0.3,3.7,0.5,5.5c0,0,0.3,0.1,0.5,0c0.2-0.1,0.3-0.3,0.5-0.5"/>
		<path class="st3" d="M1055,38.6c6.7,0.2,13,1.9,19.6,4.4c-1.5,2.1-2.5,3.6-3.3,4.6c-13.3,0.3-26.3,1-39.3,0.8
			c-11.8-0.2-23.7-1.4-35.5-2.5c-2.9-0.3-6.4-3.1-8.4-2.1c-4.7,2.3-9.2,0.1-13.6,0.6c-2.6,0.3-5.3,0.1-8,0.1"/>
		<path class="st3" d="M672.8,245.9c3-2.5,6.4-4.6,8.9-7.6c1.9-2.3,2.5-5.7,4.1-9.8c1.1-0.8,3.3-2.5,5.5-4.1c1-0.7,2.3-1.5,3.5-1.5
			c10.8-0.1,21.7-0.1,32.5,0c13.5,0.1,27,0.4,40.5,0.4c4.3,0,8.7-0.4,13.5-0.6c0,4.2,0,8.2,0,12.6c3.1,0.3,6.3,2.8,10.5,1.7
			c1.5-0.4,4,0.7,5.4,1.9c3.1,2.6,5.7,5.6,8.6,8.4"/>
		<path class="st3" d="M470.9,574.6c-0.3,29-0.7,57.9-1,86.9"/>
		<path class="st3" d="M67.2,526.6c0,7.5,0.1,15,0,22.5c-0.2,8.8-0.6,17.7-1,26.5c-0.6,12.7-1.3,25.3-2,38"/>
		<path class="st3" d="M261.5,271.9c-0.2,1.8-0.5,3.7-0.5,5.5c0,19.8,0.1,39.6,0,59.4c-0.2,30.8-0.6,61.6-0.9,92.4
			c0,1.7,0.3,3.3,0.5,5"/>
		<path class="st3" d="M199.1,253.4c-9.3-0.5-18.7-1.4-28-1.4c-11.8,0-23.7,0.6-35.5,0.9c-7.5,0.1-15,0-22.5,0"/>
		<path class="st3" d="M195.1-47.8c-0.7,9-1.4,18-2,27c-0.7,10.7-0.7,21.4-2.3,31.9c-1,6.5,1.6,10.8,5.3,15c2.9,3.3,5.6,6.5,6.5,11
			c0.1,0.5,1.6,0.7,2.4,1"/>
		<path class="st3" d="M492.9,511.7c-2.4,4.6-4.8,9.2-7.3,13.9c-0.5,0-0.9-0.1-1.4-0.1c1.2,3.1,1.8,6.7,3.8,9.1
			c3.7,4.6,4.2,9.8,4.3,15.1c0.2,7.8,0.2,15.7,0,23.5c-0.2,4.7-1.1,9.4-1.8,15.3c0.7,1.5,2,4.3,3.3,7.2"/>
		<path class="st3" d="M961.1,244.9c0.3,3,0.9,6,1,9c0.1,9-0.2,18,0.1,27c0.5,19.3,1.6,38.6,1.9,58c0.3,21.6,0.1,43.3,0.1,64.9
			c0,5.3-0.3,10.7-0.5,16"/>
		<path class="st3" d="M23.7,70.6c-2-1.3-3.8-1.9-6.5-1.7c-8.3,0.6-16.6,0.4-25,0.7c-15,0.4-30,1.1-45,1.4c-4.7,0.1-9.3-0.6-14-0.9"
			/>
		<path class="st3" d="M760.7,154c-11.8,0-23.7,0-35.8,0c-0.7-1-1.7-2.5-3.3-4.9c-9.9-0.2-20.4-0.4-30.9-0.6
			c-3.3-0.1-6.7-0.3-10-0.5"/>
		<path class="st3" d="M633.8,595.6c0.2,1,0.5,2,0.5,3c0,13.7,0.1,27.3,0,41c-0.1,12.7-0.3,25.3-0.5,38"/>
		<path class="st3" d="M-257.6,232.9c-0.3-2-0.6-4-0.9-6.6c2.3-1.5,5-3.2,7.9-5c2.4,3.1,4.5,5.9,7,9.2c10.9-0.8,22.2-2,33.5-2.5
			c7.5-0.3,15,0.5,22.5,0.9c3.7,0.2,5.5,2.9,7,5.9c3.4,6.6,7,13.2,10.5,19.8c-0.2,2.4-0.5,5-0.5,7.7c-0.2,21.6-0.3,43.3-0.6,64.9
			c-0.1,5.2-0.9,10.3-1.4,15.5"/>
		<path class="st3" d="M650.8,386.8c0,9.2-0.3,18.3,0.1,27.5c0.6,16.8,1.6,33.6,2.4,50.5c0.1,2,0.3,4,0.5,6"/>
		<path class="st3" d="M-129.7,235.4c-3.2,0.8-6.4,1.5-9.5,2.5c-10.4,3.5-17.1-3.9-24.4-8.7c-3.9-2.6-7.7-4.1-12.1-4.2
			c-5.7-0.2-11.3-0.1-17.2-0.1c0-5,0-9.5,0-13.7c-23.1,0-45.9,0-68.8,0c-1.4,5.9,1,10.1,3.6,14.2"/>
		<path class="st3" d="M620.8,585.6c2,2.8,1,6,0.9,9c-0.2,6.5-1.2,13-1.3,19.5c-0.3,16-0.4,32-0.6,48c0,1.2-0.3,2.3-0.5,3.5"/>
		<path class="st3" d="M794.7,478.7c0.5,7.8,1.2,15.6,1.5,23.5c0.6,19.1,1,38.3,1.5,57.4"/>
		<path class="st3" d="M180.1,64.6c1.8-3.4,5.3-1.8,7.5-1.8c17.7,0.1,35.3,0.7,53,1.3c6.8,0.2,13.7,0.9,20.5,0.9
			c2.1,0,5.3,2,6.5-1.9"/>
		<path class="st3" d="M-134.7,267.9c-0.3,1.7-0.9,3.3-1,5c-0.4,16-0.7,32-1.1,48c-0.2,7.7-0.7,15.3-0.9,23c-0.1,1.7,0.3,3.3,0.5,5"
			/>
		<path class="st3" d="M-159.2,251.4c-0.2,11.3-0.4,22.6-0.5,34c-0.1,4.7,0,9.3,0,14c0,11.2,0,22.3,0,33.5"/>
		<path class="st3" d="M53.2,682.5c-7.5,0-15-0.1-22.5,0c-23.7,0.3-47.3,0.5-71,1.1c-7.8,0.2-15.7,1.3-23.5,1.9"/>
		<path class="st3" d="M621.8,373.8c-0.5,26.3-1,52.6-1.5,78.9c0,0.3,0.3,0.7,0.5,1"/>
		<path class="st3" d="M187.1,226.9c-25-0.3-50-0.7-75-1c-1.7,0-3.3,0.6-5,1"/>
		<path class="st3" d="M963.6,591.6c-0.2,2.2-0.5,4.3-0.5,6.5c0.2,22.4-0.2,44.7-3.1,66.9c-0.3,2.2-1,4.3-1.5,6.5"/>
		<path class="st3" d="M453.9,240.9c0,2.2,0,4.3,0,6.5c-0.5,18.7-1.1,37.3-1.4,56c-0.1,5.5,0.3,11,0.5,16.5"/>
		<path class="st3" d="M103.1,513.7c0,7.2,0.1,14.3,0,21.5c-0.4,17.3-1.1,34.6-1.4,52c-0.3,15-0.4,30-0.5,45
			c-0.1,13.2,0,26.3,0,39.5"/>
		<path class="st3" d="M-247.6,50.1c-16.2,0.3-32.3,0.6-48.5,1c-8.7,0.2-17.3,0.6-26,1c-16.2,0.7-32.3,1.1-48.5,2.1
			c-4.7,0.3-9,0.2-13.6-1.4c-2.2-0.8-5.3,0.8-7.9,1.3"/>
		<path class="st3" d="M76.7,379.8c-0.3,8.2-0.7,16.3-1,24.5c0,1-0.4,2-0.5,3c-0.7,20.6-1.3,41.3-2,61.9c-0.1,3.8-0.6,7.7-1,11.5"/>
		<path class="st3" d="M585.3,384.8c-0.5,23.8-1,47.6-1.5,71.4c0,1.8,0.3,3.7,0.5,5.5"/>
		<path class="st3" d="M463.9,248.9c0.3,21,0.6,42,1,62.9c0.1,4.3,0.6,8.7,1,13"/>
		<path class="st3" d="M144.6-39.3c0,5.8,0.1,11.7,0,17.5c-0.4,14.7-0.9,29.3-1.5,44c-0.2,4.7-0.6,9.3-1,14"/>
		<path class="st3" d="M-72.3-4.4c2,4.2,4.1,8.5,6.5,13.6c-18,3.8-35.8,7.6-53.8,11.4c-1.4,2.9-2.8,6-4.3,9
			c-3.3-3.5-6.4-6.8-9.3-9.7c-10.6,3.4-20.6,6.6-30.6,9.8c0,1.6,0,3.4,0,5.5c-3.8,0.2-7.7,0.5-12.4,0.8c-4-5.5-8.6-11.3-12.4-17.6
			c-2.1-3.5-4.7-4.4-8.1-3.9c-12.5,1.9-25,4-37.5,6"/>
		<path class="st3" d="M594.8,359.8c-0.5,22.3-1,44.6-1.5,66.9c-0.1,2.7,0,5.3,0,8"/>
		<path class="st3" d="M604.8,527.6c-0.2,17-0.2,34-0.5,51c-0.4,22.6-0.9,45.3-1.5,67.9c-0.2,5.8-1.4,11.6-1.9,17.5
			c-0.3,2.8,0,5.7,0,8.5"/>
		<path class="st3" d="M1075,32.6c2.9-2.7,5.9-5.5,8.2-7.7c0-4,0-7.1,0-10.9c-2.1,0.4-4.3,0.3-5.7,1.2c-5.4,3.5-11.1,3.1-16.5,0.8
			c-3.3-1.5-5.5-1-7.2,1.7c-4.7-1.5-10.3,0.4-12.8-4.7c-20.1-4.1-40-8.2-59.7-12.2c-3.6,2.6-6.7,4.9-10.1,7.3
			c-0.3,1.7-0.6,3.3-0.9,5.3c4,1.3,7.5,4.1,12.2,1.9c2.3-1.1,4.4,0.4,5.4,2.9c0.5,1.2,1,2.3,1.5,3.5"/>
		<path class="st3" d="M-126.2,386.8c0,3.3,0,6.7,0,10c0,15.8,0.1,31.6,0,47.5c-0.1,23.3-0.3,46.6-0.5,69.9c0,0.8-0.3,1.7-0.5,2.5"
			/>
		<path class="st3" d="M976.6,363.3c0.3,1.8,0.9,3.7,1,5.5c0.1,20.8,0,41.6,0,62.4c0,2.2,0,4.3,0,6.5"/>
		<path class="st3" d="M592.3,527.6c-0.3,7-0.8,14-1,21c-0.3,13-0.4,26-0.5,39c0,3.5,0.4,7,0.4,10.5c0,1-0.9,2-1.4,3"/>
		<path class="st3" d="M234.1,479.7c-1,16.2-2.2,32.3-2.9,48.5c-0.4,8.5,0.2,17,0.4,25.5"/>
		<path class="st3" d="M-99.7,328.8c0,5.3-0.1,10.7,0,16c0.2,8.7,0.8,17.3,0.9,26c0.1,9-0.3,18-0.4,27c0,1.7,0.3,3.3,0.5,5"/>
		<path class="st3" d="M190.1,233.9c-7.3,0.2-14.7,0.2-22,0.5c-16.8,0.6-33.6,1.3-50.5,2"/>
		<path class="st3" d="M598.8,528.6c0,24,0,48,0,71.9"/>
		<path class="st3" d="M587.8,529.6c-0.2,0.7-0.5,1.3-0.5,2c-0.2,23.3-0.4,46.6-0.5,69.9"/>
		<path class="st3" d="M9.2,228.9c-7-2-14.5-3.1-20.9-6.3c-6.4-3.2-12.7-2.6-19.1-2.6c-8,0-16,0.8-24,0.9c-12.3,0.2-24.7,0-37,0
			c-0.5,1.5-1,3-1.5,4.5"/>
		<path class="st3" d="M455.9-45.3c-0.3-2.4-0.6-4.7-1-7.7c-21.4,0.8-42.2,1.5-62.6,2.2c-0.4,8.3-0.7,15.6-1.1,23.5
			c-6.8-0.4-13.3-0.6-19.8-1.2c-1.7-0.2-4.3-0.7-3.2-3.9c0.2-0.5-1.7-1.8-3.4-3.5c-1.8,5.2-3.5,9.6-4.9,14.1
			c-3.7,12.3-7.3,24.6-11.1,36.9c-0.4,1.5-1.6,2.7-2.4,4"/>
		<path class="st3" d="M991.1,245.9c0.3,9.7,0.7,19.3,1,29c0.5,15.8,0.8,31.6,1.6,47.5c0.5,11.8,1.6,23.6,2.4,35.5"/>
		<path class="st3" d="M676.8,322.8c0.8,14.8,1.7,29.6,2.5,44.5c0.4,8.5,0.7,17,1,25.5"/>
		<path class="st3" d="M-24.8,220.9c-1.2,1.8-2.3,3.7-3.8,6c-6.2,0-12.7,0.1-19.2,0c-10.2-0.1-20.3-0.4-30.5-0.5
			c-4.6-0.1-9.3-0.6-13.5,2"/>
		<path class="st3" d="M419.4,511.7c-0.2,3-0.4,6-0.5,9c-0.4,18.3-0.7,36.6-1,55c0,1.7,0,3.3,0,5"/>
		<path class="st3" d="M-151.2,563.6c-0.2,2.8-0.4,5.7-0.5,8.5c-0.4,18-0.7,36-1,54c0,2.2,0.3,4.3,0.5,6.5"/>
		<path class="st3" d="M581.3,255.4c-2.2-4.3-6.4-1.7-9.5-2.3c-5.2-0.9-10.6-0.2-15.9-0.3c-21-0.2-42-0.3-63-0.5"/>
		<path class="st3" d="M574.8,592.6c-0.3,23-0.7,46-1,68.9"/>
		<path class="st3" d="M-257.1,94.5c-1.7,0.8-3.3,1.7-5.5,2.8c-2-3-4-6.1-6.2-9.3c-2.5,1.7-5.1,3.4-6.4,4.3
			c-12.7-0.6-24-1.1-35.6-1.7c-1.1,4.2-2.2,8.1-3.2,11.9"/>
		<path class="st3" d="M493.9,603.6c0.7,9-1.3,17.7-2.9,26.5c-1.2,6.6-1.4,13.3-2.1,20c-0.5,4.5-1.2,9-2,14.5c1,1.6,2.5,4.1,4,6.5"
			/>
		<path class="st3" d="M86.1,527.6c0.3,8.7,1,17.3,0.9,26c-0.1,13.3-0.6,26.6-0.9,40c0,0.7-0.3,1.3-0.5,2"/>
		<path class="st3" d="M577.3,70.1c-0.3-8-0.7-16-1-23.8c-1.8-0.6-2.6-1.1-3.5-1.1c-13.7-0.4-27.3-0.7-41-1c-9-0.2-18-0.4-27-0.5
			c-2.3,0-4.7,0.6-7,0.9"/>
		<path class="st3" d="M399,288.9c-10.3,0-20.7,0-31,0c-1,0-2.4-0.3-2.9-1c-3.5-4.5-8.6-3.9-13.1-3.8c-18.3,0.3-36.6,1.2-55,1.8"/>
		<path class="st3" d="M-96.2,236.4c3.2-1.6,5.5-6.9,3.4-9.4c-4-4.9-3.2-10.6-4-16.6c8.2,0,16.4,0,24.6,0c1.5-2.4,2.8-4.4,4.4-7
			c5.8,0.1,12.2-0.5,17,4.6c2.2,2.4,4.6,1.9,7.1,1.9c16.5-0.4,33-1,49.7-1.5c0,5.8,0,10.6,0,15c15.9,0,31.6,0,47.2,0"/>
		<path class="st3" d="M903.6,54.1c-6.3,0.3-12.7,0.7-19,1c-17.3,0.7-34.6,1.3-52,2c-0.3,0-0.7-0.3-1-0.5"/>
		<path class="st3" d="M76.7,529.6c-0.5,9-1,18-1.5,27c-0.1,1.3,0,2.7,0,4c0,13.7,0,27.3,0,41"/>
		<path class="st3" d="M129.1-30.9c0.3,1.8,0.9,3.7,1,5.5c0.1,13,0.1,26,0,39c0,4.7-0.8,9.3-0.9,14c-0.1,2.5,0.6,5,0.9,7.5"/>
		<path class="st3" d="M196.1,259.4c-10.7-0.5-21.3-1.2-32-1.4c-6.7-0.1-13.3,0.7-20,0.9c-7.2,0.3-14.3,0.4-21.5,0.5"/>
		<path class="st3" d="M864.7,247.9c-0.2,6.5-0.6,13-0.4,19.5c0.3,10.3,1,20.6,1.4,31c0.2,4.8,0.3,9.7,0.5,14.5"/>
		<path class="st3" d="M470.9,258.9c0.3,13.2,0.5,26.3,1.1,39.5c0.3,7.7,1.3,15.3,1.9,23c0.1,1.8-0.3,3.7-0.5,5.5"/>
		<path class="st3" d="M367.5,246.1c-4.8-0.1-9.7,0-14.5-0.3c-13.7-0.7-27.3-1.7-41-2.4c-2.6-0.1-5.3,0.3-8,0.5"/>
		<path class="st3" d="M443.4,410.7c-0.2,0.8-0.5,1.7-0.5,2.5c-0.4,20.1-0.7,40.3-1,60.4"/>
		<path class="st3" d="M464.9-28.4c-0.5-5-1-10-1.5-15.6c-9.6-0.6-19.3-1.3-29-1.8c-9.3-0.5-18.7-0.8-28-1c-4.5-0.1-9,0.6-13.5,0.9"
			/>
		<path class="st3" d="M926.6,151.5c7.8,0,15.7,0,24,0c0.8-1.2,2.1-3.4,3.6-5.7c17.2,0,34.5,0,51.7,0c0.8,2.2,1.3,3.7,2.1,6
			c12.2-0.4,24.9-0.8,37.5-1.3"/>
		<path class="st3" d="M447.9,571.6c-0.3,18.8-0.7,37.6-1,56.4c0,2.5,0,5,0,7.5"/>
		<path class="st3" d="M645.8,602.6c-0.7,18.2-1.4,36.3-2,54.5c-0.1,2.2,0.3,4.3,0.5,6.5"/>
		<path class="st3" d="M653.8,503.7c0.2,2.8,0.4,5.7,0.5,8.5c0.2,15,0.3,30,0.6,45c0,2.5,0.6,5,1,7.5"/>
		<path class="st3" d="M618.3,254.9c0,3.7,0,7.3,0,11c0,15.8,0,31.6,0,47.5c0,0.5,0.3,1,0.5,1.5"/>
		<path class="st3" d="M885.6,217.4c-1.3-0.3-2.7-1-4-0.9c-9.5,0.4-19,1-28.5,1.4c-2.3,0.1-4.7,0-7,0c-12,0.2-24,0.4-36,0.5
			c-5.2,0-10.3-0.3-15.5-0.5"/>
		<path class="st3" d="M757.7,61.1c0.4-2.8-1.4-3-3.5-3c-4.7,0-9.4-0.5-14,0.1c-6.3,0.8-11-1.9-13.8-6.7c-2.7-4.6-5.8-4.4-10.2-4
			c-6.4,0.6-13,0.2-19.5,0.2"/>
		<path class="st3" d="M654.8,33.6c7.5-1.9,14.7,0.5,22,1.6c10.2,1.5,20.3,4,30.8,6.1c3.7-3.7,7.1-7.4,10.7-10.7
			c11.3-10.2,23.1-19.9,33.8-30.7c6.7-6.8,13.2-14.5,14.9-25.8c-16.2-3.2-32.3-6.4-48.3-9.6c-3,8.5-5.5,16.1-8.4,23.5
			c-2.4,6-5.3,7.4-11.9,6.5c-2.4-0.3-5.4,2.3-7-1.5"/>
		<path class="st3" d="M285.5,241.9c-6.5-4.5-14.1-4.7-21.5-5.4c-11-1-22.1-1.1-33,1.5c-1.7,0.4-3.3,1.3-5,2"/>
		<path class="st3" d="M167.1,668c-8.7-0.2-17.3-0.5-26-0.5c-11,0-22,0.3-33,0.5"/>
		<path class="st3" d="M-289.6,252.9c0,40.3,0,80.6,0,120.9"/>
		<path class="st3" d="M283,65.1c-2,0-4,0-6.1,0c-1,5.1-4,6.9-9.4,7.2c-8.7,0.5-17.4,2.1-26,3.9c-5.4,1.1-9.9-0.1-13.9-3.2
			c-2.4-1.8-4.4-2.4-7.1-1.4"/>
		<path class="st3" d="M986.6,247.4c0.5,0,1.4,0.2,1.4,0c0.3-0.6,0.2-1.3,0.3-1.9c-6.7,1.4-13.2,2.7-19.7,4
			c0,20.5-0.1,41.2,0.1,61.8c0,4.2,1.2,8.3,1.9,12.5"/>
		<path class="st3" d="M980.1,475.2c0.2,5.7,0.4,11.3,0.5,17c0.1,11.7,0,23.3,0,35c0,2.2,0.3,4.3,0.5,6.5"/>
		<path class="st3" d="M-41.8,252.9c-17.7,0.7-35.3,1.4-53,2c-2.5,0.1-2.9,1-2,3"/>
		<path class="st3" d="M-295.1,377.8c0,5.8,0.2,11.7,0,17.5c-0.3,8.3-0.9,16.7-1.5,25c-0.3,5.2-0.7,10.3-1,15.5"/>
		<path class="st3" d="M66.7,264.9c-0.2,6.3-0.3,12.7-0.5,19c-0.1,2.5-0.8,5-0.9,7.5c-0.4,8.8-0.7,17.7-1,26.5
			c-0.1,1.7-0.3,3.3-0.5,5"/>
		<path class="st3" d="M857.2,218.4c1.2,0.8,2.2,2,3.5,2.4c3.9,1.5,8.1,2.4,11.9,4.1c2.9,1.3,3.9,3.9,2,6.9
			c-1.8,2.8-3.8,5.4-5.5,7.8c-5.4-1-10.4-2.2-15.5-2.7c-14.3-1.4-28.7-2-43,0.9c-2.3,0.5-4.7,1-7,1.5"/>
		<path class="st3" d="M944.6,218.4c-15.8,1.3-31.6,2.7-47.5,4c-2.3,0.2-4.7,0.2-7,0.6c-0.8,0.1-1.3,1.2-2,1.9"/>
		<path class="st3" d="M87.1,232.9c-8.4-4-17.4-5-26.5-4.4c-9.9,0.6-19.7,2.2-29.5,3.4c-2.4,0.3-4.7,1-7,1.5"/>
		<path class="st3" d="M865.7,356.8c-0.2,7.8-0.5,15.7-0.5,23.5c0,7.7,0.3,15.3,0.5,23c0.1,3.7,0,7.3,0,11"/>
		<path class="st3" d="M164.1,679.5c-17.5-0.3-35-0.7-52.5-1c-1.7,0-3.3,0.3-5,0.5"/>
		<path class="st3" d="M820.7,154.5c-0.3-1.5-0.7-3-0.8-3.7c-19.2-0.6-38.2-1.2-57.1-1.8"/>
		<path class="st3" d="M1051.5,77c-4.8,1.7-6.8,6.2-8.5,8.6c0,5.4,0,9.4,0,13.4c-0.1,11.2-0.4,22.3-0.5,33.5c0,4.3-0.6,8.3,3.2,12.3
			c2.2,2.4,1.7,7.7,1.7,11.7c0,7.5-1.4,15.1-0.7,22.5c0.8,8.1,1.1,16-0.5,23.7c-1.7,1-3.2,1.9-4.7,2.8"/>
		<path class="st3" d="M82.2,242.9c-12.9-5.2-26.5-4.8-40-3.9c-4.4,0.3-8.7,1.5-13,2.5c-0.8,0.2-1.4,1.6-2,2.4"/>
		<path class="st3" d="M-326.1,94c-0.2,7-0.4,14-0.5,21c-0.1,11.7,0,23.3-0.1,35c0,0.3-0.6,0.7-1,1"/>
		<path class="st3" d="M-249.1,89.5c0.5,5.8,1.2,11.6,1.5,17.5c0.5,11.6,0.7,23.3,1.1,35c0,1.3,0.6,2.7,1,4"/>
		<path class="st3" d="M201.1,148.5c-12.2,0.8-24.3,1.4-36.5,2.7c-2.5,0.3-4.7,3.1-7.2,4.8c-3.9-0.5-7.9-1-11.9-1.5"/>
		<path class="st3" d="M-308.6,476.7c0,27,0,54,0,80.9"/>
		<path class="st3" d="M970.1,367.8c0.5,13.8,0.9,27.6,1.5,41.5c0.2,4.8,1,9.7,1.5,14.5"/>
		<path class="st3" d="M987.1,26.1c2.9,6.2,9.1,4.9,14,5.8c10.1,1.8,20.3,2.6,30.4,4.2c7.4,1.2,14.7,3.3,22.2,5
			c1.7-2.6,0.7-3.4-2.1-4.1c-13.5-3.5-27-7.3-40.5-10.9c-5.6-1.5-11.3-2.9-17-3.9c-3-0.6-6.3-0.6-7.5,3.4"/>
		<path class="st3" d="M-403.5,35.6c-2.5,1.6-1.3,4.2-0.4,5.4c3.6,4.5,7.6,8.7,11.4,12.8c0.1,9.1-0.2,17.6,6.3,25.4
			c10.6,12.8,19.6,27,29.9,40.1c3.1,4,4,7.6,3.8,12.1c-0.2,4.8,0,9.7,0,14.5c0.4,0.1,0.8,0.1,1.2,0.2c-1.8,1.5-3.6,3-5.5,4.6
			c1,2.6,1.9,4.9,2.8,7.5c-1,2.2-2.1,4.8-3,6.7c0,6.6,0,12.8,0,18.9c3.6,1.9,6.8,3.5,10,5.2c0,6.7,0,13.5,0,20.3"/>
		<path class="st3" d="M866.2,69.6c-2.1-3-4.9-3.9-8.5-3.6c-4.5,0.4-9.1,1.2-13.5,0.4c-6.1-1.2-11.9-3.6-18.2-5.7
			c-0.7,0.8-2,2.3-3.2,3.7c0.9,3.1,1.7,6.2,2.5,9.1c9.5,0,18.7,0,27.8,0c2,0,4,0,6,0c4.8,0.1,7.5-4.1,11.5-5.5"/>
		<path class="st3" d="M225.6,599.1c11.2,0.5,22.3,1,33.5,1.5c7.2,0.3,14.3,0.7,21.5,1"/>
		<path class="st3" d="M426.4,64.1c21.5,0.3,43,0.6,64.5,1c7.8,0.2,15.7,0.7,23.5,0.9c1.5,0.1,3-0.3,4.5-0.5"/>
		<path class="st3" d="M463.4,43.6c-5,0.5-10,1.3-15,1.4c-13,0.5-26,0.7-39,1.1c-1.5,0-3,0.3-4.5,0.5"/>
		<path class="st3" d="M1040.6,207.4c-3.4,2.1-6.8,4.2-10.5,6.5c-7.7-3.9-16.2-4.1-25-2.1c-3.5,0.8-7.2,1.3-11-0.7
			c-4.3-2.2-9.1-1.8-13.5,1.2c-2.3,1.6-5.2,2.5-8.1,3.9c-0.3,5.3-0.5,11-0.8,16.7"/>
		<path class="st3" d="M-36.8,23.1c-3.2-0.5-6.4-1-10.4-1.6c-0.3,0.4-1.3,1.4-2.3,2.5c-4.6-0.3-9.3-3.3-14.1-1.4
			c0.6,8.3,5.7,13.3,12.9,17.1c2.3-1.3,5.6-3.2,8.9-5.1c0-3.9,0-7.7,0-11.6"/>
		<path class="st3" d="M392,233.9c-4-0.2-8-0.4-12-0.5c-22-0.7-44-1.4-66-2c-2.7-0.1-5.3,0.3-8,0.5"/>
		<path class="st3" d="M-107.2,151.5c-6.2,0-12.3,0-16.6,0c-1.8,0.8-3.1,0.9-3.3,1.5c-2.3,6.2-6.5,7.2-12.6,5.6
			c-4.4-1.1-9.3-0.5-13.9-0.7c-1.3-0.1-2.7-0.6-4-1"/>
		<path class="st3" d="M217.6-56.8c-1.9-1.7-3.9-3.4-6.4-5.6c-8.7,1.9-18.1,4.1-27.6,6.1c-8.5,1.8-16.4,5.1-24.6,7.7
			c-17.8,5.6-36.1,9.4-55,14.1c-0.2,0.5-0.8,1.9-1.4,3.2c-0.3,0-0.8,0.1-1,0c-3.7-4.4-7.7-3.5-12.6-1.6
			c-10.8,4.2-21.9,7.5-33.5,11.3c3.1,3.9,6.1,7.7,9.3,11.7c-2.3,2-4.2,3.6-6.7,5.7c-1.3-1.7-2.5-3.1-3.5-4.7c-3.9-6-4.7-6.2-11-3
			c-0.7,0.3-1.3,0.7-2,1"/>
		<path class="st3" d="M960.1,63.1c-0.3,3.2-0.6,6.3-0.9,9.9c-13.8,0.8-27.4,1.5-41.6,2.3c0-2.7,0-4.7,0-7.7
			c3.7-0.4,8.1-1.3,12.5-1.4c9.5-0.2,19-0.1,28.5-0.1"/>
		<path class="st3" d="M120.6,60.1c3,2.5,6,5,8.4,7c12.2,0,23.9-0.2,35.6,0.2c2.4,0.1,5.3,2,6.9,3.9c5.2,6.2,12.3,5.7,19.1,5.8
			c8.2,0.1,16.3-0.7,24.5-0.9c3.2-0.1,4.9-1.5,5.5-4.5"/>
		<path class="st3" d="M-70.3,93c-0.8-3.5-1.9-7-2.4-10.5c-0.2-1.4,1.1-2.9,1.2-3.2c13.9,0,26.5,0,40.1,0c0.5-0.7,1.8-2.5,3.1-4.4
			c2.8,0.2,5.8,0.4,8.8,0.7c0.9,0.1,2,0.4,2.4,1c4.3,6.3,10.7,4.5,16.5,4.4c7.2-0.2,14.4-1.2,21.5-1.8c0.5-8.1,1.5-8.9,9.5-9.1
			c16.8-0.3,33.7-0.4,50.5-1.1c10.4-0.4,20.7-2,31-2.8c1.8-0.1,3.8,0.6,5.5,1.5c2.1,1.1,4.3,2.3,6,4c3.9,3.8,8.4,3.9,13.6,3.6
			c9.1-0.5,18.3,0.2,27.5,0.3c0.8,0,1.7,0,2.8,0c0.5-1.9,0.9-3.5,1.2-5"/>
		<path class="st3" d="M193.1,216.9c-5.8,0.2-11.7,0.4-17.5,0.5c-15.5,0.2-31,0.4-46.5,0.5c-7.5,0-15-0.3-22.5-0.5"/>
		<path class="st3" d="M616.3-22.9c0.8-5.8-0.1-7.3-5.5-7.9c-4-0.5-8-0.6-12.5-0.8c0,7.8,0,14.8,0,21.5c-4,2.5-7.5,4.7-11,6.8
			c-2.4,1.4-3.5,3.4-3.5,6c0.1,9.7,0.2,19.3,0.5,29c0.1,4.3,0.7,8.6,1.1,13c-3.5,1-6.3,1.7-9.2,2.5"/>
		<path class="st3" d="M-339.1,715.5c-1.9-4.1-5.1-5.7-9.5-5.5c-4,0.2-8,0.6-12,0.5c-13.3-0.5-26.7-1.3-40-1.9c-1.2-0.1-2.3,0-3.2,0
			c-0.5,8.7-0.9,16.8-1.4,25c0,0.7-0.9,1.3-1.4,2"/>
		<path class="st3" d="M-314.6,73.1c0.6,3,1.3,6,1.9,9.1c13.1-0.6,26.1-1.2,39.6-1.9c-1.2-3.5-1.9-5.8-3.1-9.2c19.8,0,39.1,0,58.8,0
			c0.7,2.9,1.5,6,2.2,9c11.7,0,23.3,0.3,35-0.2c2.4-0.1,4.7-3.4,7-5.2"/>
		<path class="st3" d="M189.1,211.9c-12.5,0-25-0.1-37.5,0c-4.7,0.1-9.3,0.6-14,1"/>
		<path class="st3" d="M-234.2,95c-0.2,10-0.4,20-0.5,30c-0.1,5.3-0.1,10.7,0,16c0,1.7,0.3,3.3,0.5,5"/>
		<path class="st3" d="M925.6,90c0,17,0,34,0,51"/>
		<path class="st3" d="M665.3,513.7c0.2,10.7,0.3,21.3,0.5,32c0.1,6.3,0.3,12.7,0.5,19"/>
		<path class="st3" d="M158.6,89.5c-0.2,2.2-0.5,4.3-0.5,6.5c0,14.8,0,29.6,0,44.5"/>
		<path class="st3" d="M-108.2,249.9c2-2.3,3.9-4.8,6-7c1.8-1.9,3.8-3.5,5.8-5.3c-1.4-4.8-2.7-9.3-3.8-13.2c-10,0-19.5,0-29.6,0
			c0.4,3.5,0.8,7,1.2,10.5"/>
		<path class="st3" d="M580.3,684c-4.6-4.7-10.2-5.1-16.5-4.6c-11.3,0.9-22.6,0.7-34,1.2c-2.5,0.1-5,1.3-7.1,1.9
			c-9-10.5-21.3-9-32.9-10"/>
		<path class="st3" d="M237.1,140c4.8,2.9,9.6,5.8,14.6,8.7c-0.8,17.6-1.7,35.4-2.6,53.2"/>
		<path class="st3" d="M-128.2,557.6c0.2,6.8,0.7,13.7,0.4,20.5c-0.4,9.8-1.3,19.7-1.9,29.5"/>
		<path class="st3" d="M551.9,91c0,15.2,0,30.3,0,45.5c0,1.3,0.5,3.1-2,2.5"/>
		<path class="st3" d="M1018.6,90c0,16.7,0,33.3,0,50"/>
		<path class="st3" d="M-141.7,564.6c0.3,15.8,0.7,31.6,1,47.5c0,0.8-0.3,1.7-0.5,2.5"/>
		<path class="st3" d="M953.6,84c-12.2,0.4-24.3,0.8-36.7,1.2c-0.1,8.6-6.6,6-11.2,7.6c0.4-3.2-1.6-2.8-3.6-2.8
			c-10.7-0.1-21.3-0.3-32-0.5c-4.1,0-6.9,2.5-7.5,6.5c-0.2,1.4-0.4,2.7-0.7,4c-1.8,0.2-3.3,0.5-5.5,0.8c0.2-4.1,0.5-7.9,0.7-11.7"/>
		<path class="st3" d="M918.6,45.6c6-0.2,12-0.3,18-0.5c7.8-0.3,15.7-0.7,23.5-1c1.8-0.1,3.7,0,6,0c0,9.7,0,18.8,0,27.5
			c12.5,0,24.5,0,37.1,0c0.1-2,0.2-4,0.4-6"/>
		<path class="st3" d="M511.9-12.9c0.8-1,1.6-2,2.8-3.5c-1.3-3.3-2.8-7-4.4-11c-10.4,0-20.4,0-30.1,0c-4.5,4.2-1.5,9-1.1,13.5
			c0.3,3.4,1.6,6.7,2.4,10"/>
		<path class="st3" d="M913.6,64.1c-1.8,2.6-3.6,5.2-5.1,7.3c-11.5,1-23,2-35,3c-3.9-4.1-3.4-7.7,2.1-9.8"/>
		<path class="st3" d="M-70.8,94c2.1-2,4.2-4.1,6.5-6.2c3.1,0.8,6.2,1.2,9,2.4c1.2,0.5,2.5,2.5,2.4,3.9c-0.2,14-0.6,28-0.9,42
			c0,2,0,4,0,6"/>
		<path class="st3" d="M833.2,89c-0.2,16.3-0.3,32.6-0.5,49"/>
		<path class="st3" d="M646.3,303.8c1,11.7,2.1,23.3,3,35c0.4,4.6,0.4,9.3,0.5,14"/>
		<path class="st3" d="M50.2,632.6c-1.2,16.3-2.3,32.6-3.5,49"/>
		<path class="st3" d="M279,150c-0.3,7.7-0.4,15.3-1.1,23c-0.3,3.1-2,6.1-3.4,9c-2.7,5.7-5.6,11.3-8.5,17"/>
		<path class="st3" d="M470.4,474.7c0.2,9.5,0.4,19,0.5,28.5c0.1,7.5,0,15,0,22.5c0,1.7-0.3,3.3-0.5,5"/>
		<path class="st3" d="M760.7,90c0.3,15.7,0.7,31.3,1,47c0,0.7,0.3,1.3,0.5,2"/>
		<path class="st3" d="M-339.6,93.5c0,5,0.1,10,0,15c-0.3,9.5-0.7,19-0.9,28.5c0,1.7,0.3,3.3,0.5,5"/>
		<path class="st3" d="M464.9,368.8c0,13.8-0.2,27.6,0.1,41.5c0.1,7.8,0.9,15.7,1.5,23.5c0,0.4,0.9,0.7,1.4,1"/>
		<path class="st3" d="M939.1,90c0.2,6,0.4,12,0.5,18c0.1,8.8,0,17.7,0.1,26.5c0,2.2,0.6,4.3,1,6.5"/>
		<path class="st3" d="M-304.1,247.9c-0.2,3.7-0.3,7.3-0.5,11c-0.7,12.3-1.3,24.6-2,37"/>
		<path class="st3" d="M674.3,93c-0.7,3.3-1.6,6.6-1.9,10c-0.7,5.8-1,11.6-1.5,17.9c7.3,0.4,14.1,0.7,21,1.1"/>
		<path class="st3" d="M145.1,93c0.3,1.3,0.9,2.7,1,4c0.4,14.7,0.7,29.3,1,44"/>
		<path class="st3" d="M223.1,668.5c-16,0.3-32,0.6-48,1.1c-0.9,0-1.7,1.2-2.5,1.9"/>
		<path class="st3" d="M426.4,55.1c-0.3,2.8-0.6,5.6-1,8.9c-4.5,3.7-9.6,7.7-14.4,12.1c-2.9,2.6-5.7,3.2-9.6,2.6
			c-5.7-0.8-11.6-0.5-17.5-0.7c-1.5-0.1-3-0.4-4.8-0.7c0.3-3.4,0.6-6.6,1-10.7c-12.8,0.5-25,1-37.2,1.4c-2.7,0.1-5.9,0.9-7-3"/>
		<path class="st3" d="M331,92.5c-0.8,13.3-1.6,26.6-2.4,39.7c2.9,2,5.4,3.6,7.9,5.3"/>
		<path class="st3" d="M1032.1,90c-0.2,9-0.4,18-0.5,27c-0.1,6.7-0.1,13.3,0,20c0,1.3,0.6,2.7,1,4"/>
		<path class="st3" d="M171.1,682.5c16.3,0.3,32.6,0.7,49,1"/>
		<path class="st3" d="M79.2,49.1c-6.2,0.3-12.3,0.8-18.5,1c-11,0.4-22,0.7-33,1c-1.2,0-2.3,0.3-3.5,0.5"/>
		<path class="st3" d="M854.2,139.5c-4.7,5.3-11.3,3-17,3.9c-2.8,0.4-5.7,0.1-8.5,0.1c-2.8,2.8-1.3,5,0.9,6.9
			c5.6-0.9,11.1-1.8,16.6-2.6"/>
		<path class="st3" d="M1041.6,87c-10.8-0.3-21.7-0.7-32.5-1c-5.5-0.1-5.7,0.3-6.5,6c-0.2,1.2-0.9,2.4-1.7,4.6
			c-1.7-2.4-3.1-4.2-4.2-6.1c-1.1-1.8-1.8-3.7-2.8-5.8c-6.1,3-14.4-4.2-19.4,5.3c-8.4,0.8-17.7,1-26.2,5"/>
		<path class="st3" d="M1006.6,93c-0.3,15.7-0.7,31.3-1,47"/>
		<path class="st3" d="M-52.3,92c3.9-0.1,7.9,0.8,11.2-3.9c0,0.8-0.1,1.6-0.1,2.4c-0.5,5.8-1.4,11.7-1.5,17.5
			c-0.1,11.7,0.3,23.3,0.4,35"/>
		<path class="st3" d="M715.3-23.4c11.5,2.2,23,4.3,34.5,6.5c4,0.8,8,1.7,12,2.5"/>
		<path class="st3" d="M-66.3,90.5c0.5,1,1.5,2,1.4,3c-0.6,12-1.3,24-1.9,36c-0.2,3.5-0.3,7-0.5,10.5"/>
		<path class="st3" d="M722.3,257.9c-0.2-1.2-0.4-2.3-0.7-4.2c-16.1,0-32.5,0-49.3,0c0.9,11.3,1.7,22.2,2.6,33.2"/>
		<path class="st3" d="M1064,693c-1.4-5.9-2.7-11.7-4.2-18.1c-16.8-0.3-33.3-0.6-49.8-0.9"/>
		<path class="st3" d="M118.1,69.6c-1.4,2.2-2.9,4.4-4.4,6.9c-10.4,0.7-20.7,1.3-31.6,2c-2.3-2.8-4.6-5.6-7-8.4"/>
		<path class="st3" d="M329.5,284.4c0-4.8,0-9.7,0-14.6c16.4,0.6,32.5-0.9,48.3,4.2c0.4-1.7,0.8-3.3,1.3-5.4
			c4.1-0.2,8.5-0.5,12.8-0.7"/>
		<path class="st3" d="M995.1,359.3c-0.2,9.2-0.5,18.3-0.4,27.5c0,6,0.6,12,0.9,18"/>
		<path class="st3" d="M969.8,16.6c-7.6-0.8-15.2-1.6-22.7-2.5c-5.4-0.7-10.7-1.6-16.2-2.5c-0.9,1.4-2.1,2.9-2.8,4.5
			c-1.4,3.2,1.3,7.8,4.9,9c12,4,24,8.1,36,11.9c4.9,1.6,10,2.7,15,4.1c0.9,0.3,1.7,1,2.5,1.5"/>
		<path class="st3" d="M247,477.7c-0.7,5.8-1.5,11.6-2,17.5c-0.5,7-0.6,14-1.1,21c-0.2,2.8,0.4,5.1,3,6.5"/>
		<path class="st3" d="M-295.6,223.9c2.6,2.9,5.2,5.8,8.6,9.7c-2.5,0.4-4.1,0.7-5.6,0.8c-3.5,0.1-7.1-0.4-10.5,0.2
			c-1.4,0.3-2.3,2.9-4.2,5.3c-7.5,0.6-16.2,1.2-24.9,2c-1.1,0.1-2,1.3-3,1.9"/>
		<path class="st3" d="M747.7,90c0,11.7-0.1,23.3,0,35c0,3.5,0.6,7,1,10.5"/>
		<path class="st3" d="M-154.2,446.7c0.2,10.7,0.5,21.3,0.4,32c0,4.8-0.6,9.7-0.9,14.5"/>
		<path class="st3" d="M526.4,88c-0.3,6.5-0.9,13-1,19.5c-0.2,10.2,0,20.3,0,30.5"/>
		<path class="st3" d="M-300.6,224.9c-14.7-0.3-29.3-0.7-44-1"/>
		<path class="st3" d="M523.9,71.6c-1-0.5-2-1-3.2-1.6c-2.3,5.4-7.5,4.7-11.8,5c-8.1,0.4-16.3,0.5-24.5,0c-4.1-0.3-8-2.2-12-3.3
			c-0.6-0.2-1.3,0-2.2,0c-0.7,1.3-1.4,2.7-2.2,4c-12.8,0-25.4,0-38.1,0"/>
		<path class="st3" d="M-227.7,71.6c0.3,1.8,0.6,3.7,1,6.2c-12.8,3.1-26.2-0.7-39.1,2.7c-0.7-3-1.3-5.7-1.9-8.4"/>
		<path class="st3" d="M-313.1,122c0-5.8,0-11.7,0-18.6c-4.5-3.8-9.9-8.2-15.5-12.8c-8.1,3.9-16.4,0-24.5,0.4c0,9.2,0,17.9,0,26.6
			c0,1.5-0.3,3-0.5,4.5"/>
		<path class="st3" d="M457.9,469.7c0,12.7-0.1,25.3,0,38c0,2.8,0.6,5.7,1,8.5"/>
		<path class="st3" d="M63.2,326.8c0.3,13.5,0.8,27,1,40.5c0.4,23.5,0.8,47,1,70.4c0.1,10-0.7,20-0.9,30c-0.1,6.3,0,12.7,0,19"/>
		<path class="st3" d="M-230.7,33.1c-2-6-4.1-12-6.3-18.4c-5.4,1.1-11.1,2.2-16.7,3.4c-6.2,1.4-12.3,3-18.5,4.4c-0.9,0.2-2,0-3,0"/>
		<path class="st3" d="M131.1,96c2.4,2.6,1.9,5.9,2,9c0.4,11.7,0.7,23.3,1,35c0,0.7,0.3,1.3,0.5,2"/>
		<path class="st3" d="M356,91c-0.2,6.3-0.3,12.7-0.5,19c-0.1,3.8-0.2,7.7-0.5,11.5c-0.2,2.5-0.8,5-0.9,7.5c-0.1,1.2-1.1,3.6,1.9,3"
			/>
		<path class="st3" d="M376.5,140c2.5,4.7,5.9,6.4,11.5,5.7c8.4-1,17-0.9,25.5-1.1c1.5,0,3,0.9,4.5,1.4"/>
		<path class="st3" d="M576.8-5.4c-6.2,0.5-12.3,1.1-18.5,1.5c-8.5,0.5-17,0.6-25.5,1.1c-1.5,0.1-3,1.3-4.5,1.9"/>
		<path class="st3" d="M876.2,228.9c3-3,6-6,9-9c1.3-1.3,2.6-2.7,4-4.2c-0.2-3-0.3-6.2-0.6-10.5c2.1-0.8,4.6-2.6,7.1-2.7
			c15.3-0.6,30.6-1.1,46-1.1c15.8,0,31.6,0.6,47.5,0.9c5.7,0.1,11.5-1.2,17,1.5c0.1,0,0.1,0.4,0,0.5c-0.1,0.2-0.3,0.3-0.5,0.5"/>
		<path class="st3" d="M-152.7,162c2.7,2,5.5,3.8,7.9,6.1c1.3,1.2,2.4,3.2,2.5,4.9c0.1,8.5-0.2,17-0.5,25.5c0,0.7-1.2,1.3-1.9,2"/>
		<path class="st3" d="M537.9,91c0,8.2-0.1,16.3,0,24.5c0.1,7.2,0.3,14.3,0.5,21.5"/>
		<path class="st3" d="M1007.6,17.6c1.3,0.2,2.7,0.2,4,0.5c19.5,4.6,39,9.3,58.5,14c2.9,0.7,5.6,2.1,8.1,3c0.5,7.9,1,15.9,1.3,23.9
			c0.1,1.3-0.2,2.9-1,4c-9.6,12.7-19.4,25.3-28.9,38.1c-2.7,3.6-5.9,5.8-10.1,6.9"/>
		<path class="st3" d="M689.8,635.5c0.2,10.2,0.2,20.3,0.6,30.5c0.1,3.7,1.2,7.3,1.9,11"/>
		<path class="st3" d="M77.7,252.9c-1.7-1-3.3-2.7-5-2.9c-8.5-0.9-17-1.5-25.5-2.1c-0.7-0.1-1.4-0.1-2,0c-5,1.1-10,2.3-15,3.5"/>
		<path class="st3" d="M-136.7,96c-2.4,14.9-2,29.9-2,45"/>
		<path class="st3" d="M366,68.1c0.2,3.2,0.3,6.3,0.5,10c-11.2,0-21.9,0-32.5,0"/>
		<path class="st3" d="M-389.1,73.1c6.2-0.2,12.3-0.4,18.5-0.5c14.7-0.2,29.3-0.3,44-0.5c1.7,0,3.3,0,5.4,0c0.4,3.1,0.8,5.8,1.3,9.2
			c-13.5,0-26.3,0-39.8,0c-0.6-2-1.5-4.9-2.3-7.7"/>
		<path class="st3" d="M655.3-16.9c0.3-1.9,0.7-3.7,1-5.6c12.1,2.7,23.7,5.3,35.7,8c0,1.9,0,4.3,0,6.6c-0.3-0.2-0.6-0.5-0.9-0.7
			c-11.8,10.4-23.5,20.8-35.4,31.2c-0.8,0.7-2,1-3,1.5"/>
		<path class="st3" d="M261,249.9c-0.7-0.8-1.3-2.4-2-2.4c-7.3-0.3-14.7-0.6-22-0.5c-1.5,0-3.5,0.8-4.4,2c-3.6,4.3-8.2,4.5-13.1,3.9
			c-0.7-0.1-1.3,0-2,0c-0.2,0-0.3,0.3-1.5,0.5c0.2,2.3-0.4,5.2,0.7,6.8c3,4.3,4.2,8.3,1.4,13.1c-0.8,1.3-0.4,3.3-0.6,4.9"/>
		<path class="st3" d="M-151.2,100c-0.2,3.8-0.4,7.7-0.5,11.5c-0.2,9.7-0.3,19.3-0.5,29"/>
		<path class="st3" d="M-315.1,247.9c-0.2,3.8-0.4,7.7-0.5,11.5c-0.1,6.7,0,13.3,0,20c-0.1,4.2-0.3,8.3-0.5,12.5"/>
		<path class="st3" d="M717.8,63.6c-13.3,0.2-26.6,0.3-40,0.5"/>
		<path class="st3" d="M402.9,624.1c0,13.3,0.1,26.6-0.1,40c-0.1,4.3-1.1,8.7-1.4,13c-0.1,1.6,0.6,3.3,0.9,5"/>
		<path class="st3" d="M344.5,93c-0.3,8.8-0.7,17.7-1,26.5c-0.1,3.3-0.2,6.7-0.6,10c-0.1,0.6-1.2,1-1.9,1.5"/>
		<path class="st3" d="M-354.6,230.9c0-6.2,0-12.3,0-19.2c4.5-2.2,10.5-2,16.5-1.7c10.5,0.5,21,1.3,31.5,2"/>
		<path class="st3" d="M71.2,50.6c-1.5,4.8-1.9,9.5-0.2,14.6c0.9,2.7-0.7,6.3-1.3,9.4c-0.5,3.1-2.7,3.5-5.5,3.6
			c-9.5,0.3-19,0.9-28.5,1.4"/>
		<path class="st3" d="M-126.2,83.5c-1.7-5.7-7.1-3.8-10.5-4.2c-10.6-1.3-21.3-1.3-32.4-1.8c-1.1-1.4-2.5-3.2-4.4-5.5
			c-6.9,0-14,0.1-21.2,0c-6.7-0.2-13.3-0.6-20-1c-0.8,0-1.7,0-2.5,0"/>
		<path class="st3" d="M911.6,93c-0.6,3.2-1.1,6.4-1.8,10.1c0.9,1,2.1,2.5,4,4.8c-0.7,9.6-1.5,20.6-2.2,31.6c3.6,0.7,6.8,1.4,10,2"
			/>
		<path class="st3" d="M-232.7,36.1c-3.7-3.3-7.8-3.3-12.5-2.1c-11.4,2.9-23,5.4-34.5,8.1c-8.7,2.1-17.3,4.3-26,6.6
			c-1,0.3-1.7,1.6-2.5,2.4"/>
		<path class="st3" d="M476.4-23.9c-3-4.1-7.2-5.4-12-4c-1.9,0.6-4,1.1-6,1c-10.8-0.5-21.7-1.3-32.5-1.9c-0.7,0-1.3,0.3-2,0.5"/>
		<path class="st3" d="M787.7,97c0.4-2.9,0.8-5.9,1.2-8.8c-0.5-0.1-0.9-0.3-1.4-0.4c-0.6,0.4-1.3,0.8-1.8,1.2
			c-5.7,4.9-11.2,5.6-16.9,0.9c-3.2-2.7-5.7-2-9.2,0c-0.4-1.7-0.7-3.2-1.2-5.4c-9.2,0-19.2,0-29,0c-2.1,2.9-4.1,5.7-6.2,8.5"/>
		<path class="st3" d="M799.7,396.8c-0.2,13-0.3,26-0.5,39"/>
		<path class="st3" d="M-136.2,224.9c-3.8-5.8,0.6-11.3,1.2-17.1c-13.4,1.6-26.5,0.6-38.7,5.6"/>
		<path class="st3" d="M-263.6,640.5c1.2,14,2.3,28,3.5,42"/>
		<path class="st3" d="M369,641.5c0.7-0.7,1.5-1.2,2-2c1-1.7,1.8-3.6,3.2-6.2c-4.5-0.6-8.6-1.7-12.6-1.7c-7.7,0-15.3,0.4-23,1
			c-2.2,0.2-4.3,1.3-6.5,1.9"/>
		<path class="st3" d="M341,679.5c0.7-5.5,1.7-11,2.2-16.5c0.2-2.6-0.7-5.3-0.6-8c0.1-4.5,0.4-9,0.7-13.4c7.2-1.9,22.8-1.3,25.3,0.3
			c0.5,7.3,1,14,1.4,20.6c0.2,3,0,6,0,9c0,4.3,0,8.7,0,13"/>
		<path class="st3" d="M814.7,69.1c0,1.5,0,3,0,5.1c-13,0.5-25.5,0.9-38,1.4c-2,0.1-4,0.3-6,0.5"/>
		<path class="st3" d="M334,634c0.7,2,1,4.2,2.1,5.9c2.7,4.3,2.1,8.4,1.1,13.1c-0.8,3.8-0.1,8-0.2,12c-0.1,4.3-0.1,8.7-0.5,13
			c-0.4,3.7-2.1,6-6.4,5.6c-2.8-0.3-5.7-0.1-9,0.9c-1.4-1.6-2.8-3.1-4.9-5.4c-4.6,0-10.1-0.1-15.6,0c-1.8,0-3.7,0.6-5.5,1"/>
		<path class="st3" d="M666.3,66.6c0.3,2.2,0.7,4.3,1.1,6.9c-13.2,2.6-26.6,0.4-40.7,1.2c0.2-3.6,0.4-7.1,0.6-10.6"/>
		<path class="st3" d="M414.9,88.5c-3.6-2.6-7.6-1-11.5-1.1c-8.5-0.2-17-1-25.5-1.5c0-0.4-0.1-0.8-0.1-1.2c-2.1,1.8-4.1,3.6-5.4,4.6
			c-3.5-0.6-6.2-1.3-8.9-1.4c-13-0.1-26-0.1-39.6-0.1c0.3,1.9,0.5,3.2,0.8,5.3c-0.3,0.2-1.2,1.6-2.1,1.6c-7.5,0.2-15,0-22.5,0.1
			c-4.5,0.1-9,0.7-13.5,0.9c-2.3,0.1-4.7,0.5-6.6-1.9c-0.8-1-3-0.9-4.9-1.4c0,7.4,0,13.6-0.1,19.8c0,0.2-1.2,0.3-1.9,0.5"/>
		<path class="st3" d="M604.8,264.9c-7.1-2.2-14.1-1-21,0.6c-6.4,1.5-12.7,3.6-19,5.4"/>
		<path class="st3" d="M-102.2,267.9c-1.5-1-2.9-2.1-4.7-3.4c1.1-2.6,2.2-5.4,3.5-8.6c-2.5-5-7.7-7.2-12.8-9
			c-10.9-3.8-22.3-3.3-33.4-1.3c-5,0.9-9.3,4.8-14.1,7.2c-1.7,0.8-3.6,1.1-5.5,1.6"/>
		<path class="st3" d="M995.6,431.7c-0.3,4.8-0.9,9.7-0.9,14.5c0,7.8,0.3,15.7,0.4,23.5"/>
		<path class="st3" d="M192.6,109.5c-4.4,3-4.6,6.2-1.2,13c8.7,0,17.2,0,25.7,0"/>
		<path class="st3" d="M917.1,62.6c-3.5,0.2-7,0.3-10.5,0.5c-10.3,0.5-20.7,1-31,1.5"/>
		<path class="st3" d="M676.8,71.6c1.5,0,3-0.1,4.5,0c2,0.1,4.2,0.9,6,0.4c7.3-2.4,14.1,0.7,19.5,1.1c7.7-1.6,14-3,20.3-4.3
			c1.8,2.3,3.3,4.3,5.2,6.6c8.8,0.4,18.2,0.8,27.7,1.3c1.1-2,2.2-4.2,3.6-6.9c1,2,1.6,3.2,2.2,4.4"/>
		<path class="st3" d="M-404.5,41.6c-0.3,2.5-0.7,5-1,7.8c-2.5-0.4-5-0.9-7.7-1.3c-0.6,1.5-1.3,3-2.2,5.2c6.9,3.7,14.1,3.2,21.4,2.4
			"/>
		<path class="st3" d="M597.3-26.9c-5-0.3-10.1-0.1-14.9-1.2c-3.1-0.7-5.7-3.4-8.5-5.3c-1.6-1.1-3.2-2.2-4.8-3.3
			c-2.2,1.5-4.2,2.8-6.6,4.4c-1.7-2.1-3.2-4-5-6.2c-7-0.7-14.4-1.4-22.2-2.2c-1.1,4.7-6.1,1.7-8.2,4.3c-3.9,6-7.9,12-11.8,17.9"/>
		<path class="st3" d="M-140.2,52.1c-12.5,0.7-25,1.3-37.5,2"/>
		<path class="st3" d="M862.7,45.1c-14.3,0.7-28.6,1.5-43,1.9c-6.5,0.2-13-0.6-19.5-0.9c-1.7-0.1-3.8-0.3-4.9,0.6
			c-4.8,4-10.6,3-16.1,3.9c-6.7,1.1-6.9,0.6-6.5,7c0.4,5.8,1,11.7,1.5,17.5"/>
		<path class="st3" d="M242.8,104.5c-2.9,0.6-3.8-1.5-4.7-3.5c-1-2-1.9-4.1-3-6.5c-10.2,0-20.3,0-31.4,0c-1.1,4.7-2.2,9.2-3.4,14
			c-2.4,0-5,0.8-6.6-0.2c-3.4-2-6.4-1.2-9.6-0.3"/>
		<path class="st3" d="M443.9,90c-4.3,6.8-4.8,14-3.8,22c1,8-0.4,16.3-0.7,24.4c-0.1,2.2,0,4.3,0,6.5"/>
		<path class="st3" d="M-261.1,148c0.2-9,0.1-18,0.7-27c0.1-2.1,2.2-4,3.5-6c0.3,0.2,0.6,0.3,0.9,0.5c0-7.5,0-15,0-23.2
			c3-1.5,6.8-3.4,10.6-5.3c8.1,4.7,16.2,9.4,23.9,13.8c0,13.2,0,26.2,0,39.2"/>
		<path class="st3" d="M27.7,94c-0.2,2.3-0.6,4.7-0.4,7c0.2,2.7,0.9,5.3,1.5,8.6c4-0.4,8.6-0.9,13-1.4c-1.2-5.7-2.2-10.2-3.4-15.7
			c2.4-0.7,4.6-1.3,6.7-1.9c0.4,18,0.8,35.1,1.2,52.2"/>
		<path class="st3" d="M328,275.9c-6.7-0.5-13.3-1.3-20-1.4c-3.8-0.1-7.7,0.6-11.5,1.5c-2.6,0.6-5,2.2-7.5,3.4"/>
		<path class="st3" d="M657.8-16.9c-1.5,0.4-3.1,0.8-4.8,1.2c-3-3-6.2-6.6-9.8-9.6c-1.8-1.5-4.5-2-6.9-2.6c-3.8-0.9-7.6-1.6-11.5-2
			c-2.7-0.3-5.8-0.7-7.5,2.4"/>
		<path class="st3" d="M1018.1,239.9c0.8,6.7,1.9,13.3,2.4,20c0.6,7.3,0.8,14.6,1,22c0,1.3-0.3,2.7-0.5,4"/>
		<path class="st3" d="M984.1,247.4c-0.2,2.8-0.6,5.7-0.5,8.5c0.4,9.3,1,18.7,1.5,28"/>
		<path class="st3" d="M-135.7,68.6c-4.8,0.5-9.7,1.1-14.5,1.5c-5.5,0.4-11,0.6-16.5,1.1c-1.9,0.2-3.7,1.3-5.5,1.9"/>
		<path class="st3" d="M839.2,199.9c-0.5-14.3-1-28.6-1.5-43c-1,0-2,0-3,0"/>
		<path class="st3" d="M59.2,5.1c-0.3,10.7-0.7,21.3-1,32c0,1.3,0.3,2.7,0.5,4"/>
		<path class="st3" d="M843.7,634.5c4,0.6,8.1,1.2,10.8,1.5c0.9,13.2,1.8,25.3,2.7,37.4"/>
		<path class="st3" d="M977.1,248.4c-0.5,13.7-1,27.3-1.5,41c-0.1,3.2,0,6.3,0,9.5"/>
		<path class="st3" d="M585.8,294.9c0,10.3,0,20.6,0,31c0,1.7,0.3,3.3,0.5,5"/>
		<path class="st3" d="M722.3,91c-0.2,3-0.5,6-0.5,9c-0.1,12.2,0,24.3,0,36.5c0,0.5,0.3,1,0.5,1.5"/>
		<path class="st3" d="M293.5,114c1.8,0.2,3.7,0.5,5.5,0.5c6.4-0.1,7.7,1,8,7.5c0.2,4.2,0,8.3,0,12.1c-2.4,4.6-6.9,5.4-11,6.9"/>
		<path class="st3" d="M393,191.9c0,3.3,0,6.7,0,10c3.7,0,6.3,0,9.5,0c-0.7,10.7-1.4,21.3-2.1,33.1c2.8,2.5,6.4,5.8,10.1,8.8
			c1.4,1.2,3.3,1.7,2,4.1"/>
		<path class="st3" d="M622.3,63.6c-0.5,1.5-1.2,3-1.4,4.5c-0.4,3.1-2.2,3.8-5,4.1c-7.7,0.8-15.3,2.3-23,2.7
			c-3.1,0.2-6.3-1.5-9.5-2.3c-1-0.3-2-0.5-2.8-0.7c-1.6,1.7-3.1,3.3-4.8,5.2c-1.2-1.7-2.3-3.1-3.4-4.5"/>
		<path class="st3" d="M779.2,65.1c9.3,1,18.6,2.2,28,2.9c3.8,0.3,7.7-0.3,11.5-0.4"/>
		<path class="st3" d="M782.2,247.9c-1.7,0.7-3.3,1.9-5,1.9c-7,0.2-14,0.1-20.6,0.1c-3.5,2.5-6.7,4.7-9.9,7"/>
		<path class="st3" d="M166.1,91c0,10,0,20,0,30c0,1.7-0.3,3.3-0.5,5"/>
		<path class="st3" d="M633.8,148c5.8,0.3,11.5,0.7,18.6,1.1c-2.5,4.8-4.6,8.7-6.6,12.5c0,12.7,0,25.5,0,38.4"/>
		<path class="st3" d="M32.2,110c0.2,11.7,0.3,23.3,0.5,35"/>
		<path class="st3" d="M-275.6,71.6c-5.3,0-10.7-0.1-16,0c-9,0.1-18,0.3-27,0.5c-0.7,0-1.3,0.3-2,0.5"/>
		<path class="st3" d="M1023.1,619.6c-0.3,1.2-0.9,2.3-1,3.5c-0.2,8.8-0.4,17.7-0.6,26.5c-0.1,2.2,0.2,3.9,3,2.5"/>
		<path class="st3" d="M350,650.5c-0.3,0.7-0.9,1.3-1,2c-0.4,11-0.7,22-1,33"/>
		<path class="st3" d="M845.7,99.5c0,12.5,0,25,0,37.5"/>
		<path class="st3" d="M671.8,65.1c-11.8,0.2-23.7,0.4-35.5,0.5c-1.5,0-3-0.3-4.5-0.5"/>
		<path class="st3" d="M336,62.1c-0.2,0.8,0,2-0.5,2.4c-2,2-4.1,4.1-6.5,5.4c-1.7,0.9-5.2,1.7-5.7,1c-3.9-5.1-9.2-3.8-14.2-3.8
			c-8.7,0.1-17.3,0.6-26,0.9"/>
		<path class="st3" d="M685.8,48.1c-8.8-0.3-17.7-0.9-26.5-0.8c-3,0-6,1.7-9,2.9c-7.9,3-16.1,4.7-24.5,5.5"/>
		<path class="st3" d="M628.3,240.9c0.2,12.5,0.4,25,0.7,37.6c10,1.5,19.1,3,28.3,4.4"/>
		<path class="st3" d="M492.9,221.4c-5.9-2.6-12.4-2.8-18.4-1.7c-5.3,1-10.4,0.1-15.5,0.2"/>
		<path class="st3" d="M645.3-13.9c-0.8,20.1-1.7,40.3-2.5,60.4c0,0.5-0.3,1-0.5,1.5"/>
		<path class="st3" d="M973.6,98.5c-3.5-0.4-7.3,3.1-8,7.5c-1.3,8.2,0.5,15.2,8,20c0.7,0.4,1,1.3,1.5,2"/>
		<path class="st3" d="M345,50.6c-6-0.2-12-0.3-18-0.5c-5.3-0.2-10.7-0.6-16-1"/>
		<path class="st3" d="M280,66.1c-0.2,2.8-0.4,5.7-0.7,8.8c11.8,0.7,23.5,1.3,36.1,2c0.7-2.6,1.4-5.5,2.1-8.4"/>
		<path class="st3" d="M-93.7,89c-2.8-0.3-5.7-1.1-8.5-0.9c-5.7,0.5-10.7-1.3-15.5-4.1c-1.4-0.8-2.9-1.6-4.3-2.4
			c-7.4,3.8-14.5,7.5-19.6,10.1c-11.6,0-21.1,0-30.4,0c-1.8,1.4-4,3-6.4,4.8c-1.2-1.1-3-2.8-5-4.6c-4.2,0.4-4.3,3.6-4.3,7
			c0,3.6-0.2,3.6,9.8,9.1c0.4,2.4,0.7,4.9,1.2,8.1c3.5,0.7,7,1.5,10.6,2.3"/>
		<path class="st3" d="M820.2,95c-0.2,3.7-0.4,7.3-0.5,11c-0.4,9.8-0.7,19.6-0.9,29.5c0,1,1.2,2,1.9,3"/>
		<path class="st3" d="M634.8,679.5c-0.7,2.4-1.5,4.7-2.3,7.6c-11.6-2.2-23.1-3.4-34.6-1.6"/>
		<path class="st3" d="M577.8,65.1c7.5,0.7,15,1.4,22.5,2c4.5,0.3,9,0.4,13.5,0.5"/>
		<path class="st3" d="M-261.6,226.4c-9-0.8-18-1.7-27-2.4c-1.8-0.1-3.7,0.6-5.5,0.9"/>
		<path class="st3" d="M-105.2,40.6c-0.8,9.5-1.7,19-2.5,28.5c-0.1,1.3,0.3,2.7,0.5,4"/>
		<path class="st3" d="M479.9,20.6c-8.7,0.8-17.3,1.6-26,2.5c-2,0.2-4,0.6-6,1"/>
		<path class="st3" d="M127.1,268.9c-7.4-0.1-10.8,5.8-15.5,10c-4.9,4.4-5.1,10.2-5.5,16"/>
		<path class="st3" d="M299.5,630.6c9.3,0,18.7,0,28,0c2.6,0,4.9,0.2,6.5,2.5"/>
		<path class="st3" d="M638.8,242.9c0,9,0,18,0,27c0,1.5-0.6,3-1,4.5"/>
		<path class="st3" d="M365.5,141c-1.2,0.2-2.3,0.5-3.5,0.5c-9.2,0-18.3,0-27.5,0"/>
		<path class="st3" d="M-317.6,688.5c13,0,26,0,39,0"/>
		<path class="st3" d="M469.9-28.9c0.5-5.6,1.1-11.3,1.7-18c-5.3-0.3-10-0.6-14.7-0.9"/>
		<path class="st3" d="M46.7,97.5c6.3-1.1,5.8-0.9,7.7,4.9c1.2,3.7,0.7,8.2,4.2,11.1c0.8,0.6,0.5,2.6,0.6,3.9
			c0.2,8.8,0.4,17.7,0.5,26.5"/>
		<path class="st3" d="M656.3,245.9c0.7,9.5,1.4,19,1.9,28.5c0.2,3.1-0.3,6.3-0.4,9.5"/>
		<path class="st3" d="M651.8,585.6c-5.3,3.9-10.7,1.3-16,0c-5-1.3-10-2.6-15-4"/>
		<path class="st3" d="M670.3,88.5c0.6-0.4,1.2-0.8,1.8-1.2c-0.1-0.3-0.2-0.6-0.4-0.9c-2.3,0.5-4.7,0.8-6.9,1.7
			c-1.3,0.6-2.4,2.1-3,3.4c-0.7,1.9-0.4,4.1-1.1,5.9c-3.7,9.7-1.2,19.7-1.9,29.5c-0.4,5.3-0.7,10.7-1,16"/>
		<path class="st3" d="M658,104.5c-1.1-0.8-2.6-1.4-3.2-2.5c-3.5-6.8-9.5-7-16.1-6.5c-3.5,0.2-7-0.3-10.1-0.4
			c-2.9-3.4-5.5-6.4-8-9.3c-7.6,2.5-14.8,4.9-21.9,7.3c-1.1-2.5-1.8-4-2.6-5.9c-8-1.3-16.2-2.6-25.1-4.1c-2.8,2-6.3,2.4-10.8,1.2
			c-5.4-1.4-11.3-0.9-16.9-1.2"/>
		<path class="st3" d="M444.4,158.5c0.2,9.8,0.5,19.7,0.4,29.5c0,2-1.6,4-2.4,6c-0.5,1.3-1,2.7-1.5,4"/>
		<path class="st3" d="M797.7,610.6c0,16.3,0,32.6,0,49"/>
		<path class="st3" d="M739.7,92c-2.5-0.6-2,1.2-2,2.5c0,10.2,0,20.3,0,30.5c0,5,0,10,0,15"/>
		<path class="st3" d="M-177.2,71.6c0-5.8,0-11.7,0-18c-11.5-0.3-22-0.6-32.5-1c-2-0.1-4-0.3-6-0.5"/>
		<path class="st3" d="M981.6,439.7c-0.3,9.2-0.7,18.3-1,27.5c-0.1,2,0.3,4,0.5,6"/>
		<path class="st3" d="M264,96c0.3,10,0.7,20,1,30"/>
		<path class="st3" d="M607.8,112.5c-5,0-10,0-15.6,0c-0.5-2.3-1.2-5.1-1.8-8c-8.8,1.5-17.7,3-26.5,4.5"/>
		<path class="st3" d="M23.2,271.9c-12-1-24-2-36-3"/>
		<path class="st3" d="M445.4,485.7c-0.2,3.2-0.4,6.3-0.5,9.5c-0.1,7.8,0,15.7,0,23.5"/>
		<path class="st3" d="M647.8,241.4c0.2,9.7,0.3,19.3,0.5,29c0,1.5,0.3,3,0.5,4.5"/>
		<path class="st3" d="M-83.2,645.5c-0.2,7.8-0.4,15.7-0.5,23.5c0,2.2,0.3,4.3,0.5,6.5"/>
		<path class="st3" d="M1003.6,672.5c-4.5-0.2-9-0.6-13.5-0.4c-4.3,0.2-9,0.2-12.9,1.7c-3.4,1.3-6.3,2-9.6,0.8"/>
		<path class="st3" d="M926.1,671.3c1.8,0.7,3.6,1.9,5.5,2.2c9,1.2,18,2.1,27,3.1"/>
		<path class="st3" d="M469.9,108c-4.7-1.1-5.4,3.6-8.4,5.2c2.3,6.7,1.6,12.6-2,18.3c-1,1.6-0.5,4.3-0.6,6.4"/>
		<path class="st3" d="M151.1,51.1c-9.7,0-19.3,0-29,0"/>
		<path class="st3" d="M0.2,33.1c3.7,5,7.3,10,11,15c0.3,0.4,0.7,0.7,1,1c2.5-0.2,5-0.4,7-0.6c1.3,1.6,2.2,2.6,3,3.6"/>
		<path class="st3" d="M413.9,111.5c0.4-7.7,0.9-15.3,1.3-23.2c4.4,0.5,8.5,1,12.3,1.4c-0.4,17.3-0.8,34.3-1.1,51.3c0,1,0.3,2,0.5,3
			"/>
		<path class="st3" d="M39.2,147c7.3,0.2,14.7,0.3,22,0.6c1.1,0,2.2,0.9,3.2,1.4c-2.9,6.3-5.1,12.4-8.4,17.9
			c-3.2,5.4-2.9,10.6-0.9,16.1"/>
		<path class="st3" d="M323,152c-0.3-0.7-0.7-1.9-1-1.9c-8.3,0.1-16.7,0.2-25,0.4"/>
		<path class="st3" d="M855.7,91.5c-4.3,0.5-4.7,1-6,6.6c-2.3,0.3-4.6,0.6-7.8,1.1c-1.2-4.8-2.5-9.7-4-15.8
			c-7.8,0.8-15.7,1.5-22.9,2.2c-1.5,3-2.6,5.2-3.8,7.5"/>
		<path class="st3" d="M79.7,268.9c-0.3,10.5-0.7,21-1,31.5"/>
		<path class="st3" d="M-332.1,534.6c-0.5,7.7-1,15.3-1.5,23c-0.1,1.6,0,3.3,0,5.5c-0.9,0.2-2.5,0.6-4,1"/>
		<path class="st3" d="M505.9,124c-11.5,0.2-23,0.3-34.5,0.5"/>
		<path class="st3" d="M-206.7,102c0,1,0.4,2.2-0.1,3c-1.7,2.9-3.9,5.5-5.3,8.6c-0.7,1.7-0.3,4-0.1,5.9c0.5,4.3,1.3,8.7,2.1,13.8
			c1.8-0.4,3.6-0.9,5.4-1.3"/>
		<path class="st3" d="M402,595.6c2.6,9.1,0.6,18.3,1,27.5"/>
		<path class="st3" d="M1075.5,64.6c-5.3-0.2-10.7-0.5-16-0.5c-16.2,0.2-32.3,0.6-48.5,1"/>
		<path class="st3" d="M70.7,657c0.3,7.3,0.6,14.7,1,22c0.1,1.8,0.6,3.7,1,5.5"/>
		<path class="st3" d="M365,89c0,6.2,0.2,12.3,0,18.5c-0.3,7.7-1,15.3-1.4,23c-0.1,1.5,0.3,3,0.5,4.5"/>
		<path class="st3" d="M572.8,70.1c-1,0.8-1.9,2.1-3,2.4c-2.8,0.7-5.3,0.9-7.3,3.9c-1,1.6-5,1.5-7.7,1.6c-3,0.2-6-0.3-9-0.4"/>
		<path class="st3" d="M440.4,220.4c-0.2-0.2-0.4-0.5-0.5-0.5c-12.5,2.3-25-1.3-37.5,0"/>
		<path class="st3" d="M574.8,549.6c0,9,0,18,0,27"/>
		<path class="st3" d="M-122.7,44.1c13.1-3.2,26.2-6.3,40.1-9.7c0.2,5,0.4,9.3,0.7,14.7c7.2,0,14.2,0.2,21.2-0.1
			c8.2-0.3,16.3-1.2,24.5-1.4c6-0.1,12,0.6,18,0.9"/>
		<path class="st3" d="M455.9,152c-0.7,8.8-1.5,17.7-2.2,26.8c3.6,5.1,7.5,10.5,11.5,16.1c-1.7,2.5,0.2,6.7-4.3,7.5"/>
		<path class="st3" d="M207.1,276.9c3.3,0.5,6.7,1,10,1.5c2.4,0.4,5.7,4.9,6,8c0.6,6.3-0.1,12.2-4,17.5"/>
		<path class="st3" d="M326,270.9c-8.7-0.7-17.3-1.3-26-2"/>
		<path class="st3" d="M357,641.5c-0.3,8.7-0.7,17.3-1,26"/>
		<path class="st3" d="M-307.6,127c1.6,2.4,3.2,4.8,5,7.4c3.8-1.6,7.5-3.2,11.8-5.1c1.8,0.9,4.1,2.1,6.8,3.4
			c1.9-1.2,4.1-3.4,7.1-0.4c0.7,0.7,2.9-0.2,4.4-0.4"/>
		<path class="st3" d="M401.5,630.6c-8.5,0.2-17,0.3-25.5,0.5"/>
		<path class="st3" d="M-169.2,213.4c6.8,2.5,13.7,5,20.5,7.5c1.5,0.5,3,1,4.5,1.5"/>
		<path class="st3" d="M838.7,670.5c-12,0-24,0-36.9,0c-0.3-1.6-0.7-3.8-1.1-6"/>
		<path class="st3" d="M246,618.1c-4.8,0-9.7,0-14.5,0c-3.5,0-7,0-10.5,0"/>
		<path class="st3" d="M230.1,92c3,0.5,2,2.8,2,4.5c-0.4,11.5-0.9,23-1.4,34.8c-1.5-0.8-3.3-1.8-5-2.8"/>
		<path class="st3" d="M516.9,83c-0.9,2.5-1.9,5-2.8,7.7c-8.2,0.9-15.6,3.3-22.6,9.1c-0.3-2.9-0.6-5.1-0.9-7.9c-2.4,0.5-4.5,1-7,1.5
			c-0.7,2.7-1.4,5.4-1.9,7.6c-6.1,1-11.9,2-17.7,2.9"/>
		<path class="st3" d="M394,96c-2.3-2.7-4.9-1.6-7.5-0.5c-2.3,1-4.4,2.1-6.1,2.9c-0.5,7.9,4.5,11,10,14.2c6.3,3.6,10.6-2.2,16.2-2.2
			c6.3,1.5,12.8,3,19.4,4.6"/>
		<path class="st3" d="M-120.2,44.1c0,7.7,0,15.3,0,23c0,3,0,6,0,10.2c5.5,0.8,11.8,1.8,18.3,2.7c10-8,20.8-14.3,35.4-8.8
			c0.5-9.7,0.9-18.4,1.3-27"/>
		<path class="st3" d="M625.3,118c0.2-3.5,0.4-7,0.6-10.5c-0.6-0.1-1.1-0.3-1.7-0.4c-3.5,3.5-6.1,7.6-8,12.4
			c-1.8,4.5-4.1,8.7-6.5,13.6c1.1,0.6,2.3,1.3,3.7,2c-0.2,0.6-0.4,1.3-0.6,1.9"/>
		<path class="st3" d="M-10.8,27.6c-0.5,8.2-1,16.3-1.5,24.5"/>
		<path class="st3" d="M24.7-48.8c0,1-0.2,2,0,3c1.8,7.9,3.7,15.8,6,26.1c3.2,2.8,8.3,7.3,13.4,11.8"/>
		<path class="st3" d="M664.3,478.7c0.2,4.5,0.4,9,0.5,13.5c0.1,3.5,0,7,0,10.5"/>
		<path class="st3" d="M257,562.6c-0.3,6.7-0.6,13.3-1,20c-0.2,2.7-0.9,5.3-0.9,8c0,1.5,1.2,3,1.9,4.5"/>
		<path class="st3" d="M984.6,284.9c0.3,8,0.7,16,1,24"/>
		<path class="st3" d="M-191.7,686.5c10.7-0.3,21.3-0.7,32-1c1,0,2,0.3,3,0.5"/>
		<path class="st3" d="M910.6,671.5c-8,0.5-16,1-24,1.5"/>
		<path class="st3" d="M225.1,322.8c-1,4.5-2.3,8.9-2.9,13.5c-0.6,4.8-0.4,9.6-0.6,14.5"/>
		<path class="st3" d="M-352.1,230.9c5.2,6.6,10.3,13.2,15.3,19.5c13.8-5.9,27.8-6.5,41.7-6.3c2.4,0,4.8,2.9,7.7,4.7
			c1.3-0.5,3.3-1.2,5.3-1.9"/>
		<path class="st3" d="M429.4,221.9c-4.8,1.7-9.6,3.4-14.5,5c-3,0.9-6,1.4-9.4,2.2c0.6,1.2,1,2,1.5,2.8"/>
		<path class="st3" d="M-463.5,795.4l1-32c6,0.2,12,0.4,18,0.4c1.8,0,3.7-0.6,5.5-0.9"/>
		<path class="st3" d="M313,96.5c-0.8,1.2-1.5,2.6-2.5,3.4c-4.4,3.4-9,6.7-13.4,10.1c-1.8,1.3-3.4,2.9-5.3,4.5
			c-1.1-0.5-2.4-1-3.7-1.6"/>
		<path class="st3" d="M491.4,228.9c3.8,0.9,7.6,1.8,12.2,2.9c-2.7,3.5-4.4,5.8-6.3,8.1c-1.6,1.9-3.8,3.6-2,6.5
			c-0.8,0.5-1.7,1-2.5,1.5"/>
		<path class="st3" d="M411.4,634c7.7,1.3,15.3,2.7,23,4"/>
		<path class="st3" d="M822.2,378.8c0.2,12.3,0.3,24.6,0.5,37c0,1,0,2,0,3"/>
		<path class="st3" d="M-98.7,297.9c-0.3,7.7-0.7,15.3-1,23"/>
		<path class="st3" d="M439.9,24.1c1.8-2.7,4.1-2.3,6.3-1.1c6.9,7.3,13.6,14.4,20.2,21.7c1.4,1.6,2.4,3.6,3.5,5.5"/>
		<path class="st3" d="M477.9,547.6c-2.3,0.8-4.7,1.5-7,2.5c-5.1,2.4-10,5-15,7.5"/>
		<path class="st3" d="M89.1,105c4.2-1.8,7.4-0.5,10,3c-2.9,5.2-6,6.5-11,3.9c-3.9-2-7.4-3.6-12.1-2.1c-4.1,1.3-6.4-1.2-6.4-5.3"/>
		<path class="st3" d="M249,562.1c-7.7,0.5-15.3,1-23,1.5c-0.7,0-1.3-0.3-2-0.5"/>
		<path class="st3" d="M20.7,42.6c-5-8.5-10.1-16.9-15.2-25.5c2.2-4.1,4.5-8,7-12.6c-2.4-0.7-4.6-1.3-7.1-2c0-1.7,0-3.5,0-5.2
			C1.2-5.1-4.2-5.8-4.7-12.6c-5.8,1.2-11.3,2.3-17.1,3.5c2.2,8.4,7.2,12.7,15.3,14.9C-7.3,8.4-8.1,11-9,13.7
			c2.3,1.5,4.5,2.9,6.7,4.4"/>
		<path class="st3" d="M86.1,336.8c-10,0.3-20,0.7-30,1"/>
		<path class="st3" d="M10.7,110c-2.6,7.4-5.3,14.8-8.1,22.7c5.1,0.3,9.1,0.6,13.4,0.8c2-2.3,4.1-4.6,7-7.9
			c-1.5-0.7-3.1-1.5-4.8-2.3c2.8-3.6,4.9-6.2,7.4-9.4c-2.5-2.3-5.1-4.7-8.1-7.5c-2.1,1-4.2,2.1-6.2,3.1"/>
		<path class="st3" d="M564.8,287.4c7.3,0.8,14.7,1.7,22,2.5"/>
		<path class="st3" d="M882.6,651.5c0.3,5.8,0.7,11.7,1,17.5c0.1,1.5,0.3,3,0.5,4.5"/>
		<path class="st3" d="M-147.7,246.4c0.3,7.2,0.7,14.3,1,21.5c0.1,2.1,0.2,4.3-3,4"/>
		<path class="st3" d="M396.5-10.9c-7.2,0.2-14.3,0.3-21.5,0.5"/>
		<path class="st3" d="M-286.6,154c-0.3,3-0.2,6.1-1.1,9c-1.2,4-3.2,7.7-4.9,11.5c-0.6,1.4-1.9,2.7-1.9,4c0.3,7.8,0.9,15.7,1.4,23.5
			"/>
		<path class="st3" d="M-14.8,25.6c-1.2,9.2-2.3,18.3-3.5,27.5"/>
		<path class="st3" d="M72.7,116c0.2,7.7,0.3,15.3,0.5,23c0,0.3,0.6,0.7,1,1"/>
		<path class="st3" d="M58.7,112.8c1.2-5,2.3-10.1,3.6-15.7c1,0.2,2.4,0.6,4.2,1c1.5-2.7,3.9-3.9,7-2.8c1.7-2,3.2-3.9,5-6
			c3,3,6,6,7.8,7.8c11.8,0,22.2,0,32.5,0"/>
		<path class="st3" d="M59.2,650.5c-0.3,2.8-1.1,5.7-0.9,8.5c0.5,8.5,1.3,17,1.9,25.5"/>
		<path class="st3" d="M401,679.5c-17.8,0-20.1,0.3-23.9,3c-2.2-0.5-4.4-1-6.6-1.5"/>
		<path class="st3" d="M-145.2,93c-6.2,5.6-12.5,11.2-18.7,16.8c0,10.9,0,22,0,33.1c1.1,0.2,1.9,0.4,2.7,0.6"/>
		<path class="st3" d="M184.3,93.5c-14.7-2.7-29.5-5.5-44.3-8.2c-6.6,5-13.2,9.9-20.7,15.6c0.1-2.5,0.2-4.2,0.3-5.8"/>
		<path class="st3" d="M454.9,147c-7-0.2-14-0.3-21-0.5"/>
		<path class="st3" d="M227.1,564.6c0,7,0,14,0,21"/>
		<path class="st3" d="M967.1,63.6c8,0.2,16,0.2,24,0.5c6.5,0.3,13,1,19.5,1.5"/>
		<path class="st3" d="M295,204.9c1.7,2.2,1.6,5,1.9,7.5c0.5,4.3,0.5,8.6,0.6,13c0.2,6.5-5.2,13.9-11.5,16"/>
		<path class="st3" d="M656.8,390.8c5.5,0.7,11,1.3,16.5,2c2.2,0.3,4.3,0.7,6.5,1"/>
		<path class="st3" d="M-188.2,94.5c-6.8,0-13.7,0-20.5,0c-0.1,0.5-0.3,0.9-0.4,1.4c-1.7-2.1-3.5-4.2-5.5-6.7
			c-2.6,4-4.9,7.4-7.1,10.8"/>
		<path class="st3" d="M1109.5,715.5c8.3,0.2,16.7,0.3,25,0.5v32.5c-28.6,0-57.3-0.1-85.9,0c-40,0.2-80,0.6-119.9,1
			c-40.1,0.3-80.3,0.7-120.4,1c-37.1,0.3-74.3,0.7-111.4,1c-36.1,0.3-72.3,0.7-108.4,1c-42.1,0.4-84.3,0.7-126.4,1
			c-39.8,0.3-79.6,0.7-119.4,1c-36.1,0.3-72.3,0.7-108.4,1c-41.8,0.4-83.6,0.7-125.4,1c-35.1,0.3-70.3,0.7-105.4,1
			c-38.5,0.3-77,0.7-115.4,1c-37.8,0.3-75.6,0.6-113.4,1c-7.7,0.1-15.3,0.4-23,0.5c-31,0.4-62,0.7-92.9,1c-30.8,0.3-61.6,0.7-92.4,1
			c-1.3,0-2.7,0.3-4,0.5"/>
		<path class="st3" d="M674.3,466.7c0-5.8,0-11.7,0-18c-0.9,0.2-1.7,0.4-2.5,0.5"/>
		<path class="st3" d="M669.3,434.7c-0.2,6.7-0.3,13.3-0.5,20"/>
		<path class="st3" d="M482.9,264.9c0.5,0.7,1,1.9,1.5,1.9c5.5-0.2,11-0.6,16.5-0.9"/>
		<path class="st3" d="M271,567.6c-0.3,7.5-0.8,15-0.9,22.5c0,1.8-1.3,4.4,1.9,5"/>
		<path class="st3" d="M420.9,90c-0.5,7.7-1,15.3-1.5,23"/>
		<path class="st3" d="M783.7,247.4c3.7,1.9,7.4,3.9,10.5,5.5c0.6,3.5,1.1,6.5,1.7,10.1c-2.5,3.2-5.4,7-8.3,10.8"/>
		<path class="st3" d="M211.1,658.5c-6.7,0.3-13.3,0.7-20,1"/>
		<path class="st3" d="M249,465.7c7.8,3.2,15.5,6.3,24.2,9.9c0.3,1.7,0.8,4.4,1.3,7.1"/>
		<path class="st3" d="M109.1,630.6c0.2,0.3,0.5,0.7,0.5,1c-1,8.6,2,16.4,5.5,24c0.7,1.6,0.7,3.6,1.1,5.5"/>
		<path class="st3" d="M-72.8,266.9c-6.5,0.2-13,0.3-19.5,0.5"/>
		<path class="st3" d="M1041.6,629.6c0.3,8,0.7,16,1,24"/>
		<path class="st3" d="M1006.6,203.4c9.8,0.2,19.7,0.3,29.5,0.5c2.4,0,4.5-0.3,5.7,2.9c0.5,1.3,3.8,1.6,5.2,2.1c0,5.2,0,9.8,0,14.7
			c-1.8,0-3.1,0-3.2,0c-5.4,5.4-10.1,10.1-14.7,14.7"/>
		<path class="st3" d="M586.8,273.9c-6.6-0.9-12.3,1.5-18,4.4c-1.3,0.7-3,0.7-4.5,1.1"/>
		<path class="st3" d="M665.3,219.9c3.8-0.3,7.7-0.8,11.5-1c3.8-0.2,7.7,0,11.5,0"/>
		<path class="st3" d="M446.9,636.5c-0.2,4.8-0.6,9.7-0.4,14.5c0.1,3.8,0.9,7.7,1.4,11.5"/>
		<path class="st3" d="M607.8,240.9c5-0.2,10-0.4,15-0.5c7.8-0.1,15.7-0.1,23.5,0c4,0,8.1-0.1,12,0.6c4.1,0.7,8.1,2.1,12,3.5
			c1.1,0.4,1.7,1.9,2.5,2.9"/>
		<path class="st3" d="M812.7,399.8c0,4.7-0.1,9.3,0,14c0,1.7,0.6,3.3,1,5"/>
		<path class="st3" d="M56.7,511.7c-3.2-5.3-10.6-8.2-17.5-7"/>
		<path class="st3" d="M-270.6,244.9c3.7-7,2-9-7.4-9c-1.4,3.7-2.8,7.3-4.1,11"/>
		<path class="st3" d="M-26.3,97c-0.3,6.3-0.7,12.7-1,19"/>
		<path class="st3" d="M392,263.9c0.5,2.8,1.2,5.6,1.4,8.5c0.3,3,0.1,6,0.1,9c4.5-0.4,8-0.7,11.5-1"/>
		<path class="st3" d="M-268.1,110.5c-1.7-2.9-3.4-5.8-5.8-10c-4.4,4.5-8.2,8.4-12.2,12.7c-1.4-1.3-3.1-2.8-5.2-4.6
			c-2.5,2.1-4.8,4-7.7,6.4c-1.3-2.4-2.5-4.6-3.8-7c1,0,1.6,0,2.3,0"/>
		<path class="st3" d="M410.9,679.5c-0.5,1-1,2-1.2,2.5c-7.9,0.9-15.6,1.8-23.2,2.5c-2.7,0.2-3.3,1.6-3.6,4c-0.4,4-3.4,7.9-0.4,12"
			/>
		<path class="st3" d="M-226.7,688.5c4.4,4.5,10,1.8,15,2.5c1,0.1,2-0.3,3-0.5"/>
		<path class="st3" d="M616.8-17.9c-0.3,6.2-0.7,12.3-1,18.5c-0.1,1.5,0,3,0,4.5"/>
		<path class="st3" d="M693.8,201.9c-0.2,6.8-0.3,13.7-0.5,20.5"/>
		<path class="st3" d="M290,58.6c-6,0.2-12,0.3-18,0.5"/>
		<path class="st3" d="M891.1,104.5c0.7-2.4,1.3-4.8,2.2-8c-4.3,0-7.5,0-11,0c-0.8,2.1-1.6,4.8-2.7,7.5c-0.2,0.5-1.3,0.7-1.9,1"/>
		<path class="st3" d="M596.8,279.4c-6-1.7-11.6-0.5-17,2.5c-1.7,0.9-3.3,2-5,3"/>
		<path class="st3" d="M797.2,193.9c0,2.3,0,4.7,0,7c-0.1,5.7-0.3,11.3-0.5,17"/>
		<path class="st3" d="M562.4,86c0.2,8.2,0.3,16.3,0.6,24.5c0,1.2,0.7,2.5,1.5,3.5c4.2,4.9,3.4,9.5-0.5,14c-0.5,0.5-0.7,1.3-1,2"/>
		<path class="st3" d="M268,144c-0.2,0.7-0.2,1.8-0.5,1.9c-5,1.3-10,2.4-15,3.6"/>
		<path class="st3" d="M808.2,38.1c3-1.8,6-3.6,9.4-5.7c5.6,1.5,11.6,3.4,17.6,4.5c2.3,0.4,2.9,1.4,3.5,3.2"/>
		<path class="st3" d="M-40.3,91c1.7,1.2,3.3,2.3,5,3.5c-0.3,0.5-0.5,0.9-0.8,1.4c2-0.9,3.9-1.9,6.3-3c4.3,5.4,10.3,4.8,16.8,3.5
			c1.4-5.1,5.4-6,9.2-5.4c5,6.5,9.7,12.6,14.4,18.7"/>
		<path class="st3" d="M719.8,89.5c-3.1,1.6-6.3,3.1-9.7,4.8c-1.9-2.2-3.8-4.4-5.9-6.8c-6.2,3.8-12.3,7.5-19,11.6
			c-0.2-2.9-0.4-4.8-0.6-7c-3.4,0.3-6.5,0.7-9.6,1c0.4-2.9,0.7-4.7,1.1-7.3c-2,0.3-3.1,0.5-4.2,0.7"/>
		<path class="st3" d="M-193.2,110.5c2.7,1.7,5.5,3.4,8.5,5.2c0,5.3,0.1,11.1-2.8,16.9c-2.1,4.3,1.4,8,4.8,10.9"/>
		<path class="st3" d="M471.4,222.4c4.8,1.5,9.6,3.3,14.5,4.4c3.9,0.9,5.5-3,8-4.9"/>
		<path class="st3" d="M254.5,105c0.5,1.8,1.3,3.6,1.4,5.5c0.5,8.8,0.7,17.6,1.1,26.5"/>
		<path class="st3" d="M512.9,24.1c-0.5-2.5-2.1-3.1-4.5-3.1c-6.8,0.2-13.7,0.1-20.5,0.1"/>
		<path class="st3" d="M225.6,141c0-1.2-0.2-2.4,0-3.5c1.1-4.2,0.7-7.7-3.5-10c-3.2-1.8-4.6-4.6-5.2-8.4c-0.7-4-2.3-8.5-5-11.3
			c-2-2.1-6.4-1.9-9.7-2.7"/>
		<path class="st3" d="M365,119c2.9,1.4,5.8,2.9,8.5,4.2c0.8,5.9,5.8,7.8,9.5,10.8"/>
		<path class="st3" d="M569.3,254.4c1,2.5,2.1,5.1,3.2,7.6c7.1-4.3,13.8-8.4,21.2-12.9c0.2-3.5,0.3-7.9,0.7-12.2
			c0.1-0.7,0.9-1.3,1.4-2"/>
		<path class="st3" d="M108.1,318.8c0,5.3,0,10.7,0,16"/>
		<path class="st3" d="M854.7,138.5c0.5,1,1.1,1.9,1.9,3.5c-1.9,3.1-4.7,7.6-7.4,12"/>
		<path class="st3" d="M-264.6,686c5.4-2.3,11,1.2,16.5-0.5c1.4-0.4,3-0.4,4.5-0.5"/>
		<path class="st3" d="M255,499.7c0,7.5,0,15,0,22.5c0,1.2,0.3,2.3,0.5,3.5"/>
		<path class="st3" d="M81.2,364.8c-6.3-0.3-12.7-0.7-19-1"/>
		<path class="st3" d="M247,574.1c-0.5,4.3-1.1,8.7-1.4,13c-0.1,0.8,0.6,1.7,0.9,2.5"/>
		<path class="st3" d="M454.4,93c-0.7,6.2-1.3,12.3-2,18.5"/>
		<path class="st3" d="M504.9,22.1c-0.2,7-0.3,14-0.5,21"/>
		<path class="st3" d="M902.6,120.5c-3.4-1.7-6.3,0.8-9.5,1.1c-3.8,0.4-7.6,1.2-11.6,1.9c-0.5,0.9-1.2,2.2-1.9,3.6"/>
		<path class="st3" d="M982.6,2.1c0,2.5,0,5,0,7.1c-2.6,1.9-5.1,3.6-7.5,5.3"/>
		<path class="st3" d="M931.6,248.4c2-1.5,4-3.1,6-4.5c7.6-5.3,15.3-3.3,23,0"/>
		<path class="st3" d="M431.4,92.5c2.3-1.8,4.7-3.7,7.5-5.9c7.1,2.7,14.6,5.5,22,8.4c3.6,1.4,2,5.5,3.5,8"/>
		<path class="st3" d="M362,641.5c0.2,5.5,0.3,11,0.5,16.5"/>
		<path class="st3" d="M789.2,94c4.6,0.4,9.3,0.8,14.2,1.3c0.2-2.3,0.4-3.8,0.6-5.2c4.7-1.4,7.2,0.5,6.7,4.9c-0.2,1.4-0.6,2.7-1,4"
			/>
		<path class="st3" d="M977.1,96c4.7,0.3,9.4,0.4,14,1.1c4.1,0.6,5.2,3.7,5,7.5c-4.2,0.6-8.4,1.2-13.3,2c5.5,6.5,14.6,11.5,5.8,20.9
			"/>
		<path class="st3" d="M902.6,148c-9.8,0.2-19.7,0.3-29.5,0.5"/>
		<path class="st3" d="M624.3,127c-0.3,4.8-0.7,9.7-1,14.5"/>
		<path class="st3" d="M489.4,227.4c2.1,1.7,1.9,3.1,0,5c-3.5,3.7-6.7,7.6-10,11.4"/>
		<path class="st3" d="M-105.7,112c2.3-5.2,4.6-10.3,7.4-16.5c-6.2,0-12,0-17.9,0"/>
		<path class="st3" d="M946.1,217.9c-0.2,0.2-0.3,0.4-0.5,0.5c-0.1,0.1-0.3,0-0.5,0c2.5,5.3,0.6,9-4,12c-0.8,0.6-1.4,1.6-2,2.5"/>
		<path class="st3" d="M473.9,129c-3.3-0.4-1.7,2.9-3.6,3.9c2.4,2.8,4.5,5.2,6.6,7.6"/>
		<path class="st3" d="M867.7,115c0.7,0.7,1.9,1.3,1.9,2c0,3.7-0.2,7.3-0.4,11"/>
		<path class="st3" d="M674.8,297.9c0.3,4.7,0.7,9.3,1,14"/>
		<path class="st3" d="M254.5,95.5c-2-0.5-5.2-2-5.8-1.3c-2.7,3.1-5.6,6.3-5.7,10.8c-0.1,5.2,0,10.3,0,15.7c3.8,2.4,7.9,1.1,12,0.8"
			/>
		<path class="st3" d="M474.9,108c-0.5,4.7-1,9.3-1.5,14"/>
		<path class="st3" d="M185.1,91c-0.5,5.5-1,11-1.5,16.5"/>
		<path class="st3" d="M971.1,14.6c-1.2,4.2,2,8.3,6,7.4c3.6-0.8,7-2.3,10.5-3.4"/>
		<path class="st3" d="M-101.7,268.9c-0.2,1.7-0.2,3.4-0.5,5c-0.6,2.8-1.3,5.7-2,8.7c1.6,1.1,3.3,2.3,5,3.6c1.3-0.7,2.5-1.2,3.6-1.8
			"/>
		<path class="st3" d="M207.6,229.9c-0.5,4.7-1,9.3-1.5,14"/>
		<path class="st3" d="M59.2,152.5c-5,0.3-10,0.7-15.5,1c-0.8-1.7-1.6-3.6-2.4-5.5"/>
		<path class="st3" d="M795.2,223.9c0,4.4,0,8.8,0,13.2"/>
		<path class="st3" d="M200.1,264.9c-0.3,0.7-0.6,1.9-1,1.9c-3.3,0.1-6.7,0.1-10,0.1"/>
		<path class="st3" d="M948.6,95.5c-0.3,4.5-0.7,9-1,13.6c3.4,0.3,6.2,0.6,9,0.9"/>
		<path class="st3" d="M565.8,254.4c-0.8,8.7-1.7,17.3-2.5,26c-0.1,1.5,0.3,3,0.5,4.5"/>
		<path class="st3" d="M506.9,99c-3,2.3-5.9,4.8-9,6.9c-1.1,0.7-2.6,0.7-4,1.1"/>
		<path class="st3" d="M34.7,640c-4.2,2.3-8.3,4.7-12.5,7"/>
		<path class="st3" d="M968.6,326.8c0.2,4.3,0.3,8.7,0.5,13"/>
		<path class="st3" d="M219.1,240.9c2.5,0.2,5-3.5,7.2-0.4c-2.6,4.1-5.2,8.1-7.7,12.1"/>
		<path class="st3" d="M1031.6,470.7c-9.5-0.7-19-2.3-28.5-1.7c-8.9,0.5-18.1,2.2-26,7.2"/>
		<path class="st3" d="M113.1,664.5c-0.3-0.7-0.6-1.3-1.5-3.2c6.2,0.4,11.8,0.8,17.5,1.2"/>
		<path class="st3" d="M-284.6,559.6c-5.2-0.8-10.3-2.2-15.5-2.4c-4.8-0.2-9.7,0.8-14.5,1.4c-2.4,0.3-4.7,1-7,1.5"/>
		<path class="st3" d="M23.2,47.1c0.2,1,0.6,2.1,0.4,3c-1.2,6-2.6,12-3.9,18"/>
		<path class="st3" d="M965.1,355.8c4-1.4,7.9-2.8,12-4.2c0-4.1,0-8.4,0-13.8c-3.4,1-6,1.7-8.5,2.5c0.6,4.7,1.1,8.9,1.6,13"/>
		<path class="st3" d="M918.1,51.1c-9.2-0.3-18.3-0.7-27.5-1c-1.7,0-3.3,0.3-5,0.5"/>
		<path class="st3" d="M-246.6,47.1c0.6,3.1,1.3,6.1,2,9.7c15.9-7.4,30.6-14.3,45.5-21.1c2.1-1,4.3-1.8,6.5-2.5
			c3.8-1.2,4.4-2.3,3.1-5.7c-13.4,3.2-26.7,6.5-40.1,9.7c-0.8,0.2-1.7-0.3-2.5-0.5"/>
		<path class="st3" d="M406.4,581.6c6.3,1.8,12.7,3.6,19,5.5c2.2,0.7,4,1,5-1.5"/>
		<path class="st3" d="M657.8,108.5c-5.6-0.6-10.9-1.7-16.1,2.4c-4.9,3.8-6.5,3.2-11.4-1.9"/>
		<path class="st3" d="M-310.1,533.1c-4,0.2-8,0.3-12,0.5"/>
		<path class="st3" d="M927.1,18.6c-3.6,2.8-5.2,6.4-4.3,11.4c-5.1,0.6-8.8,3.1-9.4,8.2c-0.3,4-0.6,8-0.8,11.9"/>
		<path class="st3" d="M960.6,258.9c-4,0-8,0-12,0"/>
		<path class="st3" d="M627.3,95c-0.7,4-1.3,8-2,12"/>
		<path class="st3" d="M-81.2,68.1c0.2-3.2,0.3-6.3,0.5-10.1c-4,0.2-8,0.4-12,0.6"/>
		<path class="st3" d="M-89.2,127.5c-5.2,0.4-10.5,2-15.6-1.4c-0.9-0.6-3,0.3-4.4,0.9c-2.4,1.1-4.6,2.5-6.9,3.8
			c-1.2-2.4-2.2-4.4-3.3-6.6c-0.8,0.6-1.6,1.2-2.4,1.8"/>
		<path class="st3" d="M169.6,669.5c-0.3,2.8-0.9,5.7-0.9,8.5c0,1.3,0.9,2.7,1.4,4"/>
		<path class="st3" d="M1006.6,612.6c0.8-0.7,1.6-1.8,2.5-1.9c3-0.2,6-0.1,10.2-0.1c3.2,6,6.8,12.5,10.3,19"/>
		<path class="st3" d="M-77.7,680.5c-3.5,0.3-7,0.6-10.5,1.1c-0.6,0.1-1,1.3-1.5,1.9"/>
		<path class="st3" d="M26.2,96c-1.9,0.7-3.8,1.5-5.4,2.1c-0.8,3.2-1.4,6.1-2.1,8.9"/>
		<path class="st3" d="M-71.8,672.5c0.3,3.7,0.7,7.3,1,11"/>
		<path class="st3" d="M-256.6,235.9c3.7,2.2,7.3,4.3,11,6.5"/>
		<path class="st3" d="M480.9,574.6c-10.8-0.3-21.7-0.7-32.5-1c-2.2-0.1-3.9-0.2-3.5-3"/>
		<path class="st3" d="M1018.1,243.4c-6.3,0.3-12.7,0.7-19,1"/>
		<path class="st3" d="M1010.6,283.9c-3.3,0.2-6.7,0.3-10,0.5"/>
		<path class="st3" d="M572.8,127c-0.3,3-1.8,6.5-0.7,8.8c1.1,2.3,4.7,3.5,7.2,5.1"/>
		<path class="st3" d="M274,94c-5.8,1-11.7,2-17.5,3"/>
		<path class="st3" d="M24.7,72.6c3.3,2.3,6.7,4.7,10,7"/>
		<path class="st3" d="M814.7,637c-5.3,1.3-10.7,2.7-16,4"/>
		<path class="st3" d="M969.1,355.3c0.5,3.2,1,6.3,1.5,9.5"/>
		<path class="st3" d="M1001.6,357.3c-7.8,1.5-15.7,3-23.5,4.5"/>
		<path class="st3" d="M-29.8,46.6c2.5-2.2,1.1-4.1-1.2-6.9c-4.1,2.4-8.4,4.9-12.8,7.4"/>
		<path class="st3" d="M266,525.6c0.2,3,0.3,6,0.5,9"/>
		<path class="st3" d="M788.2,238.4c-2,2.9-4,5.8-6,8.7"/>
		<path class="st3" d="M-329.6,690.5c-4.1,3.7-8.2,7.5-12.3,11.3c0.9,1.3,1.6,2.2,2.5,3.4c-2.1,1.4-4.1,2.8-6.2,4.3"/>
		<path class="st3" d="M-323.6,561.1c-3,0.5-6,1-9,1.5"/>
		<path class="st3" d="M906.6,132c-3,1.2-6,2.3-9,3.5"/>
		<path class="st3" d="M121.1,137c-1.5,4.7-6.1,7.9-11,7.5"/>
		<path class="st3" d="M976.6,352.8c0.3,3,0.6,6,0.9,8.8c-4.2,2.6-8.3,5.2-12.4,7.7"/>
		<path class="st3" d="M217.1,448.7c0,3,0,6,0,9"/>
		<path class="st3" d="M-1.8,27.1c2.1,7.3,0.8,14.3-2.5,21"/>
		<path class="st3" d="M171.1,59.1c2.5,1.8,5,3.6,7.5,5.5c0.9,0.7,1.7,1.6,2.5,2.5"/>
		<path class="st3" d="M989.6,349.3c-3.8,0.7-7.7,1.3-11.5,2"/>
		<path class="st3" d="M-223.7,229.9c0,2.7,0,5.3,0,8"/>
		<path class="st3" d="M460.4,565.6c-0.3,2.7-0.7,5.3-1,8"/>
		<path class="st3" d="M-257.6,454.7c-0.3,2.7-0.7,5.3-1,8"/>
		<path class="st3" d="M880.2,134c3.2,2.2,6.3,4.3,9.5,6.5"/>
		<path class="st3" d="M1012.6,284.9c4.7,1.1,10,0.4,14,4"/>
		<path class="st3" d="M429.9,146.5c2.3-1.2,3.3-0.1,4.1,2c0.7,1.8,1.8,3.4,2.7,5c2.7-0.4,5.2-0.7,7.7-1"/>
		<path class="st3" d="M252,95.5c0.5,2.5,1,5,1.5,7.5"/>
		<path class="st3" d="M546.4,267.4c-2.5-0.5-5-1-7.5-1.5"/>
		<path class="st3" d="M321,68.1c1-0.4,2-0.8,3.8-1.5c0.7,2.3,1.3,4.4,2.3,7.5c1.2,1.1,3.3,2.9,5.3,4.6c0.4-0.1,0.8-0.2,1.2-0.3
			c-0.2-1.1-0.4-2.2-0.6-3.3"/>
		<path class="st3" d="M994.1,188.9c2.1,1.9,4.2,3.8,6.5,5.8c-1.5,2.1-3.2,4.4-5,6.7"/>
		<path class="st3" d="M110.1,134c2.6-3-0.9-3.7-2-3.8c-1.6-0.1-3.3,1.1-5,1.8c0.7,1.5,1.3,3,2,4.5c0.3,0.5,1,0.7,1.5,1"/>
		<path class="st3" d="M217.1,431.7c0,2.3,0,4.7,0,7"/>
		<path class="st3" d="M832.7,632.6c3,0.3,6,0.7,9,1"/>
		<path class="st3" d="M955.1,226.9c1.7,4,3.3,8,5,12"/>
		<path class="st3" d="M-205.7,105c1.9,1.4,3.8,2.8,4.8,3.6c0.5,4.1,0.8,7.2,1.2,10.4"/>
		<path class="st3" d="M1048,65.6c0,2.3,0,4.7,0,7c-11.9,0-23.3,0-35.8,0c-0.4-2.4-0.8-4.9-1.2-7.5"/>
		<path class="st3" d="M915.1,50.6c1.1-0.6,2.2-1.3,3.5-2.1c0,4.6,0,8.6,0,12.6"/>
		<path class="st3" d="M-356.6,703c-0.2,2-0.3,4-0.5,6"/>
		<path class="st3" d="M336,247.4c-2,0.2-4,0.3-6,0.5"/>
		<path class="st3" d="M547.4,268.4c2.4,1.5,4.7,3,6.5,4.2c0,2.2,0,3.7,0,5.3"/>
		<path class="st3" d="M1027.6,243.9c-2.8,0-5.7,0-8.5,0"/>
		<path class="st3" d="M491.4,133.5c1.5,2,3,4,4.5,6"/>
		<path class="st3" d="M-89.2,229.9c0,3.5,0,7,0,10.5"/>
		<path class="st3" d="M452.9,635.5c-5.7,0.5-11.3,1-17,1.5"/>
		<path class="st3" d="M671.8,238.9c-3.3,0.5-6.7,1-10,1.5"/>
		<path class="st3" d="M256.5,94.5c-0.7,2.8-1.3,5.7-2,8.5"/>
		<path class="st3" d="M947.6,85.5c0.2,3.2,0.3,6.3,0.5,9.5"/>
		<path class="st3" d="M983.6,335.8c-2.5,0.8-5,1.7-7.5,2.5"/>
		<path class="st3" d="M999.6,283.9c-7.7,0.2-15.3,0.3-23,0.5"/>
		<path class="st3" d="M-243.1,679.5c-0.9,3.2-1.3,6.1,3.5,6"/>
		<path class="st3" d="M-261.6,500.7c0.3,1.7,0.7,3.3,1,5"/>
		<path class="st3" d="M796.7,218.9c-0.2,1.5-0.3,3-0.5,4.5"/>
		<path class="st3" d="M987.1,145c-0.1-2.3-0.3-4.7-0.4-6.8c-3.3-0.2-6.5-0.5-9.6-0.7"/>
		<path class="st3" d="M110.1,125.5c3.2,0.2,6.3,0.3,9.5,0.5"/>
		<path class="st3" d="M-309.1,554.6c-1.8-0.1-3.3,0.1-2,2.5"/>
		<path class="st3" d="M998.1,244.4c-3.2,0.5-6.3,1-9.5,1.5"/>
		<path class="st3" d="M-303.6,531.6c-0.5,0.7-0.9,1.8-1.5,1.9c-1.3,0.3-2.6,0.1-4,0.1"/>
		<path class="st3" d="M552.9,267.9c0,1.2,0,2.3,0,3.5"/>
		<path class="st3" d="M549.9,82.5c-0.7-0.8-1.3-1.7-2-2.5"/>
		<path class="st3" d="M-199.7,690.5c-1,0.3-2,0.7-3,1"/>
		<path class="st3" d="M298.5,141.5c-2.1,0.9-0.5,2.3-0.5,3.5"/>
		<path class="st3" d="M-14.3,27.1c1.2,0,2.3,0,3.5,0c0.1-0.3,0.2-0.7,0.3-1c-2.9-0.8-5.9-1.5-9.2-2.4c-0.6-6.1-3.2-12.2,1.4-18.3
			c-3.3-3.8-6.4-7.5-9.8-11.4c-3.4,2.1-6.3,3.8-9.2,5.6"/>
		<path class="st3" d="M1012.6,472.7c-1.2-0.3-2.3-0.7-3.5-1"/>
		<path class="st3" d="M595.8,109c-1.2,0.5-2.3,1-3.5,1.5"/>
		<path class="st3" d="M17.7,109.5c0.8,1.2,1.7,2.3,2.5,3.5"/>
		<path class="st3" d="M352,94c0.5,1.2,1,2.3,1.5,3.5"/>
		<path class="st3" d="M252,118c0,1.2,0,2.3,0,3.5"/>
		<path class="st3" d="M626.3,111c1.3,1.1,2.7,2.2,4.1,3.4c-0.3,0.3,0.1-0.1,0.4-0.4c-0.2-0.2-0.3-0.3-0.5-0.5"/>
		<path class="st3" d="M-2.3,93.5C-3.1,94.4-4,95.2-4.8,96"/>
		<path class="st3" d="M-56.8,47.6c-0.8-2.5-2.2-3.9-5-2.5"/>
		<path class="st3" d="M105.1,217.9c0.3,0,0.9-0.1,1,0c0.4,1,0.7,2,1,3"/>
		<path class="st3" d="M66.2,110c0.7,1,1.3,2,2,3"/>
		<path class="st3" d="M-0.8-9.9c-1-0.3-2-0.7-3-1"/>
		<path class="st3" d="M297.5,627.1c1.3,1.5,5.4-1.4,5,3"/>
		<path class="st3" d="M-174.7,244.4c1-0.2,2-0.3,3-0.5"/>
		<path class="st3" d="M-103.2,242.4c0.3-0.7,0.7-1.3,1-2"/>
		<path class="st3" d="M634.8,110c0.3,0.8,0.7,1.7,1,2.5"/>
		<path class="st3" d="M-303.1,110.5c0.5,0.5,1,1,1.5,1.5"/>
		<path class="st3" d="M126.6,94c0-0.5,0-1,0-1.5c0,0,0.6,0,1,0"/>
		<path class="st3" d="M-203.7,112c0.8,0.3,1.7,0.7,2.5,1"/>
		<path class="st3" d="M-319.6,104c0.8-0.2,1.7-0.3,2.5-0.5"/>
		<path class="st3" d="M255.5,467.2c0.5,0.5,1,1,1.5,1.5"/>
		<path class="st3" d="M678.3,0.1c0-0.5,0-1,0-1.5c0,0,0.6,0,1,0"/>
		<path class="st3" d="M1027.1,240.4c-0.8,0.2-1.7,0.3-2.5,0.5"/>
		<path class="st3" d="M-73.8-15.9c-0.8-0.3-1.7-0.7-2.5-1"/>
		<path class="st3" d="M725.7,95c-0.8,0.3-1.7,0.7-2.5,1"/>
		<path class="st3" d="M998.6,642.5c-0.8,0.3-1.7,0.7-2.5,1"/>
		<path class="st3" d="M504.9,129c-1.3,0-2.7,0-4,0"/>
		<path class="st3" d="M1041.6,73.6c0.3,0.8,0.7,1.7,1,2.5"/>
		<path class="st3" d="M221.6,128c0,0.5,0,1,0,1.5c0,0,0.6,0,1,0"/>
		<path class="st3" d="M344.5,653c0,0.8,0,1.7,0,2.5"/>
		<path class="st3" d="M1041.6,654.5c1.3,0,2.7,0,4,0"/>
		<path class="st3" d="M703.8,37.1c-0.3,0.8-0.7,1.7-1,2.5"/>
		<path class="st3" d="M-283.1,134.5c0.8,0.8,1.7,1.7,2.5,2.5"/>
		<path class="st3" d="M596.8,275.9c0.2,0.8,0.3,1.7,0.5,2.5"/>
		<path class="st3" d="M738.2,13.6c0.5,0.8,1,1.7,1.5,2.5"/>
		<path class="st3" d="M1019.1,615.1c-0.8,0.8-1.7,1.7-2.5,2.5"/>
		<path class="st3" d="M402,276.9c-0.2,0.8-0.3,1.7-0.5,2.5"/>
		<path class="st3" d="M234.6,99.5c-0.8,0.2-1.7,0.3-2.5,0.5"/>
		<path class="st3" d="M999.1,199.4c0.2,0.8,0.3,1.7,0.5,2.5"/>
		<path class="st3" d="M369.5,122c0,0.5,0,1,0,1.5c0,0,0.6,0,1,0"/>
		<path class="st3" d="M-273.1,135.5c-0.8,0.5-1.7,1-2.5,1.5"/>
		<path class="st3" d="M-256.1,687c-0.5,0.8-1,1.7-1.5,2.5"/>
		<path class="st3" d="M198.1,21.1c-0.5,0.8-1,1.7-1.5,2.5"/>
		<path class="st3" d="M368,92c-0.8-0.3-1.7-0.7-2.5-1"/>
		<path class="st3" d="M-355.6,699.5c0.3,0.8,0.7,1.7,1,2.5"/>
		<path class="st3" d="M437.9,91c0.8,0.5,1.7,1,2.5,1.5"/>
		<path class="st3" d="M467.4,112.5c0.8,0.2,1.7,0.3,2.5,0.5"/>
		<path class="st3" d="M918.1,53.1c-0.7-0.2-1.3-0.3-2-0.5"/>
		<path class="st3" d="M296,625.6c0.7,1.7,1.4,3.5,2.1,5.2c0.3,0,0.6-0.1,0.9-0.1c0-0.8,0-1.7,0-2.5"/>
		<path class="st3" d="M434.9,86c-0.7,0.7-1.3,1.3-2,2"/>
		<path class="st3" d="M-372.6,91c-0.5,0.7-1,1.3-1.5,2"/>
		<path class="st3" d="M-323.1,92.5c0.3,0.3,0.7,0.7,1,1"/>
		<path class="st3" d="M-202.7,103c-0.2,1.2-0.3,2.3-0.5,3.5"/>
		<path class="st3" d="M224.1,124c0,0.7,0,1.3,0,2"/>
		<path class="st3" d="M610.3,135.5c0.2,0.5,0.3,1,0.5,1.5"/>
		<path class="st3" d="M471.4,136.5c0.3,0.3,0.7,0.7,1,1"/>
		<path class="st3" d="M-60.8,161c-0.7,0.3-1.3,0.7-2,1"/>
		<path class="st3" d="M999.6,189.9c0.7,0.3,1.3,0.7,2,1"/>
		<path class="st3" d="M995.1,192.4c0.3,0.3,0.7,0.7,1,1"/>
		<path class="st3" d="M668.8,219.4c-0.2,0.7-0.3,1.3-0.5,2"/>
		<path class="st3" d="M-247.1,223.4c0.3,0.3,0.7,0.7,1,1"/>
		<path class="st3" d="M294.5,238.4c-0.3,0.3-0.7,0.7-1,1"/>
		<path class="st3" d="M221.1,240.9c-0.2,0.8-0.3,1.7-0.5,2.5"/>
		<path class="st3" d="M413.4,243.4c0.3,0.3,0.7,0.7,1,1"/>
		<path class="st3" d="M-316.6,245.4c0.2,0.7,0.3,1.3,0.5,2"/>
		<path class="st3" d="M618.3-23.4c-0.3,0.3-0.7,0.7-1,1"/>
		<path class="st3" d="M518.4-19.4c-0.3,0.3-0.7,0.7-1,1"/>
		<path class="st3" d="M-49.3-0.4c-0.5,0.2-1,0.3-1.5,0.5"/>
		<path class="st3" d="M-25.3,0.6c0.3,0.3,0.7,0.7,1,1"/>
		<path class="st3" d="M-4.8,12.1c-0.5,0.5-1,1-1.5,1.5"/>
		<path class="st3" d="M1079.5,15.6c-0.5,0.3-1,0.7-1.5,1"/>
		<path class="st3" d="M1077,28.6c0.3-0.3,0.7-0.7,1-1"/>
		<path class="st3" d="M866.7,33.1c-0.7,0.3-1.3,0.7-2,1"/>
		<path class="st3" d="M-166.7,36.1c-0.3,0.7-0.7,1.3-1,2"/>
		<path class="st3" d="M-54.3,39.6c0,0.7,0,1.3,0,2"/>
		<path class="st3" d="M-6.8,44.1c0,0.7,0,1.3,0,2"/>
		<path class="st3" d="M986.6,146.5c-0.5,0-1,0-1.5,0"/>
		<path class="st3" d="M76.2,97c-0.5-0.2-1-0.3-1.5-0.5"/>
		<path class="st3" d="M-44.3,97.5c-0.5-0.2-1-0.3-1.5-0.5"/>
		<path class="st3" d="M561.9,124c0.5,0.5,1,1,1.5,1.5"/>
		<path class="st3" d="M-101.2,244.4c0.2,0.5,0.3,1,0.5,1.5"/>
		<path class="st3" d="M218.6,244.4c-0.2,0.3-0.4,0.7-0.5,1c-0.1,0.1,0,0.3,0,0.5"/>
		<path class="st3" d="M-219.2,154.5c0,0.3,0.1,0.7,0,1c-0.1,0.2-0.3,0.3-0.5,0.5"/>
		<path class="st3" d="M230.1,246.9c0.5-0.2,1-0.3,1.5-0.5"/>
		<path class="st3" d="M801.2,245.4c0.2,0.7,0.3,1.3,0.6,2.2c-0.3,0.4-0.7,0.8-1.1,1.3"/>
		<path class="st3" d="M707.3,94.5c-0.5,0.5-1,1-1.5,1.5"/>
		<path class="st3" d="M-182.2,32.6c-0.5,0.5-1,1-1.5,1.5"/>
		<path class="st3" d="M783.7,94c-0.5-0.2-1-0.3-1.5-0.5"/>
		<path class="st3" d="M-9.3,93.5c0,0.3,0.1,0.7,0,1c-0.1,0.2-0.3,0.3-0.5,0.5"/>
		<path class="st3" d="M160.1,53.6c-0.3,0.5-0.7,1-1,1.5"/>
		<path class="st3" d="M-198.7,32.1c-0.3,0.3-0.7,0.7-1,1c0,0,0.3,0.3,0.5,0.5"/>
		<path class="st3" d="M725.2,52.6c0.8,1.2,1.7,2.3,2.5,3.5"/>
		<path class="st3" d="M227.1,249.9c0.5-0.2,1-0.3,1.5-0.5"/>
		<path class="st3" d="M-14.8,94c0.5-0.2,1-0.3,1.5-0.5"/>
		<path class="st3" d="M-293.1,127.5c-0.5-0.2-1-0.3-1.5-0.5"/>
		<path class="st3" d="M435.4,91.5c0.2,0.5,0.3,1,0.5,1.5"/>
		<path class="st3" d="M282,91c0.2,0.5,0.3,1,0.5,1.5"/>
		<path class="st3" d="M503.9,127c-0.5,0.2-1,0.3-1.5,0.5"/>
		<path class="st3" d="M974.6,340.8c0.5,0.3,1,0.7,1.5,1"/>
		<path class="st3" d="M-397.1,51.6c-0.5,0.5-1,1-1.5,1.5"/>
		<path class="st3" d="M672.3,88.5c0.3,0.5,0.7,1,1,1.5"/>
		<path class="st3" d="M-155.7,30.1c-0.5-0.2-1-0.3-1.5-0.5"/>
		<path class="st3" d="M445.9,193.9c-0.5,0.2-1,0.3-1.5,0.5"/>
		<path class="st3" d="M1001.1,88.5c-0.5-0.2-1-0.3-1.5-0.5"/>
		<path class="st3" d="M729.2,87.5c0.5,0.5,1,1,1.5,1.5"/>
		<path class="st3" d="M-161.7,254.9c-0.5-0.2-1-0.3-1.5-0.5"/>
		<path class="st3" d="M1003.6,192.9c-0.5,0.2-1,0.3-1.5,0.5"/>
		<path class="st3" d="M1001.6,29.1c-0.5,0.2-1,0.3-1.5,0.5"/>
		<path class="st3" d="M-129.2,159.5c-0.7,0.7-1.3,1.3-2,2"/>
		<path class="st3" d="M437.9,149c-0.5,0.2-1,0.3-1.5,0.5"/>
		<path class="st3" d="M77.2,86c-0.3,0.3-0.7,0.7-1,1c0,0,0.3,0.3,0.5,0.5"/>
		<path class="st3" d="M-38.8,86c-0.2,0.5-0.3,1-0.5,1.5"/>
		<path class="st3" d="M-269.6,85c-0.3,0.3-0.7,0.7-1,1c0,0,0.3,0.3,0.5,0.5"/>
		<path class="st3" d="M986.6,12.1c0.2,0.5,0.3,1,0.5,1.5"/>
		<path class="st3" d="M577.8,262.9c-0.5-0.2-1-0.3-1.5-0.5"/>
		<path class="st3" d="M618.8,83c-0.3,0.3-0.7,0.7-1,1c0,0,0.3,0.3,0.5,0.5"/>
		<path class="st3" d="M106.6,492.2c-0.5,0.2-1,0.3-1.5,0.5"/>
		<path class="st3" d="M-222.7,150c0.5,0.5,1,1,1.5,1.5"/>
		<path class="st3" d="M67.7,79.5c0,0.3,0.1,0.7,0,1c-0.1,0.2-0.3,0.3-0.5,0.5"/>
		<path class="st3" d="M76.7,75.5c-0.2,0.3-0.4,0.7-0.5,1c-0.1,0.1,0,0.3,0,0.5"/>
		<path class="st3" d="M-90.2,74.5c0.5,0.5,1,1,1.5,1.5"/>
		<path class="st3" d="M171.6,73.6c-0.2,0.3-0.4,0.7-0.5,1c-0.1,0.1,0,0.3,0,0.5"/>
		<path class="st3" d="M488.9,133c0.5-0.2,1-0.3,1.5-0.5"/>
		<path class="st3" d="M458.4,39.6c-0.5,0.5-1,1-1.5,1.5"/>
		<path class="st3" d="M-134.2,70.6c0,0.3,0.1,0.7,0,1c-0.1,0.2-0.3,0.3-0.5,0.5"/>
		<path class="st3" d="M-114.2,39.6c-0.5-0.2-1-0.3-1.5-0.5"/>
		<path class="st3" d="M709.8,69.1c-0.3,0.3-0.7,0.7-1,1c0.2,0.2,0.3,0.3,0.5,0.5"/>
		<path class="st3" d="M53.2,166c0.2,0.5,0.3,1,0.5,1.5"/>
		<path class="st3" d="M1069.5,70.1c0.5-0.2,1-0.3,1.5-0.5"/>
		<path class="st3" d="M487.9,515.7c0.5-0.2,1-0.3,1.5-0.5"/>
		<path class="st3" d="M405.9,571.6c0.2,0.5,0.3,1,0.5,1.5"/>
		<path class="st3" d="M443.4,392.3c-0.5,0.5-1,1-1.5,1.5"/>
		<path class="st3" d="M-51.8-2.9c0.2,0.5,0.3,1,0.5,1.5"/>
		<path class="st3" d="M22.2,123c0.2,0.5,0.3,1,0.5,1.5"/>
		<path class="st3" d="M-312.1,122.5c0.5,0.5,1,1,1.5,1.5"/>
		<path class="st3" d="M22.2,642.5c0.5,0.5,1,1,1.5,1.5"/>
		<path class="st3" d="M1033.1,660c-0.2,0.3-0.4,0.7-0.5,1c-0.1,0.1,0,0.3,0,0.5"/>
		<path class="st3" d="M969.6,116c-0.5,0.2-1,0.3-1.5,0.5"/>
		<path class="st3" d="M-180.7,227.9c-0.5,0.5-1,1-1.5,1.5"/>
		<path class="st3" d="M565.3,112.5c0.5,0.2,1,0.3,1.5,0.5"/>
		<path class="st3" d="M18.7,675.5c0.5,0.3,1,0.7,1.5,1"/>
		<path class="st3" d="M467.4,110.5c-0.5,0.8-1,1.7-1.5,2.5"/>
		<path class="st3" d="M-279.1,109.5c0.2,0.5,0.3,1,0.5,1.5"/>
		<path class="st3" d="M210.6,108.5c-0.2,0.3-0.4,0.7-0.5,1c-0.1,0.1,0,0.3,0,0.5"/>
		<path class="st3" d="M-181.7,109c0.3,0.3,0.7,0.7,1,1"/>
		<path class="st3" d="M957.6,107c0.2,0.5,0.3,1,0.5,1.5"/>
		<path class="st3" d="M-294.6,107c-0.3,0.3-0.7,0.7-1,1c0.2,0.2,0.3,0.3,0.5,0.5"/>
		<path class="st3" d="M407.9,237.9c0.2,0.5,0.3,1,0.5,1.5"/>
		<path class="st3" d="M43.7,106c-0.5,0-1,0-1.5,0"/>
		<path class="st3" d="M684.3,239.4c0,0.3,0.1,0.7,0,1c-0.1,0.2-0.3,0.3-0.5,0.5"/>
		<path class="st3" d="M487.9,101c0.5,0.2,1,0.3,1.5,0.5"/>
		<path class="st3" d="M672.8,3.1c-0.5,0.8-1,1.7-1.5,2.5"/>
		<path class="st3" d="M108.1,133c-0.8-0.2-1.7-0.3-2.5-0.5"/>
		<path class="st3" d="M139.1,83c-0.5,0.8-1,1.7-1.5,2.5"/>
	</g>
</g>
<g id="Capa_1">
	<path class="st4" d="M748.2,284c36.7,0,65.9,0,97.1,0c-24.4,12.9-26.6,35.6-25.7,58.7c2.7,69.4,6.1,138.9,9.3,208.3
		c1.1,22.7,6.7,43,31.4,54.2c-44.5-8.8-87.7-11.8-132.8,1.7c31.7-21.3,28.6-52.3,27.7-82.1c-1.5-49.6-3.9-99.2-6.3-148.8
		c-0.4-7.8-2.4-15.5-6.4-23.9c-47.7,80.8-82,167.3-118.7,253.6c-7.7,0-14.6,0-23.6,0c-38.1-82.8-76.5-166.1-114.8-249.4
		c-1.8,0.2-3.6,0.4-5.4,0.7c-1.3,4.4-3.6,8.8-3.9,13.3c-3,50.4-5.7,100.9-8.3,151.4c-0.4,8.1,0.2,16.2,0.3,24.3
		c0.3,25.3,7.6,46.5,34.6,57.9c-35.4-3.9-70-8.5-106.2,1.4c37.1-20.3,37.3-55.5,39.8-88.9c4.2-55.8,7.1-111.7,10.4-167.5
		c1.9-30.9-2.9-58-42.4-64.5c1.2-1.9,2.3-3.8,3.5-5.7c10.1,1.4,20.5,1.6,30.1,4.3c16.2,4.6,31.4,3.9,47.8-0.3
		c27.9-7.2,34.3-3.6,46.5,22.7c27.7,59.8,54.8,119.8,82.4,179.6c4.1,8.8,9.2,17.1,16.2,30.1c6.3-10.2,10.9-16.3,14.1-23
		c27.6-57.8,54.8-115.8,82.6-173.5C734.1,305.3,742.9,292.8,748.2,284z"/>
	<path class="st4" d="M-368.3,606.7c-25.8-3.6-51.6-9.9-77.4-10c-24.8,0-49.6,6.5-75.9,8.3c33.9-15.3,37.4-44.7,38.1-75.2
		c0.6-25.1,0.1-50.3,0.1-78.1c-51.3-6.5-101.3-3.1-150.6-2.1c-8.3,26.2-8.1,100.3,2.8,121.6c6.5,12.7,18.7,22.6,30.9,36.6
		c-52.7-12.2-104.7-14.1-156.5,0.8c-0.3-1.9-0.7-3.9-1-5.8c3.6-2,7.2-4.3,11-6c16.4-7.4,26.2-20.3,26.3-37.9
		c0.5-75.7,0.9-151.5-0.2-227.3c-0.3-23.4-14.3-40-38.2-47.9c27.9-5.2,53.4,7,79.4,6.7c25.5-0.3,50.8-6.4,77.9-7.4
		c-31.2,12.2-35.6,38-36.5,65c-0.8,25.9-0.2,51.8-0.2,79.8c52.6,0,102.4,0,155.8,0c-0.7-38.1,2.6-73.8-6.7-109.2
		c-4.6-17.5-18.1-26-38-35.4c31.6-4.5,56.9,8,82.7,7.1c25.7-1,51.2-7,78.6-8.7c-35,15.3-38.7,45.5-39.1,76.5
		c-0.6,56.9-0.8,113.8,0.2,170.7c0.5,30.3,4.9,60.1,40.4,73.3C-365.8,603.5-367.1,605.1-368.3,606.7z"/>
	<path class="st4" d="M1156,282.5c0,21.8,0,40.8,0,59.7c-1.3,0.3-2.6,0.6-3.8,0.9c-3-6-4.9-13-9.3-17.8c-7.1-7.7-15-17.7-24.1-19.9
		c-28-6.6-56.8-7.5-87.8-2.9c0,41.7,0,81.7,0,126c36.6-3.9,75.9,12.5,101.2-35.4c0,31.8,0,58.3,0,89.3
		c-24.1-49.8-64.5-30.2-101.2-33.4c0,37.1-0.7,71,0.4,105c0.4,12.6,9.4,21.6,21.7,25c31.4,8.7,63,7.7,92.9-4.6
		c9.7-4,16.9-15.4,23.8-24.5c4.6-6,6.7-13.9,10-20.9c1.8,0.4,3.6,0.8,5.4,1.2c-2.6,21.9-5.2,43.8-8.3,70c-7,1.7-17,5.9-27.2,6.1
		c-52.4,1.2-104.6,1.6-156.6-8.1c-17.7-3.3-37.2,2.8-55.9,4.8c-8.5,0.9-17,2.3-26.9,1.5c33.5-13.5,39.5-41,39.6-71.3
		c0.2-62.3,0.6-124.7-0.7-187c-0.7-35.4-8.9-46-42.5-64.1c17.5-3.3,31.3-1,44.3,2.4c22.5,5.9,44.3,3.3,66.9,0.9
		c38.5-4,77.4-5.2,116.1-6.9C1141.7,278.5,1149.4,281.3,1156,282.5z"/>
	<path class="st4" d="M-318.8,606.8c28.1-15.3,35.4-41,35.7-69.2c0.6-61.4,0.1-122.7-0.5-184.1c-0.3-30-5.8-57.7-41.4-68.7
		c1.2-1.6,2.3-3.3,3.5-4.9c14.7,1.8,29.5,4.2,44.3,5.3c16.8,1.2,33.8,2.4,50.7,1.5c40.5-2.1,80.9-5.8,121.5-8.2
		c9.5-0.5,19.2,1.9,28.7,3c0,21.9,0,41.2,0,60.9c-3-0.6-5.8-0.6-5.9-1.3c-8-31-30.8-39.8-59.5-39.9c-19.5,0-39,0-60.9,0
		c0,43.3,0,83.4,0,123c48.7,11,72.2,5.2,104.3-27.5c-2.2,16.5-5.4,29.4-5.2,42.3c0.2,13,3.8,25.9,3.9,40.6
		c-24.2-47.5-65.6-26.7-104.1-31.9c-1.9,39-3.3,74.6,3.1,110.2c2.2,11.9,10.3,18.6,21.8,21.5c27.7,7,55.6,6.8,83-0.8
		c16.4-4.5,28.6-14.8,34.6-31.6c2.2-6.3,5.4-12.3,8.2-18.5c2,0.5,3.9,0.9,5.9,1.4c-2.8,22.1-5.5,44.1-8.9,71.1
		c-7.6,1.5-18.6,5.5-29.5,5.6c-52.3,0.5-104.6,2-156.4-9.2c-13.2-2.9-28.3,2.5-42.4,4.3C-295.8,603.3-307.3,605.1-318.8,606.8z"/>
	<path class="st4" d="M1255.6,607.2c0-36.3,0-68.1,0-100.3c12.6-1.3,10.9,10,12.7,16.5c6,21.4,16.3,39.8,31.6,56
		c23.6,24.8,80.5,29.5,104.5,6.2c24.9-24.1,26-63.8-1.6-85.2c-12-9.3-26.2-15.9-39.8-22.7c-22.6-11.3-46.1-20.7-68.3-32.7
		c-35.7-19.3-51-50.1-45.6-90.3c5.3-39.2,29-64.2,66.2-73.7c21.4-5.5,44.5-6,66.8-5.8c25.5,0.3,50.9,3.9,75.1,5.9
		c0,23.2,0,48.1,0,73c-2.4,0.5-4.8,0.9-7.2,1.4c-2.6-6.8-5.6-13.4-7.7-20.3c-14.1-45.5-58.8-57.9-93.1-47.5
		c-18.2,5.5-32.4,16.5-36.7,36.2c-4.5,20.3,0.5,38.9,17.7,50.6c20,13.5,41.8,24.6,63.3,35.9c15.1,8,31.1,14.4,46.4,22.2
		c36.6,18.7,50.9,49.8,47.3,89.6c-3.6,40.3-26.9,66-63.5,80.1c-38.6,14.8-77.9,13.3-117.1,2.4C1289.9,600.2,1273.6,595,1255.6,607.2
		z"/>
	<g>
		<path class="st4" d="M234,441.1c12.3-7.7,21.7-13.1,30.6-19.2c25.8-17.5,35.4-43.1,32.1-72.9c-3.3-29.5-20.1-49.9-48.6-59.2
			c-12.8-4.2-26.2-9-39.3-9.1c-36-0.5-72.2-0.5-107.9,3c-22.6,2.2-44.4,5.8-66.9,0.1c-12.6-3.2-25.9-3.2-38.9-4.7
			c-1,1.7-2,3.4-3,5.1c36.9,10.2,43.2,38.6,43.5,69.4c0.6,60.5,0.4,121,0,181.5c-0.1,9.8-0.6,20.6-4.6,29.2
			c-5,10.9-13.3,20.6-21.2,29.8c-3.5,4-9.8,5.6-14.8,8.3c0.4,1.9,0.7,3.8,1.1,5.8c51.6-12.4,103.1-14.4,157.7,2.1
			c-14.4-16.9-29.1-27.2-33.7-40.8c-11.7-34.5-6.3-70.8-6.9-105.8c47.2-7.5,61.9,0.3,78.5,37.6c6.2,14,14.4,27.1,20.4,41.2
			c21.6,50.7,61.9,70.2,114.5,69.7c25.3-0.2,26.3-0.4,41.4-8.7C288.1,577.5,266.7,505.4,234,441.1z M200.8,422.2
			c-17.3,25-45.8,33-86.2,23.1c0-49.5,0-99.4,0-148.7c37.5-10.6,65.9-2.5,83.9,22.6C216.8,344.7,218,397.2,200.8,422.2z"/>
		<path class="st5" d="M114.6,296.5c0,49.3,0,99.2,0,148.7c40.3,9.9,68.9,1.9,86.2-23.1c17.2-25,16.1-77.5-2.3-103.1
			C180.5,294,152.1,286,114.6,296.5z"/>
	</g>
</g>
</svg>
