<?xml version="1.0" encoding="utf-8"?>
<!-- Generator: Adobe Illustrator 28.1.0, SVG Export Plug-In . SVG Version: 6.00 Build 0)  -->
<svg version="1.1" id="Capa_1" xmlns="http://www.w3.org/2000/svg" xmlns:xlink="http://www.w3.org/1999/xlink" x="0px" y="0px"
	 viewBox="0 0 80 80" style="enable-background:new 0 0 80 80;" xml:space="preserve">
<style type="text/css">
	.st0{display:none;fill:url(#SVGID_1_);}
	.st1{display:none;fill:#DBE0E6;}
	.st2{display:none;fill:#C5CED7;}
	.st3{fill:#FFFFFF;}
	.st4{fill:none;stroke:#C6C6C6;stroke-width:0.25;stroke-miterlimit:10;}
	.st5{display:none;fill:#FFFFFF;}
</style>
<radialGradient id="SVGID_1_" cx="-941.8181" cy="-1094.3915" r="40" gradientTransform="matrix(0.6786 -0.6795 -0.6932 -0.6923 -79.3093 -1356.8204)" gradientUnits="userSpaceOnUse">
	<stop  offset="0" style="stop-color:#C5CED7"/>
	<stop  offset="1" style="stop-color:#C5CED7;stop-opacity:0"/>
</radialGradient>
<path class="st0" d="M80,40c1,25-27,46-52,38C3,71-8,38,7,17C21-5,56-6,71,15C77,22,80,31,80,40z"/>
<path class="st1" d="M72,40c0,20-22,37-42,30C11,65,1,38,14,22C25,4,53,3,65,20C69,26,72,33,72,40z"/>
<path class="st2" d="M40,8c-10.4,0.1-20.1,5.4-26,14c-1,2-3,3,0,4l-2,6c2,2,1,6,3,7c1-3,1,3,3,0c2,0,3-1,4,2c1,1,0,2-1,1
	c0,2-4,1-4,4c0,2,5,7,6,3c2-1-2-6,2-5c3,2-2-6,1-2c4,0,1,3,0,4c-3-1-1,4,1,4c0-1,0-3,1-1c0,3,3,1,3,3c1-2,6,0,4-3c-1-3,4-4,1-6
	c1-2-1-3-1-4c-3,0,0,6-3,4c0-3-4-5,0-7c-1-3-3,1-5-1c-3,2,4,2,0,3c-3,4-2-2,0-3c2-2-2-3-1-5c-3,2-5-2-2-4c2-4,2,2,2,4c2,1,6,3,3,0
	c-2-2,0-6,2-5c0-2,0-1,2,0c0-2,2,2,2-1c2,0,0,3,2,2c1,3,10,1,5-2c0-4,5,4,5,0c-2-2,5,1,2,2c0,2-2,2,0,4s3,3,3,1c3,0,4,3,1,3
	c0,3-2,7,2,9c1,2-4,2-1,4c2,2,4,4,1,4l2,5c1-3,4-6,0-8c-1-2,2-9,4-5c1,1,3,0,1,2c-1,3-2,6,2,8c-2,1-5,1-3,5c2-1,5-2,3-3c2-2,2-5,4-6
	c1-1,3-3,1-3c-2-2-3-6-5-6c2-2-2-4-1-6c-1-1,1-4-2-2c-4,1,0-5-2-7c1,0,4,3,3,0c0-3-4-2-5-4c-2,1-5,0-7,2c-1-1,1-4-1-5c0-3-6-3-6-5
	c5-1,8,2,10,5c2,0,5,0,3,2c4,2,4-5,0-5c-3,0-6-1-8-3c-2-1-8-3-7-1c2,3-4,2-6,2c-1,1-5,4-6,2c2-4,7-3,10-4c-1-3-7,1-8-2
	C33.9,8.2,37,7.9,40,8z M45,13C43,14,47,14,45,13z M60,15C61,16,64,19,60,15z M53,16C58,18,52,18,53,16z M62,17C63,18,66,21,62,17z
	 M63,19C62,19,63,19,63,19z M64,19C65,20,68,24,64,19z M15,20C16,21,13,21,15,20z M64,21c0,2,3,3,1,1L64,21z M66,22
	C67,23,68,25,66,22z M68,25C68,25,69,27,68,25z M69,28l1,1L69,28z M40,29c-1,1-2,3-5,2c0,3-4-1-3,2c2,2,2,6,5,5c1-1,1-4,3-2l3-6
	L40,29z M46,29c-2,1-3,4,0,4c0,4,6,0,2-2L46,29z M70,31l1,1L70,31z M65,32C64,33,66,32,65,32z M10,32C9,33,11,33,10,32z M12,33
	c-3,1-1,5,0,1V33z M69,34c-3,0-2,9,1,7C72,39,71,35,69,34z M71,34v1V34z M43,36c-4,0-1,3,1,1C45,36,44,35,43,36z M71,43
	C68,43,72,47,71,43z M8,45h1H8z M70,48C70,49,69,52,70,48z M62,50C64,52,60,51,62,50z M24,50c-3,1-1,3,1,2C29,52,24,51,24,50z
	 M19,51c-2,2,3,3,1,1L19,51z M69,52C69,52,68,54,69,52z M16,55C14,55,18,56,16,55z M68,55C68,55,66,57,68,55z M57,66v1V66z M43,72
	h-3H43z"/>
<path class="st3" d="M13.9,24.9h1.5l2.4-0.6l0.4,0.7l1.3-0.3l0.1,0.2l1.4-0.2l0.4,0.8H22v-0.2l1.1-0.3l0.3,0.3l0.1-0.3l1.9-0.4
	L25.2,24L25,23.4l3.5-0.9l0.1,0.5l0.1,0.5l0.4,0.3l0.3-0.1l0.3,0.3l0.2-0.2l-0.3-0.4L31,23l0.2,0.1l0.4-0.2l2-0.5L35,22l0.2,0.2V22
	l3.8-0.9l0.1,0.3l0.2,0.3l0.1,0.5l0.1,0.3V24l0.1,0.8l0.6-1.9l0.2,0.3h0.7v-0.8l2.2-0.1l0.1,0.2h0.5l-0.1,0.6l0.2,0.2l0.1-0.1h1
	l0.2,0.4l0.4-0.7l0.3-0.1l0.8,0.1l0.2,0.2l0.2-0.2l0.5,0.3h0.5V23l0.6,0.1h0.3l0.5,0.1l0.4,0.4l0.1-0.2l1.2,0.3V24H52l0.3-0.2
	l0.3-0.8l1.7,0.3L54,23.7l-0.3,0.5l0.9,0.2l0.8,0.1v0.2l0.3,0.1l0.1,0.1l0.1-0.2l1.2,0.3l0.1,0.1h0.3l0.4,0.1l0.7,0.1l0.1,0.2h0.4
	c0,0,0.1-0.3,0.3-0.3l0.1-0.3l0.2-0.3l1.3,0.2l0.1-0.3l0.3-0.3l2.1,0.4l0.1,0.1H64l0.2-0.1c0,0,0.4,0.2,0.8-0.1V25l-0.3,0.3l0.2,0.9
	l-0.8,1.1l-0.4,0.6L63.5,28v1.1l0.2,0.3l-0.1,1.8l-0.2,0.2l0.2,0.1V32L63,32.5l-2.1,0.4c0,0-0.6-0.9-1.6,0.2l-4-0.2L55,32.5
	l-0.3,0.1L54.3,33l-3.6,0.1H47L44.5,33L42,32.8l-0.1,2l-6.8,0.1c0,0,0.3-0.5,0.3-0.7s-1.8-1.4-1.9-1.3s-5,0.7-5,0.7l-1.2-0.1
	l-3.1-0.2H22c0,0-2.1-0.8-4-0.3c-1.9,0.6-0.2-0.2-0.2-0.2l-1.6,0.1l-0.6-0.8l-0.1-0.7l0.3-0.1v-0.7l-0.3-0.2v-0.6l0.2-0.2l-0.2-0.3
	l0.2-0.2l-0.1-0.8l-1.2-1.7L14.1,26c0,0-0.5,0.2-0.7,0l0.1-0.2h0.3v-0.3l0.1-0.2L13.9,24.9z"/>
<path class="st3" d="M15.7,48l-0.2,0.3l-0.1,0.3h-1.6l-0.1,0.9l-1-0.1l-0.1,1h-0.8v1.1l55.9-0.3V50h-0.9v-1.1h-0.7v-0.7l-1.7-0.1
	l-0.1-0.6l-0.1-0.3l-0.3-5.7l-0.1-1.8l-0.4-5.5L61,33v2.2v4.3l0.1,2L61,44.7c0,0,0.1,2.8-0.3,2.8c0,0-1.9-0.3-2.4-0.1
	c0,0-0.4-1.4-0.1-3l0.1-4.8l-0.2-6.4L54.7,32l-0.3,0.6l0.8,0.3L55,33.7l0.5,0.9L55.3,38l-0.1,2.9l0.1,2.6v2V47l0.2,0.4
	c0,0-3.7,0.3-3.8,0.3l-0.1-5.9l-0.2-2.6l-0.1-0.4l-0.1-4.1L51,32.5l-3.6,0.3h-2.9c0,0,2.4,0.7,2.4,0.9c0,0,0,0.5,0.4,0.6l0.4,0.2
	l0.1,3.5l-0.1,4.8l-0.1,0.8v1.5l-0.1,2.8H46L45.7,48l-0.3-0.3l-0.7-0.1l-0.1-0.2l0.2-2.4l-0.1-0.2l0.1-1.7l-0.3-0.5l0.3-0.6
	l-0.4-6.3l-2.1-3.1L42,35.1l-0.1,4c0,0-0.2,0.8-0.2,2.4v3.4v1.4h-0.9c0,0-1.4,0.2-1.7,0h-0.9L37.8,46l0.1-1.9c0,0-0.3-1.7,0.1-2.1
	l-0.7-2.9l0.1-0.6v-2.4L35.3,32c0,0-1.5-0.2-1.3,1.3c0,0-0.1,0.4,0.8,0.8c0,0,1-0.1,0.5,0.9c0,0,0.1,0.3,0.1,0.7v0.9l-0.3,1.2
	l0.1,2.6v0.9L35,45.5v1.8h-0.7l-0.5,0.3L31.7,47l-0.2-0.7v-0.4V44l0.1-3.5l0.2-7.3l-3.1-0.6l-0.2,0.9l-0.1,2.9l-0.1,1.9l0.1,1.6
	l-0.1,2.3l-0.1,1.1l0.1,0.9l-0.1,1l-0.1,1.1v1.1v0.2h-2.8L25,47.5v-0.4c0,0-0.5-0.1-0.4-0.9l-0.3-0.8v-2.2v-0.6V41v-2.2v-0.7v-2.8
	v-0.8l0.1-0.5c0,0-0.5,0.4-0.1-0.8L22,33.8L21.7,42l-0.1,0.4l-0.1,5.3l-0.3,0.1c0,0-1,0.5-1.2-0.1h-0.7l-0.5-0.1l-0.1-1.4v-1.1
	l0.1-5.1l-0.2-4.4l0.1-1.1c0,0-0.6-0.1-0.1-0.8l0.2-1.5l-2.5,0.7L16,41.6l-0.1,0.9l-0.2,4.3v0.8V48z"/>
<g>
	<path class="st4" d="M11.7,51.6h0.1c1,0,2,0,3,0c0.8,0,1.7,0,2.5,0c0.7,0,1.5,0,2.2,0c0.9,0,1.7,0,2.6,0c1.2,0,2.4,0,3.7,0
		c0.9,0,1.7,0,2.6,0c0.7,0,1.3,0,2,0c0.9,0,1.7,0,2.6,0c1.1,0,2.3,0,3.4,0c0.9,0,1.8,0,2.7,0c1,0,1.9,0,2.9,0c1.1,0,2.1,0,3.2,0
		c0.8,0,1.6,0,2.3,0c0.9,0,1.7,0,2.6,0c0.6,0,1.2,0,1.8,0c1.1,0,2.1,0,3.2,0c0.9,0,1.7,0,2.6,0c1.2,0,2.3,0,3.5,0c1.3,0,2.7,0,4,0
		c0.6,0,1.1,0,1.7,0h0.8v-1.2L66.8,50"/>
	<path class="st4" d="M65.9,48.9c-0.1,0-0.2,0.1-0.3,0.1c-0.7,0-1.4,0-2,0c-1.8,0-3.5,0-5.3,0c-0.5,0-1,0-1.5,0c-1.2,0-2.4,0-3.7,0
		c-1.2,0-2.5,0-3.7,0c-1.6,0-3.1,0-4.7,0c-0.4,0-0.7,0-1.1,0c-1.1,0-2.2,0-3.2,0c-1.4,0-2.8,0-4.2,0c-1.3,0-2.5,0-3.8,0
		c-1.6,0-3.1,0-4.7,0c-0.9,0-1.9,0-2.8,0.1c-0.4,0-0.8,0-1.3,0c-0.8,0-1.6,0-2.3,0.1c-0.5,0-0.9,0-1.4,0.1c-0.3,0-0.7,0-1,0
		c-0.8,0-1.7,0-2.5,0.1c-0.8,0-1.5,0-2.3,0.1c-0.1,0-0.2,0-0.3,0c-0.1-0.1-0.2-0.1-0.2-0.1c-0.3,0-0.6,0-0.9,0h-0.1
		c0,0.3-0.1,0.7,0,1v0.1"/>
	<path class="st4" d="M61.1,32.6C61.1,32.5,61.1,32.5,61.1,32.6c0.4-0.1,0.7-0.2,1-0.2s0.7,0,1,0c0.1,0,0.1,0,0.1,0.1
		c0,0.6,0.1,1.1,0.1,1.7c0.1,0.8,0.1,1.7,0.2,2.5c0,0.6,0.1,1.1,0.1,1.7c0,0.6,0.1,1.1,0.1,1.7c0,0.3,0,0.5,0,0.8
		c0,0.7,0.1,1.5,0.1,2.2c0,0.5,0,1,0,1.4c0,0.9,0.1,1.7,0.2,2.6c0,0.1,0,0.2,0,0.3"/>
	<path class="st4" d="M55.4,37.4C55.4,37.3,55.4,37.3,55.4,37.4c-0.1-0.2-0.1-0.3-0.1-0.4c0-0.3,0-0.7,0-1c0-0.5,0-1,0-1.5
		c0-0.4,0-0.8,0-1.2c0-0.2,0-0.4,0-0.6c0.6-0.2,1.1-0.2,1.7-0.1c0,0.2,0,0.4,0,0.5c0,1,0,2,0.1,2.9c0,0.5,0.1,1,0.1,1.4
		c0,0.2,0,0.4,0,0.6c0,0.6,0,1.1,0.1,1.7c0,0.4,0,0.9,0,1.3c0,0.7,0,1.4,0,2c0,0.8,0,1.6,0.1,2.3c0,0.3,0,0.6,0.1,0.8"/>
	<path class="st4" d="M56.9,32.6c0,0.6,0.1,1.2,0.1,1.8c0,0.7,0,1.3,0,2s0,1.4,0,2c0,0.3,0.1,0.6,0.1,1c0,0.3,0.1,0.6,0.1,0.9
		c0,0.9,0,1.9,0,2.8c0,1,0,1.9,0,2.9v0.1"/>
	<path class="st4" d="M56.6,32.6c0,0.3,0,0.5,0,0.8c0,0.2,0,0.4,0,0.7c0,0.7,0,1.3,0.1,2c0,0.4,0,0.8,0,1.3s0,1,0,1.4
		c0,1.7,0,3.4,0,5.2c0,0.3,0,0.6,0,0.9c0,0.8,0,1.6,0,2.3v0.1"/>
	<path class="st4" d="M56.1,32.6c0,0.4,0,0.9,0,1.3c0,0.2,0,0.5,0,0.7c0,0.7,0,1.4,0.1,2.1c0,0.6,0.1,1.2,0.1,1.8
		c0,1.3,0.1,2.6,0.1,3.9c0,1,0,1.9,0,2.9c0,0.2,0,0.4,0,0.6c0,0.2,0,0.4,0,0.6c0,0.3,0,0.6,0,0.8"/>
	<path class="st4" d="M42,32.8c0,0.1,0,0.3-0.1,0.4c0,0.2,0,0.5,0,0.7s0,0.4,0,0.5c0,1.3,0,2.6,0,3.9c0,0.5,0,1,0,1.5
		c-0.1,0.9-0.1,1.9-0.1,2.8c0,0.4,0,0.7,0,1.1c0,0.1,0,0.2,0,0.3c-0.1,0.2-0.1,0.3,0,0.5c0.1,0.1,0.1,0.3,0.1,0.4c0,0.2,0,0.4,0,0.6
		c0,0.3,0,0.5,0,0.8c0,0.2,0,0.4,0,0.6c0,0.2,0,0.4,0,0.6"/>
	<path class="st4" d="M26.1,33.4c0.1,0,0.2,0,0.3,0c0-0.2,0-0.3,0.1-0.5c0.7,0,1.3,0,2.1,0c0,0.1,0,0.3,0,0.5c0,0.4,0,0.7,0,1.1
		c0,0.5,0,1-0.1,1.5c0,0.1,0,0.2,0,0.3c0,0.5,0,1.1,0,1.6s0,1,0,1.4c0,0.5,0,1.1,0,1.6s0,1,0,1.4c0,0.3,0,0.5,0,0.8c0,0.5,0,1,0,1.6
		c0,0.4,0,0.8,0,1.2c0,0.5,0,1-0.1,1.5c0,0.1,0,0.1,0,0.2"/>
	<path class="st4" d="M66.1,48.8c0-0.2,0-0.4,0-0.7c-0.2,0-0.5,0-0.7,0c-0.8,0-1.6,0-2.4,0c-0.9,0-1.7,0-2.6,0c-1.3,0-2.5,0-3.8,0.1
		c-0.6,0-1.3,0-1.9,0c-1,0-2,0-3,0s-2.1,0-3.1,0c-0.8,0-1.6,0-2.4,0c-0.5,0-1,0-1.4,0c-0.3,0-0.6,0-0.9,0c-0.5,0-0.9,0.1-1.4,0
		c-0.5,0-1,0-1.5-0.1c-0.1,0-0.2,0-0.3,0c-0.8,0-1.5,0-2.3,0c-0.7,0-1.4,0-2.1,0c-0.1,0-0.2,0-0.3,0c-0.6,0-1.1,0-1.7,0
		c-0.2,0-0.4,0-0.7,0c-0.7,0-1.4,0-2.1,0c-0.7,0-1.5,0-2.2,0c-0.6,0-1.2,0-1.7,0c-0.6,0-1.2,0-1.8,0c-0.6,0-1.2,0-1.8,0.1
		c-0.3,0-0.7,0-1,0c-0.5,0-0.9,0-1.4,0c-0.6,0-1.3,0-1.9,0s-1.3,0-1.9,0.1c-0.5,0-1,0-1.5,0h-0.1"/>
	<path class="st4" d="M16.1,32.8c0,0.4,0,0.9,0,1.3c0,0.7,0,1.4,0,2.1c0,0.5,0,1,0,1.5c0,0.9-0.1,1.8-0.1,2.7c0,0.3,0,0.7,0,1
		c0,0.5-0.1,0.9-0.1,1.4c0,0.3,0,0.5,0,0.8c0,0.8,0,1.6-0.1,2.4c0,0.4,0,0.9,0,1.3c0,0.1,0,0.1,0,0.2c0.1,0.3-0.1,0.5-0.3,0.7l0,0
		c0.1,0,0.1,0.1,0.2,0.1c0.1,0,0.3,0,0.4,0"/>
	<path class="st4" d="M31.2,40.8c0-0.1-0.1-0.2-0.1-0.3c0-0.3,0-0.7,0-1c-0.1-0.7,0-1.4-0.1-2.2c0-0.6-0.1-1.2-0.1-1.8
		c0-0.4-0.1-0.9-0.1-1.3c0-0.3,0-0.6-0.1-0.9c0-0.2-0.1-0.3,0-0.5c0-0.1,0.1-0.2,0.2-0.3l0.1-0.1c0.2-0.2,0.3-0.4,0.1-0.7
		c-0.1,0-0.3,0-0.5-0.1c-0.1,0-0.1-0.1-0.1-0.1l-0.1-0.1"/>
	<path class="st4" d="M49.4,34.8c0,0.2,0,0.4,0,0.6c0,0.8,0,1.5,0.1,2.3c0,0.3,0,0.6,0,1c0,1.2,0,2.4,0,3.6c0,0.4,0,0.8,0,1.2
		c0,0.2,0,0.4,0,0.6"/>
	<path class="st4" d="M49.8,35c0,0.1,0,0.2,0,0.3c0,0.2,0,0.4,0,0.6c0,0.6,0,1.2,0,1.8c0,0.7,0.1,1.5,0.1,2.2c0,0.1,0,0.3,0,0.4
		c0,0.9,0,1.8,0,2.8c0,0.1,0,0.2,0,0.3s0,0.1,0,0.2"/>
	<path class="st4" d="M57.8,36C57.9,36,57.9,36.1,57.8,36c0.1,0.3,0.1,0.6,0.1,0.9c0,0.6,0.1,1.2,0.1,1.7c0,0.3,0,0.7,0,1
		c0,1.3,0,2.5,0,3.8c0,0.2,0,0.3,0,0.5c0,0.3,0,0.5,0,0.8"/>
	<path class="st4" d="M47.6,34.3C47.6,34.4,47.6,34.4,47.6,34.3c0,0.6,0.1,1.1,0.1,1.6c0,0.7,0,1.4,0,2.1c0,0.6,0,1.3,0,1.9
		c0,0.5,0,1,0,1.5c0,0.4,0,0.7,0,1.1"/>
	<path class="st4" d="M42.7,32.8c0,0.6,0,1.3,0,1.9c0,0.1,0,0.2,0,0.3c0,0.5,0,1-0.1,1.4c0,0.2,0,0.4,0,0.6c0,0.9,0,1.9,0,2.8
		c0,0.3,0,0.6,0,0.9"/>
	<path class="st4" d="M48.8,32.5c-0.1,0.4-0.1,0.8-0.2,1.3c0,0.4-0.1,0.7-0.1,1.1c0,0.5-0.1,0.9-0.1,1.4c0,0.9,0,1.8,0,2.7
		c0,0.5,0,0.9,0,1.4c0,0.1,0,0.1,0,0.2"/>
	<path class="st4" d="M56,38.9c0,0.2,0,0.4,0,0.6c0,1.1,0.1,2.1,0.1,3.2c0,0.2,0,0.4,0,0.6c0,0.6,0,1.2,0,1.9c0,0.4,0,0.8,0.1,1.2
		c0,0.1,0,0.2,0,0.3s0,0.2,0.1,0.3"/>
	<path class="st4" d="M42.5,32.9c0,0.1,0,0.1,0,0.2c0,0.8,0,1.6,0,2.4c0,0.6,0,1.3,0,1.9c0,0.5,0,1,0,1.4c0,0.5,0,1-0.1,1.5
		c0,0.1,0,0.1,0,0.2"/>
	<path class="st4" d="M29,32.8c0,0.1,0,0.3,0,0.4c0.2,0,0.4,0.1,0.6,0.1c0,0.1,0.1,0.2-0.1,0.3v0.1c0,0.2,0,0.4,0,0.6
		c0,0.5,0,1,0,1.5c0,0.3,0,0.5,0,0.8s0,0.7,0,1c0,0.5-0.1,1-0.1,1.5c0,0.6,0,1.2,0,1.8V41"/>
	<path class="st4" d="M57.7,39.8C57.7,39.9,57.7,39.9,57.7,39.8c0,0.7,0.1,1.2,0.1,1.8c0,0.5,0.1,1.1,0.1,1.6c0,0.2,0,0.4,0,0.6
		c0,0.5,0,1.1,0,1.6s0,1,0,1.4c0,0.1,0,0.2,0,0.3"/>
	<path class="st4" d="M23.5,32.9c0,0.3,0,0.5,0,0.8c0,0.4,0,0.7,0,1.1c0,0.1,0,0.3,0,0.4c0,0.3,0,0.6,0,0.9c0,0.5,0,1,0,1.5
		s0,1,0,1.5s0,0.9,0.1,1.4c0,0,0,0,0,0.1"/>
	<path class="st4" d="M36.1,33.2c0,0.2,0,0.4,0,0.7c0,0.7,0,1.3,0,2c0,0.4-0.1,0.8-0.1,1.3c0,0.3,0,0.7,0,1c0,0.6,0,1.2,0,1.9v0.1"
		/>
	<path class="st4" d="M44.3,34.5c0,0.2,0,0.5,0,0.7c0,0.1,0,0.1,0,0.2c0,0.5,0.1,0.9,0.1,1.4c0,0.4,0,0.8,0.1,1.2
		c0,0.6,0.1,1.3,0.1,1.9V40c0,0.6,0,1.1,0.1,1.7"/>
	<path class="st4" d="M18.4,34.6c0,0.7,0.1,1.3,0.1,2c0,0.6,0.1,1.3,0.1,1.9c0,0.5,0,1,0.1,1.5c0,0.1,0,0.3,0,0.4c0,0.3,0,0.6,0,0.9
		"/>
	<path class="st4" d="M36.3,33.3c0,0.2,0,0.4,0,0.5c0,1.2,0,2.4,0,3.7c0,0.5,0,1-0.1,1.4c0,0.3,0,0.6,0,0.9"/>
	<path class="st4" d="M63,34.1c0,0.3,0,0.5,0,0.8c0,0.1,0,0.1,0,0.2c0,0.5,0.1,1.1,0.1,1.6s0.1,1.1,0.1,1.6c0,0.3,0,0.6,0,1
		c0,0.7,0,1.5,0.1,2.2c0,0.7,0,1.3,0,2c0,0.4,0,0.9,0,1.3c0,0.7,0,1.3,0,2c0,0.1,0,0.2,0,0.3"/>
	<path class="st4" d="M62.5,32.6c0,0.8,0,1.5,0.2,2.3c0,0.4,0.1,0.7,0.1,1.1c0,0.7,0,1.5,0.1,2.2c0,0.3,0,0.6,0,0.9c0,0.5,0,1,0,1.6
		s0,1.3,0.1,1.9c0,0.6,0,1.1,0,1.7c0,0.3,0,0.7,0,1v0.1"/>
	<path class="st4" d="M62.1,32.5L62.1,32.5c0,0.5,0,0.9,0,1.2c0,0.4,0.1,0.7,0.1,1.1c0,0.2,0,0.4,0.1,0.7c0,0.4,0,0.7,0,1.1
		c0,0.6,0.1,1.2,0.1,1.9s0,1.4,0,2.1c0,0.7,0,1.3,0.1,2c0,0.9,0.1,1.7,0.1,2.6c0,0.4,0,0.8-0.1,1.2c0,0.1,0,0.2,0,0.3c0,0,0,0,0,0.1
		"/>
	<path class="st4" d="M29.1,33.5c0,0.5-0.1,1-0.1,1.6c0,0.2,0,0.3,0.1,0.5c0,0.1,0,0.3,0,0.4c0,0.2,0,0.5,0,0.7c0,0.3,0,0.6,0,0.9
		c0,0.7,0,1.3,0,2c0,0.2,0,0.4,0,0.7c0,0.4,0,0.7,0,1.1c0,0.8,0,1.7,0,2.5c0,0.4,0,0.8-0.1,1.2c0,0.3,0,0.6,0,0.8c0,0.3,0,0.7,0,1
		c0,0.2,0,0.4,0,0.6"/>
	<path class="st4" d="M35.2,40.8c0,0.1,0,0.1,0,0.2c0,0.8,0,1.6,0,2.4c0,0.7,0,1.4,0,2c0,0.5-0.1,1-0.1,1.5c0,0.1,0,0.1,0,0.2"/>
	<path class="st4" d="M23,36.5L23,36.5c0.1,0.6,0.1,1.1,0.1,1.6c0,0.7,0,1.5,0,2.2c0,0.6,0,1.1,0,1.7c0,0.1,0,0.3,0,0.4"/>
	<path class="st4" d="M21.6,36.5c0,0.1,0,0.3,0,0.4c0,0.1,0,0.3,0,0.4c0,0.4,0,0.9,0,1.3c0,0.1,0,0.2,0,0.3c0.1,0.2,0,0.5,0,0.7
		c0,0.3-0.1,0.6-0.1,0.9c0,0.5,0,0.9,0,1.4c0,0,0.1,0.1,0.2,0.1l0,0c0,0.2-0.1,0.4-0.1,0.6c0,0.5,0,1.1,0,1.6c0,0.6,0,1.3,0,1.9
		c0,0.4,0,0.7,0,1.1c0,0.2,0,0.3,0,0.5"/>
	<path class="st4" d="M22.6,33.8C22.6,33.8,22.6,33.9,22.6,33.8c0,0.4,0,0.7,0,0.9c0,0.6,0,1.3,0,1.9c0,0.3,0,0.6,0,0.8l0,0
		c0.2,0.2,0.1,0.5,0.1,0.8c0,0.4,0,0.8,0,1.2c0,0.5,0,1.1,0,1.6c0,0.6-0.1,1.3-0.1,1.9c0,0.1,0,0.3,0.2,0.3h0.1v-0.1"/>
	<path class="st4" d="M62,40.4c0,0.1,0,0.1,0,0.2c0,0.5,0,0.9,0,1.4c0,0.2,0,0.5,0,0.7c0,0.4,0,0.8,0,1.1c0,0.7,0,1.4,0,2.1
		c0,0.2,0,0.3,0,0.5"/>
	<path class="st4" d="M60.9,38.8c0,0.8,0,1.5,0,2.3c0,0.7,0.1,1.4,0.1,2.1c0,0.4,0,0.8,0,1.2"/>
	<path class="st4" d="M22.3,42.1c0,0.1,0,0.3,0,0.4c0,0.7,0,1.3,0,2c0,0.6-0.1,1.3-0.1,1.9l0,0c0,0.4,0,0.8,0,1.2"/>
	<path class="st4" d="M37.4,33.8c0,0.1,0,0.2,0,0.3c0,0.8,0,1.6,0,2.4c0,0.7,0,1.4,0,2.1c0,0.2,0,0.4,0,0.6"/>
	<path class="st4" d="M35.8,33.2c0,0.1,0,0.1,0,0.2c0,0.6,0,1.1,0,1.7c0,0.5,0,1,0,1.5c0,0.7,0,1.3,0,2c0,0.5,0,1.1,0,1.6v0.1"/>
	<path class="st4" d="M43,32.4c0,0.1,0,0.3,0,0.4c0,0.7,0,1.4,0,2c0,0.8,0,1.6,0.1,2.4c0,0.1,0,0.3,0,0.4c0,0.1,0.1,0.1,0.1,0.2"/>
	<path class="st4" d="M16.7,32.8c0,0.3-0.1,0.7-0.1,1v0.1c0,0.6,0,1.2,0,1.8c0,0.2,0,0.3,0,0.5c0,0.4,0,0.9-0.1,1.3
		c0,0.3,0,0.6-0.1,0.8c0,0.2,0,0.3,0,0.5"/>
	<path class="st4" d="M55.8,38.9c0,0.3,0,0.6,0,0.9c0,0.4,0,0.9,0,1.3c0,0.8,0,1.7,0,2.5c0,0.6,0,1.3,0,1.9c0,0.3,0,0.5,0,0.8
		c0,0.1,0,0.1,0,0.2"/>
	<path class="st4" d="M22.3,36.4c0,0.2,0,0.4-0.1,0.6c-0.1,0.8-0.1,1.6-0.1,2.4c0,0.5,0,1,0,1.6c0,0.2,0,0.3,0,0.5"/>
	<path class="st4" d="M55.8,32.7c0,0.4,0,0.8,0,1.2c0,0.2,0,0.4,0,0.5c0,0.7,0,1.5,0,2.2c0,0.3,0,0.5,0,0.8c0,0.1,0,0.2,0,0.4"/>
	<path class="st4" d="M42.3,33c0,0.3-0.1,0.7-0.1,1l0,0c0,0.4-0.1,0.9-0.1,1.3c0,0.5,0.1,0.9,0.1,1.4c0,1,0,1.9,0,2.9
		c0,0.2,0,0.4,0,0.6v0.1"/>
	<path class="st4" d="M31.4,36c0,0.7,0,1.5,0,2.2c0,0.5-0.1,1-0.1,1.5c0,0.1,0,0.1,0,0.2c0,0.4,0,0.8-0.1,1.2"/>
	<path class="st4" d="M34.9,31.9c0-0.1-0.1-0.3-0.1-0.4v-0.1c-0.7,0-1.4,0-2.1,0c-0.2,0-0.3,0-0.5,0c-0.6,0-1.2,0-1.7,0h-0.1"/>
	<path class="st4" d="M16.9,34.8c0,0.3-0.1,0.6-0.1,0.9c0,0,0,0,0,0.1c0,0.5,0,1.1,0,1.6s0,0.9-0.1,1.4c0,0.2,0,0.5-0.1,0.7"/>
	<path class="st4" d="M41.8,38.9c-0.1,0.2-0.1,0.4-0.1,0.7c0,0.2,0,0.3,0,0.5c0,0.8-0.1,1.6-0.1,2.4c0,0.1,0,0.2,0,0.2
		c0,0.1,0,0.2,0,0.3c0,0.2,0,0.5,0,0.7c0,0.1,0,0.3,0,0.4c0,0.1,0,0.3,0,0.4"/>
	<path class="st4" d="M17.8,39c0,0.1,0.1,0.3,0.1,0.4c0,1.3,0,2.6,0,3.9c0,0.3,0,0.7,0,1"/>
	<path class="st4" d="M16.6,39.8c0,0.1,0,0.3,0,0.4c0,0.6,0,1.1,0,1.7c0,0.5,0,1.1,0,1.6c0,1.2,0,2.4,0,3.6c0,0.3,0,0.6,0,0.8"/>
	<path class="st4" d="M16.6,42.6c-0.2,0-0.4,0-0.5,0c0,0.1,0,0.2,0,0.2c0,0.6,0,1.2,0,1.9c0,0.5,0,1,0,1.5s0,1-0.1,1.4
		c0,0.1,0,0.3,0,0.4"/>
	<path class="st4" d="M51.2,37.8c0,0.2,0,0.5,0,0.7c0,0.1,0,0.3,0.1,0.4c0.1,0.2,0.1,0.5,0.1,0.7c0.1,0.6,0.1,1.2,0.1,1.8
		c0,0.2,0,0.4,0,0.6c0,0.1,0,0.2,0,0.4"/>
	<path class="st4" d="M42.7,41.9c0,0.1,0,0.3,0,0.4c0,0.3,0,0.6,0,0.9c0,0.7,0,1.4,0,2.1c0,0.3,0,0.6,0,0.9"/>
	<path class="st4" d="M48.8,36L48.8,36c0,1.2,0,2.2,0.1,3.3c0,0.3,0,0.6,0,0.8"/>
	<path class="st4" d="M17.1,34.8c0,0.3,0,0.7,0,1s0,0.5,0,0.8c0,0.4,0,0.7,0,1.1c0,0.4,0,0.8,0,1.2c0,0.1,0,0.1,0,0.2"/>
	<path class="st4" d="M22,29.5c-0.2,0-0.4,0-0.6-0.1c-0.4,0-0.7,0-1.1-0.1c-0.1,0-0.2,0-0.2,0.1c-0.1,0.2-0.3,0.1-0.4,0.1
		c-0.2,0-0.5,0-0.7,0c-0.1,0-0.1,0-0.2,0c-0.2-0.2-0.4-0.2-0.6-0.2c-0.4,0-0.8,0-1.2,0h-0.1c0,0.1-0.1,0.2-0.1,0.2
		c-0.4,0-0.9,0-1.3,0"/>
	<path class="st4" d="M16.2,43.6c0,0.1,0,0.2,0,0.3c0,0.3,0,0.7,0,1c0,0.9,0,1.7-0.1,2.6c0,0.1,0,0.1,0,0.2"/>
	<path class="st4" d="M51.2,32.3c-0.2-0.2-0.4-0.4-0.6-0.5c0,0-0.1-0.1-0.2-0.1c-0.6,0-1.1,0-1.7,0c-0.1,0-0.3,0-0.4,0
		c0-0.2,0-0.4,0-0.5c-1.2,0-2.4,0-3.5,0c0,0.2-0.1,0.4-0.1,0.6"/>
	<path class="st4" d="M17.1,43.4c0,0.1,0,0.1,0,0.2c0,0.4,0,0.7,0,1.1c0,0.5,0,1,0,1.5s0,1,0,1.4c0,0.1,0,0.1,0,0.2"/>
	<path class="st4" d="M41.8,34.8c-0.4,0-0.7,0-1.1,0c-0.3,0-0.6,0-0.9,0c-0.5,0-1,0-1.6,0c-0.1,0-0.3,0-0.4,0"/>
	<path class="st4" d="M48.3,29.3c-0.4,0-0.7,0-1.1,0c0,0,0,0.1-0.1,0.1H47c-0.3,0-0.6,0-0.9,0c-0.1,0-0.1,0-0.2-0.1
		c-0.1-0.1-0.2-0.1-0.3-0.1c-0.5,0-0.9,0-1.4,0"/>
	<path class="st4" d="M29.7,33.5c0,0.6-0.1,1.3-0.1,1.9c0,0.4,0,0.7,0,1.1c0,0.4,0,0.8,0,1.2c0,0.1,0,0.2,0,0.3c0,0.9,0,1.7,0,2.6
		c0,0.2,0,0.5-0.1,0.7v0.1"/>
	<path class="st4" d="M35.2,26c0-0.1,0-0.1,0-0.2c0-1.1,0-2.2,0-3.4c0-0.1,0-0.3,0-0.4c1.3-0.3,2.6-0.6,3.8-0.9
		c0,0.1,0.1,0.2,0.1,0.3c0,0.1,0,0.3,0.2,0.3c0,0.2,0,0.4,0.1,0.6s0.1,0.4,0.1,0.5c0,0.5,0,1,0,1.6c0,0.2,0.1,0.4,0.1,0.7"/>
	<path class="st4" d="M24.6,42.9c0,0.2,0,0.4,0,0.6c0,0.3,0,0.6,0,0.9c0,0.5,0,1.1,0,1.6c0,0.4-0.1,0.8-0.1,1.3c0,0.1,0,0.3,0,0.4"
		/>
	<path class="st4" d="M18,32.7c0.1,0.1,0.2,0.2,0.3,0.3l0.1,0.1c0,0.3,0,0.7-0.1,1c0,0.1,0,0.1,0,0.2c0,0.6,0,1.3-0.1,1.9
		c0,0.1,0,0.3,0,0.4c0,0.1,0,0.1,0,0.2"/>
	<path class="st4" d="M18.7,41.7c0,0.5-0.1,1-0.1,1.5c0,0.4,0,0.8,0,1.3c0,0.3,0,0.5,0,0.8"/>
	<path class="st4" d="M23.2,33.1c0,0.2,0,0.5,0,0.7c0,0.7,0,1.4,0,2c0,0.3,0,0.5,0.1,0.8l0.1,0.1"/>
	<path class="st4" d="M41.3,34.4c-0.3,0-0.6,0-0.8,0c-0.1,0-0.1,0-0.2,0c-0.8,0-1.7,0-2.5,0"/>
	<path class="st4" d="M28.5,22.6c-0.2,0-0.4,0.1-0.7,0.1c-0.6,0.2-1.3,0.3-1.9,0.5c-0.3,0.1-0.6,0.2-0.9,0.2c0,0.2,0.1,0.4,0.1,0.6
		c0.1,0,0.3-0.1,0.4-0.1c0.5-0.1,0.9-0.3,1.4-0.4c0.4-0.1,0.9-0.2,1.3-0.3c0.1,0,0.3-0.1,0.4-0.1"/>
	<path class="st4" d="M55.2,31c-0.3,0.1-0.5,0.1-0.8,0.2c-0.2,0.1-0.4,0-0.5,0.1c-0.5,0-1.1,0-1.6,0c-0.2,0-0.4,0-0.6,0"/>
	<path class="st4" d="M51.5,42.3c0,0.2,0,0.4,0,0.6c0,0.3,0,0.6,0,0.9c0,0.5,0,1.1,0,1.6c0,0.1,0,0.3,0,0.4"/>
	<path class="st4" d="M15.6,24.9C15.5,25,15.3,25,15.1,25c-0.3,0.1-0.5,0.2-0.8,0.2c-0.2,0-0.3,0.1-0.5,0.1c0-0.2,0-0.4,0-0.5
		c0.4,0,0.7,0,1.1,0c0.2,0,0.3,0,0.5,0c0.8-0.1,1.5-0.4,2.2-0.5c0.1,0,0.1,0,0.2-0.1c0.1,0.3,0.4,0.4,0.4,0.7c-0.1,0-0.2,0-0.3,0.1
		l0,0c-0.2,0-0.3,0-0.5,0.1c-0.8,0.2-1.6,0.4-2.4,0.7c-0.2,0.1-0.3,0.1-0.5,0.2"/>
	<path class="st4" d="M17.5,39.9c0,0.4,0,0.8,0,1.2c0,0.7,0,1.5,0,2.2c0,0.4,0,0.9,0,1.3c0,0.1,0,0.1,0,0.2"/>
	<path class="st4" d="M18.1,33.4c0,1.1,0,2.1,0.1,3.2c0,0.1,0,0.2,0,0.2"/>
	<path class="st4" d="M43.6,44c0,1.1,0,2.3,0,3.4"/>
	<path class="st4" d="M57.2,32.6c0.1,0,0.3,0.1,0.5,0.1c0,0.3,0.1,0.5,0.1,0.8c0,0.6,0.1,1.1,0.1,1.7c0,0.2,0,0.5,0,0.7"/>
	<path class="st4" d="M41.2,30.8C41.2,30.8,41.2,30.7,41.2,30.8c-0.1-0.1-0.1-0.1-0.1-0.1C41,31,40.7,31,40.5,31.1h-0.1
		c-0.3,0.2-0.7,0.2-1,0.1c-0.3,0-0.5,0-0.8,0c-0.2,0-0.5,0-0.7,0"/>
	<path class="st4" d="M16.4,39.2c0,0.1,0,0.2,0,0.3c0,0.9,0,1.7,0,2.6c0,0.2,0,0.3,0,0.5"/>
	<path class="st4" d="M33.2,22.5c0,1.1,0,2.3,0,3.4c0,0,0.1,0,0.2,0c0-0.1,0-0.1,0-0.1"/>
	<path class="st4" d="M53.7,24.2c0.1,0,0.2,0.1,0.4,0.1c0.4,0.1,0.7,0.1,1.1,0.2c0.1,0,0.2,0,0.2,0c0,0.1,0,0.1,0,0.2
		c0.1,0.1,0.4,0,0.3,0.3l0,0c0-0.1,0.1-0.1,0.1-0.2c0.4,0.1,0.8,0.2,1.2,0.3c0.1,0,0.1,0.1,0.1,0.1l0,0c0.4-0.1,0.7,0.1,1,0.1
		c0.1,0,0.3,0,0.4,0c0,0.1,0.1,0.1,0.1,0.2l0,0c0.1,0,0.2,0,0.3,0"/>
	<path class="st4" d="M37.1,33.8C37.1,33.8,37.1,33.9,37.1,33.8c0,0.8,0,1.5-0.1,2.2c0,0.7,0,1.5,0,2.2c0,0.4,0,0.7-0.1,1.1
		c0,0.1,0,0.1,0.1,0.2"/>
	<path class="st4" d="M37.6,40.9C37.6,40.9,37.6,41,37.6,40.9c0,0.2-0.1,0.4-0.1,0.6c0,0.9,0,1.8,0,2.7c0,0.1,0,0.1,0,0.2"/>
	<path class="st4" d="M41.3,33.2c-0.2-0.1-0.5-0.1-0.7-0.2c-0.3-0.1-0.5-0.1-0.8,0c-0.4,0.1-0.7,0.1-1.1,0.1c-0.3,0-0.5,0-0.8,0"/>
	<path class="st4" d="M40.9,32v-0.1c-0.1,0-0.2,0-0.2,0c-0.7,0-1.5,0-2.2-0.1c-0.8,0-1.5,0-2.3,0c-0.3,0-0.7,0-1,0
		c-0.2,0-0.3,0-0.3,0.2c0.1,0.2,0.3,0.3,0.4,0.5c0,0,0,0,0.1,0"/>
	<path class="st4" d="M29.4,43.5c0,0.2,0,0.4,0,0.7c0,0.4,0,0.9,0,1.3c0.1,0.1,0.3,0.1,0.4,0.2c0,0.2,0,0.4,0,0.6c0,0.1,0,0.1,0,0.2
		"/>
	<path class="st4" d="M41.4,23.7c0,0.1,0,0.2,0,0.4c1,0,1.9,0,2.8,0c0.2,0,0.5,0,0.7,0c0.1,0,0.3,0,0.4,0"/>
	<path class="st4" d="M16.2,39.5c0,0.2,0,0.4,0,0.6C16,41,16,41.8,16,42.6c0,0,0,0,0,0.1"/>
	<path class="st4" d="M24.3,38.8c0,0.7,0,1.3,0.1,2c0,0.4,0.1,0.7,0.1,1.1"/>
	<path class="st4" d="M44.8,31.8c0.1,0,0.3,0.1,0.4,0.1c0.5,0,1,0,1.4,0c0.5,0,1,0,1.5,0c0,0.1,0,0.2,0,0.3c0.1,0,0.1,0,0.2,0"/>
	<path class="st4" d="M54.7,47.4c-0.4,0-0.8,0-1.2,0c-0.2,0-0.5,0-0.7,0c-0.3,0-0.7,0-1,0.1c-0.1,0-0.2,0-0.3,0"/>
	<path class="st4" d="M28.9,29.5C28.9,29.5,28.9,29.4,28.9,29.5c-0.3-0.1-0.6-0.1-0.8-0.1c-0.4,0-0.7,0-1.1,0c-0.1,0-0.2,0-0.2,0.1
		c-0.1,0.1-0.2,0.1-0.3,0.1c-0.3,0-0.6,0-0.9,0c-0.1-0.2-0.3-0.2-0.5-0.2s-0.5,0-0.7,0"/>
	<path class="st4" d="M31.3,41c0.1,0.1,0.1,0.1,0.2,0.2c0.1,0.1,0.1,0.3,0.1,0.5c0,0.7,0,1.4,0,2.1c0,0.1,0,0.2,0,0.3"/>
	<path class="st4" d="M37.8,41c0,0.4,0,0.9,0,1.3c0,0.2-0.1,0.3,0,0.5c0,0.4,0.1,0.7,0.1,1.1c0,0.3,0,0.7,0,1c0,0.2,0,0.5,0,0.7
		c0,0.1,0,0.2,0,0.3c-0.1,0.2,0,0.4,0.3,0.5c0,0.3,0,0.6-0.1,0.8c0,0.1,0,0.1,0,0.2l0,0l0,0"/>
	<path class="st4" d="M64.1,25.5c0.2,0,0.4,0.1,0.7,0.2c-0.1,0.1-0.1,0.1-0.1,0.2c-0.5,0-0.9,0-1.4,0c-0.4,0-0.8,0-1.2-0.1
		c-0.1,0-0.2-0.1-0.3-0.1c-0.2,0.1-0.3,0-0.5,0c-0.1,0-0.2,0-0.3,0"/>
	<path class="st4" d="M50.9,32.7c0.1-0.1,0.2-0.2,0.3-0.3s0.1-0.2,0.1-0.3c0,0,0.1-0.1,0.2-0.1l0.1-0.1c0.4,0,0.7,0,1.1,0
		c0.5,0,0.9,0,1.4,0c0.1,0,0.3,0,0.5,0c0,0.1,0,0.3,0,0.4c0.1,0,0.2,0.1,0.4,0.1c0.1,0,0.1,0,0.2,0.1c0.1,0.1,0.2,0.2,0.3,0.3"/>
	<path class="st4" d="M44,44c0,1,0,2,0,3"/>
	<path class="st4" d="M30,42.3c0,0.3,0,0.5,0,0.8s0,0.6,0,0.9c0,0.4,0,0.9-0.1,1.3"/>
	<path class="st4" d="M36.7,33.6c0,0.1,0,0.1,0,0.2c0,0.7,0,1.4,0,2c0,1.1,0,2.1,0,3.2c0,0.1,0,0.1,0,0.2"/>
	<path class="st4" d="M34.6,32.9c-0.3,0-0.6,0-1,0s-0.8,0-1.2,0c-0.3,0-0.5,0-0.8,0"/>
	<path class="st4" d="M34.4,22.5c0,0.3,0,0.6-0.1,0.9c0,0.4,0,0.7-0.1,1.1c0,0.2,0.1,0.4,0.2,0.5c0.1,0.1,0.2,0.2,0.2,0.4h0.1"/>
	<path class="st4" d="M44.7,41.8c-0.1,0.2-0.2,0.3-0.3,0.5l0,0c0,0.1,0.1,0.2,0.1,0.3c0.1,0.2,0.1,0.3,0.1,0.5c0,0.3,0,0.5,0,0.8
		c0,0.2,0,0.3-0.1,0.5c0,0.1,0.1,0.1,0.1,0.2"/>
	<path class="st4" d="M60.9,32.6c0,0.1,0,0.2,0,0.3c0,0.3,0,0.6,0,0.9c0,0.7,0.1,1.3,0.1,2s0,1.5,0,2.2c0,0.2,0,0.4,0,0.6"/>
	<path class="st4" d="M28.5,26.6c-0.1,0-0.1-0.1-0.2-0.1c-0.3,0-0.6,0-0.9,0c-0.5,0-1,0-1.6,0c-0.2,0-0.3,0-0.5,0"/>
	<path class="st4" d="M53.9,29.5c-0.4,0-0.8,0-1.2,0c0,0-0.1-0.1-0.1-0.2c-0.3,0-0.7,0-1.1,0c-0.1,0-0.2,0-0.3,0"/>
	<path class="st4" d="M49.6,44.7L49.6,44.7c0,0.6,0,1,0,1.5c0,0.4,0,0.9,0,1.3"/>
	<path class="st4" d="M18.8,32.2c0-0.1,0-0.1,0-0.2c0.1-0.1,0.2-0.1,0.3-0.2c0.1,0.1,0.2,0.2,0.2,0.3c0.4,0,0.8-0.1,1.2-0.1
		c0.3,0,0.5,0,0.8,0c0.1,0,0.2,0.1,0.2,0.2c0.1,0.2,0.2,0.5,0.4,0.7c0,0.1,0,0.2,0,0.3c0,0.7,0,1.5,0,2.2c0,0.2,0,0.4,0,0.5"/>
	<path class="st4" d="M50.2,37.5c0,0.3,0,0.6,0,0.9c0,0.6,0.1,1.2,0.1,1.7c0,0.1,0,0.1,0,0.2"/>
	<path class="st4" d="M23.2,32.3c-0.1,0-0.2,0.1-0.3,0.1c-0.4,0.1-0.6-0.1-0.8-0.3C22,32,21.8,32,21.7,32c-0.2,0-0.4,0-0.6,0
		c0-0.2,0-0.3,0-0.5c-0.8,0-1.6,0-2.4,0c0,0.2,0,0.3,0.1,0.5"/>
	<path class="st4" d="M49.1,44.4c0.1,0.1,0,0.2,0,0.3c0,0.2,0,0.4,0,0.7c0,0.6,0,1.1,0,1.7v0.1"/>
	<path class="st4" d="M55.1,40.7c0,0.3,0,0.5,0.1,0.8c0,0.7,0,1.3,0.1,2"/>
	<path class="st4" d="M33.9,26.4c0.1-0.1,0.2-0.1,0.3-0.1c0.6,0,1.2,0,1.8,0c0.2,0,0.5,0,0.7,0c0.1,0,0.2,0.1,0.2-0.1"/>
	<path class="st4" d="M23.1,33.4c0,0.1,0,0.1,0,0.2c0,0.6,0,1.1,0,1.7c0,0.3,0,0.5,0,0.8c0,0.1,0,0.1,0,0.2"/>
	<path class="st4" d="M22.2,32.8c0,0.4,0,0.8,0,1.2c0,0.2,0,0.3,0,0.5c0,0.4,0,0.8,0,1.2"/>
	<path class="st4" d="M29.6,47.7c-0.3,0-0.5,0-0.8,0c-0.8,0-1.6,0-2.4,0c-0.3,0-0.5,0-0.8,0.1"/>
	<path class="st4" d="M49.2,37.1c0,0.9,0,1.8-0.1,2.7l0,0"/>
	<path class="st4" d="M34.2,32c-0.9,0-1.7,0-2.6,0c-0.1,0-0.1,0-0.2,0"/>
	<path class="st4" d="M60.9,44.6c0,0.1,0,0.1,0,0.2c0,0.8,0,1.5-0.1,2.3c0,0.1,0,0.1-0.1,0.2"/>
	<path class="st4" d="M43.4,32.5c0,0.1,0,0.1,0,0.2c0,0.6,0,1.3,0,1.9c0,0.2,0,0.4,0,0.6"/>
	<path class="st4" d="M31.3,41.9c0,0.2,0,0.5,0,0.7c0,0.6,0,1.2,0,1.8c0,0.5,0,1,0,1.6c0,0.5,0,0.9,0,1.4"/>
	<path class="st4" d="M19.2,25.9c-0.6,0-1.1,0-1.7,0c-0.3,0-0.6,0-0.9,0c-0.6,0-1.1,0-1.7,0.1c-0.2,0-0.3,0-0.5,0
		c-0.1,0-0.2,0-0.3,0"/>
	<path class="st4" d="M30.4,37.3c0,0.3,0,0.6,0,0.8v0.1c0,0.7,0,1.4-0.1,2.1c0,0.1,0,0.3,0,0.4"/>
	<path class="st4" d="M47.9,37.4c0,0.8,0,1.6-0.1,2.5c0,0.1,0,0.1,0,0.2"/>
	<path class="st4" d="M43.7,32.8c0,0.7,0,1.4,0,2.2c0,0.1,0,0.3,0,0.4"/>
	<path class="st4" d="M32.7,22.8c0,0.2,0,0.4,0,0.6c0,0.5,0,1-0.1,1.5c0,0.2,0,0.3,0,0.5"/>
	<path class="st4" d="M25.2,24c0.1,0.1,0.1,0.3,0.2,0.5c-0.6,0.1-1.2,0.3-1.9,0.4c0,0.1-0.1,0.2-0.1,0.3c-0.1-0.1-0.2-0.2-0.3-0.3
		c-0.4,0.1-0.7,0.2-1.1,0.3c0,0.1,0,0.1,0,0.2c-0.1,0-0.3,0-0.4,0c-0.1-0.2-0.3-0.4-0.4-0.6c-0.1-0.1-0.2-0.2-0.3-0.1
		c-0.4,0.1-0.9,0.1-1.3,0.2"/>
	<path class="st4" d="M48.2,36.6c0,0.8,0,1.5-0.1,2.3c0,0.1,0,0.2,0,0.3"/>
	<path class="st4" d="M48.6,42.4c0,0.6,0,1.2,0,1.8c0,0.8,0,1.6-0.1,2.3c0,0.2,0,0.4-0.1,0.6c0,0.1,0,0.2,0,0.3"/>
	<path class="st4" d="M64.8,25.3c0.1-0.1,0.2-0.2,0.3-0.3c0-0.1,0-0.2,0-0.4c-0.1,0-0.1,0-0.2,0c-0.2,0.1-0.4,0.1-0.6,0
		c-0.1-0.1-0.2,0-0.2,0.1c-0.2-0.1-0.4,0-0.4-0.2c-0.7-0.1-1.4-0.3-2.1-0.4c-0.1,0.1-0.2,0.2-0.3,0.3c0,0.1,0,0.1,0,0.2
		c0.1,0,0.3,0.1,0.4,0.1c0.1,0,0.2,0,0.2,0.1c0,0,0,0.1,0.1,0.1"/>
	<path class="st4" d="M23.4,37.5c0,0.1,0,0.2,0,0.3c0,0.5,0,1.1,0,1.6c0,0.8,0,1.6,0,2.4v0.1"/>
	<path class="st4" d="M61.4,36.7c0,0.1,0,0.1,0,0.2c0,0.7,0,1.4,0,2.2c0,0.1,0,0.1,0,0.2"/>
	<path class="st4" d="M48.1,42.4c0,0.2,0,0.5,0,0.7c0,0.4,0,0.9,0,1.3c0,0.1,0,0.2,0,0.4v0.1"/>
	<path class="st4" d="M35.8,40.7c0,0.6-0.1,1.1-0.1,1.7c0,0.3,0,0.6,0,0.9"/>
	<path class="st4" d="M24.3,35.5c0,0.2,0,0.4,0,0.6c0,0.3,0,0.6,0,0.9c0,0.3,0,0.6,0,0.9c0,0.1,0,0.1,0,0.2"/>
	<path class="st4" d="M34.3,32.2c-0.3,0-0.5,0-0.8,0c-0.6,0-1.2,0-1.7,0.1"/>
	<path class="st4" d="M48.4,42.4c0,0.8,0,1.7,0,2.5"/>
	<path class="st4" d="M48,42.4C48,42.5,48,42.5,48,42.4c0,0.9,0,1.7,0,2.5"/>
	<path class="st4" d="M28,32.1c-0.2-0.1-0.5-0.1-0.7-0.2s-0.4-0.1-0.7-0.1c-0.3,0-0.6,0-0.8,0c-0.4,0-0.8,0-1.3,0
		c0,0.1,0,0.1-0.1,0.2"/>
	<path class="st4" d="M43.4,22.6c0-0.1,0-0.2,0-0.3c-0.7,0-1.5,0.1-2.2,0.1c0,0.3,0,0.5,0,0.8c-0.2,0-0.5,0-0.7,0
		c-0.1,0-0.1,0-0.1-0.1L40.3,23c-0.1,0.2-0.1,0.3-0.2,0.5c-0.1,0.4-0.3,0.8-0.4,1.3c0,0.1-0.1,0.1-0.1,0.1"/>
	<path class="st4" d="M61.9,32.7c0,0.3,0,0.7,0,1c0,0.5,0,1.1,0.1,1.6c0,0.4,0.1,0.8,0.1,1.2"/>
	<path class="st4" d="M51.1,35.3c0,0.5,0.1,1,0.1,1.5c0,0.3,0,0.6,0,0.9"/>
	<path class="st4" d="M26.9,31.8c0,0.1-0.1,0.1-0.1,0.2c-0.2,0-0.4,0-0.7,0c-0.4,0-0.7,0-1.1,0c-0.2,0-0.3,0-0.5,0.1"/>
	<path class="st4" d="M42.2,41.8c0,0.1,0,0.2,0,0.3c0,0.6,0,1.3,0,1.9c0,0.1,0,0.1,0,0.2"/>
	<path class="st4" d="M22.5,43.6c0,0.1,0,0.2,0,0.3c0,0.6,0,1.2,0,1.9c0,0.1,0,0.1,0,0.2"/>
	<path class="st4" d="M47.8,33c-0.1-0.1-0.2-0.1-0.3-0.1c-0.2,0-0.4,0-0.5,0c-0.7,0-1.4,0-2.2,0"/>
	<path class="st4" d="M47.5,44.6c0,0.8,0,1.6,0,2.4"/>
	<path class="st4" d="M18.9,27.4c-0.1,0-0.1,0.1-0.2,0.1c-0.1-0.1-0.1-0.2-0.2-0.3c-0.1,0.1-0.2,0.1-0.2,0.1c-0.4,0-0.8,0-1.2-0.1
		c0,0.1-0.1,0.3-0.1,0.4"/>
	<path class="st4" d="M44.7,45c0,0.3,0,0.6-0.1,0.9c0,0.2,0,0.5-0.1,0.7c0,0.2,0,0.3-0.1,0.5c0,0.1,0.1,0.1,0.1,0.2"/>
	<path class="st4" d="M30.7,42.4c0,0.3,0,0.6,0,0.9c0,0.5,0,0.9,0,1.4c0,0,0,0,0,0.1"/>
	<path class="st4" d="M47.6,26.6c0-0.3,0-0.6,0-0.8c-0.1,0-0.1,0-0.1,0c-0.5,0-0.9,0-1.4,0c-0.3,0-0.6,0-0.9,0c-0.1,0-0.2,0-0.2,0"
		/>
	<path class="st4" d="M41.5,34.1c-0.4,0-0.7,0-1.1,0h-0.1C40.2,33.9,40,34,39.9,34c-0.6,0-1.3,0-1.9,0.1"/>
	<path class="st4" d="M24.4,32.3c0.1-0.1,0.2-0.2,0.1-0.3c-0.1-0.2-0.1-0.4-0.1-0.6c0.3,0,0.6,0,0.8,0c0.1-0.1,0.1-0.2,0.2-0.2
		c0.2,0,0.4,0,0.6,0.2c0.1,0.1,0.2,0.1,0.2,0.1c0.6,0,1.1,0,1.7-0.1c0,0.2,0,0.4,0,0.5c0.5,0,1.1,0,1.6,0"/>
	<path class="st4" d="M58.9,26c-0.2,0-0.4,0-0.7,0c-0.6,0-1.2,0-1.8,0.1l0,0"/>
	<path class="st4" d="M30.4,42.4c0,0.3,0,0.6-0.1,0.9v0.1c0,0.5,0,0.9,0,1.4"/>
	<path class="st4" d="M32.2,23.1c0,0.1,0,0.1,0,0.2c0,0.4,0,0.9,0,1.3c0,0.2,0,0.3,0,0.5c0,0.1,0,0.2,0,0.3"/>
	<path class="st4" d="M34.5,33.1c-0.4,0-0.7,0-1.1,0c-0.2,0-0.5,0-0.7,0s-0.5,0-0.7,0"/>
	<path class="st4" d="M57.5,32.7c0,0.2,0,0.4,0,0.7c0,0.4,0,0.7,0,1.1c0,0.2,0,0.3,0,0.5"/>
	<path class="st4" d="M44,33.1c0,0.5,0,0.9,0,1.4c0,0.3,0,0.5,0.1,0.8c0,0.1,0,0.1,0,0.2"/>
	<path class="st4" d="M40.4,32.7c-0.2,0-0.3,0-0.5,0c-0.5,0-0.9-0.1-1.4-0.1c-0.1,0-0.2,0-0.3,0"/>
	<path class="st4" d="M43,38.3C43,38.4,43,38.4,43,38.3c0,0.8,0,1.5-0.1,2.2"/>
	<path class="st4" d="M43.7,23.2c0-0.2,0-0.3-0.1-0.5c-0.3,0-0.7,0-1-0.1c-0.3,0-0.6,0-1,0c-0.2,0-0.3,0-0.5,0"/>
	<path class="st4" d="M59.7,29.4c0.3,0,0.5,0,0.8,0c0,0,0.1-0.1,0.1-0.2c0.6,0,1.2,0,1.8,0c0,0.1,0,0.1,0.1,0.2c0.4,0,0.9,0,1.3,0"
		/>
	<path class="st4" d="M43.2,43.9c0,0.6,0,1.3,0,1.9c0,0.1,0,0.2,0,0.3"/>
	<path class="st4" d="M50,45c0,0.6,0,1.3-0.1,1.9c0,0.1,0,0.1,0,0.2"/>
	<path class="st4" d="M50.3,41.5c0,0.1,0,0.2,0,0.3c0,0.5,0,1,0,1.6c0,0.1,0,0.2,0,0.3"/>
	<path class="st4" d="M49,33c0,0.1,0,0.3,0,0.4c0,0.5,0,1.1,0,1.6c0,0,0,0,0,0.1"/>
	<path class="st4" d="M58.3,31.7L58.3,31.7c-0.4,0-0.8,0-1.1,0c-0.1,0-0.2,0-0.2,0c-0.4,0-0.8,0-1.2,0c-0.2,0-0.4,0-0.5,0"/>
	<path class="st4" d="M53.8,26.3c0-0.1,0-0.1-0.1-0.1c-0.2,0-0.3,0-0.5,0s-0.4-0.1-0.5-0.2c-0.1-0.2-0.2-0.2-0.4-0.1
		c-0.2,0-0.4,0-0.7,0"/>
	<path class="st4" d="M50.3,25.3c0.3-0.1,0.5,0,0.8,0.1c0.4,0.1,0.7,0.1,1.1,0.2c0.1-0.1,0.2-0.3,0.4-0.4c0.4-0.4,0.8-0.7,1.2-1.1
		c0.2-0.2,0.5-0.5,0.5-0.9c-0.6-0.1-1.1-0.2-1.7-0.3c-0.1,0.3-0.2,0.6-0.3,0.8C52.1,24,52,24,51.8,24c-0.1,0-0.2,0.1-0.2-0.1"/>
	<path class="st4" d="M37.6,32.5c-0.2-0.2-0.5-0.2-0.7-0.2c-0.4,0-0.8,0-1.1,0.1c-0.1,0-0.1,0-0.2,0.1"/>
	<path class="st4" d="M33.5,47.2c-0.3,0-0.6,0-0.9,0c-0.4,0-0.8,0-1.1,0"/>
	<path class="st4" d="M17.7,32.9c0,1.4,0,2.8,0,4.2"/>
	<path class="st4" d="M37.5,26.4c-0.1,0-0.1,0-0.2,0c0,0.2-0.1,0.2-0.3,0.2c-0.3,0-0.6,0.1-0.9,0.1c-0.2,0-0.3,0-0.5-0.1
		c-0.1-0.1-0.2-0.1-0.2,0"/>
	<path class="st4" d="M61.7,32.7C61.8,32.7,61.8,32.7,61.7,32.7C61.8,32.7,61.8,32.7,61.7,32.7c-0.2,0-0.4,0-0.6,0.1
		c0,0.7,0,1.4,0,2.1c0,0.1,0,0.3,0.1,0.4"/>
	<path class="st4" d="M61.5,40.6c0,0.2,0,0.4,0,0.6c0,0.4,0,0.8,0,1.2c0,0.1,0,0.1,0,0.2"/>
	<path class="st4" d="M26.3,32.9c-0.6,0-1.2,0-1.8,0.1c-0.1,0-0.1,0-0.1,0.1"/>
	<path class="st4" d="M17.5,37.2c0,0.2,0,0.4,0,0.6c0,0.3,0,0.6-0.1,0.9c0,0.2,0,0.4,0,0.5"/>
	<path class="st4" d="M30,33.3c0,0.2,0,0.4,0,0.7c0,0.1,0,0.2,0,0.3c0,0.3,0,0.6,0,0.9c0,0.1,0,0.1,0,0.2"/>
	<path class="st4" d="M57.3,31.7l0.1,0.1c0.1,0.1,0.3,0.1,0.4,0.1c0.1,0,0.1,0.1,0.1,0.2c-0.1,0.1-0.1,0.2-0.2,0.3
		c-0.2,0-0.4-0.1-0.5-0.1c-0.5,0-1-0.1-1.5,0c-0.1,0-0.2,0-0.2,0.1"/>
	<path class="st4" d="M60.3,31.7c-0.5,0-1.1,0.1-1.6,0.1c-0.1,0-0.2,0-0.2,0s0,0-0.1,0.1"/>
	<path class="st4" d="M30.7,32.2c-0.3-0.1-0.6-0.2-0.9-0.2s-0.7,0.1-1,0.1c-0.1,0-0.2,0-0.2,0.1"/>
	<path class="st4" d="M57.6,36.5c0,0.3,0,0.5,0,0.8s0,0.5,0,0.8c0,0.1,0,0.3,0,0.4"/>
	<path class="st4" d="M33.4,47.6c-0.6,0-1.2,0-1.8,0c-0.1,0-0.1,0-0.2,0"/>
	<path class="st4" d="M56,29.5c0-0.1,0-0.1,0-0.1c-0.7,0-1.3,0-2-0.1"/>
	<path class="st4" d="M64,26.8c-0.2,0.1-0.2,0.2-0.3,0.3c0,0.2,0,0.3,0,0.5c0,0.4,0,0.8,0,1.2c0,0.1,0,0.3,0.1,0.4s0.1,0.3,0.1,0.4
		c0,0.3,0,0.5,0,0.8s0,0.6,0,0.8c-0.1,0-0.1,0.1-0.2,0.1"/>
	<path class="st4" d="M30.6,32.6c-0.4-0.2-0.9-0.2-1.4-0.1c-0.2,0-0.3,0.1-0.4,0.1c0,0,0,0.1-0.1,0.1"/>
	<path class="st4" d="M16.5,27.4c0,0.2,0,0.5,0,0.7c0,0.4,0,0.8,0,1.2l0,0"/>
	<path class="st4" d="M19.1,27.3c0,0.2,0,0.4,0.1,0.6c0,0.4,0,0.8,0,1.2v0.1"/>
	<path class="st4" d="M34.7,29.3c-0.4,0-0.8,0-1.3,0.1c-0.1,0-0.2,0.1-0.2,0.2c-0.1,0-0.3,0-0.4-0.1"/>
	<path class="st4" d="M17.1,40.6c0,0.9,0,1.9,0,2.8"/>
	<path class="st4" d="M61.2,36.9c0,0.5,0,1,0.1,1.4c0,0.2,0,0.3,0.1,0.5"/>
	<path class="st4" d="M61.8,25.1c0.1,0.2,0.3,0.2,0.5,0.2c0.3,0.1,0.7,0.1,1,0.1s0.5,0.1,0.8,0.2c0.1-0.1,0-0.1-0.1-0.1
		c-0.5-0.1-0.9-0.3-1.4-0.4C62.4,25,62.2,25,62,24.9C61.9,24.9,61.8,24.9,61.8,25.1"/>
	<path class="st4" d="M13.8,25.4c-0.1,0.1,0,0.1,0,0.2c0.1,0.2,0.3,0.3,0.4,0.4c0,0.3,0,0.6,0.2,0.9c0.4,0.4,0.7,0.9,1,1.4
		c0.1,0.1,0.1,0.3,0.1,0.4c0,0.2,0,0.3,0,0.5l0,0c-0.1,0.1-0.1,0.1-0.2,0.2c0,0.1,0.1,0.2,0.1,0.3c0,0.1-0.1,0.2-0.1,0.2
		c0,0.2,0,0.4,0,0.7c0.1,0.1,0.2,0.1,0.3,0.2c0,0.2,0,0.5,0,0.7"/>
	<path class="st4" d="M57.6,26.6c-0.1-0.1-0.2-0.1-0.3-0.1c-0.2,0-0.3,0-0.5,0s-0.4-0.1-0.6-0.2l-0.1,0.1c0,0.1,0.1,0.2,0.1,0.3
		c0.3,0,0.6,0,1,0c0.1,0,0.1,0,0.2,0c0.2,0,0.3-0.1,0.4-0.2"/>
	<path class="st4" d="M35.5,44.8c0.4,0,0.8,0,1.2,0.1c0.2,0,0.5,0,0.7,0"/>
	<path class="st4" d="M42.4,26.4c0.7,0,1.5,0,2.2,0c0.3,0,0.5,0,0.8,0c0.1,0,0.1,0,0.2,0"/>
	<path class="st4" d="M43.7,25.7c-0.2,0-0.3,0-0.5,0c-0.4,0-0.9,0-1.3,0c-0.1,0-0.1,0-0.2,0"/>
	<path class="st4" d="M63.6,31.3c-0.1,0.1-0.2,0.1-0.4,0.2c-0.3-0.1-0.6-0.1-0.9-0.1c-0.1,0-0.2,0-0.4,0c-0.1-0.1-0.3-0.1-0.5,0
		c-0.1,0.1-0.2,0.1-0.3,0.1c0,0.2,0,0.4,0,0.6"/>
	<path class="st4" d="M26.5,25c-0.1,0-0.2,0-0.4-0.1c0,0,0,0-0.1,0.1c-0.2,0-0.3-0.1-0.5,0c0,0.3,0.2,0.5,0.4,0.6
		c0.1,0,0.2-0.1,0.3-0.2c0-0.1,0-0.3,0-0.4"/>
	<path class="st4" d="M41.2,32.2c-0.1,0-0.3,0-0.4,0c-0.8,0-1.5,0-2.3-0.1c-0.1,0-0.2,0-0.3,0"/>
	<path class="st4" d="M24,29.4c-0.2,0-0.4,0-0.6,0c-0.1,0-0.1,0-0.1,0.1c-0.1,0.2-0.2,0.2-0.4,0.2c-0.2,0-0.3,0-0.5,0h-0.1"/>
	<path class="st4" d="M35.2,22.2c-0.1-0.1-0.1-0.1-0.2-0.2c-0.3,0.1-0.6,0.1-1,0.2c-0.3,0.1-0.6,0.2-0.8,0.3
		c-0.6,0.2-1.2,0.3-1.9,0.5v0.1l0,0C31.1,22.9,31,23,30.8,23c-0.4,0.1-0.8,0.3-1.2,0.4c0.1,0.1,0.2,0.3,0.3,0.4
		c-0.1,0.1-0.1,0.1-0.2,0.2c0-0.1-0.1-0.1-0.1-0.2c-0.1-0.2-0.2-0.2-0.4-0.1c0,0,0,0-0.1,0"/>
	<path class="st4" d="M60.8,26.4c0,0.1,0,0.2,0,0.3c-0.5,0-0.9,0.1-1.4,0.1c0-0.1,0-0.2,0-0.3c0.1,0,0.3,0,0.4,0c0.3,0,0.7,0,1,0"/>
	<path class="st4" d="M31.9,26.3c0.1,0.1,0.2,0.2,0.3,0.2c0.4,0,0.8,0,1.2,0c0.1,0,0.2,0.1,0.2,0.1c0.2,0.2,0.4,0.2,0.7,0.2
		s0.6,0,0.8,0c0.1,0,0.2-0.1,0.2-0.2"/>
	<path class="st4" d="M25.3,27.4c0-0.1-0.1-0.2-0.1-0.4v-0.1c0.5,0,0.9,0,1.4,0c0,0,0.1-0.1,0.1-0.2c0.1,0,0.2,0,0.3,0h0.1
		c0.1,0.2,0.4,0.2,0.6,0.2s0.5,0,0.7-0.1c0-0.3,0.1-0.3,0.3-0.3c0.6,0,1.2,0,1.7,0c0.4,0,0.7-0.1,1.1-0.1c0.1,0,0.1,0,0.2,0.1
		c0.1,0,0.1,0.1,0.2,0.1c0.1,0.1,0.3,0.1,0.5,0.1c0.3,0,0.6,0,0.9,0h0.1c0-0.1,0-0.1,0-0.2"/>
	<path class="st4" d="M34.4,31.7c-0.2,0-0.4,0-0.6,0c-0.5,0-1.1,0-1.6,0c-0.3,0-0.5,0-0.8,0"/>
	<path class="st4" d="M49,23.4c0-0.2,0-0.3-0.2-0.3c-0.1,0-0.3,0-0.4,0c0,0.3,0,0.5,0,0.7C48.3,23.9,48.1,24,48,24s-0.1,0.1-0.1,0.2
		c0,0.3,0,0.7,0,1c0,0.1,0,0.3,0,0.4c-0.1,0-0.2,0.1-0.3,0.1"/>
	<path class="st4" d="M16,48.8c-0.1-0.1-0.2-0.2-0.3-0.2s-0.3,0-0.4,0c-0.5,0-0.9,0-1.4-0.1h-0.1c0,0.3,0,0.6,0,0.9c0,0,0,0,0,0.1"
		/>
	<path class="st4" d="M16.9,26.7c0,0.1,0,0.2,0.1,0.3c0.5,0,0.9,0,1.4-0.1c0-0.1-0.1-0.2-0.1-0.3c0.7,0,1.3,0,2,0
		c0,0.1,0.1,0.2,0.1,0.3c0.4,0,0.8,0,1.2,0c0.1,0,0.2-0.1,0.2-0.2"/>
	<path class="st4" d="M34.2,31.5c-0.4,0-0.9,0-1.3,0c-0.2,0-0.3,0-0.5,0"/>
	<path class="st4" d="M19.6,27.5c0,0.3,0,0.7,0,1c0,0.2,0,0.4,0,0.6c0,0.1,0,0.1,0,0.2"/>
	<path class="st4" d="M59.6,27.3c0,0.6,0,1.2,0,1.8"/>
	<path class="st4" d="M50.7,41.9c0,0.4,0,0.7,0,1.1c0,0.2,0,0.4,0,0.7"/>
	<path class="st4" d="M33.2,27.3c0,0.1,0,0.1,0,0.2c0,0.5,0,1,0,1.5"/>
	<path class="st4" d="M24,32.8c0.1-0.1,0.1-0.2,0.2-0.2c0.1-0.1,0.1-0.1,0.2-0.2c0-0.2-0.1-0.3-0.1-0.5c-0.3,0-0.7,0-1,0
		c0,0.1,0,0.2,0,0.4"/>
	<path class="st4" d="M47.7,47.8c-0.2-0.2-0.4-0.2-0.6-0.2c-0.4,0-0.8,0-1.2,0c-0.1,0-0.2,0-0.2,0.1c-0.3-0.4-0.7-0.3-1.1-0.3"/>
	<path class="st4" d="M35.9,29c0.2,0.1,0.3,0.2,0.5,0.3c0,0.6-0.1,1.2-0.1,1.8"/>
	<path class="st4" d="M23.3,43.4c0,0.2,0,0.5,0,0.7c0,0.3,0,0.7-0.1,1"/>
	<path class="st4" d="M46.7,27.3c0,0.5,0,1,0,1.6c0,0,0,0.1-0.1,0.1"/>
	<path class="st4" d="M62.8,27.3c0,0.6,0,1.1,0,1.7"/>
	<path class="st4" d="M22.8,43.6c0,0.5,0,1.1,0,1.6v0.1"/>
	<path class="st4" d="M60.6,27.1c-0.4,0-0.8,0-1.3,0c0,0.3-0.2,0.2-0.4,0.3c0-0.1-0.1-0.1-0.1-0.1c-0.4,0-0.7,0-1.1,0
		c-0.1,0-0.2,0.1-0.3,0.2v0.1c-0.1,0-0.1,0-0.2,0c0-0.1,0-0.3,0-0.4"/>
	<path class="st4" d="M59.4,25.8c0.2,0,0.4,0,0.6,0c0.3,0,0.5,0,0.8,0c0.1,0,0.1,0,0.2,0c0,0.3,0,0.6,0,0.9c0.4,0,0.8,0,1.3,0
		c0-0.1,0-0.1,0-0.2"/>
	<path class="st4" d="M45.4,23.7l0.1-0.1c0-0.1-0.1-0.2-0.2-0.4c-0.4,0-0.7,0-1,0c-0.2,0.1-0.1,0.3,0,0.5c0,0.1,0.1,0.2,0.1,0.3"/>
	<path class="st4" d="M59.2,26.4c-0.1,0.1-0.1,0.2-0.2,0.3c-0.4,0-0.8,0.1-1.2,0.1c-0.1-0.1-0.1-0.3,0.1-0.3"/>
	<path class="st4" d="M25.3,27.4c0.1-0.1,0.1-0.1,0.2-0.2c0.1,0,0.2,0,0.3,0.1l0.1,0.1c0,0.5,0,1,0,1.4c0,0.1,0,0.1,0,0.2"/>
	<path class="st4" d="M56.4,27.3c0,0.6,0,1.1,0,1.7"/>
	<path class="st4" d="M50,34.7c0,0.4,0.1,0.8,0.1,1.2c0,0.2,0,0.3,0,0.5"/>
	<path class="st4" d="M29.4,46c0,0.6-0.1,1.1-0.1,1.7"/>
	<path class="st4" d="M37.3,29.4c0,0.3,0,0.5,0,0.8c0,0.1-0.1,0.2-0.1,0.3c-0.1,0.2-0.2,0.4-0.3,0.6"/>
	<path class="st4" d="M43.9,40.5c0,0.3,0,0.7,0,1s0,0.5,0,0.8c0,0.1,0,0.1,0,0.2"/>
	<path class="st4" d="M53.9,27.3c0,0.5,0,1.1,0,1.6c0,0,0,0,0,0.1"/>
	<path class="st4" d="M16,27.4c0,0.2,0,0.3,0,0.5c0,0.3,0,0.7,0,1c0,0.1,0,0.1,0,0.2"/>
	<path class="st4" d="M43.7,36.9c0,0.5,0,1,0,1.4c0,0.3,0,0.5,0.1,0.8l0,0"/>
	<path class="st4" d="M60.1,27.3c0,0.2,0,0.4,0,0.6c0,0.3,0,0.6,0,0.9c0,0.1,0,0.1,0,0.2"/>
	<path class="st4" d="M17.2,32.7c0,0.1,0,0.3,0,0.4c0,0.4,0,0.8-0.1,1.3"/>
	<path class="st4" d="M51,27.4c0,0.1-0.1,0.2-0.1,0.3c0,0.2,0,0.4-0.1,0.6c0.3,0,0.5,0,0.7,0"/>
	<path class="st4" d="M32.7,27.4v0.1c0,0.5,0,1,0,1.5"/>
	<path class="st4" d="M35.4,47.2c-0.6,0-1.1,0-1.7,0c0,0-0.1,0-0.1,0.1"/>
	<path class="st4" d="M42.4,26.1c0,0.1,0,0.2,0,0.3c-0.2,0.1-0.3,0.3-0.5,0.4c-0.1,0.1-0.2,0.1-0.3,0.1c-0.2,0-0.4,0-0.6,0
		c-0.1,0-0.1,0-0.2,0c0-0.1,0-0.2,0-0.4c-0.4,0-0.9,0-1.3,0c-0.1,0-0.2,0-0.2-0.1"/>
	<path class="st4" d="M39.1,27.4c0,0.5-0.1,0.9-0.1,1.4c0.1,0.1,0.2,0.1,0.3,0.2"/>
	<path class="st4" d="M63.3,27.3c0,0.3,0,0.6,0,0.9c0,0.2,0,0.5,0,0.7V29"/>
	<path class="st4" d="M33.6,47.7c0.6,0,1.1,0,1.7,0"/>
	<path class="st4" d="M30.4,25.9c-0.2,0-0.4,0-0.6,0c-0.4,0-0.8,0-1.1,0h-0.1"/>
	<path class="st4" d="M57.2,29c-0.2,0.2-0.4,0.1-0.6,0.1c-0.1,0-0.2,0-0.3,0c-0.1,0.1,0,0.2,0,0.2c0.2,0,0.4-0.1,0.6-0.1"/>
	<path class="st4" d="M63.6,27.2c-0.4,0-0.7,0-1.1,0c-0.2,0-0.2,0-0.2,0.2c0,0,0,0.1-0.1,0.2c-0.1-0.1-0.1-0.1-0.1-0.2
		S62,27.3,62,27.2c-0.2,0.1-0.5-0.1-0.7,0.2c-0.3,0-0.6,0-0.9,0.2"/>
	<path class="st4" d="M62.4,27.4c0,0.5,0,1.1,0,1.6"/>
	<path class="st4" d="M25.9,27.4c0.1,0,0.3,0,0.4-0.1v0.1c0,0.2,0,0.4-0.1,0.6c0,0.4,0,0.8,0,1.2"/>
	<path class="st4" d="M52.4,23.4c0.4,0.1,0.8,0.1,1.2,0.2c0.1,0,0.3,0.1,0.4,0.1"/>
	<path class="st4" d="M25.4,27.3c0,0,0.1,0.1,0,0.1c0,0.4,0,0.8-0.1,1.2c0,0.1,0,0.2,0,0.4"/>
	<path class="st4" d="M52.6,33.1L52.6,33.1C52,33,51.5,33,50.9,33c0,0.4,0.1,0.8,0.1,1.1"/>
	<path class="st4" d="M64.4,48.1c0-0.2-0.1-0.4-0.1-0.6c-0.6,0-1.1,0-1.7,0"/>
	<path class="st4" d="M31.8,26.6c0,0.1-0.1,0.2-0.2,0.2c-0.4,0-0.7,0-1.1,0.1c-0.1-0.1-0.2-0.2-0.2-0.3"/>
	<path class="st4" d="M39.1,34c0-0.2,0-0.3,0-0.5c0.6,0,1.1,0,1.7,0.1c0-0.1,0-0.1,0-0.2c0.1,0,0.3,0,0.4,0"/>
	<path class="st4" d="M62,36.6c0,0.3,0,0.6,0,0.9c0,0.2,0,0.4,0,0.6"/>
	<path class="st4" d="M61.2,24.8c-0.3,0-0.5-0.1-0.8-0.1c-0.2,0-0.4-0.1-0.6-0.1c0,0-0.1,0.1-0.1,0.2s0,0.3,0.2,0.3
		c0.4,0.1,0.8,0.3,1.2,0.4c0.2,0.1,0.3,0.1,0.5,0.1c0,0,0.1,0,0.1,0.1"/>
	<path class="st4" d="M36.2,40.7c0,0.2-0.1,0.4-0.1,0.6c0,0.2,0,0.5,0,0.7c0,0.1,0,0.2,0.1,0.2"/>
	<path class="st4" d="M17.5,31.9c0.1,0.1,0.2,0.2,0.3,0.3c-0.1,0-0.1,0-0.2,0s-0.2,0-0.4,0c0,0-0.1,0.1-0.1,0.2
		c-0.3,0-0.6,0-0.9,0.1c0,0-0.1,0-0.1,0.1"/>
	<path class="st4" d="M53.5,27.3c0,0.4,0,0.8,0,1.2c0,0.1,0,0.2,0,0.4"/>
	<path class="st4" d="M22.4,39.6c0,0.4,0,0.7,0,1.1c0,0.2,0,0.3,0,0.5"/>
	<path class="st4" d="M45.9,27.2c0,0.2,0,0.4,0,0.7c0,0.4,0,0.7,0,1.1"/>
	<path class="st4" d="M17.4,31.9c-0.5,0-1,0-1.5,0"/>
	<path class="st4" d="M45.8,26.6c0,0-0.1,0-0.1-0.1c-0.1,0.2-0.3,0.2-0.4,0.2c-0.3,0-0.6,0-0.8,0c-0.1,0-0.3-0.1-0.4-0.1
		c0,0,0,0-0.1,0c0,0,0,0.1-0.1,0.1c-0.4,0-0.9,0-1.3,0"/>
	<path class="st4" d="M19.9,26.6c0,0.1,0,0.1,0,0.2c-0.4,0.1-0.9,0-1.3,0.1c0-0.1,0-0.2-0.1-0.3"/>
	<path class="st4" d="M16.9,28.4c0-0.2,0-0.4,0-0.6c-0.2-0.1-0.3-0.3-0.5-0.4c-0.3,0.1-0.6,0-0.8,0c0,0.3,0,0.6,0,0.9
		c0,0.1,0,0.1,0,0.2"/>
	<path class="st4" d="M43.5,40.4c0,0.4,0,0.9,0,1.3c0,0.1,0,0.2,0,0.3"/>
	<path class="st4" d="M29.9,35.4c0,0.5,0,0.9,0,1.4c0,0.8,0,1.6,0,2.4c0,0.3,0,0.7,0,1c0,0.2,0,0.4,0,0.7"/>
	<path class="st4" d="M19.8,25.3c-0.1-0.2-0.1-0.4-0.2-0.6c-0.2,0-0.4,0.1-0.6,0.1s-0.4,0.1-0.6,0.2h-0.1"/>
	<path class="st4" d="M32.2,27.5c0.1,0.1,0.1,0.2,0.1,0.3c0,0.4,0,0.8,0,1.2c0,0,0,0,0,0.1"/>
	<path class="st4" d="M40,27.3c0,0.2,0,0.4,0,0.7c0,0.1,0,0.3,0,0.4s0,0.2,0,0.3c0,0,0,0.1,0.1,0.1"/>
	<path class="st4" d="M40.7,29c0.1,0.2,0.2,0.2,0.4,0.2c0.3,0,0.6,0,0.9,0c0.1,0,0.1,0,0.2,0"/>
	<path class="st4" d="M47.6,24c-0.2,0-0.4,0-0.6,0.1c-0.3,0-0.6,0-0.9,0c-0.1,0-0.1,0-0.2,0.1"/>
	<path class="st4" d="M57.9,32.1c0.1-0.1,0.2-0.2,0.3-0.3l0.1-0.1c0-0.1,0-0.2,0-0.4c0.1,0,0.2-0.1,0.2-0.1c0.5,0,1.1,0,1.6,0
		s1.1,0,1.6,0c0.2,0,0.4,0,0.6,0.1l0,0l0,0"/>
	<path class="st4" d="M22.5,29.8c0.1,0.1,0.2,0.1,0.3,0.2c0,0,0.1,0.1,0.1,0.2c0,0.3,0,0.6,0,0.9c0,0,0,0-0.1,0.1"/>
	<path class="st4" d="M46.3,27.3c0,0.3,0,0.6,0,0.8c0,0.2,0,0.5,0,0.7"/>
	<path class="st4" d="M62.5,24.8L62.5,24.8c0.8,0.2,1.4,0.3,2.1,0.5c0.1,0,0.2,0.1,0.3,0.1c0,0.3,0,0.5,0,0.8v0.1
		c-0.3,0.4-0.7,0.9-1,1.3c-0.1,0.1-0.2,0.2-0.3,0.2"/>
	<path class="st4" d="M51.5,46.1c0,0.4,0,0.7,0,1.1c0,0.1,0,0.3,0.1,0.4"/>
	<path class="st4" d="M30.4,32.9c-0.1,0-0.1-0.1-0.2-0.1c-0.3,0-0.6-0.1-0.9-0.1c0,0,0,0-0.1,0c-0.2,0-0.3,0.1-0.5,0.1"/>
	<path class="st4" d="M23,27.5c-0.1,0.5-0.1,1-0.1,1.6"/>
	<path class="st4" d="M40.3,26.5c0,0.1,0,0.2,0,0.3c-0.4,0-0.8,0-1.1,0"/>
	<path class="st4" d="M14.3,26.7c0.2,0,0.4,0,0.6,0c0.5,0,1,0,1.5,0c0.1,0,0.1,0,0.2,0c0,0.1,0,0.2,0,0.3c-0.5,0-0.9,0-1.4,0
		c0-0.1-0.1-0.2-0.1-0.3"/>
	<path class="st4" d="M50.3,23.6c0-0.1,0-0.1,0-0.2c0.4,0.1,0.8,0.2,1.2,0.3c0,0.1,0,0.1,0,0.2l0,0c-0.4,0.4-0.8,0.7-1.2,1.1
		c0,0-0.1,0-0.1,0.1"/>
	<path class="st4" d="M36.7,32.8C36.7,32.8,36.7,32.7,36.7,32.8c-0.3-0.1-0.6-0.1-0.8-0.1c-0.1,0-0.1,0-0.2,0.1
		c-0.1,0.1-0.3,0.2-0.5,0.1c0,0,0,0-0.1,0c0,0,0,0-0.1,0c0,0.1,0,0.2,0,0.2c0.1,0.1,0.1,0.3,0,0.5c0,0,0,0.1,0,0.2"/>
	<path class="st4" d="M22.5,27.6c0,0.1,0,0.3,0,0.4c0,0.3,0,0.7,0,1"/>
	<path class="st4" d="M16.9,32.7c0,0.1,0,0.3,0,0.4c0,0.2,0,0.5,0,0.7c0,0.1,0,0.3,0,0.4"/>
	<path class="st4" d="M52.5,26.4c-0.5,0-0.9,0-1.4,0"/>
	<path class="st4" d="M41.6,45.7c0,0.5,0,0.9,0,1.4c0,0.1,0,0.3,0,0.4c0,0.1,0,0.1,0,0.2"/>
	<path class="st4" d="M39.6,27.4c0,0.3,0,0.6,0,0.9c0,0.1,0,0.2,0,0.3c0,0,0,0-0.1,0.1"/>
	<path class="st4" d="M15.5,32.1c0-0.2,0-0.4,0-0.7c0.2-0.1,0.4-0.1,0.6-0.1c0.4,0,0.7,0,1.1,0.1"/>
	<path class="st4" d="M30.2,25.9c-0.1,0.2-0.1,0.3,0,0.5c0,0.1,0,0.2,0,0.3c0,0.1-0.1,0.1-0.2,0.1c-0.3,0-0.7,0-1,0"/>
	<path class="st4" d="M23.4,27.1C23.3,26.9,23.2,27,23,27c-0.4,0-0.7,0-1.1-0.1c0,0-0.1-0.1-0.2-0.2c-0.2,0-0.5,0-0.7,0
		s-0.5,0-0.7,0h-0.1"/>
	<path class="st4" d="M59.2,27.4c0,0.1,0,0.2-0.1,0.3c0,0,0.1,0.1,0.1,0.2c0,0.3-0.1,0.7-0.1,1.1c0.1,0,0.2,0,0.3,0.1"/>
	<path class="st4" d="M19.7,25.4c-0.1-0.1-0.3-0.1-0.4-0.1c-0.4,0.1-0.8,0.2-1.2,0.3c-0.3,0.1-0.6,0.1-0.9,0.2l-0.1,0.1"/>
	<path class="st4" d="M44.1,23.4c-0.1-0.1-0.2-0.2-0.4-0.1c-0.1,0-0.1,0-0.2,0c-0.4,0-0.7,0-1.1-0.1c0,0,0,0-0.1,0"/>
	<path class="st4" d="M54.9,27.5c0-0.1,0-0.2,0-0.3l0,0c0,0,0,0-0.1,0c-0.2,0.2-0.4,0.2-0.6,0c-0.1-0.1-0.2-0.1-0.3,0
		c0-0.1,0-0.1,0-0.2c-0.3,0-0.7,0-1,0c-0.1,0.1-0.1,0.2-0.2,0.3"/>
	<path class="st4" d="M55.3,37.9c0,0.4,0,0.9,0,1.3"/>
	<path class="st4" d="M23,31.9c-0.1-0.2,0-0.4,0-0.6c-0.5,0.1-0.9,0-1.3,0.2"/>
	<path class="st4" d="M18.6,46.3c0,0.5,0.1,1,0.1,1.4"/>
	<path class="st4" d="M40.4,46.3C40.5,46.3,40.5,46.3,40.4,46.3c0.1-0.1,0.1-0.2,0.2-0.3c-0.2,0-0.3-0.1-0.4-0.1c-0.3,0-0.5,0-0.8,0
		c-0.1,0-0.1,0-0.2,0.1"/>
	<path class="st4" d="M39.5,47.6c0-0.2,0.1-0.4,0.1-0.6c0-0.1,0-0.2,0-0.3c0-0.2,0-0.3,0-0.5c0.2-0.1,0.8,0,0.9,0c0,0.3,0,0.5,0,0.7
		c0,0.1,0,0.2,0,0.3s0,0.3,0,0.4"/>
	<path class="st4" d="M55.8,26.6c0,0.1,0,0.1,0,0.2c-0.4,0-0.9,0-1.3,0c-0.1,0-0.1,0-0.2,0"/>
	<path class="st4" d="M39.2,46c0,0.1,0,0.1,0.1,0.2c0.1,0.1,0.1,0.3,0,0.5c0,0.1,0,0.3,0,0.4c0,0.1,0,0.3,0,0.4
		c0,0.1-0.1,0.2-0.2,0.2c-0.1,0-0.2,0-0.3,0c0-0.1-0.1-0.1-0.2-0.2c-0.2,0-0.3,0-0.5,0c-0.1,0-0.1,0-0.2,0"/>
	<path class="st4" d="M50.7,26.5c0,0.1,0,0.1,0,0.2c-0.5,0.1-0.9,0-1.4,0c0-0.1,0-0.2,0-0.4"/>
	<path class="st4" d="M42,27.2c-0.1-0.1-0.3,0-0.4,0c-0.3,0-0.6,0-0.9-0.1l0,0c-0.1,0.1-0.1,0.1-0.2,0.2c-0.1,0-0.2,0-0.3,0
		c-0.4,0-0.9,0-1.4,0c0,0.1,0,0.1,0,0.2c0,0,0,0.1-0.1,0.1c-0.3,0-0.5,0-0.8,0c-0.2,0-0.3,0-0.5,0c-0.1,0-0.2,0-0.2-0.1
		c0,0-0.1,0-0.2,0c0,0.3,0,0.5,0,0.7c0,0,0,0-0.1,0"/>
	<path class="st4" d="M48.6,33.3c-0.2-0.1-0.5,0-0.7,0c-0.2,0.1-0.4,0.1-0.7,0.2"/>
	<path class="st4" d="M24.2,33.4c-0.1,0-0.1-0.1-0.2-0.1c0-0.1,0.1-0.2,0.1-0.3c-0.1-0.2-0.3-0.2-0.4-0.3c-0.4-0.1-0.8-0.1-1.2,0
		c-0.2,0-0.3,0.2-0.5,0.2c-0.1,0-0.1,0-0.2,0.1"/>
	<path class="st4" d="M62,39.1c0,0.2,0,0.3,0,0.5c0,0.3,0,0.5,0,0.8"/>
	<path class="st4" d="M34.4,28c-0.2,0.1-0.2,0.2,0,0.4c0.3,0,0.6,0,0.9,0"/>
	<path class="st4" d="M59.3,26.3c-0.1,0-0.2,0-0.4,0c-0.4,0-0.7,0-1.1,0.1"/>
	<path class="st4" d="M51.1,26.6c0.1,0,0.1,0,0.2,0c0.1,0,0.1,0,0.2,0c0.3-0.1,0.5,0,0.7,0c0.3-0.1,0.5-0.1,0.7-0.1
		c0.1,0.1,0.1,0.1,0.2,0.2c0.3,0,0.6,0,1,0c0-0.1,0.1-0.1,0.1-0.2c0,0.1,0.1,0.1,0.1,0.2"/>
	<path class="st4" d="M13.8,25.6c0,0.1,0,0.2,0,0.3c-0.1,0-0.2,0-0.3,0c0,0.1,0,0.1-0.1,0.2c0.2,0.1,0.5,0.1,0.7,0.1"/>
	<path class="st4" d="M48.3,23.3c-0.2,0-0.3,0-0.5,0c-0.1,0-0.2-0.1-0.3-0.2c-0.1,0-0.1-0.1-0.2-0.1c-0.1,0.1-0.1,0.1-0.2,0.2
		C47,23.1,47,23.1,46.9,23c-0.2,0-0.5,0-0.8-0.1c0,0.2-0.2,0.1-0.3,0.1c-0.1,0.2-0.3,0.4-0.4,0.6"/>
	<path class="st4" d="M22.9,26c-0.4,0-0.9,0-1.3,0.1"/>
	<path class="st4" d="M57.5,25.7c-0.5,0-1,0.1-1.5,0.1c-0.2,0-0.4,0-0.7,0c-0.1,0-0.1,0-0.2,0c-0.2,0.1-0.4,0.1-0.6,0.1
		c-0.2,0-0.2,0-0.2,0.2s0,0.4,0.1,0.6"/>
	<path class="st4" d="M36.1,27.8c-0.1,0-0.1-0.1-0.2-0.1c0-0.1-0.1-0.1-0.1-0.2c-0.4,0-0.7,0-1.1,0c0,0.2-0.1,0.3-0.1,0.5
		c-0.1,0-0.2,0-0.2,0c-0.1-0.1-0.2,0-0.3,0"/>
	<path class="st4" d="M43,27.3c-0.1,0.2-0.2,0.5-0.1,0.8c0,0.3,0,0.6,0,0.8c0,0.1,0,0.1,0,0.2"/>
	<path class="st4" d="M18.7,29.3c0-0.3,0-0.6,0-0.9c0-0.1,0.1-0.1,0.1-0.2l0,0c0-0.3,0-0.5,0-0.8c0.1-0.1,0.2-0.1,0.4-0.2
		c0.3,0.2,0.6,0.3,0.8,0.5c0,0.5,0,0.9,0,1.4"/>
	<path class="st4" d="M28.7,27.4c0,0.1,0,0.2,0,0.2c0,0.1,0,0.2,0.1,0.3c0.1,0,0.3,0,0.4,0c0-0.2-0.1-0.4-0.1-0.5
		c0.1,0,0.2,0,0.2-0.1c0,0.6,0,1.2,0,1.8"/>
	<path class="st4" d="M39,33.7c-0.2,0-0.5,0-0.7,0c-0.1,0-0.3,0-0.4,0.1c-0.1,0-0.2,0.1-0.3,0.1"/>
	<path class="st4" d="M50.4,23.6c-0.1,0-0.1,0-0.2,0c-0.1-0.1-0.2-0.2-0.3-0.3c-0.1-0.1-0.2-0.1-0.2-0.1c-0.1,0-0.3-0.1-0.4-0.1
		c-0.1,0-0.2,0-0.3,0.1"/>
	<path class="st4" d="M62.8,32.5c0,0.2,0.1,0.5,0.1,0.7c0,0.3,0,0.5,0,0.8v0.1"/>
	<path class="st4" d="M61.7,32.7c0,0.1,0,0.2,0,0.3c0,0.3,0,0.6,0.1,1"/>
	<path class="st4" d="M23,26.5c-0.2,0-0.3,0-0.5,0.1c-0.2,0-0.4,0-0.6,0c-0.1,0-0.1,0-0.2,0.1"/>
	<path class="st4" d="M56.7,31.1c0-0.5,0-1-0.1-1.5h-0.1"/>
	<path class="st4" d="M29.8,24.4c0,0.4,0,0.7,0,1.1v0.1"/>
	<path class="st4" d="M56.8,46.1c0.1,0,0.3,0,0.4,0.1c0,0.5,0.1,0.9,0.1,1.3"/>
	<path class="st4" d="M61.4,32.7c0,0.5,0,0.9-0.1,1.4c0,0.1,0,0.2,0,0.3"/>
	<path class="st4" d="M47.9,34.3c0,0.4,0,0.7,0,1.1c0,0.1,0,0.1,0,0.2"/>
	<path class="st4" d="M52.6,27.3c0,0.1,0,0.2,0,0.3c0,0.4,0,0.8,0,1.3c0,0,0,0,0,0.1"/>
	<path class="st4" d="M37.8,28.1c0.1,0,0.1,0,0.2,0c0.2,0,0.3,0,0.3,0.3c0,0.1,0,0.3,0,0.4C38.2,29,38.1,29,37.9,29"/>
	<path class="st4" d="M41.3,30.8c0,0.1,0,0.2,0,0.3c0.1,0,0.2,0,0.3,0c0,0.4,0,0.7-0.1,1.1c0.1,0.1,0.2,0.2,0.3,0.3l0.1,0.1"/>
	<path class="st4" d="M49.2,26.4c0,0.1,0,0.1,0,0.2s-0.1,0.1-0.2,0.1c-0.3,0-0.5,0.1-0.8,0.1c-0.1,0-0.2-0.1-0.3-0.1h-0.1
		c-0.1,0.1-0.1,0.1-0.2,0.2c0-0.1-0.1-0.1-0.1-0.2"/>
	<path class="st4" d="M54.6,26.4c0.3,0,0.6,0.1,1,0.1c0.1,0,0.3,0,0.4,0"/>
	<path class="st4" d="M54.7,32.7c-0.1,0-0.1,0.1-0.2,0.1c-0.2,0-0.5,0-0.7,0c-0.1,0.1-0.2,0.2-0.3,0.2"/>
	<path class="st4" d="M33.4,27.3c0,0.3,0,0.7,0,1c0,0.1,0,0.1,0,0.2"/>
	<path class="st4" d="M49.6,29.3c0.2,0,0.4,0,0.6,0c-0.1,0.2-0.2,0.3-0.2,0.4c0,0.4,0,0.9,0,1.3"/>
	<path class="st4" d="M28.8,28c0,0.4,0,0.8,0,1.2"/>
	<path class="st4" d="M18.2,26.6c-0.2,0-0.4,0-0.6,0c-0.3,0-0.6,0-0.9,0c0,0,0,0-0.1,0"/>
	<path class="st4" d="M63,45.5L63,45.5c0,0.4,0,0.7,0,1c0,0.1,0,0.1,0.1,0.1"/>
	<path class="st4" d="M39.8,46.6C39.8,46.6,39.8,46.7,39.8,46.6c0,0.4-0.1,0.8-0.1,1.2"/>
	<path class="st4" d="M56.9,27.6c0,0.4,0,0.9,0,1.3"/>
	<path class="st4" d="M50.9,26.4c-0.4,0-0.8,0-1.2,0c-0.1,0-0.1,0-0.2,0"/>
	<path class="st4" d="M39.3,26.3C39.3,26.3,39.3,26.4,39.3,26.3c-0.1,0.2-0.2,0.2-0.2,0.3c-0.1,0-0.2,0.1-0.2,0
		c-0.1-0.2-0.3-0.1-0.5-0.1c-0.3,0-0.6,0-0.9,0"/>
	<path class="st4" d="M51.4,25.8c-0.3,0-0.6,0-0.9,0c-0.1,0-0.2,0.1-0.3,0.1c-0.3,0.1-0.6,0.2-0.8,0.2"/>
	<path class="st4" d="M49.4,32.5c0,0.4,0,0.9,0,1.3c0.3,0.1,0.7,0.1,1,0.2"/>
	<path class="st4" d="M44.7,31.8c-0.2-0.1-0.4-0.1-0.6-0.1c-0.2,0-0.4,0-0.5,0"/>
	<path class="st4" d="M50,23.7c0,0.7-0.1,1.4-0.1,2.1c0,0,0,0,0,0.1"/>
	<path class="st4" d="M61.3,27.6c-0.1,0-0.3,0.1-0.3,0.3c0,0.3,0,0.5,0.3,0.7c0,0,0,0,0.1,0.1"/>
	<path class="st4" d="M39.6,25.9c-0.2,0-0.4,0-0.6,0c-0.2,0-0.4,0-0.6,0"/>
	<path class="st4" d="M37.4,26.5c0,0.1,0,0.2,0,0.3c0.4,0,0.8,0,1.2,0.1c0-0.1,0-0.2,0.1-0.3"/>
	<path class="st4" d="M24.5,27.3c-0.1,0-0.2,0-0.3,0c-0.2,0-0.4,0-0.5-0.1l-0.1-0.1c-0.3,0.1-0.5,0.3-0.7,0.3c-0.4,0-0.7,0-1,0
		c-0.1,0-0.1,0.1-0.2,0.2c0,0-0.1-0.1-0.2-0.2c-0.1,0-0.1,0.1-0.1,0.2s0,0.1,0.3,0.3c0,0.1,0,0.2,0,0.3c0.1,0,0.2,0.1,0.4,0.1"/>
	<path class="st4" d="M56,27.5c0,0.1,0,0.3,0,0.4c0,0.3,0,0.7,0,1c0,0,0,0.1,0.1,0.1"/>
	<path class="st4" d="M49.6,47.6c0,0.1-0.1,0.2-0.1,0.3c-0.4-0.1-0.8-0.1-1.2-0.1"/>
	<path class="st4" d="M47.6,26.4c0.3,0,0.5,0,0.8,0.1c0.2,0,0.3,0,0.5,0"/>
	<path class="st4" d="M18.7,32c-0.3,0-0.6-0.1-0.9-0.1c-0.1,0-0.1,0-0.2,0"/>
	<path class="st4" d="M24.1,25.6c0,0.3-0.1,0.7-0.1,1v0.1"/>
	<path class="st4" d="M44.3,24.9c-0.3,0-0.6,0.1-0.9,0.1c-0.1,0-0.1,0-0.2,0"/>
	<path class="st4" d="M32.1,33.5c-0.3,0-0.4,0.2-0.5,0.3c-0.2,0.2-0.2,0.4-0.2,0.6"/>
	<path class="st4" d="M38,45.9c0.3,0,0.6,0,1,0c0.1,0,0.2,0,0.2,0.1"/>
	<path class="st4" d="M49.7,32.6c0,0.3,0,0.6,0,0.9c0,0.1,0,0.1,0,0.2"/>
	<path class="st4" d="M40.3,29L40.3,29c-0.4,0-0.7,0-1,0"/>
	<path class="st4" d="M16.8,47.9c0.4,0,0.9,0,1.3,0"/>
	<path class="st4" d="M43.9,23.2c0-0.2,0-0.4,0.1-0.6c-0.2,0-0.3,0-0.5,0"/>
	<path class="st4" d="M29.3,27.5c0.2,0,0.2,0,0.3,0.2c0,0.1,0,0.3,0.1,0.4v0.1c0,0.3,0,0.6,0,0.9"/>
	<path class="st4" d="M50.3,32.7c0,0.3,0,0.7,0.1,1c0,0.1,0,0.2,0,0.3"/>
	<path class="st4" d="M50.2,44.4c-0.2,0.1-0.4,0-0.6,0c-0.2,0-0.3-0.1-0.5-0.1"/>
	<path class="st4" d="M50.8,27.2C50.9,27.2,50.9,27.2,50.8,27.2C50.9,27.2,50.9,27.2,50.8,27.2c0-0.1-0.1,0-0.2,0l-0.1,0.1
		c0,0.1,0,0.1,0,0.2c-0.1,0.3,0,0.7-0.1,1c0,0.2,0,0.4,0,0.6"/>
	<path class="st4" d="M50.4,27.8c0,0-0.1,0-0.1-0.1c-0.1-0.2-0.3-0.2-0.6-0.2c-0.1,0-0.2,0-0.3,0c-0.1-0.1-0.2-0.2-0.3-0.3
		c-0.3,0.1-0.5,0.2-0.8,0.3c0-0.1-0.1-0.1-0.1-0.2c-0.3,0-0.6-0.1-0.9-0.1c-0.1,0.1-0.2,0.1-0.4,0c-0.2,0-0.4,0-0.6,0"/>
	<path class="st4" d="M43,29.6c0,0.3,0,0.7,0,1c0,0.1-0.1,0.1-0.1,0.2c0,0,0,0.1-0.1,0.1"/>
	<path class="st4" d="M55.2,45.2c0,0.6,0,1.1,0,1.7"/>
	<path class="st4" d="M53.2,27.4C53.1,27.3,53.2,27.4,53.2,27.4c-0.1,0.4-0.1,0.8-0.1,1.1c0,0.2,0,0.3,0,0.5"/>
	<path class="st4" d="M21.6,26.6c0-0.2,0-0.4,0-0.6c-0.4,0-0.8,0-1.1,0c-0.1,0-0.1,0-0.2,0"/>
	<path class="st4" d="M61.6,39.3c0,0.3,0,0.6,0,0.9c0,0.1,0,0.1,0,0.2"/>
	<path class="st4" d="M36.8,27.5c0,0.3,0,0.7,0,1"/>
	<path class="st4" d="M48.7,28.1c-0.2,0-0.3,0-0.5,0c0-0.1,0-0.2-0.1-0.3c-0.3,0.1-0.6,0.1-0.9,0.2"/>
	<path class="st4" d="M28.5,33.6c-0.4,0-0.8-0.1-1.2-0.1"/>
	<path class="st4" d="M43.1,40.9c0,0.1,0,0.2,0,0.3c0,0.3,0,0.5,0,0.8"/>
	<path class="st4" d="M50.1,32.5c0,0.3,0,0.7,0,1c0,0.1,0,0.1,0,0.2"/>
	<path class="st4" d="M24.8,46.4c0,0.3,0,0.5,0,0.8c0,0.1,0,0.1,0,0.2"/>
	<path class="st4" d="M62.3,47.4c-0.2,0-0.3,0-0.5,0c-0.1,0-0.3,0-0.4,0.1c-0.1,0-0.2,0.1-0.3,0"/>
	<path class="st4" d="M59.7,47.3c0.1,0,0.1,0.1,0.2,0.1c0.3,0,0.6,0.1,0.9,0.1"/>
	<path class="st4" d="M43.9,27.9c-0.2,0-0.2,0.1-0.3,0.2c0.1,0.2,0.1,0.4-0.1,0.6c0,0.1,0,0.1,0,0.2"/>
	<path class="st4" d="M32.9,25.9c-0.3,0-0.7,0-1,0"/>
	<path class="st4" d="M27.7,25.3c0.1,0.2,0.3,0.3,0.4,0.5l0,0c0.1,0,0.2,0,0.2,0c0,0.1,0.1,0.1,0.1,0.1"/>
	<path class="st4" d="M42,28c0-0.3,0-0.5,0-0.8c0.2,0,0.3,0,0.4,0c0,0.6,0,1.2,0,1.8v0.1"/>
	<path class="st4" d="M29.1,29.2c0.3,0,0.5,0,0.8,0H30c-0.1,0.2-0.2,0.4-0.3,0.6c-0.1,0.2-0.1,0.4,0,0.6"/>
	<path class="st4" d="M38.9,29.4C38.8,29.4,38.8,29.4,38.9,29.4c-0.3-0.1-0.6-0.1-0.9-0.1"/>
	<path class="st4" d="M57.2,27.3c-0.1,0-0.2,0-0.2,0.2c-0.1,0-0.2,0-0.3,0c0-0.2-0.1-0.3-0.1-0.5c-0.3,0-0.5,0.1-0.8,0.1
		c-0.1,0.1-0.1,0.2-0.1,0.3"/>
	<path class="st4" d="M30.5,33.5c0,0.4,0,0.7,0,1.1"/>
	<path class="st4" d="M16.3,42.6c0,0.3,0,0.5-0.1,0.8c0,0.1,0,0.1,0,0.2h-0.1"/>
	<path class="st4" d="M45.2,28.5c-0.4,0-0.8,0-1.2,0"/>
	<path class="st4" d="M20.6,27.7v0.1c-0.1,0.1-0.1,0.2-0.2,0.3c0,0.1,0,0.1,0,0.2s0,0.3,0.1,0.5c0.1,0,0.1,0,0.2,0"/>
	<path class="st4" d="M41.6,44.7c0.1,0.3,0,0.6,0,0.9"/>
	<path class="st4" d="M64.8,26.4c-0.2,0-0.4,0-0.6,0c-0.6,0-1.1,0-1.7,0"/>
	<path class="st4" d="M30.2,46.8c0,0.3,0,0.5,0,0.8c0,0.1,0,0.1,0,0.2"/>
	<path class="st4" d="M40.3,27.3c0,0.2,0,0.4,0,0.6c0,0.3,0,0.5,0,0.8c0,0.1,0,0.1,0,0.2"/>
	<path class="st4" d="M47.5,26.6l-0.1,0.1c-0.1,0-0.2,0-0.3,0.1c0,0.1-0.2,0.1-0.3,0.1s-0.2,0-0.3,0"/>
	<path class="st4" d="M42.9,31.8L42.9,31.8c-0.4,0.1-0.9-0.1-1.3,0"/>
	<path class="st4" d="M47.5,43.1c0,0.3,0,0.6,0,0.9"/>
	<path class="st4" d="M23.5,25.7c0.5-0.1,0.9-0.2,1.4-0.3c0,0.2,0,0.3,0,0.5c0.2,0,0.5,0,0.7,0c0.3,0,0.6,0,0.8,0c0.2,0,0.4,0,0.6,0
		"/>
	<path class="st4" d="M43.4,29.4c0,0.3-0.1,0.6-0.1,0.9c0.1,0.2,0.3,0.4,0.4,0.6c-0.1,0.1,0,0.2-0.1,0.3"/>
	<path class="st4" d="M34.9,33.7c0.1,0,0.2,0,0.3,0.1c0.1,0,0.2,0.2,0.2,0.3c0,0.2,0,0.4-0.1,0.6"/>
	<path class="st4" d="M39,33.5c-0.3,0-0.6,0-0.9-0.1"/>
	<path class="st4" d="M40,46.3c0,0.3,0,0.6,0,0.9"/>
	<path class="st4" d="M17.1,28.6c0.1,0.1,0.1,0.2,0.2,0.3c0.1-0.1,0.3-0.1,0.4-0.2c0.1,0,0.1,0.1,0.2,0.1s0.1-0.1,0.2,0
		c0,0,0.1,0,0.2,0"/>
	<path class="st4" d="M41.6,45.9c-0.3,0-0.6,0-0.9,0"/>
	<path class="st4" d="M21.9,31.5c0.2,0.1,0.5,0.2,0.7,0.3c0.1,0,0.1,0,0.2,0.1"/>
	<path class="st4" d="M56.6,47.3c-0.4,0-0.8,0-1.3,0c0-0.1,0-0.1,0-0.2"/>
	<path class="st4" d="M36.2,45.5c-0.2,0-0.3,0-0.5,0c-0.1,0-0.2,0-0.4,0"/>
	<path class="st4" d="M35.7,27.4c0.1,0,0.1,0.1,0.1,0.2c0,0.4,0,0.8,0,1.2c-0.1,0-0.1-0.1-0.2-0.1"/>
	<path class="st4" d="M45.5,27c0,0.1-0.1,0.2-0.1,0.3c-0.3,0-0.5,0.1-0.8,0.3c0-0.1,0-0.2,0-0.3c-0.1,0-0.2,0-0.2,0.1s0,0.2-0.1,0.3
		c-0.2,0-0.4,0.1-0.6,0.1"/>
	<path class="st4" d="M41.3,27.5c-0.1-0.1-0.2-0.1-0.3,0c-0.1,0-0.2,0.1-0.2,0.1c0,0.3,0.2,0.4,0.3,0.5c0.2,0.1,0.4-0.1,0.6-0.1
		c0.2,0.1,0.4,0.1,0.7,0.2"/>
	<path class="st4" d="M23.6,25.7c0,0.3,0,0.5,0,0.8c0,0.1,0,0.2,0,0.4c0.2,0,0.4,0.1,0.6,0.1c0.3-0.3,0.7-0.5,1.2-0.3
		c0-0.3,0-0.6,0-0.9"/>
	<path class="st4" d="M49.3,28.2c0-0.1,0-0.2,0-0.4c0,0,0,0-0.1,0C49.1,28,49,28.1,49,28.3c-0.1,0.2-0.1,0.3-0.2,0.5
		c0,0,0.1,0,0.1,0.1c0,0,0,0,0,0.1"/>
	<path class="st4" d="M27.3,25.1c0,0.3,0,0.6-0.1,0.8"/>
	<path class="st4" d="M28.6,22.5v0.1c0.1,0.3,0.1,0.5,0.2,0.9c0.1,0.1,0.3,0.3,0.5,0.4"/>
	<path class="st4" d="M50.6,40.7c0,0.2,0,0.3,0,0.5c0,0.1,0,0.2,0,0.4"/>
	<path class="st4" d="M36.6,43.6c0,0.2,0,0.5,0,0.7c0,0.1,0,0.2,0,0.3s0,0.1,0.1,0.2"/>
	<path class="st4" d="M61.7,34c0,0.3,0,0.6,0,0.8"/>
	<path class="st4" d="M21.1,47.9c0.4,0,0.7,0,1.1,0h0.1"/>
	<path class="st4" d="M59.1,47.3c-0.3,0-0.6,0-0.8,0.1"/>
	<path class="st4" d="M35.5,35.3c0,0.2-0.1,0.3-0.1,0.5s0,0.3,0,0.5"/>
	<path class="st4" d="M15.6,32.1c0.2,0.2,0.4,0.5,0.5,0.7c0.5-0.2,1-0.2,1.4-0.2c0.1,0,0.2,0.1,0.3,0.2c0,0,0.1,0,0.2-0.1"/>
	<path class="st4" d="M42.5,31.8C42.4,31.9,42.2,32,42,32c-0.1,0-0.2,0-0.3,0.1c0,0,0,0.1,0.1,0.1"/>
	<path class="st4" d="M11.7,51.6v-1.1c0.2,0,0.4,0,0.6,0c0.1,0,0.1,0,0.2,0"/>
	<path class="st4" d="M38.5,27.5l-0.1,0.1c-0.2,0.1-0.3,0.2-0.5,0.3c-0.1,0-0.1,0.1-0.2,0.2c0,0-0.1,0-0.1-0.1"/>
	<path class="st4" d="M44.7,32.1c0.1,0,0.3,0.1,0.4,0.1c-0.1,0.1-0.2,0.2-0.2,0.3c-0.1,0.1-0.1,0.1-0.1,0.2c0,0-0.1,0-0.1,0.1"/>
	<path class="st4" d="M41.9,46c0.3,0,0.5,0.1,0.8,0.1"/>
	<path class="st4" d="M56.1,37.2c0,0.4,0,0.8,0,1.3v0.1"/>
	<path class="st4" d="M24.3,34.5c0,0.3,0,0.5,0,0.8"/>
	<path class="st4" d="M42.9,25c0.1-0.1,0.1-0.1,0.2,0c0.2,0.3,0.5,0.5,0.7,0.7c0,0.1,0.1,0.1,0.1,0.2"/>
	<path class="st4" d="M44.2,43.1c-0.1,0-0.2,0.1-0.2,0.1c-0.2,0.1-0.3,0.2-0.5,0.3"/>
	<path class="st4" d="M30.8,27.8c0.1-0.1,0.3,0,0.3,0.1c-0.1,0.2-0.2,0.2-0.4,0.1c-0.1-0.1-0.3-0.1-0.4-0.1s-0.2,0-0.2-0.2"/>
	<path class="st4" d="M36.3,43.6c-0.3,0-0.5,0-0.8,0.1c0,0,0,0-0.1,0"/>
	<path class="st4" d="M28.4,25.6c-0.2-0.3-0.3-0.6-0.5-0.9c0.1-0.1,0.2-0.3,0.2-0.4c-0.1,0-0.2,0-0.2-0.1s0-0.1,0-0.2
		c-0.1-0.1-0.3-0.1-0.3-0.3c-0.2,0-0.4,0.1-0.6,0.1c0.1,0.3,0.2,0.4,0.5,0.5c0,0.1-0.1,0.2-0.1,0.3c0.1,0.1,0.2,0.1,0.2,0.2"/>
	<path class="st4" d="M30.7,35.8c-0.3,0-0.7,0-1,0"/>
	<path class="st4" d="M28.1,28c-0.1,0.3-0.2,0.5-0.3,0.8c0.2,0,0.3,0,0.5,0c0.1-0.1,0.1-0.2,0.2-0.3c-0.1,0-0.1-0.1-0.2-0.1
		c0.1-0.1,0.2-0.2,0.3-0.3c-0.1-0.1-0.2-0.2-0.3-0.3C28.2,27.9,28.2,27.9,28.1,28"/>
	<path class="st4" d="M47.2,34.1c0.3,0,0.5,0.1,0.8,0.1"/>
	<path class="st4" d="M58.2,46.6c0,0.2,0,0.4,0,0.6c0,0.1,0,0.1,0,0.2"/>
	<path class="st4" d="M22.6,32.7c0,0.2,0,0.5,0,0.7c0,0.1,0,0.1-0.1,0.1"/>
	<path class="st4" d="M41.4,23.8c-0.2,0-0.5,0-0.7,0"/>
	<path class="st4" d="M17.8,29.5c0,0.1,0,0.2,0,0.3c0,0.1-0.1,0.3-0.2,0.4l-0.1,0.1c0,0.3,0,0.5,0,0.8"/>
	<path class="st4" d="M27.2,25.1c0,0.3-0.1,0.6-0.1,0.9"/>
	<path class="st4" d="M30.2,28.2c0,0.3,0,0.5,0,0.8l0,0"/>
	<path class="st4" d="M29.7,28.1c0-0.2,0.1-0.3,0.1-0.5h0.1c0.1-0.1,0.1-0.1,0.2-0.1c0.1-0.1,0.1-0.1,0.2-0.2
		c0.1,0.1,0.2,0.2,0.3,0.3c0.4,0,0.8,0,1.1,0"/>
	<path class="st4" d="M29.8,46.6c0,0.1,0,0.2,0,0.3c0,0.3,0,0.6,0.1,0.9"/>
	<path class="st4" d="M41.5,47.6c-0.6,0-0.7,0-0.8,0.1c-0.1,0-0.2,0-0.2-0.1"/>
	<path class="st4" d="M22.7,27.4c-0.2,0.2-0.4,0.4-0.6,0.6c0,0.4,0,0.8,0,1.1h0.1"/>
	<path class="st4" d="M34.1,27.4c-0.5-0.1-1-0.2-1.5-0.3c-0.2,0.2-0.5,0.3-0.7,0.5c0-0.1,0-0.1,0-0.2"/>
	<path class="st4" d="M43.4,29.2c-0.2,0-0.5,0-0.7,0"/>
	<path class="st4" d="M35.5,43.6c0,0.2,0,0.5,0,0.7"/>
	<path class="st4" d="M61.1,26.4c0.3,0,0.6,0,0.8,0s0.4,0,0.7,0.1"/>
	<path class="st4" d="M37.9,31.2c0.1,0.1,0.1,0.2,0.1,0.3c0,0.1,0,0.3,0,0.4c0,0.2-0.2,0.5-0.4,0.6"/>
	<path class="st4" d="M50.4,37.7c0.2,0,0.4,0,0.6,0.1c0.1,0,0.1,0,0.2,0"/>
	<path class="st4" d="M21.2,27.4c-0.2,0-0.5,0-0.7,0l0,0c-0.1-0.1-0.1-0.1-0.2-0.2c-0.1,0.1-0.2,0.3-0.2,0.4"/>
	<path class="st4" d="M66,48.8c0.3,0,0.6,0,0.9,0V50c-1,0-2,0-3,0c-1.4,0-2.8,0-4.1,0c-1.4,0-2.8,0-4.2,0c-1.3,0-2.6,0-3.8,0
		s-2.5,0-3.7,0c-1.5,0-2.9,0-4.4,0c-1.4,0-2.7,0-4.1,0c-1.2,0-2.5,0-3.7,0c-1.4,0-2.9,0-4.3,0c-1.2,0-2.4,0-3.6,0c-1.3,0-2.7,0-4,0
		s-2.6,0-3.9,0c-0.3,0-0.5,0-0.8,0c-1.1,0-2.1,0-3.2,0s-2.1,0-3.2,0h-0.1"/>
	<path class="st4" d="M51,40.3c0-0.2,0-0.4,0-0.6h-0.1"/>
	<path class="st4" d="M50.8,39.2c0,0.2,0,0.5,0,0.7"/>
	<path class="st4" d="M44.4,33.3C44.4,33.3,44.4,33.4,44.4,33.3c0.2,0.1,0.4,0,0.6,0"/>
	<path class="st4" d="M37.1,43.8c0,0.3,0,0.5,0,0.8c0,0.1,0,0.2,0.1,0.2"/>
	<path class="st4" d="M42.2,27.3c0,0.3,0,0.5-0.1,0.8"/>
	<path class="st4" d="M54.7,32.7c0.1,0.1,0.3,0.1,0.4,0.2c0,0.1,0,0.2,0.1,0.3c-0.1,0.1-0.2,0.2-0.3,0.4"/>
	<path class="st4" d="M35,46.9c-0.2,0-0.5,0-0.7,0"/>
	<path class="st4" d="M36.3,40.2c0.3,0.1,0.5,0.2,0.8,0.3c0,0.1,0,0.2,0,0.2"/>
	<path class="st4" d="M31.5,45.9L31.5,45.9c0,0.3,0.1,0.6,0.2,0.9c0,0.1,0,0.1,0,0.2"/>
	<path class="st4" d="M25.2,33.4c-0.2,0-0.4,0-0.7,0"/>
	<path class="st4" d="M63.6,45.9c0,0.3,0,0.6,0,0.8"/>
	<path class="st4" d="M62.4,31.2c0.3,0,0.7,0,1,0c0.1,0,0.2,0,0.2,0.1c0,0,0.1,0.1,0.2,0.1c0,0.2,0,0.3,0,0.5c-0.1,0-0.1,0-0.1,0
		c-0.2,0.2-0.3,0.3-0.5,0.5"/>
	<path class="st4" d="M48,33.6c-0.2,0-0.4,0.1-0.6,0.2c0,0-0.1,0-0.2,0"/>
	<path class="st4" d="M50.7,31.8c0.1,0,0.3,0,0.4,0c0.1,0,0.3,0,0.4,0"/>
	<path class="st4" d="M43.1,46.1c0,0.2,0,0.3,0,0.5c0,0.1,0,0.3,0,0.4"/>
	<path class="st4" d="M48.7,32.5c0.2,0,0.3,0,0.5,0c0.3,0,0.5,0,0.8,0c0.1,0,0.3,0,0.4,0c0.1,0,0.3,0.1,0.4,0.1l0.1,0.1"/>
	<path class="st4" d="M55.7,38c0,0.2,0,0.3,0,0.5c0,0.1,0,0.1,0,0.2"/>
	<path class="st4" d="M29.7,41.8c-0.1-0.2-0.4-0.3-0.6-0.2"/>
	<path class="st4" d="M18.4,32.6c0.1-0.2,0.1-0.3-0.3-0.3c0,0.1-0.1,0.3-0.1,0.4"/>
	<path class="st4" d="M26.8,27.5c0,0.2,0,0.4,0,0.7"/>
	<path class="st4" d="M41.2,33.3c0,0.1,0,0.2,0,0.3s0,0.2,0,0.3c0.2,0,0.3,0,0.4,0"/>
	<path class="st4" d="M18.5,28c-0.1-0.1-0.1-0.2-0.2-0.3c-0.2,0.2-0.3,0.3-0.4,0.4c0,0-0.1-0.1-0.2-0.2c-0.1,0.1-0.2,0.1-0.3,0.2
		c0-0.1-0.1-0.2-0.1-0.2h0.1"/>
	<path class="st4" d="M41.9,47.6C41.9,47.6,41.9,47.7,41.9,47.6c-0.3,0.1-0.6,0.1-0.8,0.2c-0.1,0-0.1,0.1-0.1,0.1
		c0,0.1-0.1,0.3,0,0.4"/>
	<path class="st4" d="M19.9,47.9c0.2,0.2,0.3,0.1,0.5,0.1h0.1"/>
	<path class="st4" d="M49,23.6c0,0.2,0,0.4,0,0.6c0,0.1,0,0.1,0,0.2"/>
	<path class="st4" d="M51.6,31.1c0,0.2,0,0.5,0,0.7"/>
	<path class="st4" d="M37.7,26.2c-0.2,0-0.4,0-0.6,0"/>
	<path class="st4" d="M58.4,27.8c0-0.1,0-0.2,0.1-0.3c-0.1,0-0.3,0-0.4,0c0,0.1-0.1,0.2-0.1,0.3c0,0,0,0-0.1,0"/>
	<path class="st4" d="M48.3,33.8c-0.2-0.1-0.4,0-0.6,0.1c-0.1,0-0.1,0.1-0.2,0.1"/>
	<path class="st4" d="M55.2,30.9c0,0.1,0,0.2,0,0.2c0,0.2,0,0.4,0,0.6"/>
	<path class="st4" d="M47.1,27.1c0,0.3,0,0.6,0,0.8c0,0,0,0.1,0.1,0.1c0.1,0.2,0.1,0.3,0,0.5c0,0,0,0,0,0.1"/>
	<path class="st4" d="M37,29.1C37,29.2,37,29.2,37,29.1c-0.2,0.1-0.4,0.1-0.5,0.2"/>
	<path class="st4" d="M55.6,25.5c0.1-0.1,0.2-0.1,0.3-0.2c0.2,0.1,0.4,0.1,0.6,0.2c0.1,0,0.1,0,0.1,0.1"/>
	<path class="st4" d="M26.3,27.3c0.1,0,0.1,0.1,0.2,0.1l0,0c0.1,0,0.1-0.1,0.2-0.1c0.1,0.2,0.4,0.2,0.6,0.1c0-0.2,0.2-0.2,0.3-0.2
		c0.2,0.2,0.3,0.4,0.5,0.6"/>
	<path class="st4" d="M52.5,27.3c-0.1,0.1-0.2,0.1-0.3,0.2c-0.1-0.1-0.1-0.2-0.2-0.2c-0.2,0.1-0.4,0.3-0.7,0.4c0-0.1,0-0.2,0-0.2
		c-0.1,0-0.2,0-0.3,0c0-0.1,0-0.2,0-0.3c-0.1,0-0.1,0-0.1,0"/>
	<path class="st4" d="M21.1,28c0.1,0.1,0.2,0.1,0.3,0.2c0,0.2,0,0.4-0.1,0.6c-0.1,0.1,0,0.3,0.2,0.4"/>
	<path class="st4" d="M44,31.8c0.2,0.1,0.3,0.1,0.5,0.2c0.1,0,0.2-0.1,0.3-0.2"/>
	<path class="st4" d="M36.5,27.8c0,0.1,0,0.1,0,0.2c0,0.3,0,0.6,0,0.9"/>
	<path class="st4" d="M45.4,25c0-0.1-0.1-0.1-0.2-0.1c-0.2,0-0.5,0-0.7,0"/>
	<path class="st4" d="M35.5,29v-0.1c0-0.1,0-0.3-0.1-0.3c-0.1-0.1-0.2-0.2-0.2-0.3c0-0.1-0.1-0.3-0.2-0.4c-0.1-0.1-0.2-0.1-0.3-0.1"
		/>
	<path class="st4" d="M40.3,28.3c0.1,0,0.2,0.1,0.3,0.1c0,0.2,0.2,0.3,0.3,0.4"/>
	<path class="st4" d="M47.4,33c0,0.1,0.1,0.2,0.1,0.3c0.2-0.1,0.5-0.3,0.7-0.4c0-0.1,0-0.3,0-0.4c0,0,0,0,0-0.1"/>
	<path class="st4" d="M31.4,35.2c0,0.2,0,0.4,0,0.6"/>
	<path class="st4" d="M57.2,29c0,0,0,0.1,0.1,0.1c-0.1,0.1-0.2,0.3-0.3,0.4"/>
	<path class="st4" d="M18.6,47.8c0.2-0.1,0.4,0,0.6,0c0,0,0.1,0,0.2,0"/>
	<path class="st4" d="M36.5,41.4c0,0.3,0,0.5,0,0.8v0.1"/>
	<path class="st4" d="M30.5,36.8c-0.2,0-0.4,0-0.7,0"/>
	<path class="st4" d="M36.2,44c0,0.1,0,0.3,0,0.4v0.1"/>
	<path class="st4" d="M43.4,27.4c0,0.2,0,0.4-0.1,0.6"/>
	<path class="st4" d="M45.1,24.9c0,0.2,0,0.5,0,0.7"/>
	<path class="st4" d="M58.8,28.3c-0.1-0.1-0.2,0-0.3,0s-0.3,0-0.4,0.1c0,0,0,0.1-0.1,0.1"/>
	<path class="st4" d="M61.6,24.3c0,0.1,0,0.2,0,0.2c-0.1,0.1-0.2,0.1-0.3,0.2"/>
	<path class="st4" d="M59.8,32.7c0.1-0.1,0.1-0.1,0.2-0.2c0.3-0.2,0.5-0.1,0.8,0"/>
	<path class="st4" d="M42.6,27.4c0.1-0.1,0.2-0.1,0.3-0.2c0.2,0.1,0.5,0.2,0.8,0.3c0.1,0,0.1,0.2,0.1,0.3"/>
	<path class="st4" d="M40.2,46.3c0,0.2,0,0.4,0,0.6"/>
	<path class="st4" d="M54.9,27.4c0.2,0,0.3,0,0.5,0c0-0.1,0-0.1,0-0.2c0.2,0,0.2,0,0.2,0.2v0.1"/>
	<path class="st4" d="M61.4,27.5c0.2,0,0.3,0,0.5,0c0.1,0,0.2,0.1,0.2,0.3c-0.1,0-0.3,0-0.5,0.1c0.2,0.2,0.5,0.4,0.2,0.7"/>
	<path class="st4" d="M58.8,29.3c-0.3,0-0.7,0-1,0"/>
	<path class="st4" d="M49.2,28.6c0,0.2,0,0.3,0,0.5"/>
	<path class="st4" d="M44.6,32c0.1,0.1,0.1,0.1,0,0.2c-0.1,0.1-0.2,0.3-0.3,0.4"/>
	<path class="st4" d="M24.1,28c0.1-0.2,0.2-0.4,0.3-0.6c-0.2,0-0.4,0-0.6,0"/>
	<path class="st4" d="M60.3,31.7L60.3,31.7L60.3,31.7c0.1,0.2,0,0.3-0.2,0.4c0,0,0,0.1-0.1,0.1"/>
	<path class="st4" d="M44.1,28.6c-0.1,0-0.1,0.1-0.1,0.1c0.1,0.1,0.2,0.2,0.2,0.3"/>
	<path class="st4" d="M57.6,28.1C57.7,28.2,57.7,28.2,57.6,28.1c0.1,0.2,0.1,0.3,0.1,0.4"/>
	<path class="st4" d="M51,34.5c0,0.2,0,0.3,0,0.5"/>
	<path class="st4" d="M36.5,27.5c-0.1,0-0.2-0.1-0.2,0c-0.1,0.1-0.2,0.2-0.2,0.4c0,0.2,0,0.4,0,0.5c0.1,0.1,0.3,0,0.4,0"/>
	<path class="st4" d="M44.1,27.9c0,0.2,0,0.3-0.1,0.5"/>
	<path class="st4" d="M34.1,27.3c0,0.2,0,0.4-0.1,0.6"/>
	<path class="st4" d="M61.2,24.7c0,0.1,0.1,0.3,0.2,0.3c0.1,0,0.2-0.1,0.4-0.1"/>
	<path class="st4" d="M24.2,33.5c0,0.1,0,0.1,0,0.2c0,0.1,0,0.2-0.1,0.3c0.1,0,0.1,0.1,0.2,0.1c0,0,0.1,0,0.1-0.1"/>
	<path class="st4" d="M34.9,32.1c0,0.2,0,0.3-0.1,0.5"/>
	<path class="st4" d="M29.8,29.4c-0.2,0-0.3,0-0.5,0c0-0.1-0.1-0.1-0.1-0.2"/>
	<path class="st4" d="M55.1,31.9c0,0.2,0,0.3,0,0.5"/>
	<path class="st4" d="M34.6,33.3C34.6,33.3,34.6,33.4,34.6,33.3c-0.1,0.1-0.3,0.1-0.4,0.1"/>
	<path class="st4" d="M60.4,27.5c0,0.2,0,0.3,0,0.5c0.1,0,0.2,0,0.3,0"/>
	<path class="st4" d="M47.2,33c0,0.3-0.1,0.6-0.1,0.9c0,0.1,0,0.1,0,0.2"/>
	<path class="st4" d="M45.2,27.6c-0.1,0.1-0.2,0.2-0.3,0.2h-0.1"/>
	<path class="st4" d="M28.9,46.2c-0.1,0.1-0.3,0.2-0.4,0.2"/>
	<path class="st4" d="M61.1,35.4c0,0.1,0,0.3,0,0.4"/>
	<path class="st4" d="M35.3,32.5c0.1,0,0.2-0.1,0.2,0c-0.1,0.1-0.2,0.3-0.3,0.4"/>
	<path class="st4" d="M63.3,40.4c-0.3,0-0.7-0.1-1-0.1s-0.6,0.1-0.9,0.2"/>
	<path class="st4" d="M31.6,47.1c0,0,0,0-0.1-0.1c0.2,0,0.4,0,0.6,0"/>
	<path class="st4" d="M17.9,43.5c-0.2,0-0.4-0.1-0.5-0.1c-0.2,0-0.3,0-0.5,0c-0.1,0-0.2,0-0.2,0.1"/>
	<path class="st4" d="M28.5,25.8v0.1c0,0.2-0.1,0.4-0.1,0.6"/>
	<path class="st4" d="M61,36.4c0.1,0,0.3-0.1,0.4-0.1c0-0.1,0-0.3,0-0.5c-0.1,0-0.2,0.1-0.3,0.1c0,0.2,0,0.3,0.1,0.4"/>
	<path class="st4" d="M59.4,25.9c-0.3,0-0.6,0-0.9,0c-0.1,0-0.1,0-0.2,0"/>
	<path class="st4" d="M19.2,25.8c0,0.1,0,0.2,0.1,0.3c0.5-0.3,1.1-0.5,1.6-0.7c0.1,0,0.1-0.1,0.2-0.1s0.2-0.1,0.1-0.2
		c-0.5,0.1-0.9,0.2-1.4,0.3h-0.1"/>
	<path class="st4" d="M41.7,44.2c0.2,0.1,0.4,0.1,0.7,0.2c0.1,0,0.1,0,0.2-0.1"/>
	<path class="st4" d="M50.4,27.9c-0.2,0-0.4-0.1-0.6,0.1c-0.2,0.1-0.2,0.1-0.4-0.1"/>
	<path class="st4" d="M17,42.6c-0.1,0-0.3,0-0.4,0"/>
	<path class="st4" d="M59.7,24.8c-0.1,0.1-0.2,0.2-0.1,0.4c-0.2,0-0.3,0.1-0.3,0.3c0,0.1,0,0.3,0,0.4"/>
	<path class="st4" d="M60.8,33.1c-0.1,0-0.3,0-0.4,0"/>
	<path class="st4" d="M49.3,27.5c0,0.1,0,0.3-0.1,0.4"/>
	<path class="st4" d="M24.9,26.5c0-0.1,0-0.2,0-0.3c-0.1,0-0.3,0-0.4,0"/>
	<path class="st4" d="M24.6,28.6c-0.2,0-0.4,0.1-0.5,0c0,0-0.1,0-0.2,0s-0.2,0.1-0.2,0.1c0-0.1-0.1-0.2-0.1-0.2s-0.1,0-0.1,0.1"/>
	<path class="st4" d="M33.6,47.3c0,0.1,0,0.2,0,0.3v0.1"/>
	<path class="st4" d="M62.4,45.3C62.5,45.3,62.5,45.2,62.4,45.3c0.2-0.1,0.3-0.1,0.4-0.1c0.1,0.2,0.2,0.4,0.4,0.7"/>
	<path class="st4" d="M25,47.6c-0.1,0-0.2,0-0.4,0c0,0,0,0-0.1,0.1"/>
	<path class="st4" d="M28.6,27.5c-0.1,0-0.1,0.1-0.2,0.1c0,0.1,0,0.2-0.1,0.3"/>
	<path class="st4" d="M25.2,47.4c0,0.1,0,0.3,0,0.4"/>
	<path class="st4" d="M18.9,32.3c0.1,0.1,0.3,0.1,0.4,0.2"/>
	<path class="st4" d="M44.3,44c-0.4,0-0.7,0-1.1,0c-0.1,0-0.1,0-0.1-0.1"/>
	<path class="st4" d="M62.8,32.6c-0.2,0-0.4,0-0.7,0"/>
	<path class="st4" d="M62.6,34c-0.1,0-0.2,0-0.3,0"/>
	<path class="st4" d="M47.5,28.6c0,0.1-0.1,0.2,0,0.3c0,0.1,0.2,0.1,0.2,0.2"/>
	<path class="st4" d="M37.2,27.4c-0.2,0-0.4,0.1-0.6,0.1"/>
	<path class="st4" d="M28.6,26.7c0.1,0.1,0.2,0.2,0.3,0.2"/>
	<path class="st4" d="M55.8,46.1c-0.2,0-0.4,0.1-0.6,0.1"/>
	<path class="st4" d="M61.1,36.4c0,0.1,0,0.2,0.1,0.3"/>
	<path class="st4" d="M62.3,36.5c-0.3,0.1-0.5,0.1-0.8,0.2"/>
	<path class="st4" d="M26.7,25.8c0.1-0.1,0-0.1,0-0.2c-0.1,0.1-0.3,0.2-0.4,0.3"/>
	<path class="st4" d="M36.9,42.3c0,0.1,0,0.2,0,0.3"/>
	<path class="st4" d="M54.9,32.4c-0.1,0.1-0.1,0.2-0.2,0.3"/>
	<path class="st4" d="M16.4,48c-0.1,0.1-0.3,0.3-0.4,0.4l0.1,0.1c-0.1,0-0.1,0.1-0.2,0.1"/>
	<path class="st4" d="M16.6,43.5c-0.1,0-0.2,0-0.3,0.1"/>
	<path class="st4" d="M59,28.7c-0.1,0-0.2,0.1-0.3,0.1"/>
	<path class="st4" d="M31.9,28.9c-0.1,0.2-0.2,0.3-0.4,0.3"/>
	<path class="st4" d="M61.4,36.3c0,0.1,0,0.2,0,0.3c-0.1,0.1-0.3,0.2-0.4,0.3"/>
	<path class="st4" d="M35.2,39.7c0,0.1,0,0.2,0,0.3"/>
	<path class="st4" d="M27.7,25.1c0.1,0.3,0,0.5-0.1,0.7"/>
	<path class="st4" d="M33.6,26.2c0.1,0.1,0.2,0.1,0.3,0.2l0.1,0.1"/>
	<path class="st4" d="M61.8,36.2c-0.1,0-0.3,0-0.4,0.1"/>
	<path class="st4" d="M20,32.1c0,0.1,0,0.2,0,0.3"/>
	<path class="st4" d="M43.6,43.7c0,0.1,0,0.2,0,0.3"/>
	<path class="st4" d="M18.8,39.9c0,0.1,0,0.2,0,0.3"/>
	<path class="st4" d="M58.1,28.8c0.1,0.1,0.2,0.1,0.3,0.2"/>
	<path class="st4" d="M62.6,34c0.2,0,0.3,0,0.5,0.1"/>
	<path class="st4" d="M42.5,29.2c0.1,0,0.1,0,0.1,0.1s0.1,0.1,0.1,0.2c0.1,0,0.2,0,0.3,0"/>
	<path class="st4" d="M36.4,27.5c0,0.1,0,0.2,0.1,0.3"/>
	<path class="st4" d="M46.6,33.4c-0.1,0-0.2,0-0.3-0.1"/>
	<path class="st4" d="M38.8,26.5c0,0,0.1,0,0.1-0.1c0,0.1,0,0.2,0.1,0.3c0,0,0.1,0.1,0.2,0.2l0,0v-0.1"/>
	<path class="st4" d="M62,30.7c0.1,0.1,0.1,0.1,0.2,0.2c0,0.1-0.1,0.1-0.2,0.2"/>
	<path class="st4" d="M31.5,28.8c0.1-0.1,0-0.1-0.1-0.1s-0.1,0-0.2,0.1c0,0.1,0,0.1,0.1,0.2c0,0,0,0,0.1,0"/>
	<path class="st4" d="M35.2,39.1c0,0.1,0,0.2,0,0.2"/>
	<path class="st4" d="M56.4,46c0.1,0,0.2,0,0.3,0"/>
	<path class="st4" d="M60.7,32c0.1,0.1,0.1,0.3,0.2,0.4"/>
	<path class="st4" d="M20.6,27.8c0.1,0,0.1,0.1,0.2,0.1c0,0.1,0,0.2,0,0.4"/>
	<path class="st4" d="M63.9,26.4c0,0.1,0,0.2,0,0.2c-0.4,0-0.8,0-1.2,0c0-0.1,0-0.2,0-0.3"/>
	<path class="st4" d="M59.3,25.9c0,0,0.1,0,0.1-0.1c0,0.2,0,0.3,0,0.4"/>
	<path class="st4" d="M15.4,48.4c0,0.1,0,0.1,0,0.2"/>
	<path class="st4" d="M39.3,32.7c-0.1,0-0.1,0-0.2,0"/>
	<path class="st4" d="M46.6,33.4c0.1,0.1,0.2,0.1,0.2,0.1c0,0.1,0,0.1,0,0.2"/>
	<path class="st4" d="M63.1,32.6c-0.1,0-0.2,0-0.3,0"/>
	<path class="st4" d="M44.7,28.8c0.1,0.1,0.1,0.1,0.2,0.2"/>
	<path class="st4" d="M24.6,32.1c0,0.1,0,0.2,0,0.4"/>
	<path class="st4" d="M43.3,46.1c-0.2,0-0.4,0-0.6,0.1"/>
	<path class="st4" d="M50.9,32.4c-0.1,0-0.2,0-0.3,0.1"/>
	<path class="st4" d="M36.6,27.4c0,0.1,0,0.2-0.1,0.3"/>
	<path class="st4" d="M60.4,27.1c0,0.1,0,0.2,0,0.3"/>
	<path class="st4" d="M61.6,35.8c-0.1,0-0.2,0.1-0.3,0.1"/>
	<path class="st4" d="M62.2,34c-0.3,0-0.5,0-0.8,0"/>
	<path class="st4" d="M19.3,47.6c0,0.1,0,0.2,0.1,0.2"/>
	<path class="st4" d="M18.7,41.4c0,0.1,0,0.1,0,0.2"/>
	<path class="st4" d="M55.2,31.7c0,0.1,0,0.1,0,0.2"/>
	<path class="st4" d="M61.8,29.2c0-0.1,0-0.2,0-0.2c-0.1,0-0.2,0-0.3,0"/>
	<path class="st4" d="M31.5,28.5c0.1,0,0.2,0,0.3,0"/>
	<path class="st4" d="M17.1,43.3C17,43.3,16.9,43.3,17.1,43.3"/>
	<path class="st4" d="M62.1,32.6c-0.1,0-0.2,0-0.3,0.1"/>
	<path class="st4" d="M17.3,42.5C17.2,42.5,17.2,42.6,17.3,42.5c-0.1,0.1-0.1,0.1-0.2,0.1"/>
	<path class="st4" d="M46.8,33.4L46.8,33.4"/>
	<path class="st4" d="M46.7,27C46.7,27,46.6,27,46.7,27"/>
	<path class="st4" d="M20.8,48h-0.1"/>
	<path class="st4" d="M38,29.1c-0.1,0,0,0.1,0,0.1"/>
	<path class="st4" d="M27.2,25.1h0.1l0,0c-0.1,0-0.2-0.1-0.3-0.1c0-0.2-0.1-0.4,0-0.6c-0.1-0.1-0.2-0.3-0.3-0.4
		c-0.1,0.1-0.2,0.1-0.3,0.2"/>
	<path class="st4" d="M62.6,40.5L62.6,40.5"/>
	<path class="st4" d="M48.3,27.9c0,0-0.1,0-0.1,0.1"/>
	<path class="st4" d="M28.3,28l0.1,0.1"/>
	<path class="st4" d="M39.9,27.4c0,0,0,0.1,0.1,0.1"/>
	<path class="st4" d="M36.4,28.2v0.1"/>
	<path class="st4" d="M49.3,28l0.1,0.1l0,0l0,0"/>
	<path class="st4" d="M27.6,27.4C27.6,27.4,27.6,27.5,27.6,27.4"/>
	<path class="st4" d="M25.8,25.8c0-0.1-0.1-0.1-0.2-0.1"/>
	<path class="st4" d="M31.3,31.7C31.4,31.7,31.4,31.7,31.3,31.7l0.1,0.1"/>
	<path class="st4" d="M30,28c0,0,0,0.1,0.1,0.1"/>
	<path class="st4" d="M27.7,23.8h-0.1"/>
	<path class="st4" d="M38,45.8c0,0.1,0.2,0,0.2,0.1"/>
	<path class="st4" d="M21.7,32.6h0.1"/>
	<path class="st4" d="M24.2,32.5L24.2,32.5"/>
	<path class="st4" d="M49.6,28L49.6,28"/>
	<path class="st4" d="M17.3,28L17.3,28"/>
	<path class="st4" d="M32.1,27.4L32.1,27.4L32.1,27.4"/>
	<path class="st4" d="M20.7,28C20.7,28.1,20.8,28.1,20.7,28"/>
	<path class="st4" d="M16.7,27.8C16.7,27.8,16.8,27.8,16.7,27.8"/>
	<path class="st4" d="M36.5,40.3C36.5,40.3,36.6,40.3,36.5,40.3"/>
	<path class="st4" d="M51.1,24.2L51.1,24.2C51.1,24.1,51.1,24.1,51.1,24.2"/>
	<path class="st4" d="M63.1,32.5L63.1,32.5"/>
	<path class="st4" d="M25.2,23.6C25.1,23.6,25.1,23.6,25.2,23.6"/>
	<path class="st4" d="M52.7,27.5L52.7,27.5"/>
	<path class="st4" d="M62.1,46.3C62.1,46.3,62.1,46.4,62.1,46.3"/>
	<path class="st4" d="M45.1,28.6L45.1,28.6"/>
	<path class="st4" d="M63.6,26.7C63.6,26.7,63.7,26.8,63.6,26.7"/>
	<path class="st4" d="M35.4,28.6L35.4,28.6L35.4,28.6"/>
	<path class="st4" d="M39.6,46.7C39.6,46.7,39.6,46.8,39.6,46.7"/>
	<path class="st4" d="M63.6,46.7L63.6,46.7"/>
	<path class="st4" d="M52,25.5L52,25.5"/>
	<path class="st4" d="M18,28.8C18,28.8,18,28.9,18,28.8"/>
	<path class="st4" d="M48.3,33.7L48.3,33.7"/>
	<path class="st4" d="M53.2,24.6C53.2,24.7,53.2,24.7,53.2,24.6"/>
	<path class="st4" d="M62.9,45.4C62.8,45.4,62.8,45.4,62.9,45.4"/>
	<path class="st4" d="M41.6,33.7C41.6,33.8,41.6,33.8,41.6,33.7"/>
	<path class="st4" d="M35.8,27.6C35.8,27.6,35.7,27.6,35.8,27.6"/>
	<path class="st4" d="M62.2,31.1L62.2,31.1"/>
	<path class="st4" d="M40.5,28.4L40.5,28.4L40.5,28.4"/>
	<path class="st4" d="M18.3,28.9C18.3,28.9,18.2,28.9,18.3,28.9"/>
	<path class="st4" d="M18.9,47.9L18.9,47.9"/>
	<path class="st4" d="M34.5,24.9C34.5,24.9,34.5,25,34.5,24.9"/>
	<path class="st4" d="M40.4,27.4C40.4,27.3,40.3,27.3,40.4,27.4"/>
	<path class="st4" d="M15.5,48.3C15.5,48.3,15.5,48.4,15.5,48.3"/>
	<path class="st4" d="M42.8,27.3C42.8,27.3,42.9,27.4,42.8,27.3"/>
	<path class="st4" d="M43.8,28.1C43.9,28.1,43.9,28.1,43.8,28.1"/>
	<path class="st4" d="M59.4,26C59.4,26,59.3,26,59.4,26"/>
	<path class="st4" d="M37.9,45.7c0,0.1,0,0.1,0.1,0.2l0,0v-0.1"/>
	<path class="st4" d="M42.7,27.1C42.7,27.2,42.7,27.2,42.7,27.1"/>
	<path class="st4" d="M14.9,27.3C14.9,27.3,14.8,27.4,14.9,27.3"/>
	<path class="st4" d="M16.6,27.4L16.6,27.4"/>
	<path class="st4" d="M20.7,27.7v0.1"/>
	<path class="st4" d="M35.4,28.5L35.4,28.5"/>
	<path class="st4" d="M48.8,28.9L48.8,28.9"/>
	<path class="st4" d="M44,28.9L44,28.9"/>
	<path class="st4" d="M25.6,29.7C25.6,29.7,25.6,29.8,25.6,29.7"/>
	<path class="st4" d="M62.2,30.7C62.2,30.7,62.2,30.8,62.2,30.7"/>
	<path class="st4" d="M62,30.8C62,30.8,62.1,30.8,62,30.8"/>
	<path class="st4" d="M50.8,31.7C50.8,31.8,50.8,31.8,50.8,31.7"/>
	<path class="st4" d="M19.2,31.9L19.2,31.9"/>
	<path class="st4" d="M37.9,32.4L37.9,32.4"/>
	<path class="st4" d="M35.3,32.5L35.3,32.5"/>
	<path class="st4" d="M42,32.6L42,32.6"/>
	<path class="st4" d="M16.8,32.6C16.8,32.7,16.8,32.7,16.8,32.6"/>
	<path class="st4" d="M49,23.4L49,23.4"/>
	<path class="st4" d="M45.6,23.5L45.6,23.5"/>
	<path class="st4" d="M26,24.2L26,24.2"/>
	<path class="st4" d="M26.8,24.2C26.9,24.2,26.9,24.2,26.8,24.2"/>
	<path class="st4" d="M27.6,24.6C27.5,24.6,27.5,24.6,27.6,24.6"/>
	<path class="st4" d="M64.9,24.7L64.9,24.7"/>
	<path class="st4" d="M64.9,25.2C64.9,25.2,64.9,25.1,64.9,25.2"/>
	<path class="st4" d="M57.6,25.3L57.6,25.3"/>
	<path class="st4" d="M22,25.4C22,25.4,21.9,25.5,22,25.4"/>
	<path class="st4" d="M25.8,25.5C25.8,25.6,25.8,25.6,25.8,25.5"/>
	<path class="st4" d="M27.5,25.7L27.5,25.7"/>
	<path class="st4" d="M61.7,29.2L61.7,29.2"/>
	<path class="st4" d="M30.3,27.5L30.3,27.5"/>
	<path class="st4" d="M26.2,27.5L26.2,27.5"/>
	<path class="st4" d="M47.1,28.5L47.1,28.5"/>
	<path class="st4" d="M24.2,32.6L24.2,32.6"/>
	<path class="st4" d="M35.3,32.6C35.2,32.6,35.2,32.6,35.3,32.6C35.2,32.6,35.2,32.7,35.3,32.6"/>
	<path class="st4" d="M20.2,29.5L20.2,29.5C20.2,29.5,20.2,29.6,20.2,29.5"/>
	<path class="st4" d="M35.7,32.7L35.7,32.7"/>
	<path class="st4" d="M55.3,32.6C55.4,32.7,55.4,32.7,55.3,32.6C55.3,32.7,55.3,32.7,55.3,32.6"/>
	<path class="st4" d="M52.1,27.4C52.1,27.5,52.1,27.5,52.1,27.4"/>
	<path class="st4" d="M21.4,25.3L21.4,25.3"/>
	<path class="st4" d="M54.7,27.4L54.7,27.4"/>
	<path class="st4" d="M27.4,27.4L27.4,27.4C27.4,27.4,27.4,27.5,27.4,27.4"/>
	<path class="st4" d="M33.2,26C33.2,26,33.2,26.1,33.2,26"/>
	<path class="st4" d="M20.9,25.3C20.9,25.3,20.8,25.3,20.9,25.3C20.8,25.3,20.8,25.3,20.9,25.3"/>
	<path class="st4" d="M52.7,26l0.1,0.1"/>
	<path class="st4" d="M35.5,32.8C35.6,32.8,35.6,32.8,35.5,32.8"/>
	<path class="st4" d="M27.2,27.4L27.2,27.4"/>
	<path class="st4" d="M17.6,28.6L17.6,28.6"/>
	<path class="st4" d="M42.7,27.3C42.7,27.4,42.7,27.4,42.7,27.3"/>
	<path class="st4" d="M37.4,27.3C37.4,27.3,37.5,27.4,37.4,27.3"/>
	<path class="st4" d="M45.1,28.6L45.1,28.6"/>
	<path class="st4" d="M61.3,35.9C61.3,35.9,61.4,36,61.3,35.9"/>
	<path class="st4" d="M14,26L14,26"/>
	<path class="st4" d="M50.9,27.2C50.9,27.3,50.9,27.3,50.9,27.2"/>
	<path class="st4" d="M22.4,25.2C22.3,25.2,22.3,25.2,22.4,25.2"/>
	<path class="st4" d="M43.1,30.9L43.1,30.9"/>
	<path class="st4" d="M62.2,27.2L62.2,27.2"/>
	<path class="st4" d="M52.9,27.2L52.9,27.2"/>
	<path class="st4" d="M22.1,33L22.1,33"/>
	<path class="st4" d="M62.3,30.8L62.3,30.8"/>
	<path class="st4" d="M62.3,25.2C62.2,25.2,62.2,25.2,62.3,25.2"/>
	<path class="st4" d="M23.3,29.7C23.2,29.7,23.2,29.7,23.3,29.7"/>
	<path class="st4" d="M42.8,29.3L42.8,29.3"/>
	<path class="st4" d="M30.4,27.1C30.4,27.2,30.4,27.2,30.4,27.1C30.3,27.2,30.4,27.2,30.4,27.1"/>
	<path class="st4" d="M26.4,27.1C26.4,27.2,26.4,27.2,26.4,27.1"/>
	<path class="st4" d="M18.4,27.1L18.4,27.1C18.4,27.1,18.4,27.2,18.4,27.1"/>
	<path class="st4" d="M61.7,24.6L61.7,24.6"/>
	<path class="st4" d="M47.6,33.2L47.6,33.2"/>
	<path class="st4" d="M49.1,27C49,27.1,49,27.1,49.1,27C49,27.1,49,27.1,49.1,27"/>
	<path class="st4" d="M31.4,41.2L31.4,41.2"/>
	<path class="st4" d="M20,29.4C20.1,29.4,20.1,29.4,20,29.4"/>
	<path class="st4" d="M30.1,26.9L30.1,26.9C30.1,27,30,27,30.1,26.9"/>
	<path class="st4" d="M30.4,26.8L30.4,26.8C30.3,26.8,30.3,26.8,30.4,26.8"/>
	<path class="st4" d="M24.6,26.8L24.6,26.8"/>
	<path class="st4" d="M33.6,26.7L33.6,26.7C33.6,26.8,33.6,26.8,33.6,26.7"/>
	<path class="st4" d="M44.6,28.8L44.6,28.8"/>
	<path class="st4" d="M43.5,25.5C43.5,25.6,43.5,25.6,43.5,25.5"/>
	<path class="st4" d="M23.1,26.6L23.1,26.6C23.1,26.7,23.1,26.7,23.1,26.6"/>
	<path class="st4" d="M23.8,25.5C23.8,25.5,23.7,25.5,23.8,25.5"/>
	<path class="st4" d="M52.2,26.6L52.2,26.6L52.2,26.6"/>
	<path class="st4" d="M29.6,29.9L29.6,29.9"/>
	<path class="st4" d="M64.6,26.6L64.6,26.6"/>
	<path class="st4" d="M44.5,42C44.6,42,44.6,41.9,44.5,42"/>
	<path class="st4" d="M41.7,43.9L41.7,43.9"/>
	<path class="st4" d="M43,37.7L43,37.7"/>
	<path class="st4" d="M25.9,24.1L25.9,24.1"/>
	<path class="st4" d="M28.5,28.4C28.5,28.4,28.5,28.5,28.5,28.4"/>
	<path class="st4" d="M17,28.4L17,28.4"/>
	<path class="st4" d="M28.5,46.3C28.5,46.4,28.5,46.4,28.5,46.3"/>
	<path class="st4" d="M63.3,46.9C63.3,46.9,63.3,47,63.3,46.9C63.3,47,63.3,47,63.3,46.9"/>
	<path class="st4" d="M61.2,28.2C61.1,28.2,61.1,28.2,61.2,28.2"/>
	<path class="st4" d="M21.5,32C21.5,32.1,21.5,32.1,21.5,32"/>
	<path class="st4" d="M47.2,28.1L47.2,28.1"/>
	<path class="st4" d="M28.4,47.5L28.4,47.5"/>
	<path class="st4" d="M43.8,28L43.8,28"/>
	<path class="st4" d="M18.1,28L18.1,28"/>
	<path class="st4" d="M35,27.9L35,27.9C35,28,35,28,35,27.9"/>
	<path class="st4" d="M21.5,27.9C21.5,28,21.5,28,21.5,27.9"/>
	<path class="st4" d="M60.7,27.9L60.7,27.9"/>
	<path class="st4" d="M17.6,27.9C17.6,27.9,17.5,27.9,17.6,27.9C17.5,27.9,17.5,27.9,17.6,27.9"/>
	<path class="st4" d="M41.8,32.4L41.8,32.4"/>
	<path class="st4" d="M29.2,27.8L29.2,27.8"/>
	<path class="st4" d="M51.3,32.4C51.3,32.4,51.3,32.5,51.3,32.4C51.3,32.5,51.3,32.5,51.3,32.4"/>
	<path class="st4" d="M44.5,27.7C44.6,27.7,44.6,27.7,44.5,27.7"/>
	<path class="st4" d="M50.9,24.3L50.9,24.3"/>
	<path class="st4" d="M31.4,28.8L31.4,28.8"/>
	<path class="st4" d="M32.5,27C32.5,27.1,32.5,27.1,32.5,27"/>
</g>
<g>
	<path class="st3" d="M53.6,33.8c1.3,0,2.3,0,3.3,0c-0.8,0.4-0.9,1.2-0.9,2c0.1,2.4,0.2,4.9,0.3,7.3c0,0.8,0.2,1.5,1.1,1.9
		c-1.5-0.3-3-0.4-4.7,0.1c1.1-0.7,1-1.8,1-2.8c-0.1-1.7-0.1-3.5-0.2-5.2c0-0.3-0.1-0.5-0.2-0.8c-1.6,2.8-2.8,5.9-4.2,8.8
		c-0.3,0-0.5,0-0.8,0c-1.3-2.9-2.6-5.8-4.1-8.7c-0.1,0-0.1,0-0.2,0c0,0.2-0.1,0.3-0.1,0.5c-0.1,1.7-0.2,3.6-0.3,5.3
		c0,0.3,0,0.6,0,0.8c0,0.9,0.3,1.6,1.2,2c-1.2-0.1-2.4-0.3-3.8,0c1.3-0.7,1.3-1.9,1.4-3.1c0.1-1.9,0.2-4,0.4-5.9
		c0.1-1.1-0.1-2-1.5-2.2c0-0.1,0.1-0.1,0.1-0.2c0.3,0,0.7,0.1,1,0.1c0.6,0.2,1.1,0.1,1.6,0c1-0.2,1.2-0.1,1.6,0.8
		c1,2.1,1.9,4.2,2.8,6.3c0.1,0.3,0.3,0.6,0.6,1c0.2-0.4,0.4-0.6,0.5-0.8c1-2,1.9-4.1,2.8-6.1C53.1,34.5,53.4,34.1,53.6,33.8z"/>
	<path class="st3" d="M14.6,45.1c-0.9-0.1-1.8-0.3-2.7-0.3s-1.7,0.2-2.6,0.3c1.2-0.5,1.3-1.5,1.3-2.6c0-0.9,0-1.7,0-2.7
		c-1.8-0.2-3.6-0.1-5.3-0.1C5,40.6,5,43.3,5.4,44c0.2,0.4,0.6,0.8,1.1,1.3c-1.8-0.4-3.7-0.5-5.5,0c0-0.1,0-0.1,0-0.2
		C1.1,45,1.2,45,1.4,44.9c0.6-0.3,0.9-0.7,0.9-1.3c0-2.6,0-5.3,0-7.9c0-0.8-0.5-1.4-1.3-1.7c1-0.4,1.8,0,2.7,0s1.7-0.2,2.7-0.3
		c-1.1,0.4-1.2,1.3-1.3,2.2c0,0.9,0,1.8,0,2.8c1.8,0,3.6,0,5.5,0c0-1.3,0.1-2.5-0.2-3.9c-0.2-0.6-0.6-0.9-1.3-1.2
		c1.1-0.2,2,0.3,2.9,0.2c0.9,0,1.8-0.2,2.7-0.3c-1.2,0.5-1.3,1.6-1.3,2.6c0,2,0,4,0,6c0,1,0.2,2.1,1.4,2.5
		C14.7,45,14.7,45,14.6,45.1z"/>
	<path class="st3" d="M67.9,33.7c0,0.8,0,1.4,0,2.1h-0.1c-0.1-0.2-0.2-0.4-0.3-0.6c-0.2-0.3-0.5-0.6-0.8-0.7c-1-0.2-2-0.3-3-0.1
		c0,1.4,0,2.8,0,4.4c1.3-0.1,2.6,0.4,3.6-1.2c0,1.1,0,2,0,3.1c-0.8-1.7-2.2-1-3.6-1.2c0,1.3,0,2.4,0,3.7c0,0.4,0.3,0.7,0.7,0.9
		c1.1,0.3,2.2,0.3,3.2-0.2c0.3-0.1,0.6-0.5,0.8-0.8c0.2-0.2,0.2-0.5,0.3-0.7c0.1,0,0.1,0,0.2,0c-0.1,0.8-0.2,1.5-0.3,2.4
		C68.4,44.9,68,45,67.7,45c-1.8,0-3.7,0.1-5.5-0.3c-0.6-0.1-1.3,0.1-1.9,0.2c-0.3,0-0.6,0.1-0.9,0.1c1.2-0.5,1.4-1.4,1.4-2.5
		c0-2.1,0-4.4,0-6.5c0-1.2-0.3-1.6-1.5-2.2c0.6-0.1,1.1,0,1.5,0.1c0.8,0.2,1.5,0.1,2.3,0c1.3-0.1,2.7-0.2,4.1-0.2
		C67.4,33.6,67.6,33.7,67.9,33.7z"/>
	<path class="st3" d="M16.3,45.1c1-0.5,1.2-1.4,1.2-2.4c0-2.1,0-4.3,0-6.4c0-1-0.2-2-1.4-2.4c0-0.1,0.1-0.1,0.1-0.2
		c0.5,0.1,1,0.1,1.5,0.2c0.6,0,1.2,0.1,1.7,0.1c1.4-0.1,2.8-0.2,4.3-0.3c0.3,0,0.7,0.1,1,0.1c0,0.8,0,1.4,0,2.1c-0.1,0-0.2,0-0.2,0
		c-0.3-1.1-1.1-1.4-2-1.4c-0.7,0-1.3,0-2.1,0c0,1.5,0,2.9,0,4.3c1.7,0.4,2.5,0.2,3.7-0.9c-0.1,0.6-0.2,1-0.2,1.5
		c0,0.4,0.1,0.9,0.1,1.4c-0.8-1.6-2.3-0.9-3.7-1.1c-0.1,1.3-0.1,2.6,0.1,3.9c0.1,0.4,0.4,0.6,0.8,0.7c1,0.2,1.9,0.2,2.9,0
		c0.6-0.2,1-0.5,1.2-1.1c0.1-0.2,0.2-0.4,0.3-0.6c0.1,0,0.1,0,0.2,0c-0.1,0.8-0.2,1.5-0.3,2.5c-0.3,0.1-0.6,0.2-1,0.2
		c-1.8,0-3.7,0.1-5.5-0.3c-0.5-0.1-1,0.1-1.5,0.1C17.1,45,16.7,45,16.3,45.1z"/>
	<path class="st3" d="M71.4,45.1c0-1.3,0-2.3,0-3.6c0.4,0,0.4,0.3,0.4,0.6c0.2,0.7,0.6,1.4,1.1,1.9c0.8,0.9,2.8,1,3.7,0.2
		c0.9-0.8,0.9-2.2-0.1-2.9c-0.4-0.3-0.9-0.5-1.4-0.8c-0.8-0.4-1.6-0.7-2.4-1.1c-1.2-0.7-1.8-1.7-1.6-3.1s1-2.2,2.3-2.5
		c0.7-0.2,1.5-0.2,2.3-0.2c0.9,0,1.8,0.1,2.6,0.2c0,0.8,0,1.7,0,2.5c-0.1,0-0.2,0-0.2,0c-0.1-0.2-0.2-0.5-0.3-0.7
		c-0.5-1.6-2-2-3.2-1.6c-0.6,0.2-1.1,0.6-1.3,1.2c-0.2,0.7,0,1.3,0.6,1.7c0.7,0.5,1.4,0.8,2.2,1.2c0.5,0.3,1.1,0.5,1.6,0.8
		c1.3,0.6,1.8,1.7,1.6,3.1c-0.1,1.4-0.9,2.3-2.2,2.8c-1.3,0.5-2.7,0.5-4.1,0.1C72.6,44.9,72,44.7,71.4,45.1z"/>
	<g>
		<path class="st3" d="M35.7,39.3c0.4-0.3,0.7-0.5,1.1-0.7c0.9-0.6,1.2-1.5,1.1-2.5c-0.1-1-0.7-1.7-1.7-2c-0.4-0.1-0.9-0.3-1.4-0.3
			c-1.2,0-2.5,0-3.8,0.1c-0.8,0.1-1.5,0.2-2.3,0c-0.4-0.1-0.9-0.1-1.3-0.2c0,0.1-0.1,0.1-0.1,0.2c1.3,0.4,1.5,1.3,1.5,2.4
			c0,2.1,0,4.3,0,6.4c0,0.3,0,0.7-0.2,1c-0.2,0.4-0.5,0.7-0.7,1c-0.1,0.1-0.3,0.2-0.5,0.3c0,0.1,0,0.1,0,0.2
			c1.8-0.4,3.7-0.5,5.5,0.1c-0.5-0.6-1-0.9-1.2-1.4c-0.4-1.2-0.2-2.4-0.2-3.7c1.6-0.3,2.1,0,2.7,1.3c0.2,0.5,0.5,0.9,0.7,1.4
			c0.7,1.7,2.1,2.4,4,2.4c0.9,0,0.9,0,1.4-0.3C37.6,44.1,36.8,41.5,35.7,39.3z M34.4,38.6c-0.6,0.9-1.6,1.1-3,0.8c0-1.7,0-3.5,0-5.2
			c1.3-0.4,2.3-0.1,2.9,0.8C35.1,35.9,35.1,37.8,34.4,38.6z"/>
		<path class="st5" d="M31.7,34.4c0,1.7,0,3.4,0,5.1c1.4,0.3,2.4,0.1,3-0.8c0.6-0.9,0.6-2.7-0.1-3.6C33.9,34.3,33,34,31.7,34.4z"/>
	</g>
</g>
</svg>
