<?xml version="1.0" encoding="utf-8"?>
<!-- Generator: Adobe Illustrator 28.1.0, SVG Export Plug-In . SVG Version: 6.00 Build 0)  -->
<svg version="1.1" xmlns="http://www.w3.org/2000/svg" xmlns:xlink="http://www.w3.org/1999/xlink" x="0px" y="0px"
	 viewBox="0 0 2667.1 640.1" style="enable-background:new 0 0 2667.1 640.1;" xml:space="preserve">
<style type="text/css">
	.st0{display:none;}
	.st1{display:inline;}
	.st2{fill:#FFFFFF;}
	.st3{fill:#B45E40;}
	.st4{fill:#EC9214;}
	.st5{fill:#C45A54;}
	.st6{fill:#B45819;}
	.st7{fill:#9E564B;}
	.st8{fill:#B5DDE3;}
	.st9{fill:#190E01;}
	.st10{fill:#FCCF8D;}
	.st11{fill:#5E5455;}
	.st12{fill:#221C1D;}
	.st13{fill:#BE9F67;}
	.st14{fill:#C47C46;}
	.st15{fill:#6C686C;}
	.st16{fill:#DC6012;}
	.st17{fill:#AF3741;}
	.st18{fill:#FDE76D;}
	.st19{fill:#E0AD97;}
	.st20{fill:#B8A073;}
	.st21{fill:#E6C982;}
	.st22{fill:#92BE93;}
	.st23{fill:#6D5030;}
	.st24{fill:#161413;}
	.st25{fill:#98B8E1;}
	.st26{fill:#533617;}
	.st27{fill:#0A0503;}
	.st28{fill:#F49B2A;}
	.st29{fill:#FABB34;}
	.st30{fill:#7A7143;}
	.st31{fill:#4F4239;}
	.st32{fill:#DC6013;}
	.st33{fill:#E6C980;}
	.st34{fill:#FBE76C;}
	.st35{fill:#B6A072;}
	.st36{fill:#BE9F66;}
	.st37{fill:#B65818;}
	.st38{fill:#E1AD96;}
	.st39{fill:#E7DD40;}
	.st40{fill:#F5E837;}
	.st41{fill:#E0AE98;}
	.st42{fill:#B7A073;}
	.st43{fill:#9E574C;}
	.st44{fill:#E6C881;}
	.st45{fill:#ECB210;}
	.st46{fill:#EB9210;}
	.st47{fill:#C55B55;}
	.st48{fill:#B45E3F;}
	.st49{fill:#B45818;}
	.st50{fill:#151413;}
	.st51{fill:#97B8E1;}
	.st52{fill:#93BE93;}
	.st53{fill:#B03741;}
	.st54{fill:#B5DEE3;}
	.st55{fill:#96B9E3;}
	.st56{fill:#93BF94;}
	.st57{fill:#AF3541;}
	.st58{fill:#98D0F2;}
	.st59{fill:#B6DFE5;}
	.st60{fill:#120D08;}
	.st61{fill:#533517;}
</style>
<g id="Capa_1" class="st0">
	<g class="st1">
		<g>
			<path class="st2" d="M0,345.3c0-32.6,0-65.2,0-97.8c877.5,0,1755.1,0,2632.6,0c0,127.9,0,255.8,0,383.7c-2.6-0.4-5.2-0.7-8.3-1.2
				c1.6,1.6,3,2.9,4.3,4.3c1.4,1.5,2.7,3,4.1,4.6c0,0.3,0.1,0.8,0,0.9c-0.2,0.2-0.6,0-0.9,0c-1.1,0-2.2,0-3.4,0
				c-484.5,0-969,0-1453.5,0c0-0.8-0.1-1.6-0.1-2.4c0-46.5,0-93,0-139.5c0-2.1-0.1-4.1-0.1-6.4c-7.9-3.9-15.7-7.3-23.6-10.9
				c-1.4-1.1-3-2-4.8-2.1c0,0-0.1,0-0.1,0c-0.6-0.3-1.3-0.6-1.9-0.9c0,0,0,0,0,0c-1.7-1.6-0.7-3.8-1.6-6.5c-0.4,2-0.6,3.3-0.9,4.6
				c-1.5-0.4-2.9-0.7-4.2-1c-0.7-0.3-1.4-0.7-2-1c-14.7-6.7-29.3-13.3-44-20c-27.8-12.8-55.7-25.6-83.5-38.4
				c-14.5-6.7-29-13.4-43.5-20c-1.3-0.6-2.7-0.8-4.1-1.2c-1.6,0-2.6,1-3.8,1.8c-6.5,4.4-13,8.7-19.5,13
				c-12.6,8.5-25.1,16.9-37.7,25.4c-1.1,0.7-2.1,1.5-3.3,2c-0.6,0.3-1.5,0.1-2.3,0.1c0-2.1,0-4.2,0-6.2c0-25.9,0-51.7,0-77.6
				c0-1.9,0.4-3.8-0.7-5.7c-2.1-1-4.2-2-6.4-3c-22.5-10.3-45-20.7-67.5-31c-36.1-16.6-72.2-33.2-108.3-49.9
				c-8.8-4.1-17.7-8.2-26.5-12.2c-1.5-0.7-3-1.9-4.9-1.3c-2.5,0.3-4.2,2.1-6.2,3.4c-23.6,15.9-47.2,31.8-70.8,47.7
				c-16.3,11-32.6,22-48.8,33c-1,0.7-1.9,1.7-2.8,2.5c-2-0.5-4-1-5.9-1.6c-6.7-2.4-13.3-4.9-20-7.3c-0.8-0.3-1.8-0.3-2.7-0.5
				c-1.6-0.4-2.7,0.7-4,1.3c-14.3,6.8-28.6,13.7-42.8,20.7c-0.9,0.5-1.7,1.3-2.5,2c-1.9-0.5-3.7-1.1-5.6-1.6
				c-0.6-1.9-2.2-2.6-3.8-3.3c-14.8-6.8-29.6-13.6-44.4-20.4c-14.2-6.5-28.4-13.2-42.6-19.7c-29.9-13.7-59.7-27.5-89.6-41.2
				c-10-4.6-20-9.3-30-13.8c-1.4-0.6-2.8-1.7-4.5-1.1c-1.9,0.1-3.2,1.3-4.6,2.3c-11.4,7.7-22.7,15.3-34.1,23
				c-14.8,10-29.6,19.9-44.4,29.9c-15.2,10.3-30.4,20.6-45.6,30.8c-3.8-1.3-7.7-2.6-11.5-3.8c-1.6-0.5-3.1-1.5-4.9-1.1
				c-0.8-0.3-1.6-0.6-2.3-0.9c-2.5-2.2-5.8-2.4-8.7-3.7c-0.9-0.4-1.8,0.4-2.4,1.2c-1.6,0.6-3.3,1.1-4.8,1.9
				c-5.2,2.5-10.3,5-15.4,7.5c-8.3,4-16.6,8-24.9,12c-1.1,0.5-2.4,0.9-2.8,2.3c-1.9-0.7-3.8-1.4-5.7-2c-1.3-0.4-2.6-0.8-4-1.2
				c-1.3-1.2-2.7-0.5-4-0.1c-4.3,1-8.5,2.2-12.8,3.3c-2.5-0.2-4.9-0.9-7.3-1.8C8.2,347.4,4.3,345.6,0,345.3z"/>
			<path class="st3" d="M679.4,249.2c1.9-0.6,3.4,0.6,4.9,1.3c8.9,4,17.7,8.1,26.5,12.2c36.1,16.6,72.2,33.3,108.3,49.9
				c22.5,10.3,45,20.7,67.5,31c2.2,1,4.3,2,6.4,3c1.1,1.9,0.7,3.9,0.7,5.7c0,25.9,0,51.7,0,77.6c0,2.1,0,4.2,0,6.2
				c-0.1,0.6-0.2,1.2-0.2,1.9c0,7.5,0,14.9,0,22.4c0,14.6,0.1,29.2,0.1,43.8c-0.1,1.4-0.2,2.9-0.2,4.3c0,18.4,0,36.9,0,55.3
				c0,1.4,0.1,2.9,0.2,4.3c0,22.8,0,45.5,0,68.3c0,1.1-0.2,2.2-0.3,3.3c-55,0-110.1,0-165.1,0c0-4.8,0-9.6,0-14.4
				c0-1.3-0.2-2.7,0.2-3.8c0.9-2.5,0.7-5,0.7-7.6c0-4.5,0-8.9,0-13.4c0-1.1-0.2-2.3,0.1-3.3c1.2-3.6,0.7-7.3,0.8-10.9
				c0.2-4.9-0.6-9.9,0.9-14.8c0.1-0.4,0-1,0-1.4c0-5.8,0-11.5,0-17.3c0-2-0.5-3.8-1.7-5.3c-8-10.5-15.9-21.1-23.9-31.5
				c-0.9-1.1-2.1-1.9-3.2-2.9c0-0.5-0.1-1-0.1-1.4c0-16.9,0-33.8,0-50.7c0-1.7,0.4-3.5-0.7-5.4c-1.1-0.5-2.4-1.1-3.7-1.5
				c-4.2-1.5-8.4-3-12.6-4.6c-15.6-5.8-31.1-11.6-46.6-17.3c-13.6-5-27.2-10.1-40.8-15.1c-4.5-1.6-9-3.1-13.5-4.7
				c0-4.1-0.1-8.3,0.1-12.4c0.2-2.9-0.9-4.6-3.5-5.5c-0.5-0.2-0.9-0.4-1.3-0.6c-7.4-3-14.7-6.1-22.1-9c-10.5-4.2-21-8.4-31.5-12.5
				c-1.3-0.5-2.7-0.8-4.1-1.2c0-1.9,0.1-3.8,0.1-5.7c0-13,0.1-26,0.1-39c0.9,0.1,1.9,0.1,2.7,0.5c6.7,2.4,13.3,4.9,20,7.3
				c1.9,0.7,3.9,1.1,5.9,1.6c0.5,1.1,1.5,1.5,2.6,1.9c11.5,4.2,23.1,8.5,34.6,12.7c7.9,2.9,15.9,5.7,23.9,8.6
				c10.9,4,21.8,8.1,32.8,12.1c10,3.7,20.1,7.3,30.1,11c0.7,0.2,1.5,0.2,2.3,0.2c0.7-1.9,0.5-3.7,0.5-5.4c0.1-11.3,0.1-22.7,0.1-34
				c0-1.3-0.2-2.6,0.1-3.8c1-3.5,0.7-7,0.7-10.5c0.1-9.7,0.1-19.5,0.1-29.2c0-1.4,0.1-2.9,0.2-4.3c0.2-2.1,0.5-4.1,0.6-6.2
				c0.1-3.2,0.1-6.4,0.1-9.6C679.4,269.3,679.4,259.2,679.4,249.2z M767,513.3c-0.3,6.2-0.1,11.9-0.2,17.6c0,5.7,0,11.5,0,17.2
				s0,11.5,0,17.2s0,11.5,0,17.2c0,5.7-0.1,11.4,0.1,17.2c1.2,0.6,2.2,1.1,3.2,1.4c3.8,1.1,7.7,2.1,11.5,3.3
				c6.6,1.9,13.1,3.9,19.7,5.9c1.4,0.4,2.8,0.8,4.5,0c0.1-1.1,0.3-2.3,0.3-3.5c0-25.5,0-51.1,0-76.6c0-1.1-0.2-2.2-0.4-3.5
				c-12.1-4.5-24.2-9-36.3-13.5C769,513.1,768.3,513.3,767,513.3z M767.8,485.3c0.1,1.2,0.1,1.7,0.2,2.1c3.1,7.3,6.4,14.6,9.4,22
				c1,2.3,2.5,3.5,4.8,4.1c11.6,3,23.2,6,34.8,9c0.7,0.2,1.5,0,2.5,0c-0.2-1.3-0.1-2.2-0.5-3.1c-2.4-6.3-4.9-12.5-7.2-18.8
				c-0.8-2.1-1.9-3.4-4.2-4c-3.9-1-7.6-2.3-11.5-3.5c-8.3-2.5-16.5-4.9-24.8-7.4C770.5,485.6,769.4,485.5,767.8,485.3z M714,312.5
				c-0.4,1.2-0.6,1.6-0.6,2.1c0,10.4,0,20.7-0.1,31.1c0,2.1,1,3.2,2.8,3.9c5.5,2.2,10.9,4.5,16.4,6.7c0.5,0.2,1.2,0.2,2.1,0.4
				c0.9-3.8,0.4-7.4,0.5-11c0.1-3.7,0.1-7.3,0-11c-0.1-3.6,0.5-7.3-0.4-11C727.8,320,721.1,316.4,714,312.5z"/>
			<path class="st4" d="M104.9,329.5c0.8,0.3,1.6,0.6,2.3,0.9c0.2,0.3,0.3,0.6,0.6,0.7c5,1.8,10.1,3.6,15.1,5.3
				c42.1,15.4,84,30.9,126.4,46.2c0.4-1,0.9-1.6,1-2.4c0.2-1.6,0.1-3.2,0.1-4.8c0.1-9.1,0.1-18.2,0.2-27.3
				c0.1-6.2,0.5-12.4,0.7-18.6c0.4-17.2-0.2-34.4,0.9-51.6c0.6-9.5,0.2-19.1,0.2-28.7c1.7-0.6,3.1,0.5,4.5,1.1
				c10,4.6,20,9.2,30,13.8c29.9,13.7,59.8,27.5,89.6,41.2c14.2,6.5,28.4,13.1,42.6,19.7c14.8,6.8,29.6,13.6,44.4,20.4
				c1.6,0.7,3.2,1.4,3.8,3.3c-1.2,1.7-0.7,3.7-0.7,5.6c0,49.8,0,99.6,0,149.3c0,1.6,0.1,3.2,0.2,4.8c-0.1,0.8-0.2,1.6-0.2,2.4
				c0,11.7,0,23.4,0,35.1c0,1.1,0.3,2.2,0.4,3.3c-0.1,2.1-0.4,4.1-0.4,6.2c0,26.4,0,52.7,0,79.1c0,1.8-0.1,3.5-0.1,5.3
				c-55,0-110.1,0-165.1,0c0-1.8,0-3.5,0-5.3c0.1-6.2,0.3-12.4,0.8-18.6c0.7-7.6,0.1-15.2,0.9-22.9c0.8-8,0.1-16.2,1-24.3
				c0.5-4.9,0.1-9.9,0.3-14.8c0.1-2.9-0.9-5.2-2.6-7.4c-6.4-8.3-12.5-16.9-18.9-25.1c-2.3-3-4.3-6.4-7.4-8.7
				c-0.1-0.3-0.1-0.6-0.1-0.9c0-17.6,0.1-35.2,0.1-52.7c0-1.1-0.2-2.2-0.3-3.3c-1.3-0.6-2.4-1.1-3.6-1.6
				c-37-13.7-74.1-27.4-111.1-41.1c-0.9-0.3-1.8-0.4-2.8-0.6c0-4.3-0.2-8.6,0-12.9c0.1-2.7-1-4.2-3.3-5.1c-0.4-0.2-0.9-0.4-1.3-0.6
				c-7.5-3.1-15-6.1-22.5-9.2c-11.8-4.7-23.5-9.5-35.3-14.2c0-14.5,0.1-28.9,0.1-43.4c1.8,0.5,3.5,1.1,5.3,1.5
				C101.9,328.9,103.2,330.1,104.9,329.5z M340.5,512.4c-0.4,0.9-0.6,1.2-0.6,1.5c-0.1,0.5-0.1,1-0.1,1.4c0,28,0.1,55.9,0.1,83.9
				c0,0.1,0.1,0.3,0.2,0.4c0.1,0.1,0.1,0.3,0.5,0.9c3.9,1.2,8.2,2.4,12.5,3.7c4.3,1.3,8.6,2.6,12.9,3.8c4.3,1.2,8.4,2.9,13.1,3.5
				c0.1-1.3,0.3-2.4,0.3-3.5c0-25.9,0-51.8,0-77.7c0-1.1-0.2-2.2-0.4-3.5C366.1,522,353.4,517.2,340.5,512.4z M340.1,484.5
				c0.1,1.1,0,1.6,0.2,2c3.3,7.8,6.8,15.5,10,23.3c1,2.4,2.6,3.4,4.9,4c11.9,3.1,23.7,6.2,35.6,9.3c0.7,0.2,1.5,0.1,2.6,0.2
				c-0.3-1.3-0.5-2.2-0.8-3c-2.5-6.6-5.1-13.1-7.5-19.7c-0.9-2.4-2.3-3.5-4.6-4.2c-12.1-3.5-24.1-7.2-36.2-10.9
				C343.1,485.1,341.9,484.9,340.1,484.5z M307.6,357c0.6-4,0.7-28.9,0.1-33.6c-6.6-3.4-13.1-7.4-20.1-10.5
				c-0.2-0.1-0.6,0.2-0.9,0.2c-0.6,3.6-0.7,31-0.1,35.3C289.8,350.4,303.1,355.9,307.6,357z"/>
			<path class="st5" d="M893.7,568.2c-0.1-1.4-0.2-2.9-0.2-4.3c0-18.4,0-36.9,0-55.3c0-1.4,0.1-2.9,0.2-4.3
				c6.4,2.4,12.8,4.8,19.3,7.2c6.4,2.4,12.9,4.8,19.3,7.1c7.3,2.7,14.7,5.3,22,8c1,0.3,2,0.4,3.4,0.6c0-3.7,0.1-7.1,0.1-10.4
				c0-2.2,0-4.5,0.2-6.7c0.1-2.2,0.5-4.4,0.6-6.6c0.1-15.2,0.2-30.3,0.3-45.5c0-1.3,0.1-2.5,0.2-3.8c0.2-1.9,0.5-3.8,0.5-5.7
				c0.1-11.5,0.1-23,0.2-34.5c0.1-5.1-0.3-10.2,0.7-15.3c0.3-1.5,0-3.2-0.1-4.8c1.4,0.4,2.8,0.6,4.1,1.2c14.5,6.6,29,13.3,43.5,20
				c27.8,12.8,55.7,25.6,83.5,38.4c14.6,6.7,29.3,13.4,44,20c0.4,0.9,1.1,1.1,2,1c1.8,2,4.2,2.5,6.7,2.9c0,0,0,0,0,0
				c0.4,0.9,1,1.1,1.9,0.9c0,0,0.1,0,0.1,0.1c1.2,1.6,2.9,2.2,4.8,2.1c7.8,3.6,15.7,7.1,23.6,10.9c0,2.3,0.1,4.3,0.1,6.4
				c0,46.5,0,93,0,139.5c0,0.8,0,1.6,0.1,2.4c-31,0-62.1,0-93.1,0c-0.8-0.5-1.6-1.1-2.5-1.3c-9.7-3-19.5-5.9-29.2-8.8
				c-0.5-0.2-1.1,0.1-2,0.2c0.8,3.7,2.6,6.7,3.9,9.9c-23,0-46.1,0-69.1,0c0.1-0.6,0.2-1.3,0.2-1.9c0-11.5,0-23,0-34.4
				c0-0.9-0.2-1.9-0.4-3c-1.6-0.7-3.2-1.3-4.9-1.9c-11.2-4.2-22.4-8.3-33.6-12.4c-15.5-5.7-31.1-11.5-46.6-17.2
				C896.2,568.4,895.1,567.7,893.7,568.2z M1015.3,501.7c0.3-1.2,0.6-2.1,0.6-3c0-9.1,0-18.2,0-27.3c0-2-0.8-3.3-2.5-4.2
				c-5.5-2.9-11-5.9-16.5-8.8c-0.7-0.3-1.4-0.5-2.4-0.8c-0.2,0.9-0.4,1.5-0.5,2.1c-0.3,6.6-0.1,30.2,0.4,33.5
				C997.9,495.4,1010.4,500.6,1015.3,501.7z"/>
			<path class="st6" d="M275.3,512.8c3.2,2.3,5.1,5.7,7.4,8.7c6.4,8.3,12.6,16.8,18.9,25.1c1.7,2.3,2.7,4.5,2.6,7.4
				c-0.2,4.9,0.3,9.9-0.3,14.8c-0.9,8.1-0.2,16.3-1,24.3c-0.8,7.6-0.2,15.3-0.9,22.9c-0.5,6.2-0.8,12.4-0.8,18.6c0,1.8,0,3.5,0,5.3
				c-46.4,0-92.8,0-139.2,0c0-5.6-0.1-11.2,0-16.7c0.1-2.5-0.9-4.3-2.9-5.6c-5.9-4.1-11.8-8.2-17.6-12.4c-1.8-1.3-3.6-1.8-5.8-1.7
				c-1.4,0.1-2.9,0.2-4.3-0.2c-3.1-0.9-6.3-0.5-9.5-0.8c-3.2-0.2-6.3-0.7-9.5-0.9c-5.9-0.3-11.7-0.9-17.6-1.3
				c-4.1-0.2-8.2-0.6-12.4-0.8c-0.9,0-1.9-0.3-2.8-0.3c-3.5-0.2-7-0.5-10.5-0.6c-0.9,0-1.9,0.3-2.7,0.7c-7.5,3.9-15,7.8-22.5,11.7
				c-1.5,0.8-2,1.9-2,3.5c0,1,0,1.9,0,2.9c0,7.5,0,15,0,22.5c-4.5,0-9,0-13.4,0c-0.1-2.5-0.1-5-0.2-7.6c-0.1-1.9-0.6-2.5-2.5-2.8
				c-8.1-1.4-16.2-2.7-24.2-4.1c0-11.9,0-23.9,0-35.8c0-1.7-0.2-3.5-0.3-5.2c0.4-0.6,0.7-1.1,1.1-1.7c1.1-1.9,2.3-3.9,3.4-5.8
				c5.7-9.6,11.3-19.3,17-28.9c1.5-2.6,2.2-3.4,5.8-2.2c22.2,7.3,44.4,14.4,66.6,21.5c9.3,3,18.5,6,27.8,9c1.8,0.6,3.6,0.9,5.6,0.6
				c8.4-1.3,16.8-2.2,25.1-3.4c2.5-0.4,4.7,0,7,0.8c4.8,1.8,9.6,3.5,14.4,5.2c13.4,4.8,26.8,9.6,40.1,14.4c1.2,0.4,2.2,1,3.6,1.7
				c0,1.8,0,3.3,0,4.9c0,7.7,0,15.3,0,23c0,3.6,0.4,3.9,3.9,5c4.3,1.3,8.5,2.7,12.8,3.9c2.9,0.9,5.7,1.9,8.9,2.5
				c0.8-1.5,1.6-2.9,2.3-4.3c6.6-13.5,13.2-27,19.8-40.5c2.5-5,5-10,7.4-15c0.5-1,1.1-2,0.8-3.2c0-17.8,0-35.6,0.1-53.4
				C275.1,516.5,275.2,514.7,275.3,512.8z"/>
			<path class="st7" d="M466.4,639.8c0-1.8,0.1-3.5,0.1-5.3c0-26.4,0-52.7,0-79.1c0-2.1,0.3-4.1,0.4-6.2c7.6,2.4,15.3,4.7,22.9,7.1
				c17.9,5.8,35.8,11.6,53.8,17.4c9.6,3.1,7.4,3.5,18.2,1.8c0.2,0,0.3,0,0.5,0c6.3-0.9,12.6-1.7,18.9-2.6c2.1-0.3,4.1-0.1,6.1,0.6
				c14.9,5.4,29.7,10.7,44.6,16.1c3.9,1.4,7.8,2.8,11.7,4.2c2.1,0.7,3.2,2,3.1,4.2c0,1,0,1.9,0,2.9c0,7,0,14.1,0,21.1
				c0,1.6,0.1,3.1,0.2,4.8c1.7,0.6,3.2,1.2,4.7,1.6c5.2,1.6,10.4,3.2,15.6,4.8c4.3,1.3,4.5,1.3,6.6-2.9
				c8.9-18.1,17.8-36.1,26.6-54.2c0.4-0.7,0.8-1.4,1-2.2c0.1-0.6-0.2-1.2-0.3-1.8c0.4-0.6,1.1-1.2,1.2-1.9c0.2-1.2,0.1-2.5,0.1-3.8
				c0-16,0-32,0-48.1c0-1.7,0.1-3.5,0.2-5.2c1.1,0.9,2.3,1.8,3.2,2.9c8,10.5,16,21,23.9,31.5c1.2,1.6,1.8,3.3,1.7,5.3
				c-0.1,5.8,0,11.5,0,17.3c0,0.5,0.1,1,0,1.4c-1.5,4.9-0.7,9.8-0.9,14.8c-0.1,3.7,0.3,7.3-0.8,10.9c-0.3,1-0.1,2.2-0.1,3.3
				c0,4.5,0,8.9,0,13.4c0,2.5,0.2,5.1-0.7,7.6c-0.4,1.2-0.2,2.5-0.2,3.8c0,4.8,0,9.6,0,14.4c-46.4,0-92.8,0-139.2,0
				c0-5.4-0.2-10.9,0.1-16.3c0.1-3-1.1-4.8-3.3-6.4c-5.3-3.8-10.7-7.5-16-11.3c-2.4-1.7-4.9-2.9-8-2.5c-1.1,0.1-2.3,0.2-3.3-0.2
				c-2.8-1-5.7-0.7-8.5-0.8c-1.6,0-3.3,0.3-4.8-0.2c-3-0.9-6-0.7-9-0.8c-1.1,0-2.3,0.2-3.3-0.1c-3.1-1-6.3-0.7-9.5-0.8
				c-1.1,0-2.3,0.2-3.3-0.2c-2.6-1-5.4-0.7-8.1-0.8c-1.4,0-3,0.2-4.3-0.2c-3.3-1.1-6.6-0.6-10-0.8c-2-0.1-3.8,0.4-5.5,1.3
				c-3.3,1.7-6.6,3.3-9.8,5c-3.8,2-7.5,4.1-11.3,6.1c-1.4,0.8-2.1,1.9-2,3.5c0,1,0,1.9,0,2.9c0,7.5,0,15,0,22.5
				C468.3,639.8,467.4,639.8,466.4,639.8z"/>
			<path class="st8" d="M893.7,568.2c1.3-0.4,2.5,0.2,3.7,0.7c15.6,5.7,31.1,11.5,46.6,17.2c11.2,4.1,22.4,8.3,33.6,12.4
				c1.6,0.6,3.2,1.3,4.9,1.9c0.1,1.2,0.4,2.1,0.4,3c0,11.5,0,23,0,34.4c0,0.6-0.1,1.3-0.2,1.9c-11.8,0-23.7,0-35.5,0
				c-0.2-3.8-0.4-7.5-0.5-11.2c-4-2.5-15.9-7.3-19.4-7.7c-0.4,6.3,0,12.6-0.2,18.9c-11.2,0-22.4,0-33.6,0c0.1-1.1,0.3-2.2,0.3-3.3
				C893.8,613.7,893.7,590.9,893.7,568.2z"/>
			<path class="st3" d="M469.3,639.8c0-7.5,0-15,0-22.5c0-1,0-1.9,0-2.9c0-1.6,0.6-2.7,2-3.5c3.8-2,7.5-4.1,11.3-6.1
				c3.2-1.7,6.6-3.3,9.8-5c1.7-0.9,3.5-1.5,5.5-1.3c3.3,0.2,6.7-0.3,10,0.8c1.3,0.4,2.8,0.2,4.3,0.2c2.7,0.1,5.4-0.2,8.1,0.8
				c1,0.4,2.2,0.2,3.3,0.2c3.2,0.1,6.4-0.2,9.5,0.8c1,0.3,2.2,0.1,3.3,0.1c3,0.1,6-0.2,9,0.8c1.5,0.5,3.2,0.2,4.8,0.2
				c2.9,0.1,5.7-0.2,8.5,0.8c1,0.4,2.2,0.3,3.3,0.2c3.1-0.4,5.6,0.8,8,2.5c5.3,3.8,10.6,7.5,16,11.3c2.2,1.6,3.4,3.5,3.3,6.4
				c-0.2,5.4-0.1,10.8-0.1,16.3c-17.3,0-34.6,0-51.8,0c-0.5-1.1-1.3-1.7-2.5-1.9c-3.7-0.6-7.5-1.3-11.2-1.9
				c-1.4-0.2-2.8-0.5-4.2-0.7c-2.5-0.3-5-0.6-7.7,0.3c-0.1,1.5-0.2,2.9-0.2,4.3C497.4,639.8,483.4,639.8,469.3,639.8z"/>
			<path class="st4" d="M42.2,639.8c0-7.5,0-15,0-22.5c0-1,0-1.9,0-2.9c-0.1-1.6,0.5-2.7,2-3.5c7.5-3.9,15-7.8,22.5-11.7
				c0.8-0.4,1.8-0.8,2.7-0.7c3.5,0.1,7,0.3,10.5,0.6c0.9,0.1,1.9,0.3,2.8,0.3c4.1,0.1,8.3,0.5,12.4,0.8c5.9,0.4,11.7,1,17.6,1.3
				c3.2,0.1,6.3,0.6,9.5,0.9c3.2,0.2,6.4-0.1,9.5,0.8c1.3,0.4,2.9,0.3,4.3,0.2c2.2-0.1,4,0.4,5.8,1.7c5.8,4.2,11.7,8.2,17.6,12.4
				c1.9,1.4,3,3.1,2.9,5.6c-0.2,5.6,0,11.2,0,16.7c-17.3,0-34.6,0-51.8,0c-0.2-0.8-0.4-1.6-1.3-1.8c-1.5-0.4-3.1-0.8-4.6-1
				c-5.6-0.8-11.3-1.6-16.9-2.4c-2.2-0.3-2.9,0.2-3.1,2.4c-0.1,0.9,0,1.9,0,2.9C70.4,639.8,56.3,639.8,42.2,639.8z"/>
			<path class="st9" d="M1.8,625.3c8.1,1.4,16.2,2.7,24.2,4.1c1.9,0.3,2.4,0.9,2.5,2.8c0.1,2.5,0.1,5,0.2,7.6c-9.3,0-18.6,0-27.8,0
				c0.1-4.7,0.2-9.4,0.3-14.1C1.4,625.6,1.6,625.4,1.8,625.3z"/>
			<path class="st10" d="M0,345.3c4.3,0.3,8.2,2.1,12.2,3.5c2.4,0.9,4.8,1.5,7.3,1.8c0.1,0.3,0,0.6-0.2,0.8c-1.6,0.4-3,0.5-4.6-0.2
				c-3.1-1.3-6.3-2.3-9.4-3.4c-0.9-0.3-1.8-0.3-2.8-0.5c-0.8,1.9-0.5,3.7-0.5,5.4c0,24.1,0,48.1,0,72.2c0,1.6,0.1,3.2,0.1,4.8
				c0,1.7-0.1,3.5-0.1,5.2c0,19.5,0,39.1,0,58.6c0,1.7-0.1,3.5-0.1,5.2c-0.6,0-1.2,0-1.7,0C0,447.6,0,396.5,0,345.3z"/>
			<path class="st11" d="M927.1,639.8c0.3-6.3-0.1-12.6,0.2-18.9c3.5,0.4,15.4,5.2,19.4,7.7c0.2,3.6,0.4,7.4,0.5,11.2
				C940.5,639.8,933.8,639.8,927.1,639.8z"/>
			<path class="st12" d="M1051.9,639.8c-1.3-3.2-3.1-6.2-3.9-9.9c0.8-0.1,1.5-0.3,2-0.2c9.7,2.9,19.5,5.8,29.2,8.8
				c0.9,0.3,1.7,0.9,2.5,1.3C1071.7,639.8,1061.8,639.8,1051.9,639.8z"/>
			<path class="st6" d="M84.4,639.8c0-1-0.1-1.9,0-2.9c0.2-2.2,0.8-2.7,3.1-2.4c5.6,0.8,11.3,1.6,16.9,2.4c1.6,0.2,3.1,0.6,4.6,1
				c0.9,0.2,1.1,1,1.3,1.8C101.7,639.8,93.1,639.8,84.4,639.8z"/>
			<path class="st7" d="M511.5,639.8c0.1-1.4,0.2-2.8,0.2-4.3c2.7-0.9,5.2-0.6,7.7-0.3c1.4,0.2,2.8,0.5,4.2,0.7
				c3.7,0.6,7.5,1.3,11.2,1.9c1.2,0.2,2,0.8,2.5,1.9C528.8,639.8,520.2,639.8,511.5,639.8z"/>
			<path class="st13" d="M1.8,625.3c-0.2,0.2-0.4,0.3-0.6,0.4c-0.4-0.1-0.8-0.2-1.2-0.3c0-13.7,0-27.5,0-41.2c0.5,0,1,0.1,1.5,0.1
				c0.1,1.7,0.3,3.5,0.3,5.2C1.8,601.4,1.8,613.4,1.8,625.3z"/>
			<path class="st14" d="M0,543.9c0-4.8,0-9.6,0-14.4c0.3,0.1,0.7,0.2,1,0.3c1.5,0.6,3,1.3,4.8,2c-1.4,4-2.7,7.6-4,11.3
				C1.2,543.3,0.6,543.6,0,543.9z"/>
			<path class="st15" d="M0,543.9c0.6-0.3,1.2-0.6,1.8-0.8C1,548.2,1,553.5,1.1,558.8c0,6.2,0,12.5,0,18.7c0,1.1-0.1,2.3,0.1,3.3
				c0.2,0.7,0.9,1.2,1.4,1.7c-0.4,0.6-0.7,1.1-1.1,1.7c-0.5,0-1-0.1-1.5-0.1C0,570.7,0,557.3,0,543.9z"/>
			<path class="st14" d="M2632.6,638.8c-1.4-1.5-2.7-3.1-4.1-4.6c-1.3-1.4-2.6-2.7-4.3-4.3c3.1,0.4,5.7,0.8,8.3,1.2
				C2632.6,633.7,2632.6,636.3,2632.6,638.8z"/>
			<path class="st15" d="M1,529.8c-0.3-0.1-0.7-0.2-1-0.3c0-9.9,0-19.8,0-29.7c0.4,0.2,0.9,0.3,1.3,0.5c-0.1,1.9-0.2,3.8-0.2,5.7
				C1.1,513.9,1,521.8,1,529.8z"/>
			<path class="st15" d="M0,625.4c0.4,0.1,0.8,0.2,1.2,0.3c-0.1,4.7-0.2,9.4-0.3,14.1c-0.3-0.2-1,0.5-1-0.5C0,634.7,0,630,0,625.4z"
				/>
			<path class="st13" d="M1.3,500.2c-0.4-0.2-0.9-0.3-1.3-0.5c0-0.3,0-0.6,0-1c0.6,0,1.2,0,1.7,0c0.3,0.3,0.6,0.6,1,0.9
				C2.2,499.8,1.7,500,1.3,500.2z"/>
			<path class="st16" d="M95,370.5c11.8,4.7,23.5,9.5,35.3,14.2c7.5,3,15,6.1,22.5,9.2c0.4,0.2,0.9,0.4,1.3,0.6
				c2.4,0.9,3.5,2.4,3.3,5.1c-0.2,4.3,0,8.6,0,12.9c0,1.8-0.1,3.5-0.1,5.3c0,38.5,0,77,0,115.5c0,1.9-0.1,3.8-0.1,5.7
				c-0.8-0.1-1.6-0.1-2.4-0.3c-11.1-2.9-22.2-5.9-33.3-8.9c-24.3-6.5-48.7-13-73-19.6c-4.4-1.2-8.8-2.6-13.2-3.9c0-21.7,0-43.3,0-65
				c0-0.6-0.1-1.3-0.2-1.9c0.1-0.6,0.2-1.3,0.2-1.9c0-25.5,0-51,0-76.4c0-1.5-0.2-2.8-0.9-4.1c0-2,0.1-4,0-6
				c-0.1-1.6,0.6-2.6,1.7-3.5c1.3,0.4,2.7,0.7,4,1.2c1.9,0.6,3.8,1.3,5.7,2c0.6,0.5,1.1,1.1,1.8,1.4c11.9,4.8,23.8,9.7,35.7,14.4
				C87.2,367.9,91.1,369.1,95,370.5z M51.5,401.1c-0.2,0.4-0.4,0.5-0.4,0.6c-0.1,7.2-0.2,14.3-0.2,21.5c0,1.2,0.8,2.1,1.9,2.5
				c1.9,0.8,3.8,1.6,5.7,2.4c4.6,1.9,9.1,3.9,13.7,5.7c1.3,0.5,2.7,1.2,4.2,0c0.1-0.5,0.3-1.1,0.3-1.7c0-5.6-0.1-11.2,0.1-16.8
				c0.1-2.7-1.2-4.1-3.5-5.1c-6.4-2.8-12.8-5.8-19.2-8.7C53.2,401.3,52.3,401.3,51.5,401.1z"/>
			<path class="st17" d="M466.7,508.5c-0.1-1.6-0.2-3.2-0.2-4.8c0-49.8,0-99.6,0-149.3c0-1.9-0.5-3.9,0.7-5.6
				c1.9,0.5,3.7,1.1,5.6,1.6c0.8,2.3,3.2,2.5,5,3.2c9.1,3.7,18.2,7.3,27.4,10.9c5.6,2.2,11.2,4.4,16.8,6.5c1.4,0.4,2.8,0.6,4.1,1.2
				c10.5,4.1,21,8.3,31.5,12.5c7.4,3,14.7,6,22.1,9c0.4,0.2,0.9,0.4,1.3,0.6c2.6,0.9,3.7,2.6,3.5,5.5c-0.2,4.1-0.1,8.3-0.1,12.4
				c0,1.8-0.1,3.5-0.1,5.3c0,38.3,0,76.6,0,114.9c0,2.2-0.1,4.5-0.2,6.7c-1.3-0.2-2.5-0.4-3.7-0.7c-18-4.8-36-9.7-54-14.6
				c-17.5-4.7-35.1-9.4-52.6-14.1C471.4,509.2,469.2,508.2,466.7,508.5z M478.3,400.9c-0.2,1.3-0.4,1.9-0.4,2.5
				c0,6.1,0.1,12.1-0.1,18.2c-0.1,2.7,1.2,4,3.5,5c5.8,2.3,11.5,4.7,17.2,7.1c1.5,0.6,2.9,1.3,4.8,0.4c0.1-0.8,0.4-1.7,0.4-2.6
				c0-5.3-0.1-10.5,0.1-15.8c0.1-2.9-1.3-4.4-3.7-5.4c-6.3-2.8-12.5-5.6-18.7-8.4C480.6,401.4,479.7,401.3,478.3,400.9z"/>
			<path class="st13" d="M679.4,249.2c0,10.1,0,20.1,0,30.2c0,3.2,0,6.4-0.1,9.6c-0.1,2.1-0.4,4.1-0.6,6.2c-0.1,1.4-0.2,2.9-0.2,4.3
				c0,9.7,0,19.5-0.1,29.2c0,3.5,0.3,7-0.7,10.5c-0.3,1.2-0.1,2.5-0.1,3.8c0,11.3-0.1,22.7-0.1,34c0,1.7,0.2,3.5-0.5,5.4
				c-0.8-0.1-1.6,0-2.3-0.2c-10.1-3.6-20.1-7.3-30.1-11c-10.9-4-21.8-8.1-32.8-12.1c-7.9-2.9-15.9-5.7-23.9-8.6
				c-11.5-4.2-23-8.5-34.6-12.7c-1.1-0.4-2.1-0.8-2.6-1.9c0.9-0.8,1.8-1.8,2.8-2.5c16.3-11,32.6-22,48.8-33
				c23.6-15.9,47.2-31.8,70.8-47.7C675.2,251.3,676.9,249.5,679.4,249.2z"/>
			<path class="st18" d="M252.4,249.2c0,9.6,0.4,19.2-0.2,28.7c-1.1,17.2-0.5,34.4-0.9,51.6c-0.2,6.2-0.6,12.4-0.7,18.6
				c-0.2,9.1-0.1,18.2-0.2,27.3c0,1.6,0,3.2-0.1,4.8c-0.1,0.7-0.6,1.4-1,2.4c-42.3-15.3-84.3-30.8-126.4-46.2
				c0.2-0.4,0.5-0.8,0.8-1.1c15.2-10.3,30.4-20.6,45.6-30.8c14.8-10,29.6-20,44.4-29.9c11.4-7.7,22.7-15.3,34.1-23
				C249.2,250.6,250.5,249.3,252.4,249.2z"/>
			<path class="st19" d="M960.4,393.9c0.1,1.6,0.4,3.2,0.1,4.8c-1,5.1-0.6,10.2-0.7,15.3c-0.1,11.5-0.1,23-0.2,34.5
				c0,1.9-0.3,3.8-0.5,5.7c-0.1,1.3-0.2,2.5-0.2,3.8c-0.1,15.2-0.1,30.3-0.3,45.5c0,2.2-0.4,4.4-0.6,6.6c-0.1,2.2-0.1,4.5-0.2,6.7
				c-0.1,3.3-0.1,6.7-0.1,10.4c-1.4-0.3-2.5-0.3-3.4-0.6c-7.4-2.6-14.7-5.3-22-8c-6.4-2.4-12.9-4.7-19.3-7.1
				c-6.4-2.4-12.9-4.8-19.3-7.2c0-14.6,0-29.2-0.1-43.8c0-7.5,0-14.9,0-22.4c0-0.6,0.2-1.2,0.2-1.9c0.8,0,1.6,0.2,2.3-0.1
				c1.2-0.5,2.2-1.3,3.3-2c12.6-8.5,25.1-16.9,37.7-25.4c6.5-4.4,13-8.7,19.5-13C957.7,394.9,958.8,393.9,960.4,393.9z"/>
			<path class="st20" d="M522,371.1c-5.6-2.2-11.2-4.3-16.8-6.5c-9.1-3.6-18.3-7.2-27.4-10.9c-1.8-0.7-4.1-0.9-5-3.2
				c0.8-0.7,1.6-1.6,2.5-2c14.3-6.9,28.5-13.8,42.8-20.7c1.2-0.6,2.4-1.6,4-1.3c0,13-0.1,26-0.1,39C522.1,367.3,522,369.2,522,371.1
				z"/>
			<path class="st21" d="M95,370.5c-3.9-1.4-7.8-2.6-11.6-4.1c-11.9-4.7-23.8-9.6-35.7-14.4c-0.7-0.3-1.2-0.9-1.8-1.4
				c0.4-1.4,1.7-1.8,2.8-2.3c8.3-4,16.6-8,24.9-12c5.1-2.5,10.2-5.1,15.4-7.5c1.6-0.7,3.2-1.2,4.8-1.9c0.4,0.1,0.9,0.1,1.3,0.2
				C95.1,341.6,95,356,95,370.5z"/>
			<path class="st6" d="M36.2,347.4c-1.1,0.9-1.8,2-1.7,3.5c0.1,2,0,4,0,6c-4.8-1.5-9.6-3-14.3-4.6c-0.4-0.1-0.7-0.6-1-1
				c0.2-0.2,0.3-0.5,0.2-0.8c4.3-1.1,8.5-2.2,12.8-3.3C33.5,347,34.9,346.2,36.2,347.4z"/>
			<path class="st10" d="M123.6,335.3c-0.3,0.4-0.5,0.8-0.8,1.1c-5-1.8-10.1-3.5-15.1-5.3c-0.2-0.1-0.4-0.5-0.6-0.7
				c1.8-0.4,3.3,0.6,4.9,1.1C116,332.7,119.8,334,123.6,335.3z"/>
			<path class="st10" d="M95.1,327.1c-0.4-0.1-0.9-0.1-1.3-0.2c0.6-0.8,1.5-1.6,2.4-1.2c2.9,1.3,6.2,1.5,8.7,3.7
				c-1.7,0.6-3-0.5-4.5-0.9C98.6,328.2,96.9,327.6,95.1,327.1z"/>
			<path class="st21" d="M1144.1,477.4c-2.5-0.4-4.9-0.8-6.7-2.9c1.3,0.3,2.7,0.6,4.2,1c0.3-1.3,0.5-2.6,0.9-4.6
				C1143.4,473.6,1142.4,475.8,1144.1,477.4z"/>
			<path class="st21" d="M1151,480.5c-1.9,0-3.6-0.5-4.8-2.1C1148,478.5,1149.5,479.4,1151,480.5z"/>
			<path class="st21" d="M1137.4,474.5c-0.9,0.1-1.6-0.1-2-1C1136.1,473.9,1136.8,474.2,1137.4,474.5z"/>
			<path class="st21" d="M1146.1,478.3c-0.9,0.2-1.5,0-1.9-0.9C1144.8,477.7,1145.4,478,1146.1,478.3z"/>
			<path class="st22" d="M584.1,539.2c0.1-2.2,0.2-4.5,0.2-6.7c0-38.3,0-76.6,0-114.9c0-1.8,0.1-3.5,0.1-5.3c4.5,1.5,9.1,3,13.5,4.6
				c13.6,5,27.2,10.1,40.8,15.1c15.6,5.8,31.1,11.6,46.6,17.3c4.2,1.6,8.4,3,12.6,4.6c1.3,0.5,2.6,1.1,3.7,1.5
				c1.1,1.9,0.7,3.7,0.7,5.4c0,16.9,0,33.8,0,50.7c0,0.5,0.1,1,0.1,1.4c-0.1,1.7-0.2,3.5-0.2,5.2c0,16,0,32,0,48.1
				c0,1.3,0.1,2.6-0.1,3.8c-0.1,0.7-0.8,1.3-1.2,1.9c-35-9.7-70-19.5-105-29.2C592,541.8,588.1,540.4,584.1,539.2z M647.3,476
				c-0.9,3.7-0.9,16.1-0.1,20.1c3.4,1.6,14.4,4.6,18.5,5c0.1-0.7,0.4-1.5,0.4-2.2c0-4.2-0.1-8.3,0.1-12.5c0.1-2.3-0.9-3.5-2.9-4.3
				c-4.6-1.9-9.1-3.8-13.7-5.7C648.8,476,648,476.1,647.3,476z"/>
			<path class="st23" d="M767,513.3c1.3,0,2-0.2,2.5,0c12.1,4.5,24.2,9,36.3,13.5c0.1,1.4,0.4,2.5,0.4,3.5c0,25.5,0,51.1,0,76.6
				c0,1.2-0.2,2.5-0.3,3.5c-1.8,0.8-3.1,0.4-4.5,0c-6.5-2-13.1-4-19.7-5.9c-3.8-1.1-7.7-2.1-11.5-3.3c-1-0.3-2-0.9-3.2-1.4
				c-0.3-5.8-0.1-11.5-0.1-17.2c0-5.7,0-11.5,0-17.2s0-11.5,0-17.2s0-11.5,0-17.2C766.9,525.2,766.7,519.5,767,513.3z"/>
			<path class="st24" d="M767.8,485.3c1.5,0.2,2.6,0.2,3.7,0.5c8.3,2.4,16.5,4.9,24.8,7.4c3.8,1.1,7.6,2.5,11.5,3.5
				c2.3,0.6,3.4,1.9,4.2,4c2.3,6.3,4.8,12.5,7.2,18.8c0.3,0.8,0.3,1.8,0.5,3.1c-1.1,0-1.8,0.2-2.5,0c-11.6-3-23.2-6.1-34.8-9
				c-2.4-0.6-3.9-1.8-4.8-4.1c-3-7.4-6.3-14.7-9.4-22C767.9,487,768,486.5,767.8,485.3z"/>
			<path class="st24" d="M714,312.5c7.1,3.8,13.8,7.5,20.6,11.1c0.9,3.7,0.3,7.4,0.4,11c0.1,3.7,0.1,7.3,0,11
				c-0.1,3.6,0.4,7.2-0.5,11c-0.9-0.1-1.5-0.1-2.1-0.4c-5.5-2.2-10.9-4.5-16.4-6.7c-1.8-0.7-2.8-1.8-2.8-3.9
				c0.1-10.4,0-20.7,0.1-31.1C713.4,314.2,713.6,313.7,714,312.5z"/>
			<path class="st25" d="M157.2,539c0-1.9,0.1-3.8,0.1-5.7c0-38.5,0-77,0-115.5c0-1.8,0.1-3.5,0.1-5.3c0.9,0.2,1.9,0.3,2.8,0.6
				c37,13.7,74.1,27.4,111.1,41.1c1.2,0.4,2.3,1,3.6,1.6c0.1,1.2,0.3,2.3,0.3,3.3c0,17.6,0,35.2-0.1,52.7c0,0.3,0.1,0.6,0.1,0.9
				c-0.1,1.9-0.3,3.8-0.3,5.7c0,17.8-0.1,35.6-0.1,53.4c-2-0.4-4.1-0.8-6.1-1.3c-35.6-9.9-71.2-19.7-106.8-29.7
				C160.4,540.4,158.8,539.6,157.2,539z M238.9,483.4c-5-2.1-9.7-4.1-14.4-6c-1.2-0.5-2.4-1-3.6-1.4c-0.3-0.1-0.6,0.1-0.9,0.2
				c-0.8,3.8-0.7,16.2,0.1,19.8c3.8,1.7,14.8,4.7,18.3,5c0.2-0.4,0.4-0.8,0.4-1.3C238.9,494.4,238.9,489.2,238.9,483.4z"/>
			<path class="st24" d="M584.1,539.2c3.9,1.2,7.8,2.6,11.8,3.7c35,9.8,70,19.5,105,29.2c0.1,0.6,0.4,1.3,0.3,1.8
				c-0.2,0.8-0.6,1.5-1,2.2c-8.9,18.1-17.7,36.1-26.6,54.2c-2.1,4.3-2.2,4.3-6.6,2.9c-5.2-1.6-10.4-3.2-15.6-4.8
				c-1.5-0.5-3-1-4.7-1.6c-0.1-1.7-0.2-3.3-0.2-4.8c0-7,0-14.1,0-21.1c0-1,0-1.9,0-2.9c0.1-2.3-1-3.5-3.1-4.2
				c-3.9-1.3-7.8-2.8-11.7-4.2c-14.9-5.4-29.8-10.7-44.6-16.1c-2-0.7-4-0.9-6.1-0.6c-6.3,0.9-12.6,1.8-18.9,2.6c-0.2,0-0.3,0-0.5,0
				c-10.8,1.7-8.5,1.3-18.2-1.8c-17.9-5.8-35.8-11.6-53.8-17.4c-7.6-2.4-15.2-4.8-22.9-7.1c-0.1-1.1-0.4-2.2-0.4-3.3
				c0-11.7,0-23.4,0-35.1c0-0.8,0.1-1.6,0.2-2.4c2.5-0.3,4.7,0.7,7,1.3c17.6,4.6,35.1,9.4,52.6,14.1c18,4.8,36,9.7,54,14.6
				C581.6,538.8,582.9,539,584.1,539.2z"/>
			<path class="st26" d="M340.5,512.4c13,4.9,25.6,9.6,38.4,14.4c0.2,1.3,0.4,2.4,0.4,3.5c0,25.9,0,51.8,0,77.7
				c0,1.1-0.2,2.2-0.3,3.5c-4.7-0.7-8.8-2.4-13.1-3.5c-4.3-1.2-8.6-2.5-12.9-3.8c-4.3-1.3-8.5-2.5-12.5-3.7
				c-0.3-0.6-0.4-0.7-0.5-0.9c-0.1-0.1-0.2-0.3-0.2-0.4c0-28-0.1-55.9-0.1-83.9c0-0.5,0-1,0.1-1.4
				C339.9,513.6,340.1,513.3,340.5,512.4z"/>
			<path class="st9" d="M340.1,484.5c1.8,0.4,3,0.6,4.2,1c12.1,3.6,24.1,7.3,36.2,10.9c2.4,0.7,3.8,1.8,4.6,4.2
				c2.4,6.6,5,13.1,7.5,19.7c0.3,0.8,0.5,1.8,0.8,3c-1.1-0.1-1.9,0-2.6-0.2c-11.9-3.1-23.7-6.2-35.6-9.3c-2.3-0.6-3.9-1.6-4.9-4
				c-3.2-7.8-6.7-15.5-10-23.3C340.1,486.1,340.2,485.6,340.1,484.5z"/>
			<path class="st9" d="M307.6,357c-4.5-1.1-17.8-6.6-21-8.6c-0.6-4.3-0.6-31.7,0.1-35.3c0.3-0.1,0.7-0.3,0.9-0.2
				c7,3.1,13.5,7.1,20.1,10.5C308.2,328.1,308.2,353,307.6,357z"/>
			<path class="st12" d="M1015.3,501.7c-4.9-1.1-17.4-6.3-20.8-8.5c-0.4-3.3-0.7-26.8-0.4-33.5c0-0.6,0.3-1.2,0.5-2.1
				c0.9,0.3,1.7,0.4,2.4,0.8c5.5,2.9,11,5.9,16.5,8.8c1.8,0.9,2.5,2.2,2.5,4.2c0,9.1,0,18.2,0,27.3
				C1015.9,499.6,1015.6,500.5,1015.3,501.7z"/>
			<path class="st27" d="M157.2,539c1.6,0.6,3.2,1.4,4.9,1.8c35.6,9.9,71.2,19.8,106.8,29.7c2,0.5,4,0.9,6.1,1.3
				c0.4,1.2-0.3,2.2-0.8,3.2c-2.5,5-5,10-7.4,15c-6.6,13.5-13.2,27-19.8,40.5c-0.7,1.4-1.5,2.8-2.3,4.3c-3.2-0.5-6.1-1.6-8.9-2.5
				c-4.3-1.3-8.6-2.6-12.8-3.9c-3.5-1.1-3.8-1.4-3.9-5c0-7.7,0-15.3,0-23c0-1.6,0-3.2,0-4.9c-1.3-0.6-2.4-1.2-3.6-1.7
				c-13.4-4.8-26.8-9.6-40.1-14.4c-4.8-1.7-9.6-3.4-14.4-5.2c-2.3-0.9-4.5-1.2-7-0.8c-8.4,1.3-16.8,2.1-25.1,3.4
				c-2,0.3-3.8,0-5.6-0.6c-9.3-3-18.5-6-27.8-9c-22.2-7.2-44.4-14.3-66.6-21.5c-3.5-1.2-4.2-0.4-5.8,2.2c-5.7,9.6-11.3,19.3-17,28.9
				c-1.1,1.9-2.3,3.9-3.4,5.8c-0.5-0.6-1.2-1.1-1.4-1.7c-0.2-1.1-0.1-2.2-0.1-3.3c0-6.2,0-12.5,0-18.7c0-5.3-0.1-10.5,0.7-15.7
				c1.3-3.7,2.6-7.3,4-11.3c-1.7-0.7-3.2-1.3-4.8-2c0-7.9,0-15.9,0.1-23.8c0-1.9,0.1-3.8,0.2-5.7c0.5-0.2,0.9-0.4,1.4-0.6
				c8.7,1.9,17.4,3.8,26.1,5.7c2.2,0.5,4.4,0.7,6.6,1c4.4,1.3,8.8,2.7,13.2,3.9c24.3,6.6,48.6,13.1,73,19.6
				c11.1,3,22.2,5.9,33.3,8.9C155.6,538.9,156.4,538.9,157.2,539z"/>
			<path class="st28" d="M19.2,351.4c0.3,0.3,0.6,0.8,1,1c4.8,1.6,9.5,3.1,14.3,4.6c0.8,1.3,0.9,2.7,0.9,4.1c0,25.5,0,51,0,76.4
				c0,0.6-0.1,1.3-0.2,1.9c-9.1-2.8-18.2-5.7-27.3-8.5c-2-0.6-4-0.9-6-1.3c0-1.6-0.1-3.2-0.1-4.8c0-24.1,0-48.1,0-72.2
				c0-1.7-0.3-3.5,0.5-5.4c1,0.2,1.9,0.2,2.8,0.5c3.2,1.1,6.4,2.1,9.4,3.4C16.2,351.8,17.6,351.8,19.2,351.4z"/>
			<path class="st29" d="M1.9,429.7c2,0.4,4.1,0.7,6,1.3c9.1,2.8,18.2,5.6,27.3,8.5c0.1,0.6,0.2,1.3,0.2,1.9c0,21.7,0,43.3,0,65
				c-2.2-0.3-4.4-0.6-6.6-1c-8.7-1.9-17.4-3.8-26.1-5.7c-0.3-0.3-0.6-0.6-1-0.9c0-1.7,0.1-3.5,0.1-5.2c0-19.5,0-39.1,0-58.6
				C1.9,433.2,1.9,431.4,1.9,429.7z"/>
			<path class="st23" d="M51.5,401.1c0.8,0.2,1.7,0.2,2.6,0.6c6.4,2.9,12.8,5.8,19.2,8.7c2.3,1,3.5,2.4,3.5,5.1
				c-0.2,5.6,0,11.2-0.1,16.8c0,0.6-0.2,1.2-0.3,1.7c-1.5,1.2-2.9,0.5-4.2,0c-4.6-1.9-9.1-3.8-13.7-5.7c-1.9-0.8-3.8-1.6-5.7-2.4
				c-1.1-0.5-1.9-1.3-1.9-2.5c0-7.2,0.1-14.3,0.2-21.5C51.1,401.6,51.2,401.5,51.5,401.1z"/>
			<path class="st30" d="M478.3,400.9c1.4,0.4,2.3,0.6,3.1,0.9c6.2,2.8,12.5,5.6,18.7,8.4c2.4,1.1,3.8,2.6,3.7,5.4
				c-0.2,5.3,0,10.5-0.1,15.8c0,0.9-0.3,1.8-0.4,2.6c-1.8,0.9-3.3,0.3-4.8-0.4c-5.7-2.4-11.4-4.8-17.2-7.1c-2.3-0.9-3.6-2.2-3.5-5
				c0.2-6,0.1-12.1,0.1-18.2C477.9,402.8,478.1,402.2,478.3,400.9z"/>
			<path class="st30" d="M647.3,476c0.7,0.1,1.5,0.1,2.2,0.4c4.6,1.9,9.1,3.9,13.7,5.7c2,0.8,3,2,2.9,4.3c-0.2,4.1,0,8.3-0.1,12.5
				c0,0.8-0.3,1.5-0.4,2.2c-4.1-0.4-15-3.4-18.5-5C646.4,492,646.4,479.7,647.3,476z"/>
			<path class="st31" d="M238.9,483.4c0,5.8,0,11.1,0,16.3c0,0.4-0.3,0.9-0.4,1.3c-3.6-0.3-14.6-3.3-18.3-5
				c-0.8-3.6-0.8-16-0.1-19.8c0.3-0.1,0.7-0.2,0.9-0.2c1.2,0.4,2.4,0.9,3.6,1.4C229.2,479.3,233.9,481.3,238.9,483.4z"/>
		</g>
	</g>
	<g id="Capa_3_xA0_Imagen_00000042717869805602747310000009554561450095242400_" class="st1">
		
			<image style="overflow:visible;enable-background:new    ;" width="10894" height="1430" id="Capa_3_xA0_Imagen" xlink:href="F6EBAAEF.png"  transform="matrix(0.24 0 0 0.24 50.322 296.8645)">
		</image>
	</g>
</g>
<g id="Capa_2">
	<g>
		<polygon class="st32" points="116.7,587.3 17.4,587.3 41.7,640.1 93.3,640.1 		"/>
		<polygon class="st33" points="2586,379.8 2640,401.7 2586,427.3 		"/>
		<polygon class="st34" points="2431.1,296.9 2562.2,388.1 2431.1,434.3 		"/>
		<polygon class="st35" points="2164.9,368.4 2210.7,399.4 2164.9,417.6 		"/>
		<polygon class="st36" points="2010,285.6 2144.6,375.6 2010,423 		"/>
		<polygon class="st37" points="2647.9,398.5 2667.1,403.2 2647.1,409.4 		"/>
		<polygon class="st38" points="1726.4,437.2 1789.6,480.1 1789.6,552.3 1726.4,574.6 		"/>
		<polygon class="st39" points="1545.3,489.4 1578.7,505.9 1545.3,521.4 		"/>
		<polygon class="st40" points="1390.4,406.5 1525.6,496.3 1390.4,543.9 		"/>
		<polygon class="st41" points="949.6,388.3 895.1,430.2 895.1,508.2 949.6,525.8 		"/>
		<polygon class="st13" points="674.7,234.2 540.6,324.4 674.7,371.7 		"/>
		<polygon class="st42" points="519.8,317.1 519.8,369 473.7,350.1 		"/>
		<polygon class="st43" points="519.8,564.7 519.8,640.1 468.5,640.1 466.6,546.9 		"/>
		<polygon class="st34" points="248.2,247.5 248.2,384.9 116.7,338.6 		"/>
		<polygon class="st44" points="93.3,330.3 93.3,371.1 43.4,350.7 		"/>
		<polygon class="st44" points="34.9,347.3 17.4,352.7 34.9,358.2 		"/>
	</g>
	<g>
		<polygon class="st45" points="1545.3,489.4 1390.4,543.9 1390.4,406.5 1170,509 1170,640.1 1545.3,640.1 		"/>
		<polygon class="st5" points="1881.3,520.1 1726.4,574.6 1726.4,437.2 1506,539.7 1506,640.1 1881.3,639.8 		"/>
		<polygon class="st3" points="2164.9,368.4 2010,423 2010,285.6 1789.6,388.1 1789.6,640.1 2164.9,640.1 		"/>
		<polygon class="st46" points="2586,379.8 2431.1,434.3 2431.1,296.9 2210.7,399.4 2210.7,640.1 2586,640.1 		"/>
		<polygon class="st47" points="794.7,471.2 949.6,525.8 949.6,388.3 1170,490.9 1170,640.1 794.7,640.1 		"/>
		<polygon class="st48" points="519.8,317.1 674.7,371.7 674.7,234.2 895.1,336.8 895.1,640.1 519.8,640.1 		"/>
		<polygon class="st46" points="93.3,330.3 248.2,384.9 248.2,247.5 468.5,350 468.5,640.1 93.3,640.1 		"/>
	</g>
	<polygon class="st43" points="2217,596 2217,640.1 2164.9,640.1 2164.9,613.4 	"/>
	<g>
		<polygon class="st49" points="2380.9,640.1 2380.9,600.9 2410.3,557.3 2667.1,470.9 2667.1,640.1 2645.6,640.1 2641.6,640.1 
			2614,640.1 2545.9,640.1 2520.1,640.1 2518.5,640.2 		"/>
		<polygon class="st28" points="2647.1,409.4 2647.1,557.3 2667.1,552.2 2667.1,403.2 		"/>
		<polygon class="st50" points="2647.1,557.3 2647.1,598.2 2656.6,598.2 2667.3,617.5 2667.4,599.2 2667.3,584 2667.1,552.2 
			2667.1,552.2 		"/>
		<polygon class="st29" points="2647.1,491.3 2667.3,484.2 2667.1,552.2 2647.1,557.3 2647.1,491.3 		"/>
	</g>
	<g>
		<polygon class="st49" points="301.1,640.1 301.1,549.6 271.6,506 0,414.6 0,640.1 41.7,640.1 40.9,612.6 68.7,598.7 138.3,603.6 
			162,618.3 162.8,640.1 		"/>
		<polygon class="st28" points="34.9,358.2 34.9,506 0,497.3 0,347.3 		"/>
		<polygon class="st50" points="34.9,506 34.9,546.9 25.4,546.9 0,587.3 0,546.6 6.5,531.6 0,528.3 0,497.3 		"/>
		<polygon class="st29" points="34.9,440 0,430.2 0,497.3 34.9,506 34.9,440 		"/>
	</g>
	<g>
		<polygon class="st51" points="275.5,455.3 275.5,572 34.9,506 34.9,366.3 		"/>
		<polygon class="st32" points="155.2,396.3 155.2,539 34.9,506 34.9,347.3 		"/>
		<polygon class="st31" points="238.9,483.1 238.9,501.1 218.7,495.6 218.7,476.5 		"/>
		<polygon class="st23" points="75.8,412.2 75.8,435.6 50.3,427.4 50.3,402.9 		"/>
		<polygon class="st50" points="275.5,572 244.9,634.7 218.7,628.2 218.7,596.5 155.2,572 126,577.4 34.9,546.9 34.9,506 		"/>
		<polygon class="st52" points="707.2,455.3 707.2,572 466.6,506 466.6,366.3 		"/>
		<polygon class="st53" points="586.9,396.3 586.9,539 466.6,506 466.6,347.3 		"/>
		<polygon class="st31" points="670.6,483.1 670.6,501.1 650.5,495.6 650.5,476.5 		"/>
		<polygon class="st23" points="507.5,412.2 507.5,435.6 482,427.4 482,402.9 		"/>
		<polygon class="st50" points="707.2,572 676.6,634.7 650.5,628.2 650.5,596.5 586.9,572 557.7,577.4 466.6,546.9 466.6,506 		"/>
		<polygon class="st54" points="981.5,601.9 981.5,640.1 895.1,640.1 895.1,570 		"/>
		<polygon class="st31" points="945,629.7 945,640.1 924.8,640.1 924.8,623.2 		"/>
		<polygon class="st55" points="2407.4,506.5 2407.4,623.3 2647.9,557.3 2647.9,417.6 		"/>
		<polygon class="st32" points="2527.6,447.6 2527.6,590.3 2647.9,557.3 2647.9,398.5 		"/>
		<polygon class="st31" points="2443.9,534.3 2443.9,552.3 2464.1,546.9 2464.1,527.8 		"/>
		<polygon class="st23" points="2607,463.4 2607,486.9 2632.5,478.7 2632.5,454.2 		"/>
		<polygon class="st50" points="2407.4,623.3 2415.6,640.1 2486,640.1 2486,640.1 2527.6,623.3 2556.8,628.7 2647.9,598.2 
			2647.9,557.3 		"/>
		<polygon class="st56" points="1976.5,504.3 1976.5,621.1 2217,555.1 2217,415.4 		"/>
		<polygon class="st57" points="2096.7,445.4 2096.7,588.1 2217,555.1 2217,396.3 		"/>
		<polygon class="st31" points="2013,532.2 2013,550.2 2033.2,544.7 2033.2,525.6 		"/>
		<polygon class="st23" points="2176.1,461.3 2176.1,484.7 2201.6,476.5 2201.6,452 		"/>
		<polygon class="st50" points="1976.5,621.1 1990.4,640.1 2047.5,640.1 2047.5,640.1 2096.7,621.1 2125.9,626.5 2217,596 
			2217,555.1 		"/>
		<polygon class="st58" points="1357.7,617.5 1506,563.2 1506,640.1 1357.7,640.1 		"/>
		<polygon class="st59" points="1789.6,617.1 1789.6,640.1 1726.4,640.1 		"/>
	</g>
	<g>
		<polygon class="st60" points="285.3,312.9 306.5,323.8 306.5,356 285.3,347.3 		"/>
		<polygon class="st61" points="340.4,513.1 379.1,527.4 379.1,610.7 340.4,599.8 		"/>
		<polygon class="st60" points="340.4,484.7 379.1,497.3 388.9,522.9 349.7,510.4 		"/>
	</g>
	<g>
		<polygon class="st60" points="713.3,312.2 734.5,323.1 734.5,355.2 713.3,346.5 		"/>
		<polygon class="st61" points="768.4,512.3 807.1,526.6 807.1,610 768.4,599.1 		"/>
		<polygon class="st60" points="768.4,484 807.1,496.5 816.9,522.2 777.7,509.6 		"/>
	</g>
	<g>
		<polygon class="st60" points="1969.6,363.4 1948.4,374.3 1948.4,406.5 1969.6,397.8 		"/>
		<polygon class="st61" points="1914.5,563.6 1875.8,577.9 1875.8,640.1 1914.5,640.1 		"/>
		<polygon class="st60" points="1914.5,535.2 1875.8,547.8 1866,573.4 1905.2,560.9 		"/>
	</g>
	<g>
		<polygon class="st60" points="2394.1,335.3 2372.8,346.2 2372.8,378.3 2394.1,369.6 		"/>
		<polygon class="st61" points="2339,535.4 2300.3,549.7 2300.3,633.1 2339,622.2 		"/>
		<polygon class="st60" points="2339,507.1 2300.3,519.6 2290.4,545.3 2329.6,532.7 		"/>
	</g>
	<polygon class="st60" points="1688.5,506.3 1667.2,517.2 1667.2,549.3 1688.5,540.6 	"/>
	<polygon class="st60" points="1350.3,472.8 1329,483.8 1329,515.9 1350.3,507.2 	"/>
	<polygon class="st60" points="995.2,455 1016.5,465.9 1016.5,498.1 995.2,489.3 	"/>
</g>
</svg>
