<?xml version="1.0" encoding="utf-8"?>
<!-- Generator: Adobe Illustrator 28.1.0, SVG Export Plug-In . SVG Version: 6.00 Build 0)  -->
<svg version="1.1" id="Capa_1" xmlns="http://www.w3.org/2000/svg" xmlns:xlink="http://www.w3.org/1999/xlink" x="0px" y="0px"
	 viewBox="0 0 303.3 388.4" style="enable-background:new 0 0 303.3 388.4;" xml:space="preserve">
<style type="text/css">
	.st0{display:none;}
	.st1{fill:#ED9212;}
	.st2{fill:#FDE66C;}
	.st3{fill:#93BDFE;}
	.st4{fill:#B35717;}
	.st5{fill:#DD600A;}
	.st6{fill:#F99C25;}
	.st7{fill:#FFBD30;}
	.st8{fill:#E3790A;}
	.st9{fill:#EB8841;}
	.st10{fill:#CB6725;}
	.st11{fill:#E18142;}
	.st12{fill:#D37931;}
	.st13{fill:#110C15;}
	.st14{fill:#F49039;}
	.st15{fill:#F58D14;}
	.st16{fill:#DFA44C;}
	.st17{fill:#ECB05B;}
	.st18{fill:#A67F4B;}
	.st19{fill:#ECC373;}
	.st20{fill:#B87A35;}
	.st21{fill:#FBC984;}
	.st22{fill:#C7A565;}
	.st23{fill:#996D4C;}
	.st24{fill:#EBB07B;}
	.st25{fill:#E6CA82;}
	.st26{fill:#7F170C;}
	.st27{fill:#010001;}
	.st28{fill:#704737;}
	.st29{fill:#000001;}
	.st30{fill:#FAF3A2;}
	.st31{fill:#871C03;}
	.st32{fill:#FCF19E;}
	.st33{fill:#010203;}
	.st34{fill:#000200;}
	.st35{fill:#020101;}
	.st36{fill:#280203;}
	.st37{fill:#010000;}
	.st38{fill:#4C3F34;}
	.st39{fill:#594B35;}
	.st40{fill:#020002;}
	.st41{fill:#8F4624;}
	.st42{fill:#1B0401;}
	.st43{fill:#522E22;}
	.st44{fill:#71441B;}
	.st45{fill:#554021;}
	.st46{fill:#513415;}
	.st47{fill:#391F13;}
	.st48{fill:#573220;}
	.st49{fill:#875739;}
	.st50{fill:#DEBC83;}
	.st51{fill:#4F261D;}
	.st52{fill:#BFA46D;}
	.st53{fill:#AE955D;}
	.st54{fill:#9F6443;}
	.st55{fill:#D46B42;}
	.st56{fill:#000101;}
	.st57{fill:#090200;}
</style>
<g id="Capa_1_00000118370275954448576990000000977886255266621610_" class="st0">
	
		<image style="display:inline;overflow:visible;enable-background:new    ;" width="250" height="347" xlink:href="54318B43.jpeg"  transform="matrix(1 0 0 1 27 20.3501)">
	</image>
</g>
<g id="Capa_2_00000017513975346508546570000011941542978504384446_">
	<polygon class="st1" points="161.7,110.2 211.4,87.3 212,118.1 247.5,105.1 247.5,123.1 243,146.6 277,141.1 277,190.8 
		259.8,194.2 259.8,203.6 233.2,204.6 233.2,199.3 198.2,205.9 161.7,212.1 161.7,224.3 152,225.3 152,182.1 161.7,184.9 
		161.7,184.9 	"/>
	<polygon class="st2" points="211.4,87.3 241.2,107.4 212,118.1 	"/>
	<polygon class="st3" points="206.2,134.8 233.2,124.8 233.2,154.1 206.2,161.6 	"/>
	<polygon class="st4" points="261.2,109.8 268,111.6 261.2,115.9 	"/>
	<polygon class="st5" points="233.2,121.1 233.2,154.1 261.2,146.6 261.2,109.8 	"/>
	<polygon class="st6" points="261.2,112.3 277,106.8 277,126.3 261.2,131.1 	"/>
	<polygon class="st7" points="277,126.3 277,143.2 261.2,146.6 261.2,131.1 	"/>
	<polygon class="st8" points="186,182.1 160,187.8 160,216.6 186,212.6 198.2,213.3 198.2,184.9 	"/>
	<polygon class="st9" points="161.7,154.4 130,139.3 130,175.6 161.7,184.9 	"/>
	<polygon class="st10" points="130,139.3 118,143.2 118,120.1 107.8,124.8 94,126.3 94,120.1 84.8,124.8 84.8,129.6 102,139.3 
		119.8,152.1 120,169.6 130,175.6 	"/>
	<polygon class="st11" points="76,122.3 116.8,139.3 116.8,147.8 76,133.3 	"/>
	<polygon class="st12" points="76,109.8 81,113.3 81,122.3 85.9,124.2 85.9,127.8 76,126.3 	"/>
	<polygon class="st13" points="76,133.3 76,141.8 127.2,158.6 131.2,152.8 	"/>
	<polygon class="st14" points="76,141.8 98.4,149.2 98.4,162.1 130,172.1 130,186.3 76,172.3 	"/>
	<polygon class="st15" points="76,172.3 76,226.3 119.8,229.6 152,225.3 152,182.1 130,175.6 130,186.3 	"/>
	<polygon class="st16" points="161.7,132.8 148.2,139.3 148.2,148 161.7,154.4 	"/>
	<polygon class="st17" points="118,120.1 120.5,127.8 120.5,135.1 124.2,135.1 148.2,146 148.2,148 130,139.3 118,143.2 	"/>
	<path class="st18" d="M27,22.3c0,0,35.5,14.5,49,50.2v37.2v62.5v54v39l4.8,6.2v22c0,0-12.5,9.5-53.8,12V22.3z"/>
	<path class="st19" d="M154.8,225.1v55.8H148v-24.2c0,0-18.2-37.8-72-7.5v-22.8l43.8,3.2l32.2-4.2L154.8,225.1z"/>
	<path class="st20" d="M148,280.9v-24.2c0,0-20-38-72-7.5v16.3l4.8,6.2v8.6L148,280.9z"/>
	<path class="st21" d="M80.8,285.6v8c0,0-13.8,10.2-53.8,12v17.2c0,0,70-16.8,68.8-28.5C95.8,294.4,97.8,286.9,80.8,285.6z"/>
	<polygon class="st22" points="277,190.8 259.8,194.2 259.8,203.6 233.2,204.6 233.2,199 198.2,205.2 198.2,213.3 186,212.6 
		161.7,216.3 161.7,224.3 154.8,225.1 154.8,280.9 277,285.6 	"/>
	<path class="st23" d="M277,292.6v74.5H27v-44.5c0,0,70.2-17.2,68.8-28.5c0,0,0.5-8.2-15-8.8v-6.8C80.8,278.6,189.1,285.4,277,292.6
		z"/>
	<path class="st24" d="M277,285.6v8.8c0,0-187.3-15.7-196.2-15.5l67.2,2h6.8L277,285.6z"/>
	<polygon class="st25" points="247.5,105.1 259.1,110.7 247.5,115.4 	"/>
	<polygon class="st26" points="120,168.9 119.8,156.2 98.4,149.2 98.4,162.1 	"/>
</g>
<g id="Capa_5">
	<polygon class="st4" points="206.2,147.7 199.5,156.6 200.6,184.2 222.4,177.6 222.4,182.1 232.1,179.3 232.1,172.3 237.2,168.7 
		253.6,167.5 259.6,170.6 259.6,184.2 263.6,184.9 270.9,184 270.9,180.6 277,179.8 277,150.1 267.8,152.1 214.5,165.5 206.2,161.6 
			"/>
	<polygon class="st27" points="181.4,144.5 179.1,150.3 188.6,147.8 191.4,141.5 	"/>
	<polygon points="233.2,204.6 259.8,203.6 244.1,222.1 229.2,222.7 225.2,215.2 225.2,200.4 233.2,199 	"/>
	<polygon class="st28" points="277,212.6 221,283.4 277,286.6 	"/>
	<polygon class="st29" points="198.1,219.3 183.7,236.5 154.9,245.1 154.9,213.9 161.1,204.3 161.1,216.5 162.7,216.2 186.2,212.6 
		198.1,213.3 	"/>
	<path class="st30" d="M148,256.6c0,0-25.6-37.4-72-7.5V240c0,0,37.6-23.8,72,4.1V256.6z"/>
	<polyline class="st31" points="149.8,204 161.7,184.6 135.1,177.1 130,175.6 130,186.3 76,172.3 76,194.9 119.4,204 120,210 
		127.8,204 127.8,199.3 	"/>
	<path class="st32" d="M76,265.4l4.8,6.2c0,0-7.1,2.8-53.8,3.1v-8.6C27,266.1,74.1,267.4,76,265.4z"/>
	<polygon class="st33" points="59.1,207.2 70.4,225.1 70.5,208.6 	"/>
	<polygon class="st34" points="35.4,72.1 38.8,82.2 58.5,95.5 55.2,81.7 	"/>
	<polygon class="st35" points="61,134.1 71.8,158.6 71.8,137.8 	"/>
	<polygon class="st36" points="127.2,158.6 120,168.9 119.8,156.2 	"/>
	<path d="M148,256.6l-21.3,23.6H116l-35.2,5.2v-13.8l-4.8-6.2v-16.3C76,249.1,119.2,218.8,148,256.6z"/>
</g>
<g id="Capa_3">
	<polygon class="st37" points="203.6,102 203.6,110.2 198.8,112.2 198.8,104.6 	"/>
	<polygon class="st38" points="219,139.3 219,144.1 214.5,145.3 214.5,141.2 	"/>
	<polygon class="st39" points="251.9,124.8 257.6,122.2 257.6,127.7 251.9,130.1 	"/>
	<polygon class="st40" points="262.9,174.8 270.9,173.5 270.9,184 262.9,185.2 	"/>
	<polygon class="st41" points="244.1,176.7 249.9,175.8 249.9,186 244.1,186.7 	"/>
	<polygon class="st42" points="222.4,181.3 232.1,179.3 232.1,199.3 222.4,201 	"/>
	<polygon class="st43" points="200.6,190.8 207.5,188.8 207.5,200.6 200.6,201.8 	"/>
	<polygon class="st44" points="190.4,190.4 195.2,190.8 195.2,199.3 190.4,199.3 	"/>
	<polygon class="st45" points="179.9,191.8 179.9,201.4 172.1,203 172.1,193.8 	"/>
	<polygon class="st46" points="191.4,147.8 191.4,168 182.4,170.6 182.4,151.2 	"/>
	<polygon class="st46" points="144.1,154.1 152.9,157.8 152.9,166.8 144.1,164 	"/>
	<polygon class="st47" points="83.2,131.5 88.2,133.3 88.2,137.7 83.2,135.9 	"/>
	<polygon class="st48" points="97.1,191.8 106.5,194.2 106.5,214 97.1,214 	"/>
	<polygon class="st49" points="130,198.5 137.5,200.2 137.5,220.3 130,220.3 	"/>
	<polygon class="st50" points="35.5,36.7 55.2,51.1 55.2,81.5 35.5,72.5 	"/>
	<polygon class="st51" points="38.8,43.1 51.8,51.8 51.8,79.9 38.8,74 	"/>
	<polygon class="st52" points="61.1,101.2 71.8,109.8 71.8,137.7 61.1,134.1 	"/>
	<polygon class="st51" points="63.4,106.2 70.1,111.8 70.1,137.1 63.4,134.8 	"/>
	<polygon class="st53" points="59.1,171.5 70.4,178 70.4,208.6 59.1,206.8 	"/>
	<polygon class="st51" points="61.4,175.6 68.4,179.3 68.4,208.3 61.4,207.2 	"/>
	<rect x="27" y="171.5" class="st40" width="7.8" height="14.1"/>
</g>
<g id="Capa_4">
	<polygon class="st54" points="198.2,213.3 198.2,219.5 191,219.5 199.8,235 199.8,239.3 186,219.2 163.8,223.1 170.6,236.5 
		170,241.2 160,223.3 160,216.6 186,212.6 	"/>
	<polygon class="st55" points="119.4,219.2 124.2,219.2 150.8,221.8 150.8,226.9 147.4,226.9 145.8,231 120.2,228.8 122.5,225.1 
		119.4,225.1 	"/>
	<polygon points="206.2,161.6 213.2,175.8 219,174.1 219,166.7 233.2,161.6 240.4,162.6 263.6,155.1 272.8,170.6 272.8,165 
		267.8,152.1 261.2,146.6 233.2,154.1 	"/>
	<polygon class="st56" points="261.2,146.6 277,143.2 277,150.1 267.8,152.1 	"/>
	<polygon class="st57" points="161.7,184.9 152.9,193.3 152.9,187.1 135.1,182.1 135.1,177.1 	"/>
	<polyline points="130,186.8 120,202.9 109.2,200.1 112.8,193.3 96.2,189.5 91.9,197.4 79.4,194.9 82.2,186.8 76,185.2 76,172.3 
		130,186.3 	"/>
</g>
</svg>
